<svg width="194" height="58" viewBox="0 0 194 58" fill="none" xmlns="http://www.w3.org/2000/svg">
<g filter="url(#filter0_d)">
<rect x="4" width="186" height="50" rx="25" fill="#FCCF00"/>
<path d="M91.2242 30.925L83.3492 15.15C83.0742 14.65 82.5742 14.325 81.9992 14.325H81.9742C81.3992 14.35 80.8992 14.675 80.6492 15.2L73.3492 30.975C72.9992 31.725 73.3242 32.6 74.0742 32.95C74.2742 33.05 74.4742 33.1 74.6992 33.1C75.2492 33.1 75.7992 32.775 76.0492 32.225L77.8492 28.35C77.8992 28.375 77.9492 28.375 78.0242 28.375H86.5742H86.5992L88.5492 32.275C88.9242 33 89.8242 33.3 90.5492 32.925C91.2992 32.575 91.5992 31.675 91.2242 30.925ZM79.2242 25.375L82.0492 19.275L85.0992 25.375H79.2242ZM100.037 20.45C98.7123 20.45 97.4623 20.85 96.4623 21.55C96.2623 20.95 95.6873 20.5 95.0123 20.5C94.1623 20.5 93.4873 21.175 93.4873 22V37.9C93.4873 38.75 94.1623 39.425 95.0123 39.425C95.8373 39.425 96.5123 38.75 96.5123 37.9V32.05C97.5373 32.7 98.7373 33.1 100.037 33.1C103.512 33.1 106.362 30.275 106.362 26.775C106.362 23.275 103.512 20.45 100.037 20.45ZM100.037 30.075C98.2123 30.075 96.7373 28.6 96.7373 26.775C96.7373 24.95 98.2123 23.475 100.037 23.475C101.837 23.475 103.337 24.95 103.337 26.775C103.337 28.6 101.837 30.075 100.037 30.075ZM119.361 26.675C119.461 26.425 119.561 26.175 119.561 25.95C119.611 25.125 119.161 24.2 118.761 23.5C117.861 22 116.411 20.95 114.711 20.625C114.336 20.55 113.986 20.525 113.611 20.525C110.136 20.525 107.361 23.375 107.361 26.8C107.361 30.275 110.136 33.075 113.611 33.075C115.036 33.075 116.961 32.625 118.336 31.3C118.936 30.725 118.961 29.75 118.361 29.175C117.786 28.575 116.836 28.575 116.236 29.15C115.586 29.775 114.411 30.1 113.611 30.1C112.061 30.1 110.786 29 110.436 27.575H118.136C118.736 27.575 119.161 27.15 119.361 26.675ZM113.611 23.55C114.736 23.55 115.661 24.1 116.161 25.05H110.861C111.461 24.125 112.461 23.55 113.611 23.55Z" fill="white"/>
</g>
<defs>
<filter id="filter0_d" x="0" y="0" width="194" height="58" filterUnits="userSpaceOnUse" color-interpolation-filters="sRGB">
<feFlood flood-opacity="0" result="BackgroundImageFix"/>
<feColorMatrix in="SourceAlpha" type="matrix" values="0 0 0 0 0 0 0 0 0 0 0 0 0 0 0 0 0 0 127 0"/>
<feOffset dy="4"/>
<feGaussianBlur stdDeviation="2"/>
<feColorMatrix type="matrix" values="0 0 0 0 0 0 0 0 0 0 0 0 0 0 0 0 0 0 0.25 0"/>
<feBlend mode="normal" in2="BackgroundImageFix" result="effect1_dropShadow"/>
<feBlend mode="normal" in="SourceGraphic" in2="effect1_dropShadow" result="shape"/>
</filter>
</defs>
</svg>
