<svg width="134" height="40" viewBox="0 0 134 40" fill="none" xmlns="http://www.w3.org/2000/svg">
<g filter="url(#filter0_d)">
<rect x="4.00061" width="125.001" height="31.0234" rx="15.5117" fill="#FCCF00"/>
<rect x="4.00061" width="125.001" height="31.0234" rx="15.5117" fill="url(#paint0_linear)"/>
<rect x="4.00061" width="125.001" height="31.0234" rx="15.5117" stroke="black"/>
<path d="M35.8753 9.83228L41.2993 9.83239C42.2273 9.83241 42.9473 10.0938 43.4593 10.6164C43.982 11.1391 44.2433 11.8325 44.2433 12.6965C44.2433 13.1231 44.1846 13.4858 44.0672 13.7844C43.9606 14.0831 43.8112 14.3284 43.6192 14.5204C43.4379 14.7124 43.2192 14.8564 42.9632 14.9524C42.7179 15.0378 42.4512 15.0857 42.1632 15.0964L42.1632 15.1924C42.4299 15.1924 42.7072 15.2404 42.9952 15.3364C43.2939 15.4324 43.5659 15.5871 43.8112 15.8004C44.0565 16.0031 44.2592 16.2698 44.4192 16.6005C44.5898 16.9311 44.6752 17.3365 44.6752 17.8165C44.6752 18.2538 44.6005 18.6698 44.4511 19.0645C44.3125 19.4485 44.1151 19.7844 43.8591 20.0724C43.6031 20.3604 43.2991 20.5898 42.9471 20.7604C42.5951 20.9204 42.2111 21.0004 41.7951 21.0004L35.8751 21.0003L35.8753 9.83228ZM38.3071 18.9523L41.1071 18.9524C41.4271 18.9524 41.6778 18.8671 41.8591 18.6964C42.0511 18.5151 42.1472 18.2644 42.1472 17.9444L42.1472 17.4004C42.1472 17.0804 42.0512 16.8351 41.8592 16.6644C41.6779 16.4831 41.4272 16.3924 41.1072 16.3924L38.3072 16.3923L38.3071 18.9523ZM38.3072 14.4083L40.7232 14.4084C41.0432 14.4084 41.2939 14.3177 41.4752 14.1364C41.6566 13.9551 41.7472 13.7044 41.7473 13.3844L41.7473 12.9044C41.7473 12.5844 41.6566 12.3337 41.4753 12.1524C41.2939 11.9711 41.0433 11.8804 40.7233 11.8804L38.3073 11.8803L38.3072 14.4083ZM47.6032 11.7045C47.1232 11.7045 46.7712 11.5978 46.5472 11.3845C46.3338 11.1605 46.2272 10.8778 46.2272 10.5365L46.2272 10.1845C46.2272 9.84316 46.3339 9.56583 46.5472 9.3525C46.7712 9.1285 47.1232 9.01651 47.6032 9.01652C48.0832 9.01653 48.4299 9.12854 48.6432 9.35254C48.8672 9.56588 48.9792 9.84321 48.9792 10.1845L48.9792 10.5365C48.9792 10.8779 48.8672 11.1605 48.6432 11.3845C48.4298 11.5979 48.0832 11.7045 47.6032 11.7045ZM46.4191 12.6005L48.7871 12.6005L48.787 21.0005L46.419 21.0005L46.4191 12.6005ZM53.9411 21.0006C53.1198 21.0006 52.4958 20.7926 52.0691 20.3766C51.6531 19.9606 51.4451 19.3526 51.4451 18.5526L51.4452 14.4406L50.2612 14.4406L50.2613 12.6006L50.8533 12.6006C51.1733 12.6006 51.3919 12.5259 51.5093 12.3766C51.6266 12.2166 51.6853 11.9926 51.6853 11.7046L51.6853 10.3286L53.8133 10.3286L53.8133 12.6006L55.4773 12.6007L55.4772 14.4407L53.8132 14.4406L53.8131 19.1606L55.3491 19.1607L55.3491 21.0007L53.9411 21.0006ZM62.2116 19.5928L62.1316 19.5928C62.0676 19.8168 61.9663 20.0301 61.8276 20.2328C61.6889 20.4248 61.5183 20.5955 61.3156 20.7448C61.1236 20.8835 60.8996 20.9901 60.6436 21.0648C60.3983 21.1501 60.1423 21.1928 59.8756 21.1928C58.8089 21.1927 58.0036 20.8194 57.4596 20.0727C56.9156 19.3154 56.6437 18.222 56.6437 16.7927C56.6437 15.3634 56.9157 14.2754 57.4597 13.5287C58.0038 12.7821 58.8091 12.4087 59.8758 12.4088C60.4198 12.4088 60.8998 12.5581 61.3158 12.8568C61.7424 13.1555 62.0144 13.5395 62.1317 14.0088L62.2117 14.0088L62.2118 12.6008L64.5798 12.6009L64.5795 24.2009L62.2115 24.2008L62.2116 19.5928ZM60.6596 19.2728C61.1076 19.2728 61.4756 19.1661 61.7636 18.9528C62.0623 18.7288 62.2116 18.4248 62.2117 18.0408L62.2117 15.5608C62.2117 15.1768 62.0624 14.8781 61.7637 14.6648C61.4757 14.4408 61.1077 14.3288 60.6597 14.3288C60.2117 14.3288 59.8384 14.4888 59.5397 14.8088C59.2517 15.1181 59.1077 15.5394 59.1077 16.0728L59.1077 17.5288C59.1077 18.0621 59.2516 18.4888 59.5396 18.8088C59.8383 19.1181 60.2116 19.2728 60.6596 19.2728ZM71.754 19.593L71.674 19.593C71.5993 19.8063 71.498 20.009 71.37 20.201C71.2526 20.393 71.098 20.5637 70.906 20.713C70.714 20.8623 70.4846 20.9797 70.218 21.065C69.962 21.1503 69.6633 21.193 69.322 21.193C68.458 21.1929 67.802 20.9103 67.354 20.3449C66.9167 19.7689 66.698 18.9476 66.698 17.8809L66.6981 12.6009L69.0661 12.601L69.066 17.673C69.066 18.185 69.1567 18.5796 69.338 18.857C69.5193 19.1343 69.8287 19.273 70.266 19.273C70.4473 19.273 70.6287 19.2463 70.81 19.193C70.9913 19.1397 71.1513 19.065 71.29 18.969C71.4287 18.8623 71.5407 18.7343 71.626 18.585C71.7114 18.4357 71.754 18.2597 71.754 18.057L71.7541 12.601L74.1221 12.6011L74.122 21.0011L71.754 21.001L71.754 19.593ZM79.8292 21.1932C79.1892 21.1932 78.6186 21.0918 78.1172 20.8891C77.6159 20.6758 77.1892 20.3825 76.8372 20.0091C76.4959 19.6251 76.2346 19.1611 76.0533 18.6171C75.8826 18.0731 75.7973 17.4651 75.7973 16.7931C75.7973 16.1318 75.8827 15.5344 76.0533 15.0011C76.224 14.4571 76.4747 13.9931 76.8054 13.6091C77.1467 13.2251 77.5627 12.9318 78.0534 12.7291C78.5441 12.5158 79.1041 12.4092 79.7334 12.4092C80.4267 12.4092 81.0187 12.5265 81.5094 12.7612C82.0107 12.9959 82.416 13.3106 82.7254 13.7052C83.0454 14.0999 83.2747 14.5586 83.4133 15.0812C83.5627 15.5932 83.6373 16.1319 83.6373 16.6973L83.6373 17.4013L78.2453 17.4011L78.2453 17.5291C78.2453 18.0838 78.3946 18.5265 78.6933 18.8572C78.9919 19.1772 79.4613 19.3372 80.1013 19.3372C80.5919 19.3372 80.9919 19.2412 81.3013 19.0492C81.6106 18.8465 81.8986 18.6065 82.1653 18.3292L83.3492 19.8012C82.9759 20.2386 82.4852 20.5799 81.8772 20.8252C81.2799 21.0705 80.5972 21.1932 79.8292 21.1932ZM79.7814 14.1532C79.3014 14.1532 78.9227 14.3132 78.6453 14.6331C78.3787 14.9425 78.2453 15.3585 78.2453 15.8811L78.2453 16.0091L81.1893 16.0092L81.1893 15.8652C81.1893 15.3532 81.072 14.9425 80.8373 14.6332C80.6134 14.3132 80.2614 14.1532 79.7814 14.1532ZM85.3096 21.0013L85.3098 12.6013L87.6778 12.6013L87.6777 14.4253L87.7577 14.4253C87.8004 14.1907 87.8751 13.9667 87.9817 13.7533C88.0884 13.5293 88.2271 13.332 88.3978 13.1613C88.5791 12.9907 88.7924 12.8574 89.0378 12.7614C89.2831 12.6547 89.5711 12.6014 89.9018 12.6014L90.3178 12.6014L90.3177 14.8094L89.7257 14.8094C89.0324 14.8094 88.5151 14.9 88.1737 15.0813C87.843 15.2627 87.6777 15.5987 87.6777 16.0893L87.6776 21.0013L85.3096 21.0013ZM97.0239 12.6015L99.2319 12.6016L95.9997 22.2975C95.7863 22.9482 95.4823 23.4282 95.0877 23.7375C94.7037 24.0468 94.149 24.2015 93.4237 24.2014L91.9517 24.2014L91.9517 22.3614L93.5357 22.3615L93.8237 21.4335L90.8799 12.6014L93.2319 12.6014L94.4638 16.5215L95.0718 18.9535L95.1678 18.9535L95.7918 16.5215L97.0239 12.6015Z" fill="white"/>
</g>
<defs>
<filter id="filter0_d" x="0" y="0" width="133.001" height="39.0259" filterUnits="userSpaceOnUse" color-interpolation-filters="sRGB">
<feFlood flood-opacity="0" result="BackgroundImageFix"/>
<feColorMatrix in="SourceAlpha" type="matrix" values="0 0 0 0 0 0 0 0 0 0 0 0 0 0 0 0 0 0 127 0"/>
<feOffset dy="4"/>
<feGaussianBlur stdDeviation="2"/>
<feColorMatrix type="matrix" values="0 0 0 0 0 0 0 0 0 0 0 0 0 0 0 0 0 0 0.25 0"/>
<feBlend mode="normal" in2="BackgroundImageFix" result="effect1_dropShadow"/>
<feBlend mode="normal" in="SourceGraphic" in2="effect1_dropShadow" result="shape"/>
</filter>
<linearGradient id="paint0_linear" x1="66.5009" y1="0" x2="66.5009" y2="31.0234" gradientUnits="userSpaceOnUse">
<stop offset="0.25" stop-color="#92D1C3"/>
<stop offset="0.484375" stop-color="#DD763E"/>
<stop offset="0.713542" stop-color="#B82B5C"/>
<stop offset="1" stop-color="#9E254E"/>
</linearGradient>
</defs>
</svg>
