<svg width="134" height="40" viewBox="0 0 134 40" fill="none" xmlns="http://www.w3.org/2000/svg">
<g filter="url(#filter0_d)">
<rect x="4.00061" width="125.001" height="31.0234" rx="15.5117" fill="#FCCF00"/>
<path d="M37.2345 9.83231L42.6585 9.83242C43.5865 9.83244 44.3064 10.0938 44.8184 10.6165C45.3411 11.1391 45.6024 11.8325 45.6024 12.6965C45.6024 13.1231 45.5437 13.4858 45.4264 13.7845C45.3197 14.0831 45.1704 14.3285 44.9784 14.5205C44.797 14.7125 44.5784 14.8565 44.3223 14.9525C44.077 15.0378 43.8103 15.0858 43.5223 15.0964L43.5223 15.1924C43.789 15.1924 44.0663 15.2404 44.3543 15.3365C44.653 15.4325 44.925 15.5871 45.1703 15.8005C45.4157 16.0031 45.6183 16.2698 45.7783 16.6005C45.949 16.9312 46.0343 17.3365 46.0343 17.8165C46.0343 18.2538 45.9596 18.6698 45.8103 19.0645C45.6716 19.4485 45.4743 19.7845 45.2182 20.0725C44.9622 20.3605 44.6582 20.5898 44.3062 20.7605C43.9542 20.9204 43.5702 21.0004 43.1542 21.0004L37.2342 21.0003L37.2345 9.83231ZM39.6663 18.9524L42.4663 18.9524C42.7863 18.9524 43.0369 18.8671 43.2183 18.6964C43.4103 18.5151 43.5063 18.2644 43.5063 17.9444L43.5063 17.4004C43.5063 17.0804 43.4103 16.8351 43.2183 16.6644C43.037 16.4831 42.7863 16.3924 42.4663 16.3924L39.6663 16.3924L39.6663 18.9524ZM39.6664 14.4084L42.0824 14.4084C42.4024 14.4084 42.653 14.3178 42.8344 14.1364C43.0157 13.9551 43.1064 13.7044 43.1064 13.3844L43.1064 12.9044C43.1064 12.5844 43.0157 12.3338 42.8344 12.1524C42.6531 11.9711 42.4024 11.8804 42.0824 11.8804L39.6664 11.8804L39.6664 14.4084ZM50.6261 21.1926C49.8154 21.1926 49.1328 21.0646 48.5781 20.8085C48.0234 20.5419 47.5275 20.1685 47.0901 19.6885L48.4822 18.2805C48.7808 18.6112 49.1115 18.8726 49.4741 19.0646C49.8368 19.2566 50.2475 19.3526 50.7061 19.3526C51.1755 19.3526 51.5008 19.2833 51.6821 19.1446C51.8635 18.9953 51.9541 18.7979 51.9542 18.5526C51.9542 18.1579 51.6715 17.9233 51.1062 17.8486L50.1942 17.7366C48.3062 17.5019 47.3622 16.6378 47.3622 15.1445C47.3622 14.7392 47.4369 14.3712 47.5862 14.0405C47.7462 13.6992 47.9649 13.4112 48.2423 13.1765C48.5303 12.9312 48.8716 12.7445 49.2663 12.6166C49.6716 12.4779 50.1249 12.4086 50.6263 12.4086C51.0636 12.4086 51.4476 12.4406 51.7783 12.5046C52.1196 12.5579 52.4183 12.6433 52.6743 12.7606C52.9409 12.8673 53.1809 13.006 53.3943 13.1766C53.6183 13.3366 53.8369 13.518 54.0502 13.7207L52.6902 15.1126C52.4236 14.846 52.1196 14.6379 51.7782 14.4886C51.4476 14.3286 51.1062 14.2486 50.7542 14.2486C50.3489 14.2486 50.0609 14.3126 49.8902 14.4406C49.7196 14.5686 49.6342 14.7392 49.6342 14.9526C49.6342 15.1766 49.6929 15.3526 49.8102 15.4806C49.9382 15.5979 50.1729 15.6832 50.5142 15.7366L51.4582 15.8646C53.3035 16.11 54.2262 16.9527 54.2262 18.3927C54.2261 18.798 54.1408 19.1713 53.9701 19.5126C53.7995 19.854 53.5541 20.1526 53.2341 20.4086C52.9248 20.654 52.5461 20.846 52.0981 20.9846C51.6608 21.1233 51.1701 21.1926 50.6261 21.1926ZM59.2326 21.1928C58.6033 21.1927 58.0433 21.0914 57.5526 20.8887C57.0619 20.6754 56.6513 20.382 56.3206 20.0087C55.99 19.6247 55.7393 19.1607 55.5686 18.6167C55.398 18.0727 55.3127 17.4647 55.3127 16.7927C55.3127 16.1207 55.398 15.518 55.5687 14.9847C55.7394 14.4407 55.9901 13.9767 56.3208 13.5927C56.6514 13.2087 57.0621 12.9154 57.5528 12.7127C58.0434 12.5101 58.6034 12.4087 59.2328 12.4088C60.0861 12.4088 60.7954 12.6008 61.3608 12.9848C61.9368 13.3688 62.3474 13.9075 62.5927 14.6008L60.6727 15.4328C60.5981 15.1128 60.4434 14.8408 60.2087 14.6168C59.9741 14.3928 59.6487 14.2808 59.2327 14.2808C58.7527 14.2807 58.3901 14.4407 58.1447 14.7607C57.8994 15.0701 57.7767 15.4914 57.7767 16.0247L57.7767 17.5927C57.7767 18.1261 57.8993 18.5474 58.1446 18.8567C58.39 19.1661 58.7526 19.3207 59.2326 19.3208C59.6593 19.3208 59.9953 19.2088 60.2406 18.9848C60.4966 18.7501 60.6833 18.4461 60.8007 18.0728L62.6406 18.8728C62.3633 19.6728 61.9313 20.2595 61.3446 20.6328C60.7686 21.0061 60.0646 21.1928 59.2326 21.1928ZM66.9542 21.1929C66.1436 21.1929 65.4609 21.0649 64.9062 20.8089C64.3516 20.5422 63.8556 20.1688 63.4183 19.6888L64.8103 18.2809C65.1089 18.6115 65.4396 18.8729 65.8023 19.0649C66.1649 19.2569 66.5756 19.3529 67.0343 19.3529C67.5036 19.3529 67.8289 19.2836 68.0103 19.1449C68.1916 18.9956 68.2823 18.7983 68.2823 18.5529C68.2823 18.1583 67.9996 17.9236 67.4343 17.8489L66.5223 17.7369C64.6343 17.5022 63.6903 16.6382 63.6903 15.1448C63.6904 14.7395 63.765 14.3715 63.9144 14.0409C64.0744 13.6995 64.293 13.4115 64.5704 13.1769C64.8584 12.9315 65.1997 12.7449 65.5944 12.6169C65.9997 12.4782 66.4531 12.4089 66.9544 12.4089C67.3917 12.4089 67.7757 12.4409 68.1064 12.5049C68.4477 12.5583 68.7464 12.6436 69.0024 12.761C69.2691 12.8676 69.5091 13.0063 69.7224 13.177C69.9464 13.337 70.165 13.5183 70.3784 13.721L69.0183 15.113C68.7517 14.8463 68.4477 14.6383 68.1064 14.4889C67.7757 14.3289 67.4344 14.2489 67.0824 14.2489C66.677 14.2489 66.389 14.3129 66.2184 14.4409C66.0477 14.5689 65.9624 14.7396 65.9623 14.9529C65.9623 15.1769 66.021 15.3529 66.1383 15.4809C66.2663 15.5982 66.501 15.6836 66.8423 15.7369L67.7863 15.8649C69.6317 16.1103 70.5543 16.953 70.5543 18.393C70.5543 18.7983 70.4689 19.1717 70.2983 19.513C70.1276 19.8543 69.8822 20.153 69.5622 20.409C69.2529 20.6543 68.8742 20.8463 68.4262 20.9849C67.9889 21.1236 67.4982 21.1929 66.9542 21.1929ZM75.5607 21.1931C74.9314 21.1931 74.3714 21.0917 73.8807 20.8891C73.3901 20.6757 72.9794 20.3824 72.6487 20.009C72.3181 19.625 72.0674 19.161 71.8968 18.617C71.7261 18.073 71.6408 17.465 71.6408 16.793C71.6408 16.121 71.7262 15.5183 71.8968 14.985C72.0675 14.441 72.3182 13.977 72.6489 13.593C72.9796 13.209 73.3902 12.9157 73.8809 12.7131C74.3716 12.5104 74.9316 12.4091 75.5609 12.4091C76.4142 12.4091 77.1236 12.6011 77.6889 12.9851C78.2649 13.3691 78.6755 13.9078 78.9209 14.6012L77.0008 15.4331C76.9262 15.1131 76.7715 14.8411 76.5369 14.6171C76.3022 14.3931 75.9769 14.2811 75.5609 14.2811C75.0809 14.2811 74.7182 14.4411 74.4729 14.7611C74.2275 15.0704 74.1048 15.4917 74.1048 16.0251L74.1048 17.5931C74.1048 18.1264 74.2274 18.5477 74.4728 18.8571C74.7181 19.1664 75.0808 19.3211 75.5608 19.3211C75.9874 19.3211 76.3234 19.2091 76.5688 18.9851C76.8248 18.7504 77.0114 18.4465 77.1288 18.0731L78.9688 18.8732C78.6914 19.6732 78.2594 20.2598 77.6727 20.6331C77.0967 21.0065 76.3927 21.1931 75.5607 21.1931ZM86.6424 21.0013C86.2157 21.0013 85.8584 20.868 85.5704 20.6013C85.293 20.3346 85.117 19.9773 85.0424 19.5293L84.9464 19.5293C84.8184 20.0733 84.5357 20.4893 84.0984 20.7773C83.661 21.0546 83.1223 21.1932 82.4823 21.1932C81.6397 21.1932 80.9944 20.9692 80.5464 20.5212C80.0984 20.0732 79.8744 19.4812 79.8744 18.7452C79.8744 17.8598 80.1944 17.2038 80.8344 16.7772C81.4851 16.3399 82.3651 16.1212 83.4745 16.1212L84.8025 16.1213L84.8025 15.5933C84.8025 15.1879 84.6958 14.8679 84.4825 14.6333C84.2692 14.3879 83.9118 14.2653 83.4105 14.2652C82.9412 14.2652 82.5678 14.3666 82.2905 14.5692C82.0131 14.7719 81.7838 15.0012 81.6025 15.2572L80.1945 14.0092C80.5358 13.5079 80.9625 13.1185 81.4745 12.8412C81.9972 12.5532 82.7012 12.4092 83.5865 12.4093C84.7812 12.4093 85.6772 12.6706 86.2745 13.1933C86.8718 13.716 87.1705 14.4787 87.1705 15.4813L87.1704 19.1613L87.9544 19.1613L87.9544 21.0013L86.6424 21.0013ZM83.3624 19.5452C83.757 19.5453 84.093 19.4599 84.3704 19.2893C84.6584 19.1186 84.8024 18.8413 84.8024 18.4573L84.8024 17.4653L83.6504 17.4653C82.7224 17.4652 82.2584 17.7799 82.2584 18.4092L82.2584 18.6492C82.2584 18.9586 82.3544 19.1879 82.5464 19.3372C82.7384 19.4759 83.0104 19.5452 83.3624 19.5452ZM89.5437 21.0014L89.5439 12.6014L91.9119 12.6014L91.9119 14.0254L92.0079 14.0254C92.1572 13.5881 92.4186 13.2094 92.7919 12.8894C93.1652 12.5694 93.6826 12.4095 94.3439 12.4095C95.2079 12.4095 95.8586 12.6975 96.2959 13.2735C96.7439 13.8495 96.9679 14.6709 96.9678 15.7375L96.9677 21.0015L94.5997 21.0015L94.5998 15.9295C94.5998 15.3855 94.5145 14.9855 94.3439 14.7295C94.1732 14.4628 93.8692 14.3295 93.4319 14.3294C93.2399 14.3294 93.0532 14.3561 92.8719 14.4094C92.6905 14.4521 92.5252 14.5268 92.3759 14.6334C92.2372 14.7401 92.1252 14.8734 92.0398 15.0334C91.9545 15.1828 91.9118 15.3588 91.9118 15.5614L91.9117 21.0014L89.5437 21.0014Z" fill="black"/>
</g>
<defs>
<filter id="filter0_d" x="0" y="0" width="133.001" height="39.0259" filterUnits="userSpaceOnUse" color-interpolation-filters="sRGB">
<feFlood flood-opacity="0" result="BackgroundImageFix"/>
<feColorMatrix in="SourceAlpha" type="matrix" values="0 0 0 0 0 0 0 0 0 0 0 0 0 0 0 0 0 0 127 0"/>
<feOffset dy="4"/>
<feGaussianBlur stdDeviation="2"/>
<feColorMatrix type="matrix" values="0 0 0 0 0 0 0 0 0 0 0 0 0 0 0 0 0 0 0.25 0"/>
<feBlend mode="normal" in2="BackgroundImageFix" result="effect1_dropShadow"/>
<feBlend mode="normal" in="SourceGraphic" in2="effect1_dropShadow" result="shape"/>
</filter>
</defs>
</svg>
