<svg width="116" height="64" viewBox="0 0 116 64" fill="none" xmlns="http://www.w3.org/2000/svg">
<path d="M35.4286 64C19.9646 64 7.42859 49.6731 7.42859 32C7.42859 14.3269 19.9646 0 35.4286 0C50.8926 0 63.4286 14.3269 63.4286 32C63.4286 49.6731 50.8926 64 35.4286 64Z" fill="#FCCF00"/>
<path d="M7.42859 32C7.42859 15.6549 18.1543 2.18057 32 0.246857C30.8754 0.0902857 29.7326 0 28.5714 0C13.1074 0 0.571442 14.3269 0.571442 32C0.571442 49.6731 13.1074 64 28.5714 64C29.7326 64 30.8754 63.9097 32 63.7531C18.1543 61.8194 7.42859 48.3451 7.42859 32Z" fill="#F4BF1A"/>
<path d="M35.5257 57.7417H35.4275C34.6275 57.7417 33.8217 57.6937 33.0332 57.6C32.4057 57.5246 31.9589 56.9566 32.0332 56.3291C32.1086 55.7017 32.6812 55.264 33.304 55.3303C34.0035 55.4137 34.7177 55.456 35.4275 55.456C36.0595 55.456 36.6195 55.968 36.6195 56.5989C36.6195 57.2297 36.1589 57.7417 35.5257 57.7417ZM42.1715 56.5109C41.7097 56.5109 41.2743 56.2286 41.1017 55.7703C40.8789 55.1794 41.1772 54.52 41.768 54.2983C42.4263 54.0503 43.0835 53.7589 43.7177 53.4332C44.28 53.1429 44.968 53.3657 45.2572 53.928C45.5452 54.4891 45.3235 55.1783 44.7612 55.4663C44.0492 55.832 43.3143 56.1566 42.5737 56.4366C42.4423 56.4869 42.3063 56.5109 42.1715 56.5109ZM26.7029 55.6377C26.5292 55.6377 26.352 55.5977 26.1863 55.5131C25.4835 55.1554 24.7875 54.7543 24.1189 54.3154C23.5909 53.9703 23.4435 53.2629 23.7886 52.7337C24.136 52.2069 24.8423 52.0583 25.3715 52.4034C25.9692 52.7954 26.592 53.1566 27.2206 53.4754C27.7829 53.7612 28.008 54.4491 27.7223 55.0114C27.5212 55.4091 27.1189 55.6377 26.7029 55.6377ZM49.6857 51.5714C49.3955 51.5714 49.104 51.4606 48.8812 51.24C48.4332 50.7954 48.4297 50.072 48.8743 49.624C49.3715 49.1234 49.8549 48.584 50.3109 48.0217C50.7097 47.5326 51.4297 47.4583 51.9189 47.856C52.408 48.2537 52.4835 48.9737 52.0846 49.464C51.5806 50.0834 51.0469 50.6789 50.4972 51.2331C50.2732 51.4583 49.9783 51.5714 49.6857 51.5714ZM19.7223 49.9623C19.392 49.9623 19.064 49.8194 18.8377 49.5452C18.3417 48.9394 17.8652 48.2994 17.4229 47.6423C17.0697 47.1189 17.208 46.408 17.7315 46.0549C18.2537 45.7017 18.9646 45.8389 19.3177 46.3634C19.7212 46.9623 20.1543 47.5452 20.6057 48.0949C21.0057 48.5829 20.9349 49.3029 20.4469 49.704C20.2355 49.8777 19.9772 49.9623 19.7223 49.9623ZM54.7097 44.0914C54.5566 44.0914 54.4023 44.0606 54.2537 43.9966C53.6743 43.744 53.4103 43.0709 53.6617 42.4914C53.9486 41.8354 54.2103 41.1543 54.44 40.4697C54.6412 39.8732 55.2892 39.5497 55.888 39.7509C56.4857 39.9532 56.808 40.6 56.6069 41.1989C56.3554 41.9452 56.0697 42.688 55.7577 43.4046C55.5692 43.8343 55.1486 44.0914 54.7097 44.0914ZM15.3657 42.072C14.8903 42.072 14.4457 41.7714 14.2835 41.2971C14.0309 40.5566 13.8069 39.7943 13.6172 39.0309C13.464 38.4183 13.8366 37.7989 14.4492 37.6469C15.0595 37.4914 15.6823 37.8663 15.8343 38.4789C16.0092 39.1794 16.2149 39.88 16.4469 40.5589C16.6503 41.1566 16.3315 41.8057 15.7349 42.0092C15.6137 42.0514 15.488 42.072 15.3657 42.072ZM56.8686 35.3326C56.8389 35.3326 56.8092 35.3314 56.7794 35.3292C56.1497 35.28 55.68 34.7303 55.728 34.1006C55.7817 33.408 55.8092 32.7006 55.8092 32C55.8092 31.3692 56.3212 30.8206 56.952 30.8206C57.5829 30.8206 58.0949 31.2949 58.0949 31.9257V32C58.0949 32.76 58.0652 33.5257 58.0069 34.2777C57.9612 34.8766 57.4594 35.3326 56.8686 35.3326ZM13.904 33.1554C13.2732 33.1554 12.7612 32.656 12.7612 32.0252V32C12.7612 31.2206 12.792 30.4366 12.8526 29.672C12.9029 29.0434 13.4503 28.5772 14.0823 28.6229C14.712 28.6732 15.1817 29.224 15.1315 29.8526C15.0755 30.5589 15.0469 31.2812 15.0469 32C15.0469 32.6309 14.5349 33.1554 13.904 33.1554ZM56.1166 26.3406C55.6057 26.3406 55.1406 25.9954 55.0103 25.4777C54.8332 24.7749 54.6263 24.0754 54.3932 23.3966C54.1886 22.8 54.5075 22.1497 55.104 21.9452C55.7017 21.7383 56.352 22.0583 56.5555 22.656C56.8092 23.3943 57.0343 24.1554 57.2263 24.9177C57.3806 25.5303 57.0092 26.1509 56.3977 26.3052C56.3052 26.3303 56.2115 26.3406 56.1166 26.3406ZM15.3509 24.264C15.2286 24.264 15.1052 24.2434 14.9829 24.2023C14.3852 24 14.0652 23.3509 14.2675 22.7532C14.52 22.0103 14.8069 21.2686 15.1212 20.5497C15.3749 19.9703 16.0469 19.7086 16.6263 19.96C17.2046 20.2126 17.4686 20.8869 17.216 21.4652C16.9269 22.1246 16.664 22.8057 16.4332 23.4869C16.2697 23.9634 15.8275 24.264 15.3509 24.264ZM52.4595 18.1006C52.0926 18.1006 51.7337 17.9246 51.512 17.5977C51.1075 17.0012 50.6732 16.4194 50.2206 15.8697C49.8195 15.3829 49.8892 14.6617 50.376 14.2606C50.8629 13.8594 51.584 13.9292 51.9852 14.416C52.4823 15.0206 52.96 15.6594 53.4046 16.3166C53.7589 16.8389 53.6217 17.5497 53.0995 17.904C52.9029 18.0366 52.6812 18.1006 52.4595 18.1006ZM19.6892 16.3623C19.4355 16.3623 19.1795 16.2777 18.9669 16.104C18.4777 15.7052 18.4057 14.9852 18.8057 14.496C19.3097 13.8789 19.8446 13.2846 20.3955 12.7303C20.8412 12.2846 21.5646 12.2812 22.0115 12.7257C22.4595 13.1714 22.4617 13.8937 22.0172 14.3417C21.5189 14.8434 21.0332 15.3817 20.5749 15.9429C20.3509 16.2194 20.0217 16.3623 19.6892 16.3623ZM46.0686 11.7566C45.8549 11.7566 45.6389 11.6972 45.4469 11.5714C44.8492 11.1817 44.2252 10.8229 43.5932 10.504C43.0309 10.2194 42.8046 9.53259 43.0892 8.96916C43.3737 8.40802 44.0595 8.1783 44.624 8.46402C45.3303 8.81944 46.0263 9.22059 46.6937 9.65602C47.2229 10.0012 47.3726 10.7097 47.0275 11.2377C46.808 11.5749 46.4435 11.7566 46.0686 11.7566ZM26.6617 10.6709C26.2457 10.6709 25.8446 10.4434 25.6423 10.0469C25.3555 9.48459 25.5795 8.79659 26.1417 8.50973C26.8537 8.14744 27.5897 7.82173 28.3315 7.54516C28.9212 7.32344 29.5806 7.62287 29.8023 8.21487C30.0229 8.80573 29.7235 9.46402 29.1315 9.68573C28.4709 9.93259 27.8137 10.2217 27.1783 10.5463C27.0137 10.6309 26.8355 10.6709 26.6617 10.6709ZM37.64 8.67201C37.5955 8.67201 37.5509 8.66973 37.5063 8.66401C36.8183 8.58401 36.1189 8.54401 35.4275 8.54401C34.7966 8.54401 34.2606 8.03201 34.2606 7.40116C34.2606 6.7703 34.7486 6.2583 35.3795 6.2583H35.4275C36.2069 6.2583 36.9955 6.30402 37.7703 6.3943C38.3966 6.4663 38.8469 7.03316 38.7737 7.66059C38.7075 8.24344 38.2115 8.67201 37.64 8.67201Z" fill="#F4BF1A"/>
<path d="M7.4263 33.1431H0.571442C0.594299 33.9122 0.637727 34.6745 0.707442 35.4288H7.56802C7.49716 34.6745 7.4503 33.9122 7.4263 33.1431Z" fill="#DCA815"/>
<path d="M7.68801 27.4287H0.835438C0.740581 28.1819 0.67201 28.9453 0.625153 29.7144H7.48115C7.52915 28.9453 7.59315 28.1819 7.68801 27.4287Z" fill="#DCA815"/>
<path d="M8.05488 38.8569H1.19659C1.34517 39.6295 1.51659 40.3918 1.71202 41.1426H8.56802C8.37374 40.3918 8.20345 39.6295 8.05488 38.8569Z" fill="#DCA815"/>
<path d="M9.65374 44.5713H2.79202C3.08345 45.3507 3.40574 46.1107 3.74859 46.857H10.6069C10.264 46.1119 9.94517 45.3496 9.65374 44.5713Z" fill="#DCA815"/>
<path d="M8.8823 21.7144H2.03316C1.8103 22.4652 1.6023 23.2252 1.42859 24.0001H8.29373C8.46744 23.2275 8.66059 22.4629 8.8823 21.7144Z" fill="#DCA815"/>
<path d="M11.1589 16H4.30174C3.9246 16.744 3.56917 17.5051 3.2446 18.2857H10.1063C10.4309 17.5063 10.7817 16.744 11.1589 16Z" fill="#DCA815"/>
<path d="M15.8229 9.14307H8.95772C8.30743 9.86992 7.68915 10.6322 7.104 11.4288H13.9669C14.5531 10.6322 15.1726 9.86992 15.8229 9.14307Z" fill="#DCA815"/>
<path d="M22.8114 3.42871H15.9394C14.7714 4.103 13.6514 4.86642 12.584 5.71442H19.4514C20.52 4.86642 21.6423 4.103 22.8114 3.42871Z" fill="#DCA815"/>
<path d="M13.1646 51.4287H6.30402C6.8343 52.2207 7.3943 52.983 7.9863 53.7144H14.8514C14.2594 52.983 13.696 52.2207 13.1646 51.4287Z" fill="#DCA815"/>
<path d="M11.2366 57.1431C12.1543 57.9694 13.1154 58.7362 14.1211 59.4288H20.9943C19.984 58.7351 19.0126 57.9728 18.0914 57.1431H11.2366Z" fill="#DCA815"/>
<g clip-path="url(#clip0)">
<path d="M60.3886 64C44.9246 64 32.3886 49.6731 32.3886 32C32.3886 14.3269 44.9246 0 60.3886 0C75.8526 0 88.3886 14.3269 88.3886 32C88.3886 49.6731 75.8526 64 60.3886 64Z" fill="#FCCF00"/>
<path d="M32.3886 32C32.3886 15.6549 43.1143 2.18057 56.96 0.246857C55.8354 0.0902857 54.6926 0 53.5314 0C38.0674 0 25.5314 14.3269 25.5314 32C25.5314 49.6731 38.0674 64 53.5314 64C54.6926 64 55.8354 63.9097 56.96 63.7531C43.1143 61.8194 32.3886 48.3451 32.3886 32Z" fill="#F4BF1A"/>
<path d="M60.4857 57.7417H60.3874C59.5874 57.7417 58.7817 57.6937 57.9932 57.6C57.3657 57.5246 56.9189 56.9566 56.9932 56.3291C57.0686 55.7017 57.6412 55.264 58.264 55.3303C58.9634 55.4137 59.6777 55.456 60.3874 55.456C61.0194 55.456 61.5794 55.968 61.5794 56.5989C61.5794 57.2297 61.1189 57.7417 60.4857 57.7417ZM67.1314 56.5109C66.6697 56.5109 66.2343 56.2286 66.0617 55.7703C65.8389 55.1794 66.1372 54.52 66.728 54.2983C67.3863 54.0503 68.0434 53.7589 68.6777 53.4332C69.24 53.1429 69.928 53.3657 70.2172 53.928C70.5052 54.4891 70.2834 55.1783 69.7212 55.4663C69.0092 55.832 68.2743 56.1566 67.5337 56.4366C67.4023 56.4869 67.2663 56.5109 67.1314 56.5109ZM51.6629 55.6377C51.4892 55.6377 51.312 55.5977 51.1463 55.5131C50.4434 55.1554 49.7474 54.7543 49.0789 54.3154C48.5509 53.9703 48.4034 53.2629 48.7486 52.7337C49.096 52.2069 49.8023 52.0583 50.3314 52.4034C50.9292 52.7954 51.552 53.1566 52.1806 53.4754C52.7429 53.7612 52.968 54.4491 52.6823 55.0114C52.4812 55.4091 52.0789 55.6377 51.6629 55.6377ZM74.6457 51.5714C74.3554 51.5714 74.064 51.4606 73.8412 51.24C73.3932 50.7954 73.3897 50.072 73.8343 49.624C74.3314 49.1234 74.8149 48.584 75.2709 48.0217C75.6697 47.5326 76.3897 47.4583 76.8789 47.856C77.368 48.2537 77.4434 48.9737 77.0446 49.464C76.5406 50.0834 76.0069 50.6789 75.4572 51.2331C75.2332 51.4583 74.9383 51.5714 74.6457 51.5714ZM44.6823 49.9623C44.352 49.9623 44.024 49.8194 43.7977 49.5452C43.3017 48.9394 42.8252 48.2994 42.3829 47.6423C42.0297 47.1189 42.168 46.408 42.6914 46.0549C43.2137 45.7017 43.9246 45.8389 44.2777 46.3634C44.6812 46.9623 45.1143 47.5452 45.5657 48.0949C45.9657 48.5829 45.8949 49.3029 45.4069 49.704C45.1954 49.8777 44.9372 49.9623 44.6823 49.9623ZM79.6697 44.0914C79.5166 44.0914 79.3623 44.0606 79.2137 43.9966C78.6343 43.744 78.3703 43.0709 78.6217 42.4914C78.9086 41.8354 79.1703 41.1543 79.4 40.4697C79.6012 39.8732 80.2492 39.5497 80.848 39.7509C81.4457 39.9532 81.768 40.6 81.5669 41.1989C81.3154 41.9452 81.0297 42.688 80.7177 43.4046C80.5292 43.8343 80.1086 44.0914 79.6697 44.0914ZM40.3257 42.072C39.8503 42.072 39.4057 41.7714 39.2434 41.2971C38.9909 40.5566 38.7669 39.7943 38.5772 39.0309C38.424 38.4183 38.7966 37.7989 39.4092 37.6469C40.0194 37.4914 40.6423 37.8663 40.7943 38.4789C40.9692 39.1794 41.1749 39.88 41.4069 40.5589C41.6103 41.1566 41.2914 41.8057 40.6949 42.0092C40.5737 42.0514 40.448 42.072 40.3257 42.072ZM81.8286 35.3326C81.7989 35.3326 81.7692 35.3314 81.7394 35.3292C81.1097 35.28 80.64 34.7303 80.688 34.1006C80.7417 33.408 80.7692 32.7006 80.7692 32C80.7692 31.3692 81.2812 30.8206 81.912 30.8206C82.5429 30.8206 83.0549 31.2949 83.0549 31.9257V32C83.0549 32.76 83.0252 33.5257 82.9669 34.2777C82.9212 34.8766 82.4194 35.3326 81.8286 35.3326ZM38.864 33.1554C38.2332 33.1554 37.7212 32.656 37.7212 32.0252V32C37.7212 31.2206 37.752 30.4366 37.8126 29.672C37.8629 29.0434 38.4103 28.5772 39.0423 28.6229C39.672 28.6732 40.1417 29.224 40.0914 29.8526C40.0354 30.5589 40.0069 31.2812 40.0069 32C40.0069 32.6309 39.4949 33.1554 38.864 33.1554ZM81.0766 26.3406C80.5657 26.3406 80.1006 25.9954 79.9703 25.4777C79.7932 24.7749 79.5863 24.0754 79.3532 23.3966C79.1486 22.8 79.4674 22.1497 80.064 21.9452C80.6617 21.7383 81.312 22.0583 81.5154 22.656C81.7692 23.3943 81.9943 24.1554 82.1863 24.9177C82.3406 25.5303 81.9692 26.1509 81.3577 26.3052C81.2652 26.3303 81.1714 26.3406 81.0766 26.3406ZM40.3109 24.264C40.1886 24.264 40.0652 24.2434 39.9429 24.2023C39.3452 24 39.0252 23.3509 39.2274 22.7532C39.48 22.0103 39.7669 21.2686 40.0812 20.5497C40.3349 19.9703 41.0069 19.7086 41.5863 19.96C42.1646 20.2126 42.4286 20.8869 42.176 21.4652C41.8869 22.1246 41.624 22.8057 41.3932 23.4869C41.2297 23.9634 40.7874 24.264 40.3109 24.264ZM77.4194 18.1006C77.0526 18.1006 76.6937 17.9246 76.472 17.5977C76.0674 17.0012 75.6332 16.4194 75.1806 15.8697C74.7794 15.3829 74.8492 14.6617 75.336 14.2606C75.8229 13.8594 76.544 13.9292 76.9452 14.416C77.4423 15.0206 77.92 15.6594 78.3646 16.3166C78.7189 16.8389 78.5817 17.5497 78.0594 17.904C77.8629 18.0366 77.6412 18.1006 77.4194 18.1006ZM44.6492 16.3623C44.3954 16.3623 44.1394 16.2777 43.9269 16.104C43.4377 15.7052 43.3657 14.9852 43.7657 14.496C44.2697 13.8789 44.8046 13.2846 45.3554 12.7303C45.8012 12.2846 46.5246 12.2812 46.9714 12.7257C47.4194 13.1714 47.4217 13.8937 46.9772 14.3417C46.4789 14.8434 45.9932 15.3817 45.5349 15.9429C45.3109 16.2194 44.9817 16.3623 44.6492 16.3623ZM71.0286 11.7566C70.8149 11.7566 70.5989 11.6972 70.4069 11.5714C69.8092 11.1817 69.1852 10.8229 68.5532 10.504C67.9909 10.2194 67.7646 9.53259 68.0492 8.96916C68.3337 8.40802 69.0194 8.1783 69.584 8.46402C70.2903 8.81944 70.9863 9.22059 71.6537 9.65602C72.1829 10.0012 72.3326 10.7097 71.9874 11.2377C71.768 11.5749 71.4034 11.7566 71.0286 11.7566ZM51.6217 10.6709C51.2057 10.6709 50.8046 10.4434 50.6023 10.0469C50.3154 9.48459 50.5394 8.79659 51.1017 8.50973C51.8137 8.14744 52.5497 7.82173 53.2914 7.54516C53.8812 7.32344 54.5406 7.62287 54.7623 8.21487C54.9829 8.80573 54.6834 9.46402 54.0914 9.68573C53.4309 9.93259 52.7737 10.2217 52.1383 10.5463C51.9737 10.6309 51.7954 10.6709 51.6217 10.6709ZM62.6 8.67201C62.5554 8.67201 62.5109 8.66973 62.4663 8.66401C61.7783 8.58401 61.0789 8.54401 60.3874 8.54401C59.7566 8.54401 59.2206 8.03201 59.2206 7.40116C59.2206 6.7703 59.7086 6.2583 60.3394 6.2583H60.3874C61.1669 6.2583 61.9554 6.30402 62.7303 6.3943C63.3566 6.4663 63.8069 7.03316 63.7337 7.66059C63.6674 8.24344 63.1714 8.67201 62.6 8.67201Z" fill="#F4BF1A"/>
<path d="M32.3863 33.1431H25.5314C25.5543 33.9122 25.5977 34.6745 25.6674 35.4288H32.528C32.4571 34.6745 32.4103 33.9122 32.3863 33.1431Z" fill="#DCA815"/>
<path d="M32.648 27.4287H25.7954C25.7006 28.1819 25.632 28.9453 25.5851 29.7144H32.4411C32.4891 28.9453 32.5531 28.1819 32.648 27.4287Z" fill="#DCA815"/>
<path d="M33.0149 38.8569H26.1566C26.3052 39.6295 26.4766 40.3918 26.672 41.1426H33.528C33.3337 40.3918 33.1634 39.6295 33.0149 38.8569Z" fill="#DCA815"/>
<path d="M34.6137 44.5713H27.752C28.0434 45.3507 28.3657 46.1107 28.7086 46.857H35.5669C35.224 46.1119 34.9052 45.3496 34.6137 44.5713Z" fill="#DCA815"/>
<path d="M33.8423 21.7144H26.9932C26.7703 22.4652 26.5623 23.2252 26.3886 24.0001H33.2537C33.4274 23.2275 33.6206 22.4629 33.8423 21.7144Z" fill="#DCA815"/>
<path d="M36.1189 16H29.2617C28.8846 16.744 28.5292 17.5051 28.2046 18.2857H35.0663C35.3909 17.5063 35.7417 16.744 36.1189 16Z" fill="#DCA815"/>
<path d="M40.7829 9.14307H33.9177C33.2674 9.86992 32.6491 10.6322 32.064 11.4288H38.9269C39.5131 10.6322 40.1326 9.86992 40.7829 9.14307Z" fill="#DCA815"/>
<path d="M47.7714 3.42871H40.8994C39.7314 4.103 38.6114 4.86642 37.544 5.71442H44.4114C45.48 4.86642 46.6023 4.103 47.7714 3.42871Z" fill="#DCA815"/>
<path d="M38.1246 51.4287H31.264C31.7943 52.2207 32.3543 52.983 32.9463 53.7144H39.8114C39.2194 52.983 38.656 52.2207 38.1246 51.4287Z" fill="#DCA815"/>
<path d="M36.1966 57.1431C37.1143 57.9694 38.0755 58.7362 39.0812 59.4288H45.9543C44.944 58.7351 43.9726 57.9728 43.0515 57.1431H36.1966Z" fill="#DCA815"/>
</g>
<g clip-path="url(#clip1)">
<path d="M86.6286 64C71.1646 64 58.6286 49.6731 58.6286 32C58.6286 14.3269 71.1646 0 86.6286 0C102.093 0 114.629 14.3269 114.629 32C114.629 49.6731 102.093 64 86.6286 64Z" fill="#FCCF00"/>
<path d="M58.6286 32C58.6286 15.6549 69.3543 2.18057 83.2 0.246857C82.0755 0.0902857 80.9326 0 79.7715 0C64.3075 0 51.7715 14.3269 51.7715 32C51.7715 49.6731 64.3075 64 79.7715 64C80.9326 64 82.0755 63.9097 83.2 63.7531C69.3543 61.8194 58.6286 48.3451 58.6286 32Z" fill="#F4BF1A"/>
<path d="M86.7257 57.7417H86.6275C85.8275 57.7417 85.0218 57.6937 84.2332 57.6C83.6058 57.5246 83.1589 56.9566 83.2332 56.3291C83.3086 55.7017 83.8812 55.264 84.504 55.3303C85.2035 55.4137 85.9178 55.456 86.6275 55.456C87.2595 55.456 87.8195 55.968 87.8195 56.5989C87.8195 57.2297 87.3589 57.7417 86.7257 57.7417ZM93.3715 56.5109C92.9098 56.5109 92.4743 56.2286 92.3018 55.7703C92.0789 55.1794 92.3772 54.52 92.968 54.2983C93.6263 54.0503 94.2835 53.7589 94.9177 53.4332C95.48 53.1429 96.168 53.3657 96.4572 53.928C96.7452 54.4891 96.5235 55.1783 95.9612 55.4663C95.2492 55.832 94.5143 56.1566 93.7738 56.4366C93.6423 56.4869 93.5063 56.5109 93.3715 56.5109ZM77.9029 55.6377C77.7292 55.6377 77.552 55.5977 77.3863 55.5131C76.6835 55.1554 75.9875 54.7543 75.3189 54.3154C74.7909 53.9703 74.6435 53.2629 74.9886 52.7337C75.336 52.2069 76.0423 52.0583 76.5715 52.4034C77.1692 52.7954 77.792 53.1566 78.4206 53.4754C78.9829 53.7612 79.208 54.4491 78.9223 55.0114C78.7212 55.4091 78.3189 55.6377 77.9029 55.6377ZM100.886 51.5714C100.595 51.5714 100.304 51.4606 100.081 51.24C99.6332 50.7954 99.6297 50.072 100.074 49.624C100.571 49.1234 101.055 48.584 101.511 48.0217C101.91 47.5326 102.63 47.4583 103.119 47.856C103.608 48.2537 103.683 48.9737 103.285 49.464C102.781 50.0834 102.247 50.6789 101.697 51.2331C101.473 51.4583 101.178 51.5714 100.886 51.5714ZM70.9223 49.9623C70.592 49.9623 70.264 49.8194 70.0378 49.5452C69.5418 48.9394 69.0652 48.2994 68.6229 47.6423C68.2698 47.1189 68.408 46.408 68.9315 46.0549C69.4538 45.7017 70.1646 45.8389 70.5178 46.3634C70.9212 46.9623 71.3543 47.5452 71.8058 48.0949C72.2058 48.5829 72.1349 49.3029 71.6469 49.704C71.4355 49.8777 71.1772 49.9623 70.9223 49.9623ZM105.91 44.0914C105.757 44.0914 105.602 44.0606 105.454 43.9966C104.874 43.744 104.61 43.0709 104.862 42.4914C105.149 41.8354 105.41 41.1543 105.64 40.4697C105.841 39.8732 106.489 39.5497 107.088 39.7509C107.686 39.9532 108.008 40.6 107.807 41.1989C107.555 41.9452 107.27 42.688 106.958 43.4046C106.769 43.8343 106.349 44.0914 105.91 44.0914ZM66.5658 42.072C66.0903 42.072 65.6458 41.7714 65.4835 41.2971C65.2309 40.5566 65.0069 39.7943 64.8172 39.0309C64.664 38.4183 65.0366 37.7989 65.6492 37.6469C66.2595 37.4914 66.8823 37.8663 67.0343 38.4789C67.2092 39.1794 67.4149 39.88 67.6469 40.5589C67.8503 41.1566 67.5315 41.8057 66.9349 42.0092C66.8138 42.0514 66.688 42.072 66.5658 42.072ZM108.069 35.3326C108.039 35.3326 108.009 35.3314 107.979 35.3292C107.35 35.28 106.88 34.7303 106.928 34.1006C106.982 33.408 107.009 32.7006 107.009 32C107.009 31.3692 107.521 30.8206 108.152 30.8206C108.783 30.8206 109.295 31.2949 109.295 31.9257V32C109.295 32.76 109.265 33.5257 109.207 34.2777C109.161 34.8766 108.659 35.3326 108.069 35.3326ZM65.104 33.1554C64.4732 33.1554 63.9612 32.656 63.9612 32.0252V32C63.9612 31.2206 63.992 30.4366 64.0526 29.672C64.1029 29.0434 64.6503 28.5772 65.2823 28.6229C65.912 28.6732 66.3818 29.224 66.3315 29.8526C66.2755 30.5589 66.2469 31.2812 66.2469 32C66.2469 32.6309 65.7349 33.1554 65.104 33.1554ZM107.317 26.3406C106.806 26.3406 106.341 25.9954 106.21 25.4777C106.033 24.7749 105.826 24.0754 105.593 23.3966C105.389 22.8 105.707 22.1497 106.304 21.9452C106.902 21.7383 107.552 22.0583 107.755 22.656C108.009 23.3943 108.234 24.1554 108.426 24.9177C108.581 25.5303 108.209 26.1509 107.598 26.3052C107.505 26.3303 107.411 26.3406 107.317 26.3406ZM66.5509 24.264C66.4286 24.264 66.3052 24.2434 66.1829 24.2023C65.5852 24 65.2652 23.3509 65.4675 22.7532C65.72 22.0103 66.0069 21.2686 66.3212 20.5497C66.5749 19.9703 67.2469 19.7086 67.8263 19.96C68.4046 20.2126 68.6686 20.8869 68.416 21.4652C68.1269 22.1246 67.864 22.8057 67.6332 23.4869C67.4698 23.9634 67.0275 24.264 66.5509 24.264ZM103.659 18.1006C103.293 18.1006 102.934 17.9246 102.712 17.5977C102.307 17.0012 101.873 16.4194 101.421 15.8697C101.019 15.3829 101.089 14.6617 101.576 14.2606C102.063 13.8594 102.784 13.9292 103.185 14.416C103.682 15.0206 104.16 15.6594 104.605 16.3166C104.959 16.8389 104.822 17.5497 104.299 17.904C104.103 18.0366 103.881 18.1006 103.659 18.1006ZM70.8892 16.3623C70.6355 16.3623 70.3795 16.2777 70.1669 16.104C69.6778 15.7052 69.6058 14.9852 70.0058 14.496C70.5098 13.8789 71.0446 13.2846 71.5955 12.7303C72.0412 12.2846 72.7646 12.2812 73.2115 12.7257C73.6595 13.1714 73.6618 13.8937 73.2172 14.3417C72.7189 14.8434 72.2332 15.3817 71.7749 15.9429C71.5509 16.2194 71.2218 16.3623 70.8892 16.3623ZM97.2686 11.7566C97.0549 11.7566 96.8389 11.6972 96.6469 11.5714C96.0492 11.1817 95.4252 10.8229 94.7932 10.504C94.2309 10.2194 94.0046 9.53259 94.2892 8.96916C94.5737 8.40802 95.2595 8.1783 95.824 8.46402C96.5303 8.81944 97.2263 9.22059 97.8937 9.65602C98.4229 10.0012 98.5726 10.7097 98.2275 11.2377C98.008 11.5749 97.6435 11.7566 97.2686 11.7566ZM77.8618 10.6709C77.4458 10.6709 77.0446 10.4434 76.8423 10.0469C76.5555 9.48459 76.7795 8.79659 77.3418 8.50973C78.0538 8.14744 78.7898 7.82173 79.5315 7.54516C80.1212 7.32344 80.7806 7.62287 81.0023 8.21487C81.2229 8.80573 80.9235 9.46402 80.3315 9.68573C79.6709 9.93259 79.0138 10.2217 78.3783 10.5463C78.2138 10.6309 78.0355 10.6709 77.8618 10.6709ZM88.84 8.67201C88.7955 8.67201 88.7509 8.66973 88.7063 8.66401C88.0183 8.58401 87.3189 8.54401 86.6275 8.54401C85.9966 8.54401 85.4606 8.03201 85.4606 7.40116C85.4606 6.7703 85.9486 6.2583 86.5795 6.2583H86.6275C87.4069 6.2583 88.1955 6.30402 88.9703 6.3943C89.5966 6.4663 90.0469 7.03316 89.9737 7.66059C89.9075 8.24344 89.4115 8.67201 88.84 8.67201Z" fill="#F4BF1A"/>
<path d="M58.6263 33.1431H51.7715C51.7943 33.9122 51.8377 34.6745 51.9075 35.4288H58.768C58.6972 34.6745 58.6503 33.9122 58.6263 33.1431Z" fill="#DCA815"/>
<path d="M58.888 27.4287H52.0355C51.9406 28.1819 51.872 28.9453 51.8252 29.7144H58.6812C58.7292 28.9453 58.7932 28.1819 58.888 27.4287Z" fill="#DCA815"/>
<path d="M59.2549 38.8569H52.3966C52.5452 39.6295 52.7166 40.3918 52.912 41.1426H59.768C59.5738 40.3918 59.4035 39.6295 59.2549 38.8569Z" fill="#DCA815"/>
<path d="M60.8537 44.5713H53.992C54.2835 45.3507 54.6057 46.1107 54.9486 46.857H61.8069C61.464 46.1119 61.1452 45.3496 60.8537 44.5713Z" fill="#DCA815"/>
<path d="M60.0823 21.7144H53.2332C53.0103 22.4652 52.8023 23.2252 52.6286 24.0001H59.4937C59.6675 23.2275 59.8606 22.4629 60.0823 21.7144Z" fill="#DCA815"/>
<path d="M62.3589 16H55.5018C55.1246 16.744 54.7692 17.5051 54.4446 18.2857H61.3063C61.6309 17.5063 61.9818 16.744 62.3589 16Z" fill="#DCA815"/>
<path d="M67.0229 9.14307H60.1577C59.5074 9.86992 58.8892 10.6322 58.304 11.4288H65.1669C65.7532 10.6322 66.3726 9.86992 67.0229 9.14307Z" fill="#DCA815"/>
<path d="M74.0115 3.42871H67.1395C65.9715 4.103 64.8515 4.86642 63.784 5.71442H70.6515C71.72 4.86642 72.8423 4.103 74.0115 3.42871Z" fill="#DCA815"/>
<path d="M64.3646 51.4287H57.504C58.0343 52.2207 58.5943 52.983 59.1863 53.7144H66.0515C65.4595 52.983 64.896 52.2207 64.3646 51.4287Z" fill="#DCA815"/>
<path d="M62.4366 57.1431C63.3543 57.9694 64.3154 58.7362 65.3212 59.4288H72.1943C71.184 58.7351 70.2126 57.9728 69.2914 57.1431H62.4366Z" fill="#DCA815"/>
</g>
<defs>
<clipPath id="clip0">
<rect width="64" height="64" fill="white" transform="translate(24.96)"/>
</clipPath>
<clipPath id="clip1">
<rect width="64" height="64" fill="white" transform="translate(51.2)"/>
</clipPath>
</defs>
</svg>
