<svg width="214" height="68" viewBox="0 0 214 68" fill="none" xmlns="http://www.w3.org/2000/svg">
<g filter="url(#filter0_d)">
<rect x="4" width="206" height="60" rx="30" fill="#FCCF00"/>
<path d="M61.525 39.925C59.875 39.925 58.35 39.3 57.175 38.175C55.975 37 55.3 35.45 55.25 33.775C55.225 32.125 55.825 30.525 57.025 29.325C58.175 28.125 59.725 27.45 61.4 27.4C63.075 27.375 64.65 28 65.85 29.175C66.45 29.725 66.475 30.7 65.9 31.275C65.325 31.875 64.375 31.9 63.775 31.325C63.15 30.725 62.325 30.4 61.45 30.4C60.575 30.4 59.775 30.775 59.15 31.4C58.575 32.025 58.225 32.85 58.25 33.725C58.25 34.575 58.625 35.425 59.25 36C59.875 36.625 60.7 36.95 61.55 36.925C62.375 36.925 63.15 36.6 63.75 36.05C64.325 35.475 65.3 35.525 65.85 36.125C66.425 36.725 66.375 37.675 65.775 38.25C64.65 39.3 63.175 39.9 61.625 39.925H61.525ZM74.2389 39.95C70.7889 39.95 67.9639 37.15 67.9639 33.675C67.9639 30.225 70.7889 27.4 74.2389 27.4C77.6889 27.4 80.5139 30.225 80.5389 33.7C80.5139 37.15 77.6889 39.95 74.2389 39.95ZM74.2389 30.475C72.4639 30.475 71.0389 31.9 71.0389 33.675C71.0389 35.45 72.4639 36.875 74.2389 36.875C76.0139 36.875 77.4389 35.45 77.4389 33.675C77.4389 31.9 76.0139 30.475 74.2389 30.475ZM88.2508 27.525C87.1258 27.525 86.1008 27.85 85.2008 28.425C85.0008 27.825 84.4508 27.4 83.8008 27.4C82.9758 27.4 82.3008 28.075 82.3008 28.9V38.45C82.3008 39.275 82.9758 39.95 83.8008 39.95C84.6258 39.95 85.3008 39.275 85.3008 38.45V34.2C85.3008 32.475 86.3008 30.525 88.2508 30.525C89.8258 30.525 91.1258 31.95 91.1258 33.725V38.45C91.1258 39.275 91.7758 39.95 92.6258 39.95C93.4508 39.95 94.1008 39.275 94.1008 38.45V33.725C94.1008 30.3 91.4758 27.525 88.2508 27.525ZM101.148 36.925C100.973 36.925 100.748 36.95 100.623 36.825C100.448 36.675 100.498 36.375 100.448 36.175V30.225H101.273C102.098 30.225 102.773 29.55 102.773 28.725C102.773 27.9 102.098 27.225 101.273 27.225H100.448V22.45C100.448 21.625 99.7727 20.95 98.9477 20.95C98.1227 20.95 97.4477 21.625 97.4477 22.45V27.225H96.3727C95.5477 27.225 94.8727 27.9 94.8727 28.725C94.8727 29.55 95.5477 30.225 96.3727 30.225H97.4477V36.525C97.4477 37.3 97.7977 38.2 98.2977 38.775C98.8727 39.425 99.6727 39.775 100.498 39.9C100.723 39.925 100.923 39.925 101.148 39.925C101.973 39.925 102.648 39.275 102.648 38.425C102.648 37.6 101.973 36.925 101.148 36.925ZM106.221 25.325C105.346 25.325 104.646 24.625 104.646 23.8V23.675C104.646 22.8 105.346 22.125 106.221 22.125C107.046 22.125 107.746 22.8 107.746 23.675V23.8C107.746 24.625 107.046 25.325 106.221 25.325ZM106.221 40C105.346 40 104.646 39.3 104.646 38.45V28.8C104.646 27.95 105.346 27.275 106.221 27.275C107.046 27.275 107.746 27.95 107.746 28.8V38.45C107.746 39.3 107.046 40 106.221 40ZM115.936 27.525C114.811 27.525 113.786 27.85 112.886 28.425C112.686 27.825 112.136 27.4 111.486 27.4C110.661 27.4 109.986 28.075 109.986 28.9V38.45C109.986 39.275 110.661 39.95 111.486 39.95C112.311 39.95 112.986 39.275 112.986 38.45V34.2C112.986 32.475 113.986 30.525 115.936 30.525C117.511 30.525 118.811 31.95 118.811 33.725V38.45C118.811 39.275 119.461 39.95 120.311 39.95C121.136 39.95 121.786 39.275 121.786 38.45V33.725C121.786 30.3 119.161 27.525 115.936 27.525ZM129.583 40.075C126.333 40.075 123.658 37.25 123.658 33.8V29.025C123.658 28.2 124.283 27.525 125.058 27.525C125.858 27.525 126.633 28.2 126.633 29.025V33.8C126.633 35.6 128.133 37.05 129.583 37.05C131.283 37.05 132.558 35.6 132.558 33.8V29.225C132.558 28.375 133.433 27.725 134.108 27.725C134.883 27.725 135.533 28.375 135.533 29.225V33.8C135.533 37.25 132.858 40.075 129.583 40.075ZM148.9 33.675C149 33.425 149.1 33.175 149.1 32.95C149.15 32.125 148.7 31.2 148.3 30.5C147.4 29 145.95 27.95 144.25 27.625C143.875 27.55 143.525 27.525 143.15 27.525C139.675 27.525 136.9 30.375 136.9 33.8C136.9 37.275 139.675 40.075 143.15 40.075C144.575 40.075 146.5 39.625 147.875 38.3C148.475 37.725 148.5 36.75 147.9 36.175C147.325 35.575 146.375 35.575 145.775 36.15C145.125 36.775 143.95 37.1 143.15 37.1C141.6 37.1 140.325 36 139.975 34.575H147.675C148.275 34.575 148.7 34.15 148.9 33.675ZM143.15 30.55C144.275 30.55 145.2 31.1 145.7 32.05H140.4C141 31.125 142 30.55 143.15 30.55ZM152.44 40.025H152.24C151.39 40.025 150.715 39.325 150.715 38.425C150.715 37.525 151.39 36.775 152.24 36.775H152.44C153.265 36.775 153.965 37.525 153.965 38.425C153.965 39.325 153.265 40.025 152.44 40.025ZM158.202 40.025H158.002C157.152 40.025 156.477 39.325 156.477 38.425C156.477 37.525 157.152 36.775 158.002 36.775H158.202C159.027 36.775 159.727 37.525 159.727 38.425C159.727 39.325 159.027 40.025 158.202 40.025ZM163.963 40.025H163.763C162.913 40.025 162.238 39.325 162.238 38.425C162.238 37.525 162.913 36.775 163.763 36.775H163.963C164.788 36.775 165.488 37.525 165.488 38.425C165.488 39.325 164.788 40.025 163.963 40.025Z" fill="#015F4D"/>
</g>
<defs>
<filter id="filter0_d" x="0" y="0" width="214" height="68" filterUnits="userSpaceOnUse" color-interpolation-filters="sRGB">
<feFlood flood-opacity="0" result="BackgroundImageFix"/>
<feColorMatrix in="SourceAlpha" type="matrix" values="0 0 0 0 0 0 0 0 0 0 0 0 0 0 0 0 0 0 127 0"/>
<feOffset dy="4"/>
<feGaussianBlur stdDeviation="2"/>
<feColorMatrix type="matrix" values="0 0 0 0 0 0 0 0 0 0 0 0 0 0 0 0 0 0 0.25 0"/>
<feBlend mode="normal" in2="BackgroundImageFix" result="effect1_dropShadow"/>
<feBlend mode="normal" in="SourceGraphic" in2="effect1_dropShadow" result="shape"/>
</filter>
</defs>
</svg>
