<svg width="198" height="38" viewBox="0 0 198 38" fill="none" xmlns="http://www.w3.org/2000/svg">
<rect width="198" height="38" fill="#7837AB"/>
<path d="M28.5386 27V9.49512H33.3726C39.5412 9.49512 42.6255 12.3394 42.6255 18.0278C42.6255 20.7297 41.7669 22.9025 40.0498 24.5464C38.3408 26.1821 36.05 27 33.1772 27H28.5386ZM30.5894 11.3506V25.1445H33.2017C35.4966 25.1445 37.2829 24.5301 38.5605 23.3013C39.8382 22.0724 40.4771 20.3309 40.4771 18.0767C40.4771 13.5926 38.0926 11.3506 33.3237 11.3506H30.5894ZM55.8457 21.2505H47.02C47.0526 22.6421 47.4269 23.7163 48.1431 24.4731C48.8592 25.23 49.8439 25.6084 51.0972 25.6084C52.505 25.6084 53.799 25.1445 54.979 24.2168V26.0967C53.8804 26.8942 52.4277 27.293 50.6211 27.293C48.8551 27.293 47.4676 26.7274 46.4585 25.5962C45.4494 24.4569 44.9448 22.8577 44.9448 20.7988C44.9448 18.8538 45.4941 17.271 46.5928 16.0503C47.6995 14.8215 49.0708 14.207 50.7065 14.207C52.3423 14.207 53.6077 14.736 54.5029 15.7939C55.3981 16.8519 55.8457 18.3208 55.8457 20.2007V21.2505ZM53.7949 19.5537C53.7868 18.3981 53.506 17.4989 52.9526 16.856C52.4074 16.2131 51.6465 15.8916 50.6699 15.8916C49.7259 15.8916 48.9243 16.2293 48.2651 16.9048C47.606 17.5802 47.1991 18.4632 47.0444 19.5537H53.7949ZM67.4058 26.4263C66.4455 27.0041 65.3062 27.293 63.9878 27.293C62.2056 27.293 60.7651 26.7152 59.6665 25.5596C58.576 24.3958 58.0308 22.8903 58.0308 21.043C58.0308 18.984 58.6208 17.332 59.8008 16.0869C60.9808 14.8337 62.5555 14.207 64.5249 14.207C65.6235 14.207 66.592 14.4105 67.4302 14.8174V16.8682C66.5024 16.2171 65.5096 15.8916 64.4517 15.8916C63.174 15.8916 62.1242 16.3514 61.3022 17.271C60.4884 18.1825 60.0815 19.3828 60.0815 20.8721C60.0815 22.3369 60.464 23.4925 61.229 24.3389C62.0021 25.1852 63.0356 25.6084 64.3296 25.6084C65.4201 25.6084 66.4455 25.2463 67.4058 24.522V26.4263ZM80.4795 21.2505H71.6538C71.6864 22.6421 72.0607 23.7163 72.7769 24.4731C73.493 25.23 74.4777 25.6084 75.731 25.6084C77.1388 25.6084 78.4328 25.1445 79.6128 24.2168V26.0967C78.5142 26.8942 77.0615 27.293 75.2549 27.293C73.4889 27.293 72.1014 26.7274 71.0923 25.5962C70.0832 24.4569 69.5786 22.8577 69.5786 20.7988C69.5786 18.8538 70.1279 17.271 71.2266 16.0503C72.3333 14.8215 73.7046 14.207 75.3403 14.207C76.9761 14.207 78.2415 14.736 79.1367 15.7939C80.0319 16.8519 80.4795 18.3208 80.4795 20.2007V21.2505ZM78.4287 19.5537C78.4206 18.3981 78.1398 17.4989 77.5864 16.856C77.0412 16.2131 76.2803 15.8916 75.3037 15.8916C74.3597 15.8916 73.5581 16.2293 72.8989 16.9048C72.2397 17.5802 71.8328 18.4632 71.6782 19.5537H78.4287ZM93.895 27H91.8931V19.8711C91.8931 17.2181 90.9246 15.8916 88.9878 15.8916C87.9868 15.8916 87.1567 16.27 86.4976 17.0269C85.8465 17.7756 85.521 18.7236 85.521 19.8711V27H83.519V14.5H85.521V16.5752H85.5698C86.5138 14.9964 87.881 14.207 89.6714 14.207C91.0386 14.207 92.0843 14.6506 92.8086 15.5376C93.5329 16.4165 93.895 17.6901 93.895 19.3584V27ZM103.478 26.8779C103.006 27.1383 102.383 27.2686 101.61 27.2686C99.4207 27.2686 98.3262 26.0479 98.3262 23.6064V16.209H96.1777V14.5H98.3262V11.4482L100.328 10.8013V14.5H103.478V16.209H100.328V23.2524C100.328 24.0907 100.471 24.6888 100.755 25.0469C101.04 25.4049 101.512 25.584 102.171 25.584C102.676 25.584 103.111 25.4456 103.478 25.1689V26.8779ZM112.669 16.5264C112.319 16.2578 111.815 16.1235 111.156 16.1235C110.301 16.1235 109.585 16.5264 109.007 17.332C108.438 18.1377 108.153 19.2363 108.153 20.6279V27H106.151V14.5H108.153V17.0757H108.202C108.486 16.1968 108.922 15.5132 109.508 15.0249C110.094 14.5285 110.749 14.2803 111.473 14.2803C111.994 14.2803 112.393 14.3372 112.669 14.4512V16.5264ZM123.79 27H121.788V25.0469H121.739C120.868 26.5443 119.587 27.293 117.894 27.293C116.649 27.293 115.672 26.9634 114.964 26.3042C114.264 25.645 113.915 24.7702 113.915 23.6797C113.915 21.3441 115.29 19.985 118.041 19.6025L121.788 19.0776C121.788 16.9536 120.93 15.8916 119.212 15.8916C117.707 15.8916 116.348 16.4043 115.135 17.4297V15.3789C116.364 14.5977 117.78 14.207 119.383 14.207C122.321 14.207 123.79 15.7614 123.79 18.8701V27ZM121.788 20.6768L118.773 21.0918C117.845 21.222 117.145 21.4539 116.673 21.7876C116.201 22.1131 115.965 22.695 115.965 23.5332C115.965 24.1436 116.181 24.644 116.612 25.0347C117.052 25.4172 117.634 25.6084 118.358 25.6084C119.351 25.6084 120.169 25.2625 120.812 24.5708C121.463 23.8709 121.788 22.988 121.788 21.9219V20.6768ZM129.564 27H127.562V8.49414H129.564V27ZM134.642 11.3262C134.284 11.3262 133.979 11.2041 133.727 10.96C133.474 10.7158 133.348 10.4066 133.348 10.0322C133.348 9.65788 133.474 9.34863 133.727 9.10449C133.979 8.85221 134.284 8.72607 134.642 8.72607C135.008 8.72607 135.318 8.85221 135.57 9.10449C135.83 9.34863 135.96 9.65788 135.96 10.0322C135.96 10.3903 135.83 10.6955 135.57 10.9478C135.318 11.2 135.008 11.3262 134.642 11.3262ZM135.619 27H133.617V14.5H135.619V27ZM148.387 15.0737L140.99 25.291H148.314V27H138.048V26.3774L145.445 16.209H138.744V14.5H148.387V15.0737ZM161.021 21.2505H152.196C152.228 22.6421 152.603 23.7163 153.319 24.4731C154.035 25.23 155.02 25.6084 156.273 25.6084C157.681 25.6084 158.975 25.1445 160.155 24.2168V26.0967C159.056 26.8942 157.604 27.293 155.797 27.293C154.031 27.293 152.643 26.7274 151.634 25.5962C150.625 24.4569 150.121 22.8577 150.121 20.7988C150.121 18.8538 150.67 17.271 151.769 16.0503C152.875 14.8215 154.247 14.207 155.882 14.207C157.518 14.207 158.784 14.736 159.679 15.7939C160.574 16.8519 161.021 18.3208 161.021 20.2007V21.2505ZM158.971 19.5537C158.963 18.3981 158.682 17.4989 158.128 16.856C157.583 16.2131 156.822 15.8916 155.846 15.8916C154.902 15.8916 154.1 16.2293 153.441 16.9048C152.782 17.5802 152.375 18.4632 152.22 19.5537H158.971ZM174.73 27H172.728V24.876H172.679C171.751 26.4873 170.319 27.293 168.382 27.293C166.812 27.293 165.554 26.7355 164.61 25.6206C163.674 24.4976 163.207 22.9717 163.207 21.043C163.207 18.9759 163.727 17.3198 164.769 16.0747C165.811 14.8296 167.198 14.207 168.932 14.207C170.649 14.207 171.898 14.8825 172.679 16.2334H172.728V8.49414H174.73V27ZM172.728 21.3481V19.5049C172.728 18.4958 172.394 17.6413 171.727 16.9414C171.06 16.2415 170.213 15.8916 169.188 15.8916C167.967 15.8916 167.007 16.3392 166.307 17.2344C165.607 18.1296 165.257 19.3665 165.257 20.9453C165.257 22.3857 165.591 23.5251 166.258 24.3633C166.934 25.1934 167.837 25.6084 168.968 25.6084C170.083 25.6084 170.986 25.2056 171.678 24.3999C172.378 23.5942 172.728 22.577 172.728 21.3481Z" fill="#FFFEFE"/>
</svg>
