<svg width="134" height="41" viewBox="0 0 134 41" fill="none" xmlns="http://www.w3.org/2000/svg">
<g filter="url(#filter0_d)">
<rect x="4.00098" y="0.998047" width="125.001" height="31.0234" rx="15.5117" fill="#00CFFC"/>
<path d="M34.4458 10.8303L38.6538 10.8304C39.3898 10.8304 40.0618 10.9477 40.6697 11.1824C41.2777 11.4171 41.7951 11.7691 42.2217 12.2385C42.6484 12.6971 42.979 13.2785 43.2137 13.9825C43.4483 14.6758 43.5657 15.4865 43.5656 16.4145C43.5656 17.3425 43.4483 18.1585 43.2136 18.8625C42.9789 19.5558 42.6482 20.1371 42.2216 20.6065C41.7949 21.0651 41.2775 21.4118 40.6695 21.6464C40.0615 21.8811 39.3895 21.9984 38.6535 21.9984L34.4455 21.9983L34.4458 10.8303ZM38.6536 19.8384C39.3789 19.8384 39.9496 19.6357 40.3656 19.2304C40.7816 18.8251 40.9896 18.1744 40.9896 17.2784L40.9897 15.5504C40.9897 14.6544 40.7817 14.0038 40.3657 13.5984C39.9497 13.1931 39.379 12.9904 38.6537 12.9904L36.8777 12.9903L36.8776 19.8383L38.6536 19.8384ZM48.9778 22.1906C48.3378 22.1906 47.7671 22.0892 47.2658 21.8866C46.7645 21.6732 46.3378 21.3799 45.9858 21.0065C45.6445 20.6225 45.3832 20.1585 45.2018 19.6145C45.0312 19.0705 44.9459 18.4625 44.9459 17.7905C44.9459 17.1292 45.0312 16.5318 45.2019 15.9985C45.3726 15.4545 45.6233 14.9905 45.9539 14.6065C46.2953 14.2225 46.7113 13.9292 47.2019 13.7266C47.6926 13.5132 48.2526 13.4066 48.882 13.4066C49.5753 13.4066 50.1673 13.524 50.6579 13.7586C51.1593 13.9933 51.5646 14.308 51.8739 14.7027C52.1939 15.0973 52.4232 15.556 52.5619 16.0787C52.7112 16.5907 52.7859 17.1293 52.7859 17.6947L52.7859 18.3987L47.3939 18.3986L47.3939 18.5266C47.3938 19.0812 47.5432 19.5239 47.8418 19.8546C48.1405 20.1746 48.6098 20.3346 49.2498 20.3346C49.7405 20.3346 50.1405 20.2386 50.4498 20.0466C50.7592 19.844 51.0472 19.604 51.3138 19.3266L52.4978 20.7987C52.1245 21.236 51.6338 21.5773 51.0258 21.8226C50.4284 22.068 49.7458 22.1906 48.9778 22.1906ZM48.9299 15.1506C48.4499 15.1506 48.0712 15.3106 47.7939 15.6306C47.5272 15.9399 47.3939 16.3559 47.3939 16.8786L47.3939 17.0066L50.3379 17.0066L50.3379 16.8626C50.3379 16.3506 50.2206 15.94 49.9859 15.6306C49.7619 15.3106 49.4099 15.1506 48.9299 15.1506ZM53.3922 21.9987L56.1602 17.7267L53.4243 13.5987L56.1123 13.5987L57.6803 16.2388L57.7443 16.2388L59.2643 13.5988L61.7603 13.5989L58.9762 17.8068L61.7762 21.9989L59.0882 21.9988L57.4722 19.2628L57.4082 19.2628L55.8562 21.9987L53.3922 21.9987ZM67.383 12.991L67.3828 21.999L64.9508 21.9989L64.951 12.9909L61.927 12.9909L61.927 10.8309L70.407 10.831L70.407 12.991L67.383 12.991ZM74.3037 22.1911C73.685 22.1911 73.1303 22.0898 72.6397 21.8871C72.1597 21.6844 71.749 21.3911 71.4077 21.007C71.077 20.623 70.821 20.159 70.6397 19.615C70.4584 19.071 70.3677 18.463 70.3677 17.791C70.3678 17.119 70.4584 16.511 70.6398 15.967C70.8211 15.423 71.0771 14.9644 71.4078 14.591C71.7491 14.2071 72.1598 13.9137 72.6398 13.7111C73.1305 13.5084 73.6852 13.4071 74.3038 13.4071C74.9225 13.4071 75.4718 13.5085 75.9518 13.7111C76.4425 13.9138 76.8531 14.2072 77.1838 14.5912C77.5251 14.9645 77.7865 15.4232 77.9678 15.9672C78.1491 16.5112 78.2398 17.1192 78.2397 17.7912C78.2397 18.4632 78.149 19.0712 77.9677 19.6152C77.7864 20.1592 77.525 20.6232 77.1837 21.0072C76.853 21.3912 76.4423 21.6845 75.9517 21.8871C75.4717 22.0898 74.9223 22.1911 74.3037 22.1911ZM74.3037 20.3191C74.773 20.3191 75.1357 20.1751 75.3917 19.8871C75.6477 19.5991 75.7757 19.1885 75.7757 18.6551L75.7758 16.9431C75.7758 16.4098 75.6478 15.9991 75.3918 15.7111C75.1358 15.4231 74.7731 15.2791 74.3038 15.2791C73.8345 15.2791 73.4718 15.4231 73.2158 15.7111C72.9598 15.9991 72.8318 16.4097 72.8318 16.9431L72.8317 18.6551C72.8317 19.1884 72.9597 19.5991 73.2157 19.8871C73.4717 20.1751 73.8344 20.3191 74.3037 20.3191ZM83.3349 22.1913C82.7162 22.1913 82.1616 22.0899 81.6709 21.8873C81.1909 21.6846 80.7803 21.3912 80.4389 21.0072C80.1083 20.6232 79.8523 20.1592 79.671 19.6152C79.4896 19.0712 79.399 18.4632 79.399 17.7912C79.399 17.1192 79.4897 16.5112 79.671 15.9672C79.8524 15.4232 80.1084 14.9646 80.4391 14.5912C80.7804 14.2072 81.1911 13.9139 81.6711 13.7113C82.1617 13.5086 82.7164 13.4073 83.3351 13.4073C83.9537 13.4073 84.5031 13.5086 84.9831 13.7113C85.4737 13.914 85.8844 14.2073 86.2151 14.5914C86.5564 14.9647 86.8177 15.4234 86.999 15.9674C87.1803 16.5114 87.271 17.1194 87.271 17.7914C87.271 18.4634 87.1803 19.0714 86.999 19.6154C86.8176 20.1594 86.5563 20.6234 86.2149 21.0074C85.8843 21.3913 85.4736 21.6847 84.9829 21.8873C84.5029 22.09 83.9536 22.1913 83.3349 22.1913ZM83.3349 20.3193C83.8043 20.3193 84.1669 20.1753 84.4229 19.8873C84.679 19.5993 84.807 19.1887 84.807 18.6553L84.807 16.9433C84.807 16.41 84.679 15.9993 84.423 15.7113C84.167 15.4233 83.8044 15.2793 83.335 15.2793C82.8657 15.2793 82.503 15.4233 82.247 15.7113C81.991 15.9993 81.863 16.4099 81.863 16.9433L81.863 18.6553C81.863 19.1886 81.991 19.5993 82.2469 19.8873C82.5029 20.1753 82.8656 20.3193 83.3349 20.3193ZM91.3102 21.9995C90.4995 21.9994 89.9022 21.8021 89.5182 21.4074C89.1448 21.0127 88.9582 20.4421 88.9582 19.6954L88.9584 10.1594L91.3264 10.1595L91.3262 20.1595L92.3822 20.1595L92.3822 21.9995L91.3102 21.9995ZM96.6499 22.1916C95.8392 22.1915 95.1566 22.0635 94.6019 21.8075C94.0472 21.5408 93.5513 21.1675 93.1139 20.6875L94.506 19.2795C94.8046 19.6102 95.1353 19.8715 95.4979 20.0635C95.8606 20.2555 96.2713 20.3516 96.7299 20.3516C97.1993 20.3516 97.5246 20.2822 97.7059 20.1436C97.8873 19.9943 97.9779 19.7969 97.978 19.5516C97.978 19.1569 97.6953 18.9223 97.13 18.8476L96.218 18.7356C94.33 18.5008 93.386 17.6368 93.386 16.1435C93.386 15.7382 93.4607 15.3702 93.61 15.0395C93.7701 14.6982 93.9887 14.4102 94.2661 14.1755C94.5541 13.9302 94.8954 13.7435 95.2901 13.6155C95.6954 13.4769 96.1487 13.4076 96.6501 13.4076C97.0874 13.4076 97.4714 13.4396 97.8021 13.5036C98.1434 13.5569 98.4421 13.6423 98.6981 13.7596C98.9647 13.8663 99.2047 14.0049 99.4181 14.1756C99.6421 14.3356 99.8607 14.517 100.074 14.7196L98.714 16.1116C98.4474 15.8449 98.1434 15.6369 97.802 15.4876C97.4714 15.3276 97.13 15.2476 96.778 15.2476C96.3727 15.2476 96.0847 15.3116 95.914 15.4395C95.7434 15.5675 95.658 15.7382 95.658 15.9515C95.658 16.1755 95.7167 16.3515 95.834 16.4795C95.962 16.5969 96.1967 16.6822 96.538 16.7356L97.482 16.8636C99.3273 17.1089 100.25 17.9516 100.25 19.3916C100.25 19.797 100.165 20.1703 99.9939 20.5116C99.8233 20.853 99.5779 21.1516 99.2579 21.4076C98.9486 21.6529 98.5699 21.8449 98.1219 21.9836C97.6846 22.1222 97.1939 22.1916 96.6499 22.1916Z" fill="white"/>
</g>
<defs>
<filter id="filter0_d" x="0.000366211" y="0.998047" width="133.001" height="39.0259" filterUnits="userSpaceOnUse" color-interpolation-filters="sRGB">
<feFlood flood-opacity="0" result="BackgroundImageFix"/>
<feColorMatrix in="SourceAlpha" type="matrix" values="0 0 0 0 0 0 0 0 0 0 0 0 0 0 0 0 0 0 127 0"/>
<feOffset dy="4"/>
<feGaussianBlur stdDeviation="2"/>
<feColorMatrix type="matrix" values="0 0 0 0 0 0 0 0 0 0 0 0 0 0 0 0 0 0 0.25 0"/>
<feBlend mode="normal" in2="BackgroundImageFix" result="effect1_dropShadow"/>
<feBlend mode="normal" in="SourceGraphic" in2="effect1_dropShadow" result="shape"/>
</filter>
</defs>
</svg>
