<svg width="37" height="38" viewBox="0 0 37 38" fill="none" xmlns="http://www.w3.org/2000/svg">
<g clip-path="url(#clip0)">
<path d="M36.4377 18.963C36.4377 8.90909 28.2874 0.758789 18.2335 0.758789C8.17959 0.758789 0.0292969 8.90909 0.0292969 18.963C0.0292969 28.0491 6.68628 35.5804 15.3891 36.9461V24.2252H10.7669V18.963H15.3891V14.9524C15.3891 10.39 18.1069 7.86981 22.2651 7.86981C24.2562 7.86981 26.3401 8.22536 26.3401 8.22536V12.7053H24.0446C21.7833 12.7053 21.0779 14.1087 21.0779 15.5497V18.963H26.1267L25.3196 24.2252H21.0779V36.9461C29.7807 35.5804 36.4377 28.0491 36.4377 18.963Z" fill="white"/>
</g>
<defs>
<clipPath id="clip0">
<rect width="36.4084" height="36.4084" fill="white" transform="translate(0.0292969 0.758789)"/>
</clipPath>
</defs>
</svg>
