<svg width="548" height="103" viewBox="0 0 548 103" fill="none" xmlns="http://www.w3.org/2000/svg">
<path d="M16.47 8.29H2.55C1.56 8.29 0.75 9.1 0.75 10.09C0.75 11.11 1.56 11.92 2.55 11.92H7.68V29.23C7.68 30.25 8.49 31.06 9.51 31.06C10.5 31.06 11.31 30.25 11.31 29.23V11.92H16.47C17.46 11.92 18.27 11.11 18.27 10.09C18.27 9.1 17.46 8.29 16.47 8.29ZM33.6837 22.72C33.6837 19 30.6837 16 26.9637 16C25.8537 16 24.8037 16.27 23.8737 16.75V10.15C23.8737 9.16 23.0637 8.32 22.0437 8.32C21.0537 8.32 20.2137 9.16 20.2137 10.15V29.29C20.2137 30.28 21.0537 31.09 22.0437 31.09C23.0637 31.09 23.8737 30.28 23.8737 29.29V22.72C23.8737 21.01 25.2537 19.63 26.9637 19.63C28.6737 19.63 30.0537 21.01 30.0537 22.72V29.29C30.0537 30.28 30.8637 31.09 31.8837 31.09C32.8737 31.09 33.6837 30.28 33.6837 29.29V22.72ZM49.8891 23.41C50.0091 23.11 50.1291 22.81 50.1291 22.54C50.1891 21.55 49.6491 20.44 49.1691 19.6C48.0891 17.8 46.3491 16.54 44.3091 16.15C43.8591 16.06 43.4391 16.03 42.9891 16.03C38.8191 16.03 35.4891 19.45 35.4891 23.56C35.4891 27.73 38.8191 31.09 42.9891 31.09C44.6991 31.09 47.0091 30.55 48.6591 28.96C49.3791 28.27 49.4091 27.1 48.6891 26.41C47.9991 25.69 46.8591 25.69 46.1391 26.38C45.3591 27.13 43.9491 27.52 42.9891 27.52C41.1291 27.52 39.5991 26.2 39.1791 24.49H48.4191C49.1391 24.49 49.6491 23.98 49.8891 23.41ZM42.9891 19.66C44.3391 19.66 45.4491 20.32 46.0491 21.46H39.6891C40.4091 20.35 41.6091 19.66 42.9891 19.66ZM80.1881 17.89C80.1881 16.9 79.3781 16.09 78.3881 16.09C77.3981 16.09 76.5881 16.9 76.5881 17.89V25.48C76.5881 26.62 75.5381 27.55 74.2481 27.55C72.9581 27.55 71.9081 26.62 71.9081 25.48C71.9081 25.42 71.9081 25.39 71.9081 25.36V25.24V17.95C71.9081 16.96 71.0981 16.15 70.1081 16.15C69.1181 16.15 68.3081 16.96 68.3081 17.95V25.24C68.3081 25.27 68.3081 25.3 68.3081 25.36V25.48C68.3081 26.62 67.2581 27.55 65.9681 27.55C64.6781 27.55 63.6281 26.62 63.6281 25.48C63.6281 25.42 63.6281 25.39 63.6281 25.36V25.24V17.95C63.6281 16.96 62.8181 16.15 61.8281 16.15C60.8381 16.15 60.0281 16.96 60.0281 17.95V25.24C60.0281 25.27 60.0281 25.3 60.0281 25.36V25.48C60.0281 28.6 62.6981 31.15 65.9681 31.15C67.5881 31.15 69.0281 30.52 70.1081 29.53C71.1881 30.52 72.6581 31.15 74.2481 31.15C77.4581 31.15 80.0681 28.69 80.1881 25.66V25.48V17.89ZM89.9632 30.94C85.8232 30.94 82.4332 27.58 82.4332 23.41C82.4332 19.27 85.8232 15.88 89.9632 15.88C94.1032 15.88 97.4932 19.27 97.5232 23.44C97.4932 27.58 94.1032 30.94 89.9632 30.94ZM89.9632 19.57C87.8332 19.57 86.1232 21.28 86.1232 23.41C86.1232 25.54 87.8332 27.25 89.9632 27.25C92.0932 27.25 93.8032 25.54 93.8032 23.41C93.8032 21.28 92.0932 19.57 89.9632 19.57ZM111.908 18.04C110.558 16.78 108.818 16.06 106.958 16.06C105.578 16.06 104.258 16.48 103.148 17.17C102.908 16.45 102.248 15.94 101.438 15.94C100.448 15.94 99.6375 16.72 99.6375 17.71V29.2C99.6375 30.19 100.448 31 101.438 31C102.428 31 103.238 30.19 103.238 29.2V23.53C103.238 21.4 104.918 19.66 106.958 19.66C107.888 19.66 108.788 20.02 109.448 20.65C110.198 21.34 111.308 21.28 111.998 20.56C112.688 19.84 112.628 18.7 111.908 18.04ZM118.231 27.37C117.961 27.37 117.751 27.13 117.751 26.86C117.751 26.77 117.721 26.68 117.721 26.59C117.721 26.5 117.751 26.41 117.751 26.32V10.03C117.751 9.04 116.941 8.23 115.921 8.23C114.931 8.23 114.121 9.04 114.121 10.03C114.121 12.19 114.121 14.35 114.121 16.51V25.48C114.121 26.89 114.061 28.21 114.961 29.38C115.741 30.37 116.971 31 118.231 31C119.251 31 120.061 30.19 120.061 29.17C120.061 28.18 119.251 27.37 118.231 27.37ZM134.74 8.23C133.75 8.23 132.94 9.07 132.94 10.06V17.08C131.71 16.3 130.27 15.82 128.71 15.82C124.54 15.82 121.12 19.24 121.12 23.41C121.12 27.61 124.54 31 128.71 31C130.3 31 131.8 30.52 133 29.68C133.24 30.43 133.93 30.94 134.74 30.94C135.76 30.94 136.57 30.13 136.57 29.14V10.06C136.57 9.07 135.76 8.23 134.74 8.23ZM128.71 27.37C126.52 27.37 124.75 25.6 124.75 23.41C124.75 21.22 126.52 19.45 128.71 19.45C130.9 19.45 132.67 21.22 132.67 23.41C132.67 25.6 130.9 27.37 128.71 27.37ZM142.497 9.91C142.237 10.95 141.857 12.12 141.357 13.42C140.877 14.7 140.397 15.87 139.917 16.93H137.967C138.167 16.17 138.357 15.36 138.537 14.5C138.737 13.62 138.917 12.76 139.077 11.92C139.237 11.06 139.367 10.28 139.467 9.58H142.287L142.497 9.91ZM149.422 31.06C147.502 31.06 145.582 30.28 144.592 29.35C143.872 28.69 143.812 27.55 144.502 26.83C145.162 26.08 146.302 26.05 147.022 26.71C147.562 27.22 149.572 27.91 150.712 27.16C151.012 26.98 151.192 26.65 151.192 26.32C151.192 25.9 150.832 25.6 150.532 25.48C150.262 25.33 149.782 25.33 149.242 25.33C148.522 25.33 147.712 25.3 146.872 25C145.312 24.49 144.052 22.87 143.932 21.31C143.782 19.42 144.592 18.25 145.282 17.59C146.782 16.21 148.972 16 150.562 16.27C151.762 16.48 152.662 16.9 153.412 17.59C154.132 18.25 154.192 19.39 153.532 20.11C153.142 20.53 152.572 20.74 152.002 20.68C151.732 20.65 151.462 20.56 151.222 20.41C150.802 20.11 150.502 19.9 149.962 19.81C149.062 19.66 147.382 19.72 147.502 21.01C147.532 21.16 147.802 21.55 148.042 21.64C148.342 21.73 148.792 21.73 149.272 21.73C150.052 21.76 151.042 21.76 152.032 22.21C153.682 22.96 154.762 24.58 154.762 26.32C154.762 27.85 153.982 29.29 152.692 30.16C151.672 30.82 150.562 31.06 149.422 31.06ZM223.603 30.91C221.623 30.91 219.793 30.16 218.383 28.81C216.943 27.4 216.133 25.54 216.073 23.53C216.043 21.55 216.763 19.63 218.203 18.19C219.583 16.75 221.443 15.94 223.453 15.88C225.463 15.85 227.353 16.6 228.793 18.01C229.513 18.67 229.543 19.84 228.853 20.53C228.163 21.25 227.023 21.28 226.303 20.59C225.553 19.87 224.563 19.48 223.513 19.48C222.463 19.48 221.503 19.93 220.753 20.68C220.063 21.43 219.643 22.42 219.673 23.47C219.673 24.49 220.123 25.51 220.873 26.2C221.623 26.95 222.613 27.34 223.633 27.31C224.623 27.31 225.553 26.92 226.273 26.26C226.963 25.57 228.133 25.63 228.793 26.35C229.483 27.07 229.423 28.21 228.703 28.9C227.353 30.16 225.583 30.88 223.723 30.91H223.603ZM238.86 30.94C234.72 30.94 231.33 27.58 231.33 23.41C231.33 19.27 234.72 15.88 238.86 15.88C243 15.88 246.39 19.27 246.42 23.44C246.39 27.58 243 30.94 238.86 30.94ZM238.86 19.57C236.73 19.57 235.02 21.28 235.02 23.41C235.02 25.54 236.73 27.25 238.86 27.25C240.99 27.25 242.7 25.54 242.7 23.41C242.7 21.28 240.99 19.57 238.86 19.57ZM268.634 21.73C268.634 18.61 265.964 16.06 262.754 16.06C261.104 16.06 259.664 16.66 258.614 17.68C257.504 16.66 256.064 16.06 254.474 16.06C253.484 16.06 252.554 16.3 251.714 16.72C251.444 16.3 250.904 16 250.334 16C249.374 16 248.534 16.84 248.534 17.83V29.29C248.534 30.25 249.374 31.06 250.334 31.06C251.354 31.06 252.134 30.25 252.134 29.29V21.73C252.134 20.56 253.184 19.66 254.474 19.66C255.764 19.66 256.814 20.56 256.814 21.73C256.814 21.76 256.814 21.79 256.814 21.82V21.94V29.2C256.814 30.22 257.594 31 258.614 31C259.574 31 260.384 30.22 260.384 29.2V21.94C260.384 21.91 260.384 21.88 260.384 21.82V21.73C260.384 20.56 261.434 19.66 262.754 19.66C263.984 19.66 265.034 20.56 265.034 21.73C265.034 21.76 265.034 21.79 265.034 21.82V21.94V29.2C265.034 30.22 265.874 31 266.864 31C267.854 31 268.634 30.22 268.634 29.2V21.94C268.634 21.91 268.634 21.88 268.634 21.82V21.73ZM291.28 21.73C291.28 18.61 288.61 16.06 285.4 16.06C283.75 16.06 282.31 16.66 281.26 17.68C280.15 16.66 278.71 16.06 277.12 16.06C276.13 16.06 275.2 16.3 274.36 16.72C274.09 16.3 273.55 16 272.98 16C272.02 16 271.18 16.84 271.18 17.83V29.29C271.18 30.25 272.02 31.06 272.98 31.06C274 31.06 274.78 30.25 274.78 29.29V21.73C274.78 20.56 275.83 19.66 277.12 19.66C278.41 19.66 279.46 20.56 279.46 21.73C279.46 21.76 279.46 21.79 279.46 21.82V21.94V29.2C279.46 30.22 280.24 31 281.26 31C282.22 31 283.03 30.22 283.03 29.2V21.94C283.03 21.91 283.03 21.88 283.03 21.82V21.73C283.03 20.56 284.08 19.66 285.4 19.66C286.63 19.66 287.68 20.56 287.68 21.73C287.68 21.76 287.68 21.79 287.68 21.82V21.94V29.2C287.68 30.22 288.52 31 289.51 31C290.5 31 291.28 30.22 291.28 29.2V21.94C291.28 21.91 291.28 21.88 291.28 21.82V21.73ZM300.937 31.09C297.037 31.09 293.827 27.7 293.827 23.56V17.83C293.827 16.84 294.577 16.03 295.507 16.03C296.467 16.03 297.397 16.84 297.397 17.83V23.56C297.397 25.72 299.197 27.46 300.937 27.46C302.977 27.46 304.507 25.72 304.507 23.56V18.07C304.507 17.05 305.557 16.27 306.367 16.27C307.297 16.27 308.077 17.05 308.077 18.07V23.56C308.077 27.7 304.867 31.09 300.937 31.09ZM317.608 16.03C316.258 16.03 315.028 16.42 313.948 17.11C313.708 16.39 313.048 15.88 312.268 15.88C311.278 15.88 310.468 16.69 310.468 17.68V29.14C310.468 30.13 311.278 30.94 312.268 30.94C313.258 30.94 314.068 30.13 314.068 29.14V24.04C314.068 21.97 315.268 19.63 317.608 19.63C319.498 19.63 321.058 21.34 321.058 23.47V29.14C321.058 30.13 321.838 30.94 322.858 30.94C323.848 30.94 324.628 30.13 324.628 29.14V23.47C324.628 19.36 321.478 16.03 317.608 16.03ZM329.064 13.39C328.014 13.39 327.174 12.55 327.174 11.56V11.41C327.174 10.36 328.014 9.55 329.064 9.55C330.054 9.55 330.894 10.36 330.894 11.41V11.56C330.894 12.55 330.054 13.39 329.064 13.39ZM329.064 31C328.014 31 327.174 30.16 327.174 29.14V17.56C327.174 16.54 328.014 15.73 329.064 15.73C330.054 15.73 330.894 16.54 330.894 17.56V29.14C330.894 30.16 330.054 31 329.064 31ZM339.793 27.31C339.583 27.31 339.313 27.34 339.163 27.19C338.953 27.01 339.013 26.65 338.953 26.41V19.27H339.943C340.933 19.27 341.743 18.46 341.743 17.47C341.743 16.48 340.933 15.67 339.943 15.67H338.953V9.94C338.953 8.95 338.143 8.14 337.153 8.14C336.163 8.14 335.353 8.95 335.353 9.94V15.67H334.063C333.073 15.67 332.263 16.48 332.263 17.47C332.263 18.46 333.073 19.27 334.063 19.27H335.353V26.83C335.353 27.76 335.773 28.84 336.373 29.53C337.063 30.31 338.023 30.73 339.013 30.88C339.283 30.91 339.523 30.91 339.793 30.91C340.783 30.91 341.593 30.13 341.593 29.11C341.593 28.12 340.783 27.31 339.793 27.31ZM355.42 16.06C354.49 16.06 353.68 16.87 353.68 17.86V23.29C353.68 25.36 352.15 27.07 350.26 27.07C348.4 27.07 346.87 25.36 346.87 23.29V17.92C346.87 16.96 346.09 16.12 345.13 16.12C344.17 16.12 343.39 16.96 343.39 17.92V23.29C343.39 27.37 346.48 30.67 350.26 30.67C351.52 30.67 352.69 30.31 353.68 29.74V30.97C353.68 33.16 351.94 34.96 349.81 34.96C348.7 34.96 347.62 34.45 346.87 33.58C346.24 32.8 345.13 32.71 344.41 33.37C343.69 34.03 343.6 35.17 344.23 35.92C345.64 37.6 347.65 38.56 349.81 38.56C353.86 38.56 357.19 35.14 357.19 30.97V17.86C357.19 16.87 356.41 16.06 355.42 16.06ZM380.727 8.23C379.737 8.23 378.927 9.07 378.927 10.06V17.08C377.697 16.3 376.257 15.82 374.697 15.82C370.527 15.82 367.107 19.24 367.107 23.41C367.107 27.61 370.527 31 374.697 31C376.287 31 377.787 30.52 378.987 29.68C379.227 30.43 379.917 30.94 380.727 30.94C381.747 30.94 382.557 30.13 382.557 29.14V10.06C382.557 9.07 381.747 8.23 380.727 8.23ZM374.697 27.37C372.507 27.37 370.737 25.6 370.737 23.41C370.737 21.22 372.507 19.45 374.697 19.45C376.887 19.45 378.657 21.22 378.657 23.41C378.657 25.6 376.887 27.37 374.697 27.37ZM397.064 18.04C395.714 16.78 393.974 16.06 392.114 16.06C390.734 16.06 389.414 16.48 388.304 17.17C388.064 16.45 387.404 15.94 386.594 15.94C385.604 15.94 384.794 16.72 384.794 17.71V29.2C384.794 30.19 385.604 31 386.594 31C387.584 31 388.394 30.19 388.394 29.2V23.53C388.394 21.4 390.074 19.66 392.114 19.66C393.044 19.66 393.944 20.02 394.604 20.65C395.354 21.34 396.464 21.28 397.154 20.56C397.844 19.84 397.784 18.7 397.064 18.04ZM401.017 13.39C399.967 13.39 399.127 12.55 399.127 11.56V11.41C399.127 10.36 399.967 9.55 401.017 9.55C402.007 9.55 402.847 10.36 402.847 11.41V11.56C402.847 12.55 402.007 13.39 401.017 13.39ZM401.017 31C399.967 31 399.127 30.16 399.127 29.14V17.56C399.127 16.54 399.967 15.73 401.017 15.73C402.007 15.73 402.847 16.54 402.847 17.56V29.14C402.847 30.16 402.007 31 401.017 31ZM412.346 30.94H412.316C411.656 30.94 411.056 30.55 410.756 29.95L405.116 18.7C404.696 17.8 405.026 16.75 405.926 16.3C406.796 15.88 407.846 16.21 408.296 17.11L412.346 25.21L416.396 17.32C416.846 16.45 417.896 16.09 418.766 16.54C419.636 16.99 419.996 18.04 419.546 18.91L413.906 29.95C413.606 30.55 413.006 30.94 412.346 30.94ZM435.182 23.41C435.302 23.11 435.422 22.81 435.422 22.54C435.482 21.55 434.942 20.44 434.462 19.6C433.382 17.8 431.642 16.54 429.602 16.15C429.152 16.06 428.732 16.03 428.282 16.03C424.112 16.03 420.782 19.45 420.782 23.56C420.782 27.73 424.112 31.09 428.282 31.09C429.992 31.09 432.302 30.55 433.952 28.96C434.672 28.27 434.702 27.1 433.982 26.41C433.292 25.69 432.152 25.69 431.432 26.38C430.652 27.13 429.242 27.52 428.282 27.52C426.422 27.52 424.892 26.2 424.472 24.49H433.712C434.432 24.49 434.942 23.98 435.182 23.41ZM428.282 19.66C429.632 19.66 430.742 20.32 431.342 21.46H424.982C425.702 20.35 426.902 19.66 428.282 19.66ZM444.199 16.03C442.849 16.03 441.619 16.42 440.539 17.11C440.299 16.39 439.639 15.88 438.859 15.88C437.869 15.88 437.059 16.69 437.059 17.68V29.14C437.059 30.13 437.869 30.94 438.859 30.94C439.849 30.94 440.659 30.13 440.659 29.14V24.04C440.659 21.97 441.859 19.63 444.199 19.63C446.089 19.63 447.649 21.34 447.649 23.47V29.14C447.649 30.13 448.429 30.94 449.449 30.94C450.439 30.94 451.219 30.13 451.219 29.14V23.47C451.219 19.36 448.069 16.03 444.199 16.03ZM314.714 48C313.724 48 313.124 48.78 313.124 49.71V49.86C311.834 48.81 310.334 48.12 308.534 48.12C304.514 48.12 301.274 51.39 301.274 55.38C301.274 59.37 304.514 62.61 308.534 62.61C310.334 62.61 311.834 61.95 313.124 60.84V61.2C313.124 62.13 313.724 62.91 314.714 62.91C315.704 62.91 316.454 62.13 316.454 61.2V49.71C316.454 48.78 315.704 48 314.714 48ZM308.534 59.1C306.464 59.1 304.754 57.45 304.754 55.38C304.754 53.31 306.464 51.63 308.534 51.63C310.574 51.63 312.284 53.31 312.284 55.38C312.284 57.45 310.574 59.1 308.534 59.1ZM326.416 48.03C325.066 48.03 323.836 48.42 322.756 49.11C322.516 48.39 321.856 47.88 321.076 47.88C320.086 47.88 319.276 48.69 319.276 49.68V61.14C319.276 62.13 320.086 62.94 321.076 62.94C322.066 62.94 322.876 62.13 322.876 61.14V56.04C322.876 53.97 324.076 51.63 326.416 51.63C328.306 51.63 329.866 53.34 329.866 55.47V61.14C329.866 62.13 330.646 62.94 331.666 62.94C332.656 62.94 333.436 62.13 333.436 61.14V55.47C333.436 51.36 330.286 48.03 326.416 48.03ZM348.402 40.23C347.412 40.23 346.602 41.07 346.602 42.06V49.08C345.372 48.3 343.932 47.82 342.372 47.82C338.202 47.82 334.782 51.24 334.782 55.41C334.782 59.61 338.202 63 342.372 63C343.962 63 345.462 62.52 346.662 61.68C346.902 62.43 347.592 62.94 348.402 62.94C349.422 62.94 350.232 62.13 350.232 61.14V42.06C350.232 41.07 349.422 40.23 348.402 40.23ZM342.372 59.37C340.182 59.37 338.412 57.6 338.412 55.41C338.412 53.22 340.182 51.45 342.372 51.45C344.562 51.45 346.332 53.22 346.332 55.41C346.332 57.6 344.562 59.37 342.372 59.37ZM367.391 40.41H362.681C361.661 40.41 360.881 41.19 360.881 42.18V61.17C360.881 62.16 361.631 62.97 362.621 63L367.331 63.18H367.391C373.661 63.18 378.791 58.05 378.791 51.78C378.791 45.51 373.661 40.41 367.391 40.41ZM367.421 59.55L364.481 59.46V44.01H367.391C371.651 44.01 375.191 47.49 375.191 51.78C375.191 56.07 371.711 59.55 367.421 59.55ZM394.83 55.41C394.95 55.11 395.07 54.81 395.07 54.54C395.13 53.55 394.59 52.44 394.11 51.6C393.03 49.8 391.29 48.54 389.25 48.15C388.8 48.06 388.38 48.03 387.93 48.03C383.76 48.03 380.43 51.45 380.43 55.56C380.43 59.73 383.76 63.09 387.93 63.09C389.64 63.09 391.95 62.55 393.6 60.96C394.32 60.27 394.35 59.1 393.63 58.41C392.94 57.69 391.8 57.69 391.08 58.38C390.3 59.13 388.89 59.52 387.93 59.52C386.07 59.52 384.54 58.2 384.12 56.49H393.36C394.08 56.49 394.59 55.98 394.83 55.41ZM387.93 51.66C389.28 51.66 390.39 52.32 390.99 53.46H384.63C385.35 52.35 386.55 51.66 387.93 51.66ZM404.238 62.91C402.258 62.91 400.428 62.16 399.018 60.81C397.578 59.4 396.768 57.54 396.708 55.53C396.678 53.55 397.398 51.63 398.838 50.19C400.218 48.75 402.078 47.94 404.088 47.88C406.098 47.85 407.988 48.6 409.428 50.01C410.148 50.67 410.178 51.84 409.488 52.53C408.798 53.25 407.658 53.28 406.938 52.59C406.188 51.87 405.198 51.48 404.148 51.48C403.098 51.48 402.138 51.93 401.388 52.68C400.698 53.43 400.278 54.42 400.308 55.47C400.308 56.49 400.758 57.51 401.508 58.2C402.258 58.95 403.248 59.34 404.268 59.31C405.258 59.31 406.188 58.92 406.908 58.26C407.598 57.57 408.768 57.63 409.428 58.35C410.118 59.07 410.058 60.21 409.338 60.9C407.988 62.16 406.218 62.88 404.358 62.91H404.238ZM425.914 55.41C426.034 55.11 426.154 54.81 426.154 54.54C426.214 53.55 425.674 52.44 425.194 51.6C424.114 49.8 422.374 48.54 420.334 48.15C419.884 48.06 419.464 48.03 419.014 48.03C414.844 48.03 411.514 51.45 411.514 55.56C411.514 59.73 414.844 63.09 419.014 63.09C420.724 63.09 423.034 62.55 424.684 60.96C425.404 60.27 425.434 59.1 424.714 58.41C424.024 57.69 422.884 57.69 422.164 58.38C421.384 59.13 419.974 59.52 419.014 59.52C417.154 59.52 415.624 58.2 415.204 56.49H424.444C425.164 56.49 425.674 55.98 425.914 55.41ZM419.014 51.66C420.364 51.66 421.474 52.32 422.074 53.46H415.714C416.434 52.35 417.634 51.66 419.014 51.66ZM434.932 48.03C433.582 48.03 432.352 48.42 431.272 49.11C431.032 48.39 430.372 47.88 429.592 47.88C428.602 47.88 427.792 48.69 427.792 49.68V61.14C427.792 62.13 428.602 62.94 429.592 62.94C430.582 62.94 431.392 62.13 431.392 61.14V56.04C431.392 53.97 432.592 51.63 434.932 51.63C436.822 51.63 438.382 53.34 438.382 55.47V61.14C438.382 62.13 439.162 62.94 440.182 62.94C441.172 62.94 441.952 62.13 441.952 61.14V55.47C441.952 51.36 438.802 48.03 434.932 48.03ZM450.408 59.31C450.198 59.31 449.928 59.34 449.778 59.19C449.568 59.01 449.628 58.65 449.568 58.41V51.27H450.558C451.548 51.27 452.358 50.46 452.358 49.47C452.358 48.48 451.548 47.67 450.558 47.67H449.568V41.94C449.568 40.95 448.758 40.14 447.768 40.14C446.778 40.14 445.968 40.95 445.968 41.94V47.67H444.678C443.688 47.67 442.878 48.48 442.878 49.47C442.878 50.46 443.688 51.27 444.678 51.27H445.968V58.83C445.968 59.76 446.388 60.84 446.988 61.53C447.678 62.31 448.638 62.73 449.628 62.88C449.898 62.91 450.138 62.91 450.408 62.91C451.398 62.91 452.208 62.13 452.208 61.11C452.208 60.12 451.398 59.31 450.408 59.31ZM466.575 50.04C465.225 48.78 463.485 48.06 461.625 48.06C460.245 48.06 458.925 48.48 457.815 49.17C457.575 48.45 456.915 47.94 456.105 47.94C455.115 47.94 454.305 48.72 454.305 49.71V61.2C454.305 62.19 455.115 63 456.105 63C457.095 63 457.905 62.19 457.905 61.2V55.53C457.905 53.4 459.585 51.66 461.625 51.66C462.555 51.66 463.455 52.02 464.115 52.65C464.865 53.34 465.975 53.28 466.665 52.56C467.355 51.84 467.295 50.7 466.575 50.04ZM481.179 48C480.189 48 479.589 48.78 479.589 49.71V49.86C478.299 48.81 476.799 48.12 474.999 48.12C470.979 48.12 467.739 51.39 467.739 55.38C467.739 59.37 470.979 62.61 474.999 62.61C476.799 62.61 478.299 61.95 479.589 60.84V61.2C479.589 62.13 480.189 62.91 481.179 62.91C482.169 62.91 482.919 62.13 482.919 61.2V49.71C482.919 48.78 482.169 48 481.179 48ZM474.999 59.1C472.929 59.1 471.219 57.45 471.219 55.38C471.219 53.31 472.929 51.63 474.999 51.63C477.039 51.63 478.749 53.31 478.749 55.38C478.749 57.45 477.039 59.1 474.999 59.1ZM490.301 59.37C490.031 59.37 489.821 59.13 489.821 58.86C489.821 58.77 489.791 58.68 489.791 58.59C489.791 58.5 489.821 58.41 489.821 58.32V42.03C489.821 41.04 489.011 40.23 487.991 40.23C487.001 40.23 486.191 41.04 486.191 42.03C486.191 44.19 486.191 46.35 486.191 48.51V57.48C486.191 58.89 486.131 60.21 487.031 61.38C487.811 62.37 489.041 63 490.301 63C491.321 63 492.131 62.19 492.131 61.17C492.131 60.18 491.321 59.37 490.301 59.37ZM496.281 45.39C495.231 45.39 494.391 44.55 494.391 43.56V43.41C494.391 42.36 495.231 41.55 496.281 41.55C497.271 41.55 498.111 42.36 498.111 43.41V43.56C498.111 44.55 497.271 45.39 496.281 45.39ZM496.281 63C495.231 63 494.391 62.16 494.391 61.14V49.56C494.391 48.54 495.231 47.73 496.281 47.73C497.271 47.73 498.111 48.54 498.111 49.56V61.14C498.111 62.16 497.271 63 496.281 63ZM513.64 63.06H502.6C501.88 63.06 501.22 62.64 500.95 61.98C500.65 61.32 500.8 60.57 501.31 60.03L509.44 51.6H502.6C501.61 51.6 500.8 50.79 500.8 49.8C500.8 48.81 501.61 48 502.6 48H513.64C514.36 48 515.02 48.45 515.29 49.11C515.59 49.77 515.44 50.52 514.93 51.03L506.8 59.49H513.64C514.63 59.49 515.44 60.3 515.44 61.29C515.44 62.28 514.63 63.06 513.64 63.06ZM531.178 55.41C531.298 55.11 531.418 54.81 531.418 54.54C531.478 53.55 530.938 52.44 530.458 51.6C529.378 49.8 527.638 48.54 525.598 48.15C525.148 48.06 524.728 48.03 524.278 48.03C520.108 48.03 516.778 51.45 516.778 55.56C516.778 59.73 520.108 63.09 524.278 63.09C525.988 63.09 528.298 62.55 529.948 60.96C530.668 60.27 530.698 59.1 529.978 58.41C529.288 57.69 528.148 57.69 527.428 58.38C526.648 59.13 525.238 59.52 524.278 59.52C522.418 59.52 520.888 58.2 520.468 56.49H529.708C530.428 56.49 530.938 55.98 531.178 55.41ZM524.278 51.66C525.628 51.66 526.738 52.32 527.338 53.46H520.978C521.698 52.35 522.898 51.66 524.278 51.66ZM545.775 40.23C544.785 40.23 543.975 41.07 543.975 42.06V49.08C542.745 48.3 541.305 47.82 539.745 47.82C535.575 47.82 532.155 51.24 532.155 55.41C532.155 59.61 535.575 63 539.745 63C541.335 63 542.835 62.52 544.035 61.68C544.275 62.43 544.965 62.94 545.775 62.94C546.795 62.94 547.605 62.13 547.605 61.14V42.06C547.605 41.07 546.795 40.23 545.775 40.23ZM539.745 59.37C537.555 59.37 535.785 57.6 535.785 55.41C535.785 53.22 537.555 51.45 539.745 51.45C541.935 51.45 543.705 53.22 543.705 55.41C543.705 57.6 541.935 59.37 539.745 59.37ZM22.98 92.51L13.53 73.58C13.2 72.98 12.6 72.59 11.91 72.59H11.88C11.19 72.62 10.59 73.01 10.29 73.64L1.53 92.57C1.11 93.47 1.5 94.52 2.4 94.94C2.64 95.06 2.88 95.12 3.15 95.12C3.81 95.12 4.47 94.73 4.77 94.07L6.93 89.42C6.99 89.45 7.05 89.45 7.14 89.45H17.4H17.43L19.77 94.13C20.22 95 21.3 95.36 22.17 94.91C23.07 94.49 23.43 93.41 22.98 92.51ZM8.58 85.85L11.97 78.53L15.63 85.85H8.58ZM32.6557 95.09C28.7557 95.09 25.5457 91.7 25.5457 87.56V81.83C25.5457 80.84 26.2957 80.03 27.2257 80.03C28.1857 80.03 29.1157 80.84 29.1157 81.83V87.56C29.1157 89.72 30.9157 91.46 32.6557 91.46C34.6957 91.46 36.2257 89.72 36.2257 87.56V82.07C36.2257 81.05 37.2757 80.27 38.0857 80.27C39.0157 80.27 39.7957 81.05 39.7957 82.07V87.56C39.7957 91.7 36.5857 95.09 32.6557 95.09ZM54.9063 72.23C53.9163 72.23 53.1063 73.07 53.1063 74.06V81.08C51.8763 80.3 50.4363 79.82 48.8763 79.82C44.7063 79.82 41.2863 83.24 41.2863 87.41C41.2863 91.61 44.7063 95 48.8763 95C50.4663 95 51.9663 94.52 53.1663 93.68C53.4063 94.43 54.0963 94.94 54.9063 94.94C55.9263 94.94 56.7363 94.13 56.7363 93.14V74.06C56.7363 73.07 55.9263 72.23 54.9063 72.23ZM48.8763 91.37C46.6863 91.37 44.9163 89.6 44.9163 87.41C44.9163 85.22 46.6863 83.45 48.8763 83.45C51.0663 83.45 52.8363 85.22 52.8363 87.41C52.8363 89.6 51.0663 91.37 48.8763 91.37ZM61.1634 77.39C60.1134 77.39 59.2734 76.55 59.2734 75.56V75.41C59.2734 74.36 60.1134 73.55 61.1634 73.55C62.1534 73.55 62.9934 74.36 62.9934 75.41V75.56C62.9934 76.55 62.1534 77.39 61.1634 77.39ZM61.1634 95C60.1134 95 59.2734 94.16 59.2734 93.14V81.56C59.2734 80.54 60.1134 79.73 61.1634 79.73C62.1534 79.73 62.9934 80.54 62.9934 81.56V93.14C62.9934 94.16 62.1534 95 61.1634 95ZM71.8924 91.31C71.6824 91.31 71.4124 91.34 71.2624 91.19C71.0524 91.01 71.1124 90.65 71.0524 90.41V83.27H72.0424C73.0324 83.27 73.8424 82.46 73.8424 81.47C73.8424 80.48 73.0324 79.67 72.0424 79.67H71.0524V73.94C71.0524 72.95 70.2424 72.14 69.2524 72.14C68.2624 72.14 67.4524 72.95 67.4524 73.94V79.67H66.1624C65.1724 79.67 64.3624 80.48 64.3624 81.47C64.3624 82.46 65.1724 83.27 66.1624 83.27H67.4524V90.83C67.4524 91.76 67.8724 92.84 68.4724 93.53C69.1624 94.31 70.1224 94.73 71.1124 94.88C71.3824 94.91 71.6224 94.91 71.8924 94.91C72.8824 94.91 73.6924 94.13 73.6924 93.11C73.6924 92.12 72.8824 91.31 71.8924 91.31ZM77.9798 77.39C76.9298 77.39 76.0898 76.55 76.0898 75.56V75.41C76.0898 74.36 76.9298 73.55 77.9798 73.55C78.9698 73.55 79.8098 74.36 79.8098 75.41V75.56C79.8098 76.55 78.9698 77.39 77.9798 77.39ZM77.9798 95C76.9298 95 76.0898 94.16 76.0898 93.14V81.56C76.0898 80.54 76.9298 79.73 77.9798 79.73C78.9698 79.73 79.8098 80.54 79.8098 81.56V93.14C79.8098 94.16 78.9698 95 77.9798 95ZM89.6388 80.03C88.2888 80.03 87.0588 80.42 85.9788 81.11C85.7388 80.39 85.0788 79.88 84.2988 79.88C83.3088 79.88 82.4988 80.69 82.4988 81.68V93.14C82.4988 94.13 83.3088 94.94 84.2988 94.94C85.2888 94.94 86.0988 94.13 86.0988 93.14V88.04C86.0988 85.97 87.2988 83.63 89.6388 83.63C91.5288 83.63 93.0888 85.34 93.0888 87.47V93.14C93.0888 94.13 93.8688 94.94 94.8888 94.94C95.8788 94.94 96.6588 94.13 96.6588 93.14V87.47C96.6588 83.36 93.5088 80.03 89.6388 80.03ZM111.925 79.79C111.115 79.79 110.455 80.33 110.185 81.05C109.045 80.33 107.695 79.94 106.285 79.94C102.145 79.94 98.7551 83.3 98.7551 87.44C98.7551 91.58 102.145 94.94 106.285 94.94C107.665 94.94 108.985 94.55 110.095 93.89V95.21C110.095 97.46 108.295 99.26 106.045 99.26C104.875 99.26 103.735 98.78 102.985 97.88C102.325 97.1 101.155 97.01 100.405 97.7C99.6251 98.33 99.5651 99.5 100.195 100.28C101.665 101.99 103.795 102.95 106.045 102.95C110.305 102.95 113.755 99.47 113.755 95.21V81.62C113.755 80.63 112.945 79.79 111.925 79.79ZM106.285 91.28C104.155 91.28 102.445 89.54 102.445 87.44C102.445 85.31 104.155 83.6 106.285 83.6C108.385 83.6 110.095 85.31 110.095 87.44C110.095 89.54 108.385 91.28 106.285 91.28Z" fill="white"/>
<path d="M173.076 3.04C173.076 3 173.036 2.96 173.036 2.92C173.036 2.88 173.036 2.84 173.036 2.8V2.68C173.036 2.64 172.996 2.6 172.996 2.56C172.996 2.52 172.996 2.48 172.956 2.44V2.32C172.916 2.28 172.916 2.24 172.916 2.24L172.836 2.12C172.836 2.08 172.836 2.04 172.796 2C172.796 1.96 172.756 1.92 172.756 1.88L172.676 1.76C172.676 1.76 172.636 1.72 172.636 1.68C172.596 1.64 172.556 1.6 172.556 1.56C172.516 1.56 172.516 1.52 172.476 1.52C172.436 1.48 172.436 1.44 172.396 1.4L172.316 1.32C172.276 1.28 172.236 1.28 172.236 1.24L172.116 1.16C172.116 1.16 172.116 1.12 172.076 1.12C172.076 1.12 172.036 1.12 172.036 1.08C171.996 1.08 171.956 1.04 171.916 0.999998C171.876 0.999998 171.876 0.959998 171.836 0.959998L171.716 0.879999C171.676 0.879999 171.636 0.84 171.596 0.84C171.556 0.84 171.516 0.799998 171.476 0.799998C171.476 0.799998 171.436 0.759998 171.396 0.759998C171.356 0.759998 171.316 0.719999 171.276 0.719999C171.236 0.719999 171.196 0.679999 171.156 0.679999H171.036C170.996 0.639997 170.956 0.639997 170.916 0.639997C170.876 0.639997 170.836 0.639997 170.796 0.639997H170.636H170.596H170.556C170.516 0.639997 170.476 0.639997 170.396 0.639997H170.316C170.276 0.639997 170.236 0.639997 170.196 0.679999H170.076C170.036 0.679999 169.996 0.719999 169.956 0.719999C169.916 0.719999 169.876 0.719999 169.836 0.759998C169.796 0.759998 169.756 0.759998 169.716 0.799998C169.676 0.799998 169.636 0.799998 169.596 0.84C169.556 0.84 169.516 0.879999 169.516 0.879999C169.476 0.919999 169.436 0.919999 169.396 0.919999C169.356 0.959998 169.316 0.999998 169.276 0.999998L169.196 1.08C169.156 1.08 169.116 1.12 169.076 1.16C169.036 1.16 169.036 1.2 168.996 1.2C168.956 1.24 168.956 1.28 168.916 1.28L168.836 1.36C168.796 1.4 168.756 1.44 168.756 1.48C168.716 1.48 168.676 1.52 168.676 1.56C168.636 1.56 168.636 1.6 168.636 1.6C167.756 2.76 166.276 3.48 165.396 3.48C164.036 3.48 162.916 4.6 162.916 5.96C162.916 7.32 164.036 8.44 165.396 8.44C166.276 8.44 167.236 8.24 168.116 7.88V28.52C168.116 29.88 169.236 31 170.596 31C171.956 31 173.076 29.88 173.076 28.52V3.08V3.04ZM184.824 31.08C182.264 31.08 179.704 30.04 178.384 28.8C177.424 27.92 177.344 26.4 178.264 25.44C179.144 24.44 180.664 24.4 181.624 25.28C182.344 25.96 185.024 26.88 186.544 25.88C186.944 25.64 187.184 25.2 187.184 24.76C187.184 24.2 186.704 23.8 186.304 23.64C185.944 23.44 185.304 23.44 184.584 23.44C183.624 23.44 182.544 23.4 181.424 23C179.344 22.32 177.664 20.16 177.504 18.08C177.304 15.56 178.384 14 179.304 13.12C181.304 11.28 184.224 11 186.344 11.36C187.944 11.64 189.144 12.2 190.144 13.12C191.104 14 191.184 15.52 190.304 16.48C189.784 17.04 189.024 17.32 188.264 17.24C187.904 17.2 187.544 17.08 187.224 16.88C186.664 16.48 186.264 16.2 185.544 16.08C184.344 15.88 182.104 15.96 182.264 17.68C182.304 17.88 182.664 18.4 182.984 18.52C183.384 18.64 183.984 18.64 184.624 18.64C185.664 18.68 186.984 18.68 188.304 19.28C190.504 20.28 191.944 22.44 191.944 24.76C191.944 26.8 190.904 28.72 189.184 29.88C187.824 30.76 186.344 31.08 184.824 31.08ZM203.015 26.08C202.735 26.08 202.375 26.12 202.175 25.92C201.895 25.68 201.975 25.2 201.895 24.88V15.36H203.215C204.535 15.36 205.615 14.28 205.615 12.96C205.615 11.64 204.535 10.56 203.215 10.56H201.895V2.92C201.895 1.6 200.815 0.519999 199.495 0.519999C198.175 0.519999 197.095 1.6 197.095 2.92V10.56H195.375C194.055 10.56 192.975 11.64 192.975 12.96C192.975 14.28 194.055 15.36 195.375 15.36H197.095V25.44C197.095 26.68 197.655 28.12 198.455 29.04C199.375 30.08 200.655 30.64 201.975 30.84C202.335 30.88 202.655 30.88 203.015 30.88C204.335 30.88 205.415 29.84 205.415 28.48C205.415 27.16 204.335 26.08 203.015 26.08ZM20.91 42.03V41.94C20.91 41.91 20.91 41.88 20.91 41.85V41.76C20.88 41.73 20.88 41.7 20.88 41.67C20.88 41.64 20.85 41.61 20.85 41.58C20.85 41.55 20.85 41.52 20.82 41.49C20.82 41.46 20.82 41.46 20.79 41.43C20.79 41.4 20.79 41.37 20.76 41.34C20.76 41.31 20.73 41.28 20.73 41.25C20.7 41.22 20.7 41.22 20.7 41.19C20.67 41.16 20.64 41.13 20.64 41.1L20.58 41.04C20.58 41.01 20.55 40.98 20.52 40.95C20.52 40.92 20.49 40.92 20.49 40.89C20.46 40.86 20.43 40.86 20.43 40.83L20.37 40.77C20.34 40.74 20.31 40.71 20.28 40.71C20.28 40.68 20.25 40.65 20.22 40.65L20.19 40.62C20.16 40.59 20.16 40.59 20.16 40.59L20.07 40.53C20.04 40.53 20.01 40.5 20.01 40.5L19.92 40.44C19.89 40.44 19.86 40.44 19.83 40.41C19.8 40.41 19.77 40.38 19.77 40.38C19.74 40.38 19.71 40.35 19.65 40.35C19.65 40.35 19.62 40.35 19.59 40.32C19.56 40.32 19.53 40.32 19.5 40.29H19.41C19.38 40.29 19.35 40.29 19.32 40.26H19.26C19.2 40.26 19.17 40.26 19.14 40.26H19.11C19.08 40.26 19.08 40.26 19.05 40.26H18.96C18.93 40.26 18.9 40.26 18.87 40.29H18.78C18.75 40.29 18.72 40.29 18.69 40.32H18.6C18.57 40.35 18.54 40.35 18.51 40.35C18.48 40.38 18.48 40.38 18.45 40.38C18.42 40.41 18.39 40.41 18.36 40.41L18.27 40.47C18.24 40.47 18.24 40.47 18.21 40.5C18.18 40.5 18.15 40.53 18.12 40.56C18.09 40.56 18.09 40.59 18.06 40.59C18.03 40.62 18 40.62 17.97 40.65L17.91 40.71C17.88 40.71 17.88 40.74 17.85 40.77C17.82 40.8 17.79 40.8 17.79 40.83C17.76 40.86 17.73 40.86 17.73 40.89C17.7 40.92 17.67 40.95 17.67 40.98C17.64 40.98 17.64 40.98 17.64 41.01L11.13 49.92L4.65 41.01C4.62 40.98 4.62 40.98 4.59 40.98C4.59 40.95 4.56 40.92 4.53 40.89C4.53 40.86 4.5 40.86 4.47 40.83C4.47 40.8 4.44 40.8 4.44 40.77C4.41 40.74 4.38 40.71 4.35 40.71C4.32 40.68 4.32 40.68 4.29 40.65L4.2 40.59C4.2 40.59 4.17 40.56 4.14 40.56C4.11 40.53 4.08 40.5 4.05 40.5C4.05 40.47 4.02 40.47 3.99 40.47L3.9 40.41C3.87 40.41 3.87 40.41 3.84 40.38C3.81 40.38 3.78 40.38 3.75 40.35C3.72 40.35 3.69 40.35 3.66 40.32H3.57C3.54 40.29 3.51 40.29 3.48 40.29H3.39C3.36 40.26 3.33 40.26 3.33 40.26H3.21C3.18 40.26 3.18 40.26 3.15 40.26C3.09 40.26 3.06 40.26 3.03 40.26H2.97C2.91 40.29 2.88 40.29 2.85 40.29H2.79C2.73 40.32 2.7 40.32 2.67 40.32C2.64 40.35 2.64 40.35 2.61 40.35C2.58 40.35 2.55 40.38 2.52 40.38C2.49 40.38 2.46 40.41 2.43 40.41C2.4 40.44 2.37 40.44 2.34 40.44C2.34 40.47 2.31 40.47 2.28 40.5C2.25 40.5 2.22 40.53 2.19 40.53C2.16 40.56 2.13 40.56 2.13 40.59C2.1 40.59 2.1 40.59 2.1 40.62C2.07 40.62 2.07 40.62 2.04 40.65L1.98 40.71C1.95 40.71 1.92 40.74 1.92 40.77C1.89 40.77 1.86 40.8 1.86 40.83L1.77 40.89C1.77 40.92 1.74 40.92 1.74 40.95C1.71 40.98 1.68 41.01 1.68 41.04L1.62 41.1C1.62 41.13 1.59 41.16 1.59 41.19L1.53 41.25C1.53 41.28 1.53 41.31 1.5 41.34C1.5 41.37 1.47 41.4 1.47 41.43C1.47 41.46 1.44 41.46 1.44 41.49C1.44 41.52 1.41 41.55 1.41 41.58C1.41 41.61 1.41 41.64 1.38 41.67V41.76C1.38 41.79 1.35 41.82 1.35 41.85V41.94C1.35 41.97 1.35 42 1.35 42.03V42.09V61.2C1.35 62.22 2.16 63.03 3.15 63.03C4.17 63.03 4.98 62.22 4.98 61.2V47.67L9.66 54.09C10.02 54.54 10.56 54.84 11.13 54.84C11.73 54.84 12.27 54.54 12.6 54.09L17.28 47.67V61.2C17.28 62.22 18.09 63.03 19.11 63.03C20.1 63.03 20.94 62.22 20.94 61.2V42.09C20.94 42.06 20.91 42.06 20.91 42.03ZM36.1884 48C35.1984 48 34.5984 48.78 34.5984 49.71V49.86C33.3084 48.81 31.8084 48.12 30.0084 48.12C25.9884 48.12 22.7484 51.39 22.7484 55.38C22.7484 59.37 25.9884 62.61 30.0084 62.61C31.8084 62.61 33.3084 61.95 34.5984 60.84V61.2C34.5984 62.13 35.1984 62.91 36.1884 62.91C37.1784 62.91 37.9284 62.13 37.9284 61.2V49.71C37.9284 48.78 37.1784 48 36.1884 48ZM30.0084 59.1C27.9384 59.1 26.2284 57.45 26.2284 55.38C26.2284 53.31 27.9384 51.63 30.0084 51.63C32.0484 51.63 33.7584 53.31 33.7584 55.38C33.7584 57.45 32.0484 59.1 30.0084 59.1ZM53.0208 50.04C51.6708 48.78 49.9308 48.06 48.0708 48.06C46.6908 48.06 45.3708 48.48 44.2608 49.17C44.0208 48.45 43.3608 47.94 42.5508 47.94C41.5608 47.94 40.7508 48.72 40.7508 49.71V61.2C40.7508 62.19 41.5608 63 42.5508 63C43.5408 63 44.3508 62.19 44.3508 61.2V55.53C44.3508 53.4 46.0308 51.66 48.0708 51.66C49.0008 51.66 49.9008 52.02 50.5608 52.65C51.3108 53.34 52.4208 53.28 53.1108 52.56C53.8008 51.84 53.7408 50.7 53.0208 50.04ZM67.054 59.76L61.474 54.63L66.484 51.24C67.294 50.64 67.504 49.5 66.904 48.69C66.334 47.85 65.194 47.67 64.354 48.24L58.444 52.32V42.18C58.444 41.16 57.634 40.35 56.614 40.35C55.594 40.35 54.784 41.16 54.784 42.18V61.29C54.784 62.31 55.594 63.12 56.614 63.12C57.634 63.12 58.444 62.31 58.444 61.29V56.82L64.564 62.46C64.924 62.79 65.344 62.94 65.794 62.94C66.274 62.94 66.784 62.73 67.144 62.37C67.834 61.59 67.774 60.45 67.054 59.76ZM82.4672 55.41C82.5872 55.11 82.7072 54.81 82.7072 54.54C82.7672 53.55 82.2272 52.44 81.7472 51.6C80.6672 49.8 78.9272 48.54 76.8872 48.15C76.4372 48.06 76.0172 48.03 75.5672 48.03C71.3972 48.03 68.0672 51.45 68.0672 55.56C68.0672 59.73 71.3972 63.09 75.5672 63.09C77.2772 63.09 79.5872 62.55 81.2372 60.96C81.9572 60.27 81.9872 59.1 81.2672 58.41C80.5772 57.69 79.4372 57.69 78.7172 58.38C77.9372 59.13 76.5272 59.52 75.5672 59.52C73.7072 59.52 72.1772 58.2 71.7572 56.49H80.9972C81.7172 56.49 82.2272 55.98 82.4672 55.41ZM75.5672 51.66C76.9172 51.66 78.0272 52.32 78.6272 53.46H72.2672C72.9872 52.35 74.1872 51.66 75.5672 51.66ZM90.5545 59.31C90.3445 59.31 90.0745 59.34 89.9245 59.19C89.7145 59.01 89.7745 58.65 89.7145 58.41V51.27H90.7045C91.6945 51.27 92.5045 50.46 92.5045 49.47C92.5045 48.48 91.6945 47.67 90.7045 47.67H89.7145V41.94C89.7145 40.95 88.9045 40.14 87.9145 40.14C86.9245 40.14 86.1145 40.95 86.1145 41.94V47.67H84.8245C83.8345 47.67 83.0245 48.48 83.0245 49.47C83.0245 50.46 83.8345 51.27 84.8245 51.27H86.1145V58.83C86.1145 59.76 86.5345 60.84 87.1345 61.53C87.8245 62.31 88.7845 62.73 89.7745 62.88C90.0445 62.91 90.2845 62.91 90.5545 62.91C91.5445 62.91 92.3545 62.13 92.3545 61.11C92.3545 60.12 91.5445 59.31 90.5545 59.31ZM96.642 45.39C95.592 45.39 94.752 44.55 94.752 43.56V43.41C94.752 42.36 95.592 41.55 96.642 41.55C97.632 41.55 98.472 42.36 98.472 43.41V43.56C98.472 44.55 97.632 45.39 96.642 45.39ZM96.642 63C95.592 63 94.752 62.16 94.752 61.14V49.56C94.752 48.54 95.592 47.73 96.642 47.73C97.632 47.73 98.472 48.54 98.472 49.56V61.14C98.472 62.16 97.632 63 96.642 63ZM108.301 48.03C106.951 48.03 105.721 48.42 104.641 49.11C104.401 48.39 103.741 47.88 102.961 47.88C101.971 47.88 101.161 48.69 101.161 49.68V61.14C101.161 62.13 101.971 62.94 102.961 62.94C103.951 62.94 104.761 62.13 104.761 61.14V56.04C104.761 53.97 105.961 51.63 108.301 51.63C110.191 51.63 111.751 53.34 111.751 55.47V61.14C111.751 62.13 112.531 62.94 113.551 62.94C114.541 62.94 115.321 62.13 115.321 61.14V55.47C115.321 51.36 112.171 48.03 108.301 48.03ZM130.587 47.79C129.777 47.79 129.117 48.33 128.847 49.05C127.707 48.33 126.357 47.94 124.947 47.94C120.807 47.94 117.417 51.3 117.417 55.44C117.417 59.58 120.807 62.94 124.947 62.94C126.327 62.94 127.647 62.55 128.757 61.89V63.21C128.757 65.46 126.957 67.26 124.707 67.26C123.537 67.26 122.397 66.78 121.647 65.88C120.987 65.1 119.817 65.01 119.067 65.7C118.287 66.33 118.227 67.5 118.857 68.28C120.327 69.99 122.457 70.95 124.707 70.95C128.967 70.95 132.417 67.47 132.417 63.21V49.62C132.417 48.63 131.607 47.79 130.587 47.79ZM124.947 59.28C122.817 59.28 121.107 57.54 121.107 55.44C121.107 53.31 122.817 51.6 124.947 51.6C127.047 51.6 128.757 53.31 128.757 55.44C128.757 57.54 127.047 59.28 124.947 59.28ZM145.503 63.09C145.053 63.09 144.603 62.91 144.273 62.58C143.943 62.25 143.733 61.8 143.733 61.32V42.09C143.733 41.1 144.543 40.32 145.503 40.32C146.493 40.32 147.273 41.1 147.273 42.09V59.52L156.093 59.43H156.123C157.083 59.43 157.863 60.21 157.893 61.17C157.893 62.16 157.113 62.97 156.123 62.97L145.533 63.09H145.503ZM172.683 48C171.693 48 171.093 48.78 171.093 49.71V49.86C169.803 48.81 168.303 48.12 166.503 48.12C162.483 48.12 159.243 51.39 159.243 55.38C159.243 59.37 162.483 62.61 166.503 62.61C168.303 62.61 169.803 61.95 171.093 60.84V61.2C171.093 62.13 171.693 62.91 172.683 62.91C173.673 62.91 174.423 62.13 174.423 61.2V49.71C174.423 48.78 173.673 48 172.683 48ZM166.503 59.1C164.433 59.1 162.723 57.45 162.723 55.38C162.723 53.31 164.433 51.63 166.503 51.63C168.543 51.63 170.253 53.31 170.253 55.38C170.253 57.45 168.543 59.1 166.503 59.1ZM184.355 63.09C180.455 63.09 177.245 59.7 177.245 55.56V49.83C177.245 48.84 177.995 48.03 178.925 48.03C179.885 48.03 180.815 48.84 180.815 49.83V55.56C180.815 57.72 182.615 59.46 184.355 59.46C186.395 59.46 187.925 57.72 187.925 55.56V50.07C187.925 49.05 188.975 48.27 189.785 48.27C190.715 48.27 191.495 49.05 191.495 50.07V55.56C191.495 59.7 188.285 63.09 184.355 63.09ZM201.026 48.03C199.676 48.03 198.446 48.42 197.366 49.11C197.126 48.39 196.466 47.88 195.686 47.88C194.696 47.88 193.886 48.69 193.886 49.68V61.14C193.886 62.13 194.696 62.94 195.686 62.94C196.676 62.94 197.486 62.13 197.486 61.14V56.04C197.486 53.97 198.686 51.63 201.026 51.63C202.916 51.63 204.476 53.34 204.476 55.47V61.14C204.476 62.13 205.256 62.94 206.276 62.94C207.266 62.94 208.046 62.13 208.046 61.14V55.47C208.046 51.36 204.896 48.03 201.026 48.03ZM217.822 62.91C215.842 62.91 214.012 62.16 212.602 60.81C211.162 59.4 210.352 57.54 210.292 55.53C210.262 53.55 210.982 51.63 212.422 50.19C213.802 48.75 215.662 47.94 217.672 47.88C219.682 47.85 221.572 48.6 223.012 50.01C223.732 50.67 223.762 51.84 223.072 52.53C222.382 53.25 221.242 53.28 220.522 52.59C219.772 51.87 218.782 51.48 217.732 51.48C216.682 51.48 215.722 51.93 214.972 52.68C214.282 53.43 213.862 54.42 213.892 55.47C213.892 56.49 214.342 57.51 215.092 58.2C215.842 58.95 216.832 59.34 217.852 59.31C218.842 59.31 219.772 58.92 220.492 58.26C221.182 57.57 222.352 57.63 223.012 58.35C223.702 59.07 223.642 60.21 222.922 60.9C221.572 62.16 219.802 62.88 217.942 62.91H217.822ZM239.318 54.72C239.318 51 236.318 48 232.598 48C231.488 48 230.438 48.27 229.508 48.75V42.15C229.508 41.16 228.698 40.32 227.678 40.32C226.688 40.32 225.848 41.16 225.848 42.15V61.29C225.848 62.28 226.688 63.09 227.678 63.09C228.698 63.09 229.508 62.28 229.508 61.29V54.72C229.508 53.01 230.888 51.63 232.598 51.63C234.308 51.63 235.688 53.01 235.688 54.72V61.29C235.688 62.28 236.498 63.09 237.518 63.09C238.508 63.09 239.318 62.28 239.318 61.29V54.72ZM249.884 47.94C248.294 47.94 246.794 48.42 245.594 49.26C245.354 48.54 244.664 48 243.854 48C242.834 48 242.024 48.81 242.024 49.8V68.88C242.024 69.9 242.834 70.71 243.854 70.71C244.844 70.71 245.654 69.9 245.654 68.88V61.86C246.884 62.64 248.324 63.12 249.884 63.12C254.054 63.12 257.474 59.73 257.474 55.53C257.474 51.33 254.054 47.94 249.884 47.94ZM249.884 59.49C247.694 59.49 245.924 57.72 245.924 55.53C245.924 53.34 247.694 51.57 249.884 51.57C252.044 51.57 253.844 53.34 253.844 55.53C253.844 57.72 252.044 59.49 249.884 59.49ZM272.263 48C271.273 48 270.673 48.78 270.673 49.71V49.86C269.383 48.81 267.883 48.12 266.083 48.12C262.063 48.12 258.823 51.39 258.823 55.38C258.823 59.37 262.063 62.61 266.083 62.61C267.883 62.61 269.383 61.95 270.673 60.84V61.2C270.673 62.13 271.273 62.91 272.263 62.91C273.253 62.91 274.003 62.13 274.003 61.2V49.71C274.003 48.78 273.253 48 272.263 48ZM266.083 59.1C264.013 59.1 262.303 57.45 262.303 55.38C262.303 53.31 264.013 51.63 266.083 51.63C268.123 51.63 269.833 53.31 269.833 55.38C269.833 57.45 268.123 59.1 266.083 59.1ZM289.545 40.23C288.555 40.23 287.745 41.07 287.745 42.06V49.08C286.515 48.3 285.075 47.82 283.515 47.82C279.345 47.82 275.925 51.24 275.925 55.41C275.925 59.61 279.345 63 283.515 63C285.105 63 286.605 62.52 287.805 61.68C288.045 62.43 288.735 62.94 289.545 62.94C290.565 62.94 291.375 62.13 291.375 61.14V42.06C291.375 41.07 290.565 40.23 289.545 40.23ZM283.515 59.37C281.325 59.37 279.555 57.6 279.555 55.41C279.555 53.22 281.325 51.45 283.515 51.45C285.705 51.45 287.475 53.22 287.475 55.41C287.475 57.6 285.705 59.37 283.515 59.37Z" fill="#FCCF00"/>
</svg>
