<svg width="360" height="360" viewBox="0 0 360 360" fill="none" xmlns="http://www.w3.org/2000/svg">
<rect width="360" height="360" fill="#00A259"/>
<g clip-path="url(#clip0)">
<path d="M248.74 170.858C247.117 182.46 243.221 193.4 237.16 203.374C231.432 212.798 223.913 221.147 214.811 228.187C188.334 248.671 153.475 253.928 128.545 247.292C128.209 247.201 127.879 247.111 127.548 247.015C121.279 245.221 116.101 242.495 112.145 238.912L110.639 237.546L111.217 228.097L111.821 218.252C115.18 217.905 119.444 217.558 127.548 215.837C139.004 213.436 157.398 208.349 173.328 198.394C185.246 190.948 193.895 181.961 199.035 171.68L199.092 171.575C200.426 169.075 204.08 161.528 204.916 156.677C205.841 151.31 209.038 143.139 213.874 137.88C215.502 136.108 217.534 134.753 219.814 133.907V110H241.164V135.521C249.208 143.777 250.337 159.442 248.74 170.858Z" fill="#FCCF00"/>
<path d="M127.548 215.836V247.015C121.279 245.22 116.101 242.494 112.145 238.911L110.639 237.546L111.217 228.096L111.821 218.252C115.18 217.905 119.444 217.557 127.548 215.836Z" fill="#424449"/>
</g>
<defs>
<clipPath id="clip0">
<rect width="140" height="140" fill="white" transform="translate(110 110)"/>
</clipPath>
</defs>
</svg>
