<svg width="240" height="68" viewBox="0 0 240 68" fill="none" xmlns="http://www.w3.org/2000/svg">
<g filter="url(#filter0_d)">
<rect x="4" width="232" height="60" rx="30" fill="#005141"/>
</g>
<path d="M98.5861 39V36.792H100.866V24.456H98.5861V22.248H105.882V24.456H103.578V36.792H105.882V39H98.5861ZM109.098 39V26.52H111.714V28.584H111.834C112.106 27.912 112.514 27.352 113.058 26.904C113.618 26.456 114.378 26.232 115.338 26.232C116.618 26.232 117.61 26.656 118.314 27.504C119.034 28.336 119.394 29.528 119.394 31.08V39H116.778V31.416C116.778 29.464 115.994 28.488 114.426 28.488C114.09 28.488 113.754 28.536 113.418 28.632C113.098 28.712 112.81 28.84 112.554 29.016C112.298 29.192 112.09 29.416 111.93 29.688C111.786 29.96 111.714 30.28 111.714 30.648V39H109.098ZM123.668 28.656H121.772V26.52H123.668V24.456C123.668 23.448 123.932 22.664 124.46 22.104C124.988 21.528 125.78 21.24 126.836 21.24H128.9V23.376H126.284V26.52H128.9V28.656H126.284V39H123.668V28.656ZM135.979 39.288C135.115 39.288 134.323 39.136 133.603 38.832C132.899 38.528 132.299 38.096 131.803 37.536C131.307 36.96 130.923 36.272 130.651 35.472C130.379 34.656 130.243 33.752 130.243 32.76C130.243 31.768 130.379 30.872 130.651 30.072C130.923 29.256 131.307 28.568 131.803 28.008C132.299 27.432 132.899 26.992 133.603 26.688C134.323 26.384 135.115 26.232 135.979 26.232C136.843 26.232 137.627 26.384 138.331 26.688C139.051 26.992 139.659 27.432 140.155 28.008C140.651 28.568 141.035 29.256 141.307 30.072C141.579 30.872 141.715 31.768 141.715 32.76C141.715 33.752 141.579 34.656 141.307 35.472C141.035 36.272 140.651 36.96 140.155 37.536C139.659 38.096 139.051 38.528 138.331 38.832C137.627 39.136 136.843 39.288 135.979 39.288ZM135.979 37.128C136.875 37.128 137.595 36.856 138.139 36.312C138.683 35.752 138.955 34.92 138.955 33.816V31.704C138.955 30.6 138.683 29.776 138.139 29.232C137.595 28.672 136.875 28.392 135.979 28.392C135.083 28.392 134.363 28.672 133.819 29.232C133.275 29.776 133.003 30.6 133.003 31.704V33.816C133.003 34.92 133.275 35.752 133.819 36.312C134.363 36.856 135.083 37.128 135.979 37.128Z" fill="white"/>
<defs>
<filter id="filter0_d" x="0" y="0" width="240" height="68" filterUnits="userSpaceOnUse" color-interpolation-filters="sRGB">
<feFlood flood-opacity="0" result="BackgroundImageFix"/>
<feColorMatrix in="SourceAlpha" type="matrix" values="0 0 0 0 0 0 0 0 0 0 0 0 0 0 0 0 0 0 127 0"/>
<feOffset dy="4"/>
<feGaussianBlur stdDeviation="2"/>
<feColorMatrix type="matrix" values="0 0 0 0 0 0 0 0 0 0 0 0 0 0 0 0 0 0 0.25 0"/>
<feBlend mode="normal" in2="BackgroundImageFix" result="effect1_dropShadow"/>
<feBlend mode="normal" in="SourceGraphic" in2="effect1_dropShadow" result="shape"/>
</filter>
</defs>
</svg>
