<svg width="38" height="37" viewBox="0 0 38 37" fill="none" xmlns="http://www.w3.org/2000/svg">
<g clip-path="url(#clip0)">
<path d="M19.0875 3.31236C23.9515 3.31236 24.5274 3.33369 26.4403 3.41903C28.2181 3.49725 29.1781 3.79591 29.818 4.0448C30.6643 4.3719 31.2758 4.77012 31.9087 5.403C32.5487 6.04299 32.9398 6.64743 33.2669 7.49364C33.5158 8.13363 33.8144 9.10073 33.8927 10.8714C33.978 12.7914 33.9993 13.3673 33.9993 18.2242C33.9993 23.0881 33.978 23.6641 33.8927 25.577C33.8144 27.3547 33.5158 28.3147 33.2669 28.9547C32.9398 29.8009 32.5416 30.4125 31.9087 31.0453C31.2687 31.6853 30.6643 32.0764 29.818 32.4036C29.1781 32.6524 28.211 32.9511 26.4403 33.0293C24.5203 33.1147 23.9443 33.136 19.0875 33.136C14.2236 33.136 13.6476 33.1147 11.7347 33.0293C9.95696 32.9511 8.99698 32.6524 8.35698 32.4036C7.51077 32.0764 6.89922 31.6782 6.26634 31.0453C5.62635 30.4054 5.23525 29.8009 4.90814 28.9547C4.65925 28.3147 4.36059 27.3476 4.28237 25.577C4.19704 23.657 4.1757 23.081 4.1757 18.2242C4.1757 13.3602 4.19704 12.7842 4.28237 10.8714C4.36059 9.09362 4.65925 8.13363 4.90814 7.49364C5.23525 6.64743 5.63346 6.03588 6.26634 5.403C6.90634 4.76301 7.51077 4.3719 8.35698 4.0448C8.99698 3.79591 9.96408 3.49725 11.7347 3.41903C13.6476 3.33369 14.2236 3.31236 19.0875 3.31236ZM19.0875 0.0341797C14.1454 0.0341797 13.5267 0.0555127 11.5854 0.140845C9.65119 0.226177 8.32143 0.539062 7.16944 0.987056C5.96768 1.45638 4.95081 2.07504 3.94104 3.09192C2.92416 4.10168 2.30551 5.11856 1.83618 6.31321C1.38818 7.47231 1.0753 8.79496 0.989966 10.7292C0.904634 12.6776 0.883301 13.2962 0.883301 18.2384C0.883301 23.1806 0.904634 23.7992 0.989966 25.7405C1.0753 27.6747 1.38818 29.0045 1.83618 30.1565C2.30551 31.3582 2.92416 32.3751 3.94104 33.3849C4.95081 34.3946 5.96768 35.0204 7.16233 35.4826C8.32143 35.9306 9.64408 36.2435 11.5783 36.3288C13.5196 36.4142 14.1382 36.4355 19.0804 36.4355C24.0226 36.4355 24.6412 36.4142 26.5825 36.3288C28.5167 36.2435 29.8465 35.9306 30.9985 35.4826C32.1931 35.0204 33.21 34.3946 34.2198 33.3849C35.2295 32.3751 35.8553 31.3582 36.3175 30.1636C36.7655 29.0045 37.0784 27.6818 37.1637 25.7476C37.2491 23.8063 37.2704 23.1877 37.2704 18.2455C37.2704 13.3033 37.2491 12.6847 37.1637 10.7434C37.0784 8.80918 36.7655 7.47942 36.3175 6.32743C35.8695 5.11856 35.2509 4.10168 34.234 3.09192C33.2242 2.08215 32.2074 1.45638 31.0127 0.994168C29.8536 0.546173 28.531 0.233288 26.5968 0.147956C24.6483 0.0555128 24.0297 0.0341797 19.0875 0.0341797Z" fill="white"/>
<path d="M19.0875 8.88721C13.9249 8.88721 9.73651 13.0756 9.73651 18.2382C9.73651 23.4008 13.9249 27.5892 19.0875 27.5892C24.2501 27.5892 28.4385 23.4008 28.4385 18.2382C28.4385 13.0756 24.2501 8.88721 19.0875 8.88721ZM19.0875 24.3039C15.7382 24.3039 13.0218 21.5875 13.0218 18.2382C13.0218 14.8889 15.7382 12.1725 19.0875 12.1725C22.4368 12.1725 25.1532 14.8889 25.1532 18.2382C25.1532 21.5875 22.4368 24.3039 19.0875 24.3039Z" fill="white"/>
<path d="M30.9914 8.51756C30.9914 9.72643 30.01 10.7006 28.8083 10.7006C27.5994 10.7006 26.6252 9.71932 26.6252 8.51756C26.6252 7.30868 27.6065 6.33447 28.8083 6.33447C30.01 6.33447 30.9914 7.31579 30.9914 8.51756Z" fill="white"/>
</g>
<defs>
<clipPath id="clip0">
<rect width="36.4084" height="36.4084" fill="white" transform="translate(0.883301 0.0341797)"/>
</clipPath>
</defs>
</svg>
