<svg width="240" height="68" viewBox="0 0 240 68" fill="none" xmlns="http://www.w3.org/2000/svg">
<g filter="url(#filter0_d)">
<rect x="4" width="232" height="60" rx="30" fill="#FCCF00"/>
<path d="M103.343 39.075C101.743 39.075 100.243 38.375 99.2177 37.15C98.4177 36.2 97.9927 35 97.9927 33.75C97.9927 32.875 98.6927 32.175 99.5677 32.175C100.443 32.175 101.143 32.875 101.143 33.75C101.143 34.25 101.318 34.75 101.643 35.15C102.068 35.65 102.668 35.95 103.343 35.95C104.543 35.95 105.518 34.95 105.518 33.75V21.675C105.518 20.8 106.243 20.1 107.093 20.1C107.968 20.1 108.668 20.8 108.668 21.675V33.75C108.668 36.675 106.268 39.075 103.343 39.075ZM116.808 38.95C113.358 38.95 110.533 36.15 110.533 32.675C110.533 29.225 113.358 26.4 116.808 26.4C120.258 26.4 123.083 29.225 123.108 32.7C123.083 36.15 120.258 38.95 116.808 38.95ZM116.808 29.475C115.033 29.475 113.608 30.9 113.608 32.675C113.608 34.45 115.033 35.875 116.808 35.875C118.583 35.875 120.008 34.45 120.008 32.675C120.008 30.9 118.583 29.475 116.808 29.475ZM126.695 24.325C125.82 24.325 125.12 23.625 125.12 22.8V22.675C125.12 21.8 125.82 21.125 126.695 21.125C127.52 21.125 128.22 21.8 128.22 22.675V22.8C128.22 23.625 127.52 24.325 126.695 24.325ZM126.695 39C125.82 39 125.12 38.3 125.12 37.45V27.8C125.12 26.95 125.82 26.275 126.695 26.275C127.52 26.275 128.22 26.95 128.22 27.8V37.45C128.22 38.3 127.52 39 126.695 39ZM136.41 26.525C135.285 26.525 134.26 26.85 133.36 27.425C133.16 26.825 132.61 26.4 131.96 26.4C131.135 26.4 130.46 27.075 130.46 27.9V37.45C130.46 38.275 131.135 38.95 131.96 38.95C132.785 38.95 133.46 38.275 133.46 37.45V33.2C133.46 31.475 134.46 29.525 136.41 29.525C137.985 29.525 139.285 30.95 139.285 32.725V37.45C139.285 38.275 139.935 38.95 140.785 38.95C141.61 38.95 142.26 38.275 142.26 37.45V32.725C142.26 29.3 139.635 26.525 136.41 26.525Z" fill="#015F4D"/>
</g>
<defs>
<filter id="filter0_d" x="0" y="0" width="240" height="68" filterUnits="userSpaceOnUse" color-interpolation-filters="sRGB">
<feFlood flood-opacity="0" result="BackgroundImageFix"/>
<feColorMatrix in="SourceAlpha" type="matrix" values="0 0 0 0 0 0 0 0 0 0 0 0 0 0 0 0 0 0 127 0"/>
<feOffset dy="4"/>
<feGaussianBlur stdDeviation="2"/>
<feColorMatrix type="matrix" values="0 0 0 0 0 0 0 0 0 0 0 0 0 0 0 0 0 0 0.25 0"/>
<feBlend mode="normal" in2="BackgroundImageFix" result="effect1_dropShadow"/>
<feBlend mode="normal" in="SourceGraphic" in2="effect1_dropShadow" result="shape"/>
</filter>
</defs>
</svg>
