<svg width="565" height="108" viewBox="0 0 565 108" fill="none" xmlns="http://www.w3.org/2000/svg">
<path d="M26.45 37.15H3.25C1.6 37.15 0.25 38.5 0.25 40.15C0.25 41.85 1.6 43.2 3.25 43.2H11.8V72.05C11.8 73.75 13.15 75.1 14.85 75.1C16.5 75.1 17.85 73.75 17.85 72.05V43.2H26.45C28.1 43.2 29.45 41.85 29.45 40.15C29.45 38.5 28.1 37.15 26.45 37.15ZM55.4395 62.35C55.6395 61.85 55.8395 61.35 55.8395 60.9C55.9395 59.25 55.0395 57.4 54.2395 56C52.4395 53 49.5395 50.9 46.1395 50.25C45.3895 50.1 44.6895 50.05 43.9395 50.05C36.9895 50.05 31.4395 55.75 31.4395 62.6C31.4395 69.55 36.9895 75.15 43.9395 75.15C46.7895 75.15 50.6395 74.25 53.3895 71.6C54.5895 70.45 54.6395 68.5 53.4395 67.35C52.2895 66.15 50.3895 66.15 49.1895 67.3C47.8895 68.55 45.5395 69.2 43.9395 69.2C40.8395 69.2 38.2895 67 37.5895 64.15H52.9895C54.1895 64.15 55.0395 63.3 55.4395 62.35ZM43.9395 56.1C46.1895 56.1 48.0395 57.2 49.0395 59.1H38.4395C39.6395 57.25 41.6395 56.1 43.9395 56.1ZM79.9684 50C78.3184 50 77.3184 51.3 77.3184 52.85V53.1C75.1684 51.35 72.6684 50.2 69.6684 50.2C62.9684 50.2 57.5684 55.65 57.5684 62.3C57.5684 68.95 62.9684 74.35 69.6684 74.35C72.6684 74.35 75.1684 73.25 77.3184 71.4V72C77.3184 73.55 78.3184 74.85 79.9684 74.85C81.6184 74.85 82.8684 73.55 82.8684 72V52.85C82.8684 51.3 81.6184 50 79.9684 50ZM69.6684 68.5C66.2184 68.5 63.3684 65.75 63.3684 62.3C63.3684 58.85 66.2184 56.05 69.6684 56.05C73.0684 56.05 75.9184 58.85 75.9184 62.3C75.9184 65.75 73.0684 68.5 69.6684 68.5ZM121.072 59.55C121.072 54.35 116.622 50.1 111.272 50.1C108.522 50.1 106.122 51.1 104.372 52.8C102.522 51.1 100.122 50.1 97.4723 50.1C95.8223 50.1 94.2723 50.5 92.8723 51.2C92.4223 50.5 91.5223 50 90.5723 50C88.9723 50 87.5723 51.4 87.5723 53.05V72.15C87.5723 73.75 88.9723 75.1 90.5723 75.1C92.2723 75.1 93.5723 73.75 93.5723 72.15V59.55C93.5723 57.6 95.3223 56.1 97.4723 56.1C99.6223 56.1 101.372 57.6 101.372 59.55C101.372 59.6 101.372 59.65 101.372 59.7V59.9V72C101.372 73.7 102.672 75 104.372 75C105.972 75 107.322 73.7 107.322 72V59.9C107.322 59.85 107.322 59.8 107.322 59.7V59.55C107.322 57.6 109.072 56.1 111.272 56.1C113.322 56.1 115.072 57.6 115.072 59.55C115.072 59.6 115.072 59.65 115.072 59.7V59.9V72C115.072 73.7 116.472 75 118.122 75C119.772 75 121.072 73.7 121.072 72V59.9C121.072 59.85 121.072 59.8 121.072 59.7V59.55ZM150.186 37.35H142.336C140.636 37.35 139.336 38.65 139.336 40.3V71.95C139.336 73.6 140.586 74.95 142.236 75L150.086 75.3H150.186C160.636 75.3 169.186 66.75 169.186 56.3C169.186 45.85 160.636 37.35 150.186 37.35ZM150.236 69.25L145.336 69.1V43.35H150.186C157.286 43.35 163.186 49.15 163.186 56.3C163.186 63.45 157.386 69.25 150.236 69.25ZM185.218 74.9C178.318 74.9 172.668 69.3 172.668 62.35C172.668 55.45 178.318 49.8 185.218 49.8C192.118 49.8 197.768 55.45 197.818 62.4C197.768 69.3 192.118 74.9 185.218 74.9ZM185.218 55.95C181.668 55.95 178.818 58.8 178.818 62.35C178.818 65.9 181.668 68.75 185.218 68.75C188.768 68.75 191.618 65.9 191.618 62.35C191.618 58.8 188.768 55.95 185.218 55.95ZM213.242 50.05C210.992 50.05 208.942 50.7 207.142 51.85C206.742 50.65 205.642 49.8 204.342 49.8C202.692 49.8 201.342 51.15 201.342 52.8V71.9C201.342 73.55 202.692 74.9 204.342 74.9C205.992 74.9 207.342 73.55 207.342 71.9V63.4C207.342 59.95 209.342 56.05 213.242 56.05C216.392 56.05 218.992 58.9 218.992 62.45V71.9C218.992 73.55 220.292 74.9 221.992 74.9C223.642 74.9 224.942 73.55 224.942 71.9V62.45C224.942 55.6 219.692 50.05 213.242 50.05ZM250.086 50C248.436 50 247.436 51.3 247.436 52.85V53.1C245.286 51.35 242.786 50.2 239.786 50.2C233.086 50.2 227.686 55.65 227.686 62.3C227.686 68.95 233.086 74.35 239.786 74.35C242.786 74.35 245.286 73.25 247.436 71.4V72C247.436 73.55 248.436 74.85 250.086 74.85C251.736 74.85 252.986 73.55 252.986 72V52.85C252.986 51.3 251.736 50 250.086 50ZM239.786 68.5C236.336 68.5 233.486 65.75 233.486 62.3C233.486 58.85 236.336 56.05 239.786 56.05C243.186 56.05 246.036 58.85 246.036 62.3C246.036 65.75 243.186 68.5 239.786 68.5ZM268.039 68.85C267.689 68.85 267.239 68.9 266.989 68.65C266.639 68.35 266.739 67.75 266.639 67.35V55.45H268.289C269.939 55.45 271.289 54.1 271.289 52.45C271.289 50.8 269.939 49.45 268.289 49.45H266.639V39.9C266.639 38.25 265.289 36.9 263.639 36.9C261.989 36.9 260.639 38.25 260.639 39.9V49.45H258.489C256.839 49.45 255.489 50.8 255.489 52.45C255.489 54.1 256.839 55.45 258.489 55.45H260.639V68.05C260.639 69.6 261.339 71.4 262.339 72.55C263.489 73.85 265.089 74.55 266.739 74.8C267.189 74.85 267.589 74.85 268.039 74.85C269.689 74.85 271.039 73.55 271.039 71.85C271.039 70.2 269.689 68.85 268.039 68.85ZM278.185 45.65C276.435 45.65 275.035 44.25 275.035 42.6V42.35C275.035 40.6 276.435 39.25 278.185 39.25C279.835 39.25 281.235 40.6 281.235 42.35V42.6C281.235 44.25 279.835 45.65 278.185 45.65ZM278.185 75C276.435 75 275.035 73.6 275.035 71.9V52.6C275.035 50.9 276.435 49.55 278.185 49.55C279.835 49.55 281.235 50.9 281.235 52.6V71.9C281.235 73.6 279.835 75 278.185 75ZM297.767 74.9C290.867 74.9 285.217 69.3 285.217 62.35C285.217 55.45 290.867 49.8 297.767 49.8C304.667 49.8 310.317 55.45 310.367 62.4C310.317 69.3 304.667 74.9 297.767 74.9ZM297.767 55.95C294.217 55.95 291.367 58.8 291.367 62.35C291.367 65.9 294.217 68.75 297.767 68.75C301.317 68.75 304.167 65.9 304.167 62.35C304.167 58.8 301.317 55.95 297.767 55.95ZM325.791 50.05C323.541 50.05 321.491 50.7 319.691 51.85C319.291 50.65 318.191 49.8 316.891 49.8C315.241 49.8 313.891 51.15 313.891 52.8V71.9C313.891 73.55 315.241 74.9 316.891 74.9C318.541 74.9 319.891 73.55 319.891 71.9V63.4C319.891 59.95 321.891 56.05 325.791 56.05C328.941 56.05 331.541 58.9 331.541 62.45V71.9C331.541 73.55 332.841 74.9 334.541 74.9C336.191 74.9 337.491 73.55 337.491 71.9V62.45C337.491 55.6 332.241 50.05 325.791 50.05Z" fill="#005141"/>
<g filter="url(#filter0_d)">
<path d="M436.357 100C412.195 100 392.607 77.6143 392.607 50C392.607 22.3857 412.195 0 436.357 0C460.52 0 480.107 22.3857 480.107 50C480.107 77.6143 460.52 100 436.357 100Z" fill="#FCCF00"/>
<path d="M392.607 50C392.607 24.4607 409.366 3.40714 431 0.385714C429.243 0.141071 427.457 0 425.643 0C401.48 0 381.893 22.3857 381.893 50C381.893 77.6143 401.48 100 425.643 100C427.457 100 429.243 99.8589 431 99.6143C409.366 96.5929 392.607 75.5393 392.607 50Z" fill="#F4BF1A"/>
<path d="M436.509 90.2214H436.355C435.105 90.2214 433.846 90.1464 432.614 90C431.634 89.8821 430.936 88.9946 431.052 88.0143C431.17 87.0339 432.064 86.35 433.037 86.4536C434.13 86.5839 435.246 86.65 436.355 86.65C437.343 86.65 438.218 87.45 438.218 88.4357C438.218 89.4214 437.498 90.2214 436.509 90.2214ZM446.893 88.2982C446.171 88.2982 445.491 87.8571 445.221 87.141C444.873 86.2178 445.339 85.1875 446.262 84.8411C447.291 84.4536 448.318 83.9982 449.309 83.4893C450.187 83.0357 451.262 83.3839 451.714 84.2625C452.164 85.1393 451.818 86.216 450.939 86.666C449.827 87.2375 448.678 87.7446 447.521 88.1821C447.316 88.2607 447.103 88.2982 446.893 88.2982ZM422.723 86.9339C422.452 86.9339 422.175 86.8714 421.916 86.7393C420.818 86.1803 419.73 85.5536 418.686 84.8678C417.861 84.3286 417.63 83.2232 418.17 82.3964C418.712 81.5732 419.816 81.341 420.643 81.8803C421.577 82.4928 422.55 83.0571 423.532 83.5553C424.411 84.0018 424.762 85.0768 424.316 85.9553C424.002 86.5768 423.373 86.9339 422.723 86.9339ZM458.634 80.5803C458.18 80.5803 457.725 80.4071 457.377 80.0625C456.677 79.3678 456.671 78.2375 457.366 77.5375C458.143 76.7553 458.898 75.9125 459.611 75.0339C460.234 74.2696 461.359 74.1536 462.123 74.775C462.887 75.3964 463.005 76.5214 462.382 77.2875C461.595 78.2553 460.761 79.1857 459.902 80.0518C459.552 80.4035 459.091 80.5803 458.634 80.5803ZM411.816 78.066C411.3 78.066 410.787 77.8428 410.434 77.4143C409.659 76.4678 408.914 75.4678 408.223 74.441C407.671 73.6232 407.887 72.5125 408.705 71.9607C409.521 71.4089 410.632 71.6232 411.184 72.4428C411.814 73.3786 412.491 74.2893 413.196 75.1482C413.821 75.9107 413.711 77.0357 412.948 77.6625C412.618 77.9339 412.214 78.066 411.816 78.066ZM466.484 68.8928C466.245 68.8928 466.003 68.8446 465.771 68.7446C464.866 68.35 464.453 67.2982 464.846 66.3928C465.295 65.3678 465.703 64.3036 466.062 63.2339C466.377 62.3018 467.389 61.7964 468.325 62.1107C469.259 62.4268 469.762 63.4375 469.448 64.3732C469.055 65.5393 468.609 66.7 468.121 67.8196C467.827 68.4911 467.17 68.8928 466.484 68.8928ZM405.009 65.7375C404.266 65.7375 403.571 65.2678 403.318 64.5268C402.923 63.3696 402.573 62.1786 402.277 60.9857C402.037 60.0286 402.62 59.0607 403.577 58.8232C404.53 58.5803 405.503 59.1661 405.741 60.1232C406.014 61.2178 406.336 62.3125 406.698 63.3732C407.016 64.3071 406.518 65.3214 405.586 65.6393C405.396 65.7053 405.2 65.7375 405.009 65.7375ZM469.857 55.2071C469.811 55.2071 469.764 55.2053 469.718 55.2018C468.734 55.125 468 54.2661 468.075 53.2821C468.159 52.2 468.202 51.0946 468.202 50C468.202 49.0143 469.002 48.1571 469.987 48.1571C470.973 48.1571 471.773 48.8982 471.773 49.8839V50C471.773 51.1875 471.727 52.3839 471.636 53.5589C471.564 54.4946 470.78 55.2071 469.857 55.2071ZM402.725 51.8053C401.739 51.8053 400.939 51.025 400.939 50.0393V50C400.939 48.7821 400.987 47.5571 401.082 46.3625C401.161 45.3803 402.016 44.6518 403.003 44.7232C403.987 44.8018 404.721 45.6625 404.643 46.6446C404.555 47.7482 404.511 48.8768 404.511 50C404.511 50.9857 403.711 51.8053 402.725 51.8053ZM468.682 41.1571C467.884 41.1571 467.157 40.6178 466.953 39.8089C466.677 38.7107 466.353 37.6178 465.989 36.5571C465.67 35.625 466.168 34.6089 467.1 34.2893C468.034 33.9661 469.05 34.4661 469.368 35.4C469.764 36.5536 470.116 37.7428 470.416 38.9339C470.657 39.8911 470.077 40.8607 469.121 41.1018C468.977 41.1411 468.83 41.1571 468.682 41.1571ZM404.986 37.9125C404.795 37.9125 404.602 37.8803 404.411 37.8161C403.477 37.5 402.977 36.4857 403.293 35.5518C403.687 34.3911 404.136 33.2321 404.627 32.1089C405.023 31.2036 406.073 30.7946 406.978 31.1875C407.882 31.5821 408.295 32.6357 407.9 33.5393C407.448 34.5696 407.037 35.6339 406.677 36.6982C406.421 37.4428 405.73 37.9125 404.986 37.9125ZM462.968 28.2821C462.395 28.2821 461.834 28.0071 461.487 27.4964C460.855 26.5643 460.177 25.6553 459.47 24.7964C458.843 24.0357 458.952 22.9089 459.712 22.2821C460.473 21.6553 461.6 21.7643 462.227 22.525C463.003 23.4696 463.75 24.4678 464.445 25.4946C464.998 26.3107 464.784 27.4214 463.968 27.975C463.661 28.1821 463.314 28.2821 462.968 28.2821ZM411.764 25.5661C411.368 25.5661 410.968 25.4339 410.636 25.1625C409.871 24.5393 409.759 23.4143 410.384 22.65C411.171 21.6857 412.007 20.7571 412.868 19.8911C413.564 19.1946 414.695 19.1893 415.393 19.8839C416.093 20.5803 416.096 21.7089 415.402 22.4089C414.623 23.1928 413.864 24.0339 413.148 24.9107C412.798 25.3428 412.284 25.5661 411.764 25.5661ZM452.982 18.3696C452.648 18.3696 452.311 18.2768 452.011 18.0803C451.077 17.4714 450.102 16.9107 449.114 16.4125C448.236 15.9678 447.882 14.8946 448.327 14.0143C448.771 13.1375 449.843 12.7786 450.725 13.225C451.828 13.7803 452.916 14.4071 453.959 15.0875C454.786 15.6268 455.02 16.7339 454.48 17.5589C454.137 18.0857 453.568 18.3696 452.982 18.3696ZM422.659 16.6732C422.009 16.6732 421.382 16.3178 421.066 15.6982C420.618 14.8196 420.968 13.7446 421.846 13.2964C422.959 12.7304 424.109 12.2214 425.268 11.7893C426.189 11.4429 427.22 11.9107 427.566 12.8357C427.911 13.7589 427.443 14.7875 426.518 15.1339C425.486 15.5196 424.459 15.9714 423.466 16.4786C423.209 16.6107 422.93 16.6732 422.659 16.6732ZM439.812 13.55C439.743 13.55 439.673 13.5464 439.603 13.5375C438.528 13.4125 437.436 13.35 436.355 13.35C435.37 13.35 434.532 12.55 434.532 11.5643C434.532 10.5786 435.295 9.77856 436.28 9.77856H436.355C437.573 9.77856 438.805 9.84999 440.016 9.99106C440.995 10.1036 441.698 10.9893 441.584 11.9696C441.48 12.8803 440.705 13.55 439.812 13.55Z" fill="#F4BF1A"/>
<path d="M392.604 51.7856H381.893C381.929 52.9874 381.996 54.1785 382.105 55.3571H392.825C392.714 54.1785 392.641 52.9874 392.604 51.7856Z" fill="#DCA815"/>
<path d="M393.013 42.8572H382.305C382.157 44.034 382.05 45.2268 381.977 46.4286H392.689C392.764 45.2268 392.864 44.034 393.013 42.8572Z" fill="#DCA815"/>
<path d="M393.586 60.7144H382.87C383.102 61.9215 383.37 63.1126 383.675 64.2858H394.387C394.084 63.1126 393.818 61.9215 393.586 60.7144Z" fill="#DCA815"/>
<path d="M396.084 69.6428H385.363C385.818 70.8607 386.321 72.0482 386.857 73.2142H397.573C397.038 72.05 396.539 70.8589 396.084 69.6428Z" fill="#DCA815"/>
<path d="M394.879 33.9285H384.177C383.829 35.1017 383.504 36.2892 383.232 37.4999H393.959C394.23 36.2928 394.532 35.0981 394.879 33.9285Z" fill="#DCA815"/>
<path d="M398.436 25H387.721C387.132 26.1625 386.577 27.3518 386.07 28.5714H396.791C397.298 27.3536 397.846 26.1625 398.436 25Z" fill="#DCA815"/>
<path d="M405.723 14.2856H394.996C393.98 15.4214 393.014 16.6124 392.1 17.8571H402.823C403.739 16.6124 404.707 15.4214 405.723 14.2856Z" fill="#DCA815"/>
<path d="M416.643 5.35718H405.905C404.08 6.41075 402.33 7.60361 400.662 8.92861H411.393C413.062 7.60361 414.816 6.41075 416.643 5.35718Z" fill="#DCA815"/>
<path d="M401.569 80.3572H390.85C391.678 81.5947 392.553 82.7858 393.478 83.9286H404.205C403.28 82.7858 402.4 81.5947 401.569 80.3572Z" fill="#DCA815"/>
<path d="M398.557 89.2856C399.991 90.5767 401.493 91.7749 403.064 92.8571H413.804C412.225 91.7731 410.707 90.5821 409.268 89.2856H398.557Z" fill="#DCA815"/>
<path d="M475.357 100C451.195 100 431.607 77.6143 431.607 50C431.607 22.3857 451.195 0 475.357 0C499.52 0 519.107 22.3857 519.107 50C519.107 77.6143 499.52 100 475.357 100Z" fill="#FCCF00"/>
<path d="M431.607 50C431.607 24.4607 448.366 3.40714 470 0.385714C468.243 0.141071 466.457 0 464.643 0C440.48 0 420.893 22.3857 420.893 50C420.893 77.6143 440.48 100 464.643 100C466.457 100 468.243 99.8589 470 99.6143C448.366 96.5929 431.607 75.5393 431.607 50Z" fill="#F4BF1A"/>
<path d="M475.509 90.2214H475.355C474.105 90.2214 472.846 90.1464 471.614 90C470.634 89.8821 469.936 88.9946 470.052 88.0143C470.17 87.0339 471.064 86.35 472.037 86.4536C473.13 86.5839 474.246 86.65 475.355 86.65C476.343 86.65 477.218 87.45 477.218 88.4357C477.218 89.4214 476.498 90.2214 475.509 90.2214ZM485.893 88.2982C485.171 88.2982 484.491 87.8571 484.221 87.141C483.873 86.2178 484.339 85.1875 485.262 84.8411C486.291 84.4536 487.318 83.9982 488.309 83.4893C489.187 83.0357 490.262 83.3839 490.714 84.2625C491.164 85.1393 490.818 86.216 489.939 86.666C488.827 87.2375 487.678 87.7446 486.521 88.1821C486.316 88.2607 486.103 88.2982 485.893 88.2982ZM461.723 86.9339C461.452 86.9339 461.175 86.8714 460.916 86.7393C459.818 86.1803 458.73 85.5536 457.686 84.8678C456.861 84.3286 456.63 83.2232 457.17 82.3964C457.712 81.5732 458.816 81.341 459.643 81.8803C460.577 82.4928 461.55 83.0571 462.532 83.5553C463.411 84.0018 463.762 85.0768 463.316 85.9553C463.002 86.5768 462.373 86.9339 461.723 86.9339ZM497.634 80.5803C497.18 80.5803 496.725 80.4071 496.377 80.0625C495.677 79.3678 495.671 78.2375 496.366 77.5375C497.143 76.7553 497.898 75.9125 498.611 75.0339C499.234 74.2696 500.359 74.1536 501.123 74.775C501.887 75.3964 502.005 76.5214 501.382 77.2875C500.595 78.2553 499.761 79.1857 498.902 80.0518C498.552 80.4035 498.091 80.5803 497.634 80.5803ZM450.816 78.066C450.3 78.066 449.787 77.8428 449.434 77.4143C448.659 76.4678 447.914 75.4678 447.223 74.441C446.671 73.6232 446.887 72.5125 447.705 71.9607C448.521 71.4089 449.632 71.6232 450.184 72.4428C450.814 73.3786 451.491 74.2893 452.196 75.1482C452.821 75.9107 452.711 77.0357 451.948 77.6625C451.618 77.9339 451.214 78.066 450.816 78.066ZM505.484 68.8928C505.245 68.8928 505.003 68.8446 504.771 68.7446C503.866 68.35 503.453 67.2982 503.846 66.3928C504.295 65.3678 504.703 64.3036 505.062 63.2339C505.377 62.3018 506.389 61.7964 507.325 62.1107C508.259 62.4268 508.762 63.4375 508.448 64.3732C508.055 65.5393 507.609 66.7 507.121 67.8196C506.827 68.4911 506.17 68.8928 505.484 68.8928ZM444.009 65.7375C443.266 65.7375 442.571 65.2678 442.318 64.5268C441.923 63.3696 441.573 62.1786 441.277 60.9857C441.037 60.0286 441.62 59.0607 442.577 58.8232C443.53 58.5803 444.503 59.1661 444.741 60.1232C445.014 61.2178 445.336 62.3125 445.698 63.3732C446.016 64.3071 445.518 65.3214 444.586 65.6393C444.396 65.7053 444.2 65.7375 444.009 65.7375ZM508.857 55.2071C508.811 55.2071 508.764 55.2053 508.718 55.2018C507.734 55.125 507 54.2661 507.075 53.2821C507.159 52.2 507.202 51.0946 507.202 50C507.202 49.0143 508.002 48.1571 508.987 48.1571C509.973 48.1571 510.773 48.8982 510.773 49.8839V50C510.773 51.1875 510.727 52.3839 510.636 53.5589C510.564 54.4946 509.78 55.2071 508.857 55.2071ZM441.725 51.8053C440.739 51.8053 439.939 51.025 439.939 50.0393V50C439.939 48.7821 439.987 47.5571 440.082 46.3625C440.161 45.3803 441.016 44.6518 442.003 44.7232C442.987 44.8018 443.721 45.6625 443.643 46.6446C443.555 47.7482 443.511 48.8768 443.511 50C443.511 50.9857 442.711 51.8053 441.725 51.8053ZM507.682 41.1571C506.884 41.1571 506.157 40.6178 505.953 39.8089C505.677 38.7107 505.353 37.6178 504.989 36.5571C504.67 35.625 505.168 34.6089 506.1 34.2893C507.034 33.9661 508.05 34.4661 508.368 35.4C508.764 36.5536 509.116 37.7428 509.416 38.9339C509.657 39.8911 509.077 40.8607 508.121 41.1018C507.977 41.1411 507.83 41.1571 507.682 41.1571ZM443.986 37.9125C443.795 37.9125 443.602 37.8803 443.411 37.8161C442.477 37.5 441.977 36.4857 442.293 35.5518C442.687 34.3911 443.136 33.2321 443.627 32.1089C444.023 31.2036 445.073 30.7946 445.978 31.1875C446.882 31.5821 447.295 32.6357 446.9 33.5393C446.448 34.5696 446.037 35.6339 445.677 36.6982C445.421 37.4428 444.73 37.9125 443.986 37.9125ZM501.968 28.2821C501.395 28.2821 500.834 28.0071 500.487 27.4964C499.855 26.5643 499.177 25.6553 498.47 24.7964C497.843 24.0357 497.952 22.9089 498.712 22.2821C499.473 21.6553 500.6 21.7643 501.227 22.525C502.003 23.4696 502.75 24.4678 503.445 25.4946C503.998 26.3107 503.784 27.4214 502.968 27.975C502.661 28.1821 502.314 28.2821 501.968 28.2821ZM450.764 25.5661C450.368 25.5661 449.968 25.4339 449.636 25.1625C448.871 24.5393 448.759 23.4143 449.384 22.65C450.171 21.6857 451.007 20.7571 451.868 19.8911C452.564 19.1946 453.695 19.1893 454.393 19.8839C455.093 20.5803 455.096 21.7089 454.402 22.4089C453.623 23.1928 452.864 24.0339 452.148 24.9107C451.798 25.3428 451.284 25.5661 450.764 25.5661ZM491.982 18.3696C491.648 18.3696 491.311 18.2768 491.011 18.0803C490.077 17.4714 489.102 16.9107 488.114 16.4125C487.236 15.9678 486.882 14.8946 487.327 14.0143C487.771 13.1375 488.843 12.7786 489.725 13.225C490.828 13.7803 491.916 14.4071 492.959 15.0875C493.786 15.6268 494.02 16.7339 493.48 17.5589C493.137 18.0857 492.568 18.3696 491.982 18.3696ZM461.659 16.6732C461.009 16.6732 460.382 16.3178 460.066 15.6982C459.618 14.8196 459.968 13.7446 460.846 13.2964C461.959 12.7304 463.109 12.2214 464.268 11.7893C465.189 11.4429 466.22 11.9107 466.566 12.8357C466.911 13.7589 466.443 14.7875 465.518 15.1339C464.486 15.5196 463.459 15.9714 462.466 16.4786C462.209 16.6107 461.93 16.6732 461.659 16.6732ZM478.812 13.55C478.743 13.55 478.673 13.5464 478.603 13.5375C477.528 13.4125 476.436 13.35 475.355 13.35C474.37 13.35 473.532 12.55 473.532 11.5643C473.532 10.5786 474.295 9.77856 475.28 9.77856H475.355C476.573 9.77856 477.805 9.84999 479.016 9.99106C479.995 10.1036 480.698 10.9893 480.584 11.9696C480.48 12.8803 479.705 13.55 478.812 13.55Z" fill="#F4BF1A"/>
<path d="M431.604 51.7856H420.893C420.929 52.9874 420.996 54.1785 421.105 55.3571H431.825C431.714 54.1785 431.641 52.9874 431.604 51.7856Z" fill="#DCA815"/>
<path d="M432.013 42.8572H421.305C421.157 44.034 421.05 45.2268 420.977 46.4286H431.689C431.764 45.2268 431.864 44.034 432.013 42.8572Z" fill="#DCA815"/>
<path d="M432.586 60.7144H421.87C422.102 61.9215 422.37 63.1126 422.675 64.2858H433.387C433.084 63.1126 432.818 61.9215 432.586 60.7144Z" fill="#DCA815"/>
<path d="M435.084 69.6428H424.363C424.818 70.8607 425.321 72.0482 425.857 73.2142H436.573C436.038 72.05 435.539 70.8589 435.084 69.6428Z" fill="#DCA815"/>
<path d="M433.879 33.9285H423.177C422.829 35.1017 422.504 36.2892 422.232 37.4999H432.959C433.23 36.2928 433.532 35.0981 433.879 33.9285Z" fill="#DCA815"/>
<path d="M437.436 25H426.721C426.132 26.1625 425.577 27.3518 425.07 28.5714H435.791C436.298 27.3536 436.846 26.1625 437.436 25Z" fill="#DCA815"/>
<path d="M444.723 14.2856H433.996C432.98 15.4214 432.014 16.6124 431.1 17.8571H441.823C442.739 16.6124 443.707 15.4214 444.723 14.2856Z" fill="#DCA815"/>
<path d="M455.643 5.35718H444.905C443.08 6.41075 441.33 7.60361 439.662 8.92861H450.393C452.062 7.60361 453.816 6.41075 455.643 5.35718Z" fill="#DCA815"/>
<path d="M440.569 80.3572H429.85C430.678 81.5947 431.553 82.7858 432.478 83.9286H443.205C442.28 82.7858 441.4 81.5947 440.569 80.3572Z" fill="#DCA815"/>
<path d="M437.557 89.2856C438.991 90.5767 440.493 91.7749 442.064 92.8571H452.804C451.225 91.7731 449.707 90.5821 448.268 89.2856H437.557Z" fill="#DCA815"/>
<path d="M516.357 100C492.195 100 472.607 77.6143 472.607 50C472.607 22.3857 492.195 0 516.357 0C540.52 0 560.107 22.3857 560.107 50C560.107 77.6143 540.52 100 516.357 100Z" fill="#FCCF00"/>
<path d="M472.607 50C472.607 24.4607 489.366 3.40714 511 0.385714C509.243 0.141071 507.457 0 505.643 0C481.48 0 461.893 22.3857 461.893 50C461.893 77.6143 481.48 100 505.643 100C507.457 100 509.243 99.8589 511 99.6143C489.366 96.5929 472.607 75.5393 472.607 50Z" fill="#F4BF1A"/>
<path d="M516.509 90.2214H516.355C515.105 90.2214 513.846 90.1464 512.614 90C511.634 89.8821 510.936 88.9946 511.052 88.0143C511.17 87.0339 512.064 86.35 513.037 86.4536C514.13 86.5839 515.246 86.65 516.355 86.65C517.343 86.65 518.218 87.45 518.218 88.4357C518.218 89.4214 517.498 90.2214 516.509 90.2214ZM526.893 88.2982C526.171 88.2982 525.491 87.8571 525.221 87.141C524.873 86.2178 525.339 85.1875 526.262 84.8411C527.291 84.4536 528.318 83.9982 529.309 83.4893C530.187 83.0357 531.262 83.3839 531.714 84.2625C532.164 85.1393 531.818 86.216 530.939 86.666C529.827 87.2375 528.678 87.7446 527.521 88.1821C527.316 88.2607 527.103 88.2982 526.893 88.2982ZM502.723 86.9339C502.452 86.9339 502.175 86.8714 501.916 86.7393C500.818 86.1803 499.73 85.5536 498.686 84.8678C497.861 84.3286 497.63 83.2232 498.17 82.3964C498.712 81.5732 499.816 81.341 500.643 81.8803C501.577 82.4928 502.55 83.0571 503.532 83.5553C504.411 84.0018 504.762 85.0768 504.316 85.9553C504.002 86.5768 503.373 86.9339 502.723 86.9339ZM538.634 80.5803C538.18 80.5803 537.725 80.4071 537.377 80.0625C536.677 79.3678 536.671 78.2375 537.366 77.5375C538.143 76.7553 538.898 75.9125 539.611 75.0339C540.234 74.2696 541.359 74.1536 542.123 74.775C542.887 75.3964 543.005 76.5214 542.382 77.2875C541.595 78.2553 540.761 79.1857 539.902 80.0518C539.552 80.4035 539.091 80.5803 538.634 80.5803ZM491.816 78.066C491.3 78.066 490.787 77.8428 490.434 77.4143C489.659 76.4678 488.914 75.4678 488.223 74.441C487.671 73.6232 487.887 72.5125 488.705 71.9607C489.521 71.4089 490.632 71.6232 491.184 72.4428C491.814 73.3786 492.491 74.2893 493.196 75.1482C493.821 75.9107 493.711 77.0357 492.948 77.6625C492.618 77.9339 492.214 78.066 491.816 78.066ZM546.484 68.8928C546.245 68.8928 546.003 68.8446 545.771 68.7446C544.866 68.35 544.453 67.2982 544.846 66.3928C545.295 65.3678 545.703 64.3036 546.062 63.2339C546.377 62.3018 547.389 61.7964 548.325 62.1107C549.259 62.4268 549.762 63.4375 549.448 64.3732C549.055 65.5393 548.609 66.7 548.121 67.8196C547.827 68.4911 547.17 68.8928 546.484 68.8928ZM485.009 65.7375C484.266 65.7375 483.571 65.2678 483.318 64.5268C482.923 63.3696 482.573 62.1786 482.277 60.9857C482.037 60.0286 482.62 59.0607 483.577 58.8232C484.53 58.5803 485.503 59.1661 485.741 60.1232C486.014 61.2178 486.336 62.3125 486.698 63.3732C487.016 64.3071 486.518 65.3214 485.586 65.6393C485.396 65.7053 485.2 65.7375 485.009 65.7375ZM549.857 55.2071C549.811 55.2071 549.764 55.2053 549.718 55.2018C548.734 55.125 548 54.2661 548.075 53.2821C548.159 52.2 548.202 51.0946 548.202 50C548.202 49.0143 549.002 48.1571 549.987 48.1571C550.973 48.1571 551.773 48.8982 551.773 49.8839V50C551.773 51.1875 551.727 52.3839 551.636 53.5589C551.564 54.4946 550.78 55.2071 549.857 55.2071ZM482.725 51.8053C481.739 51.8053 480.939 51.025 480.939 50.0393V50C480.939 48.7821 480.987 47.5571 481.082 46.3625C481.161 45.3803 482.016 44.6518 483.003 44.7232C483.987 44.8018 484.721 45.6625 484.643 46.6446C484.555 47.7482 484.511 48.8768 484.511 50C484.511 50.9857 483.711 51.8053 482.725 51.8053ZM548.682 41.1571C547.884 41.1571 547.157 40.6178 546.953 39.8089C546.677 38.7107 546.353 37.6178 545.989 36.5571C545.67 35.625 546.168 34.6089 547.1 34.2893C548.034 33.9661 549.05 34.4661 549.368 35.4C549.764 36.5536 550.116 37.7428 550.416 38.9339C550.657 39.8911 550.077 40.8607 549.121 41.1018C548.977 41.1411 548.83 41.1571 548.682 41.1571ZM484.986 37.9125C484.795 37.9125 484.602 37.8803 484.411 37.8161C483.477 37.5 482.977 36.4857 483.293 35.5518C483.687 34.3911 484.136 33.2321 484.627 32.1089C485.023 31.2036 486.073 30.7946 486.978 31.1875C487.882 31.5821 488.295 32.6357 487.9 33.5393C487.448 34.5696 487.037 35.6339 486.677 36.6982C486.421 37.4428 485.73 37.9125 484.986 37.9125ZM542.968 28.2821C542.395 28.2821 541.834 28.0071 541.487 27.4964C540.855 26.5643 540.177 25.6553 539.47 24.7964C538.843 24.0357 538.952 22.9089 539.712 22.2821C540.473 21.6553 541.6 21.7643 542.227 22.525C543.003 23.4696 543.75 24.4678 544.445 25.4946C544.998 26.3107 544.784 27.4214 543.968 27.975C543.661 28.1821 543.314 28.2821 542.968 28.2821ZM491.764 25.5661C491.368 25.5661 490.968 25.4339 490.636 25.1625C489.871 24.5393 489.759 23.4143 490.384 22.65C491.171 21.6857 492.007 20.7571 492.868 19.8911C493.564 19.1946 494.695 19.1893 495.393 19.8839C496.093 20.5803 496.096 21.7089 495.402 22.4089C494.623 23.1928 493.864 24.0339 493.148 24.9107C492.798 25.3428 492.284 25.5661 491.764 25.5661ZM532.982 18.3696C532.648 18.3696 532.311 18.2768 532.011 18.0803C531.077 17.4714 530.102 16.9107 529.114 16.4125C528.236 15.9678 527.882 14.8946 528.327 14.0143C528.771 13.1375 529.843 12.7786 530.725 13.225C531.828 13.7803 532.916 14.4071 533.959 15.0875C534.786 15.6268 535.02 16.7339 534.48 17.5589C534.137 18.0857 533.568 18.3696 532.982 18.3696ZM502.659 16.6732C502.009 16.6732 501.382 16.3178 501.066 15.6982C500.618 14.8196 500.968 13.7446 501.846 13.2964C502.959 12.7304 504.109 12.2214 505.268 11.7893C506.189 11.4429 507.22 11.9107 507.566 12.8357C507.911 13.7589 507.443 14.7875 506.518 15.1339C505.486 15.5196 504.459 15.9714 503.466 16.4786C503.209 16.6107 502.93 16.6732 502.659 16.6732ZM519.812 13.55C519.743 13.55 519.673 13.5464 519.603 13.5375C518.528 13.4125 517.436 13.35 516.355 13.35C515.37 13.35 514.532 12.55 514.532 11.5643C514.532 10.5786 515.295 9.77856 516.28 9.77856H516.355C517.573 9.77856 518.805 9.84999 520.016 9.99106C520.995 10.1036 521.698 10.9893 521.584 11.9696C521.48 12.8803 520.705 13.55 519.812 13.55Z" fill="#F4BF1A"/>
<path d="M472.604 51.7856H461.893C461.929 52.9874 461.996 54.1785 462.105 55.3571H472.825C472.714 54.1785 472.641 52.9874 472.604 51.7856Z" fill="#DCA815"/>
<path d="M473.013 42.8572H462.305C462.157 44.034 462.05 45.2268 461.977 46.4286H472.689C472.764 45.2268 472.864 44.034 473.013 42.8572Z" fill="#DCA815"/>
<path d="M473.586 60.7144H462.87C463.102 61.9215 463.37 63.1126 463.675 64.2858H474.387C474.084 63.1126 473.818 61.9215 473.586 60.7144Z" fill="#DCA815"/>
<path d="M476.084 69.6428H465.363C465.818 70.8607 466.321 72.0482 466.857 73.2142H477.573C477.038 72.05 476.539 70.8589 476.084 69.6428Z" fill="#DCA815"/>
<path d="M474.879 33.9285H464.177C463.829 35.1017 463.504 36.2892 463.232 37.4999H473.959C474.23 36.2928 474.532 35.0981 474.879 33.9285Z" fill="#DCA815"/>
<path d="M478.436 25H467.721C467.132 26.1625 466.577 27.3518 466.07 28.5714H476.791C477.298 27.3536 477.846 26.1625 478.436 25Z" fill="#DCA815"/>
<path d="M485.723 14.2856H474.996C473.98 15.4214 473.014 16.6124 472.1 17.8571H482.823C483.739 16.6124 484.707 15.4214 485.723 14.2856Z" fill="#DCA815"/>
<path d="M496.643 5.35718H485.905C484.08 6.41075 482.33 7.60361 480.662 8.92861H491.393C493.062 7.60361 494.816 6.41075 496.643 5.35718Z" fill="#DCA815"/>
<path d="M481.569 80.3572H470.85C471.678 81.5947 472.553 82.7858 473.478 83.9286H484.205C483.28 82.7858 482.4 81.5947 481.569 80.3572Z" fill="#DCA815"/>
<path d="M478.557 89.2856C479.991 90.5767 481.493 91.7749 483.064 92.8571H493.804C492.225 91.7731 490.707 90.5821 489.268 89.2856H478.557Z" fill="#DCA815"/>
</g>
<defs>
<filter id="filter0_d" x="377" y="0" width="188" height="108" filterUnits="userSpaceOnUse" color-interpolation-filters="sRGB">
<feFlood flood-opacity="0" result="BackgroundImageFix"/>
<feColorMatrix in="SourceAlpha" type="matrix" values="0 0 0 0 0 0 0 0 0 0 0 0 0 0 0 0 0 0 127 0"/>
<feOffset dy="4"/>
<feGaussianBlur stdDeviation="2"/>
<feColorMatrix type="matrix" values="0 0 0 0 0 0 0 0 0 0 0 0 0 0 0 0 0 0 0.25 0"/>
<feBlend mode="normal" in2="BackgroundImageFix" result="effect1_dropShadow"/>
<feBlend mode="normal" in="SourceGraphic" in2="effect1_dropShadow" result="shape"/>
</filter>
</defs>
</svg>
