<svg width="720" height="720" viewBox="0 0 720 720" fill="none" xmlns="http://www.w3.org/2000/svg">
<rect width="720" height="720" fill="black"/>
<path d="M541.657 333.75C528.214 253.749 459.548 195.724 379.449 190.029C371.342 189.426 366.353 198.471 371.481 204.568C392.06 228.756 404.255 259.846 403.908 293.682C403.146 369.932 338.014 431.574 259.162 430.77C244.819 430.636 231.03 428.425 218.003 424.472C210.243 422.127 203.383 429.899 206.986 437.002C240.523 503.067 315.841 543.201 394.901 530.739C491.699 515.596 557.455 427.353 541.657 333.75Z" fill="#FCCF00"/>
<rect width="720" height="720" fill="#4FB5EE"/>
<circle cx="360" cy="360" r="173.333" fill="#FCCF00"/>
<mask id="mask0" mask-type="alpha" maskUnits="userSpaceOnUse" x="0" y="0" width="720" height="720">
<rect width="720" height="720" fill="#9DCDE8"/>
</mask>
<g mask="url(#mask0)">
<g filter="url(#filter0_d)">
<path d="M221.113 436.676C209.602 439.503 201.186 449.869 201.452 461.72C201.661 471.063 195.554 477.61 168.295 462.5C161.447 458.705 153.239 458.137 145.985 461.078C100.068 479.684 56.9122 504.106 17.3162 532.464C3.09142 542.652 -3.81074 560.447 0.538343 577.394C4.79406 593.971 -0.66079 600.489 -27.2683 593.618C-41.9236 589.834 -57.4891 594.22 -68.2301 604.885C-106.898 643.277 -140.05 684.96 -166.464 727.097C-172.581 736.855 -171.844 749.541 -164.269 758.214C-153.526 770.516 -144.285 789.33 -171.323 802.262C-176.758 804.862 -181.683 805.618 -186.144 804.956C-198.16 803.171 -209.796 810.259 -214.104 821.618C-236.124 879.696 -242.961 934.416 -231.223 977.798C-223.168 1007.58 -201.646 1034.12 -172.203 1040.36C-108.652 1053.82 -49.8327 1038.42 3.66329 1004.94C13.2028 998.968 19.2095 988.537 18.9937 977.283C18.6552 959.63 34.6418 957.892 46.757 959.097C56.1983 960.036 65.5537 956.634 72.3381 950C101.772 921.224 129.165 887.585 154.396 851.466C162.494 839.873 161.469 824.492 152.498 813.56C137.835 795.696 146.636 772.409 179.14 776.711C191.951 778.406 204.514 772.264 210.847 761C235.42 717.275 257.072 672.827 275.614 631.138C279.316 622.814 277.728 613.192 271.87 606.212C256.533 587.942 274.866 579.98 288.175 576.756C295.594 574.958 301.675 569.677 304.504 562.587C337.028 481.076 354.248 422.241 354.248 422.241C308.426 420.938 263.863 426.177 221.113 436.676Z" fill="#015F4D"/>
</g>
<g filter="url(#filter1_d)">
<path d="M248.64 216.642C246.844 207.675 239.133 200.844 229.99 200.655C222.782 200.506 217.939 195.58 230.491 175.072C233.644 169.921 234.355 163.613 232.33 157.924C219.515 121.914 202.127 87.839 181.585 56.3768C174.206 45.074 160.719 39.1624 147.513 41.9511C134.594 44.6801 129.752 40.259 135.932 19.9792C139.336 8.80917 136.473 -3.33402 128.61 -11.9674C100.304 -43.048 69.279 -69.9862 37.679 -91.7461C30.3612 -96.7855 20.5592 -96.6394 13.622 -91.0888C3.78305 -83.2176 -11.0253 -76.7207 -20.0939 -97.991C-21.9177 -102.266 -22.3363 -106.088 -21.678 -109.504C-19.9025 -118.706 -24.9789 -127.91 -33.5907 -131.608C-77.6229 -150.512 -119.572 -157.601 -153.4 -149.996C-176.62 -144.778 -197.792 -129.072 -203.582 -106.585C-216.074 -58.0498 -206.158 -12.202 -182.129 30.1443C-177.844 37.6956 -170.004 42.6722 -161.323 42.88C-147.705 43.206 -146.897 55.5858 -148.228 64.8837C-149.266 72.1295 -146.955 79.4535 -142.068 84.9032C-120.866 108.547 -95.8495 130.779 -68.8486 151.427C-60.1822 158.054 -48.2932 157.776 -39.5692 151.224C-25.3122 140.517 -7.65654 148.074 -12.053 172.984C-13.7852 182.803 -9.46901 192.69 -0.997086 197.945C31.8877 218.339 65.4267 236.506 96.9423 252.184C103.236 255.314 110.705 254.41 116.279 250.126C130.871 238.913 136.398 253.308 138.441 263.674C139.58 269.452 143.448 274.314 148.819 276.73C210.563 304.509 255.339 319.738 255.339 319.738C257.867 284.463 255.311 249.941 248.64 216.642Z" fill="#015F4D"/>
</g>
</g>
<defs>
<filter id="filter0_d" x="-240.898" y="422.045" width="599.146" height="631.171" filterUnits="userSpaceOnUse" color-interpolation-filters="sRGB">
<feFlood flood-opacity="0" result="BackgroundImageFix"/>
<feColorMatrix in="SourceAlpha" type="matrix" values="0 0 0 0 0 0 0 0 0 0 0 0 0 0 0 0 0 0 127 0"/>
<feOffset dy="4"/>
<feGaussianBlur stdDeviation="2"/>
<feColorMatrix type="matrix" values="0 0 0 0 0 0 0 0 0 0 0 0 0 0 0 0 0 0 0.25 0"/>
<feBlend mode="normal" in2="BackgroundImageFix" result="effect1_dropShadow"/>
<feBlend mode="normal" in="SourceGraphic" in2="effect1_dropShadow" result="shape"/>
</filter>
<filter id="filter1_d" x="-213" y="-153" width="473.297" height="480.738" filterUnits="userSpaceOnUse" color-interpolation-filters="sRGB">
<feFlood flood-opacity="0" result="BackgroundImageFix"/>
<feColorMatrix in="SourceAlpha" type="matrix" values="0 0 0 0 0 0 0 0 0 0 0 0 0 0 0 0 0 0 127 0"/>
<feOffset dy="4"/>
<feGaussianBlur stdDeviation="2"/>
<feColorMatrix type="matrix" values="0 0 0 0 0 0 0 0 0 0 0 0 0 0 0 0 0 0 0.25 0"/>
<feBlend mode="normal" in2="BackgroundImageFix" result="effect1_dropShadow"/>
<feBlend mode="normal" in="SourceGraphic" in2="effect1_dropShadow" result="shape"/>
</filter>
</defs>
</svg>
