<svg width="720" height="720" viewBox="0 0 720 720" fill="none" xmlns="http://www.w3.org/2000/svg">
<rect width="720" height="720" fill="black"/>
<path d="M541.657 333.75C528.214 253.749 459.548 195.724 379.449 190.029C371.342 189.426 366.353 198.471 371.481 204.568C392.06 228.756 404.255 259.846 403.908 293.682C403.146 369.932 338.014 431.574 259.162 430.77C244.819 430.636 231.03 428.425 218.003 424.472C210.243 422.127 203.383 429.899 206.986 437.002C240.523 503.067 315.841 543.201 394.901 530.739C491.699 515.596 557.455 427.353 541.657 333.75Z" fill="#FCCF00"/>
<rect width="720" height="720" fill="#4FB5EE"/>
<circle cx="360" cy="360" r="173.333" fill="#FCCF00"/>
<mask id="mask0" mask-type="alpha" maskUnits="userSpaceOnUse" x="0" y="0" width="720" height="720">
<rect width="720" height="720" fill="#9DCDE8"/>
</mask>
<g mask="url(#mask0)">
<g filter="url(#filter0_d)">
<path d="M561.113 375.676C549.602 378.503 541.186 388.869 541.452 400.72C541.661 410.063 535.554 416.61 508.295 401.5C501.447 397.705 493.239 397.137 485.985 400.078C440.068 418.684 396.912 443.106 357.316 471.464C343.091 481.652 336.189 499.447 340.538 516.394C344.794 532.971 339.339 539.489 312.732 532.618C298.076 528.834 282.511 533.22 271.77 543.885C233.102 582.277 199.95 623.96 173.536 666.097C167.419 675.855 168.156 688.541 175.731 697.214C186.474 709.516 195.715 728.33 168.677 741.262C163.242 743.862 158.317 744.618 153.856 743.956C141.84 742.171 130.204 749.259 125.896 760.618C103.876 818.696 97.0388 873.416 108.777 916.798C116.832 946.576 138.354 973.117 167.797 979.358C231.348 992.824 290.167 977.423 343.663 943.939C353.203 937.968 359.21 927.537 358.994 916.283C358.655 898.63 374.642 896.892 386.757 898.097C396.198 899.036 405.554 895.634 412.338 889C441.772 860.224 469.165 826.585 494.396 790.466C502.494 778.873 501.469 763.492 492.498 752.56C477.835 734.696 486.636 711.409 519.14 715.711C531.951 717.406 544.514 711.264 550.847 700C575.42 656.275 597.072 611.827 615.614 570.138C619.316 561.814 617.728 552.192 611.87 545.212C596.533 526.942 614.866 518.98 628.175 515.756C635.594 513.958 641.675 508.677 644.504 501.587C677.028 420.076 694.248 361.241 694.248 361.241C648.426 359.938 603.863 365.177 561.113 375.676Z" fill="black"/>
</g>
<g filter="url(#filter1_d)">
<path d="M273.64 218.642C271.844 209.675 264.133 202.844 254.99 202.655C247.782 202.506 242.939 197.58 255.491 177.072C258.644 171.921 259.355 165.613 257.33 159.924C244.515 123.914 227.127 89.839 206.585 58.3768C199.206 47.074 185.719 41.1624 172.513 43.9511C159.594 46.6801 154.752 42.259 160.932 21.9792C164.336 10.8092 161.473 -1.33402 153.61 -9.96744C125.304 -41.048 94.279 -67.9862 62.679 -89.7461C55.3612 -94.7855 45.5592 -94.6394 38.622 -89.0888C28.783 -81.2176 13.9747 -74.7207 4.90613 -95.991C3.08233 -100.266 2.66369 -104.088 3.32202 -107.504C5.09747 -116.706 0.0210865 -125.91 -8.59073 -129.608C-52.6229 -148.512 -94.5721 -155.601 -128.4 -147.996C-151.62 -142.778 -172.792 -127.072 -178.582 -104.585C-191.074 -56.0498 -181.158 -10.202 -157.129 32.1443C-152.844 39.6956 -145.004 44.6722 -136.323 44.88C-122.705 45.206 -121.897 57.5858 -123.228 66.8837C-124.266 74.1295 -121.955 81.4535 -117.068 86.9032C-95.8662 110.547 -70.8495 132.779 -43.8486 153.427C-35.1822 160.054 -23.2932 159.776 -14.5692 153.224C-0.312208 142.517 17.3435 150.074 12.947 174.984C11.2148 184.803 15.531 194.69 24.0029 199.945C56.8877 220.339 90.4267 238.506 121.942 254.184C128.236 257.314 135.705 256.41 141.279 252.126C155.871 240.913 161.398 255.308 163.441 265.674C164.58 271.452 168.448 276.314 173.819 278.73C235.563 306.509 280.339 321.738 280.339 321.738C282.867 286.463 280.311 251.941 273.64 218.642Z" fill="black"/>
</g>
</g>
<defs>
<filter id="filter0_d" x="99.1018" y="361.045" width="599.146" height="631.171" filterUnits="userSpaceOnUse" color-interpolation-filters="sRGB">
<feFlood flood-opacity="0" result="BackgroundImageFix"/>
<feColorMatrix in="SourceAlpha" type="matrix" values="0 0 0 0 0 0 0 0 0 0 0 0 0 0 0 0 0 0 127 0"/>
<feOffset dy="4"/>
<feGaussianBlur stdDeviation="2"/>
<feColorMatrix type="matrix" values="0 0 0 0 0 0 0 0 0 0 0 0 0 0 0 0 0 0 0.25 0"/>
<feBlend mode="normal" in2="BackgroundImageFix" result="effect1_dropShadow"/>
<feBlend mode="normal" in="SourceGraphic" in2="effect1_dropShadow" result="shape"/>
</filter>
<filter id="filter1_d" x="-188" y="-151" width="473.297" height="480.738" filterUnits="userSpaceOnUse" color-interpolation-filters="sRGB">
<feFlood flood-opacity="0" result="BackgroundImageFix"/>
<feColorMatrix in="SourceAlpha" type="matrix" values="0 0 0 0 0 0 0 0 0 0 0 0 0 0 0 0 0 0 127 0"/>
<feOffset dy="4"/>
<feGaussianBlur stdDeviation="2"/>
<feColorMatrix type="matrix" values="0 0 0 0 0 0 0 0 0 0 0 0 0 0 0 0 0 0 0.25 0"/>
<feBlend mode="normal" in2="BackgroundImageFix" result="effect1_dropShadow"/>
<feBlend mode="normal" in="SourceGraphic" in2="effect1_dropShadow" result="shape"/>
</filter>
</defs>
</svg>
