<svg width="37" height="37" viewBox="0 0 37 37" fill="none" xmlns="http://www.w3.org/2000/svg">
<g clip-path="url(#clip0)">
<path d="M20.8573 17.9427C20.8573 23.663 16.26 28.3001 10.5892 28.3001C4.91847 28.3001 0.320801 23.6619 0.320801 17.9427C0.320801 12.2235 4.91812 7.58496 10.5892 7.58496C16.2604 7.58496 20.8573 12.2225 20.8573 17.9427Z" fill="white"/>
<path d="M32.1218 17.9429C32.1218 23.3273 29.8231 27.6939 26.9875 27.6939C24.152 27.6939 21.8533 23.3273 21.8533 17.9429C21.8533 12.5585 24.1516 8.19189 26.9872 8.19189C29.8227 8.19189 32.1214 12.5571 32.1214 17.9429" fill="white"/>
<path d="M36.7292 17.9429C36.7292 22.766 35.9209 26.6783 34.9235 26.6783C33.9261 26.6783 33.1181 22.767 33.1181 17.9429C33.1181 13.1188 33.9264 9.20752 34.9235 9.20752C35.9205 9.20752 36.7292 13.1184 36.7292 17.9429Z" fill="white"/>
</g>
<defs>
<clipPath id="clip0">
<rect width="36.4084" height="36.4084" fill="white" transform="translate(0.320801)"/>
</clipPath>
</defs>
</svg>
