<svg width="225" height="38" viewBox="0 0 225 38" fill="none" xmlns="http://www.w3.org/2000/svg">
<rect width="225" height="38" fill="#7837AB"/>
<path d="M24.5015 27.293C22.0194 27.293 20.0296 26.4751 18.5322 24.8394C17.043 23.2036 16.2983 21.0755 16.2983 18.4551C16.2983 15.6393 17.0592 13.3932 18.5811 11.7168C20.1029 10.0404 22.174 9.20215 24.7944 9.20215C27.2114 9.20215 29.1564 10.016 30.6294 11.6436C32.1105 13.2712 32.8511 15.3993 32.8511 18.0278C32.8511 20.8843 32.0942 23.1426 30.5806 24.8027C29.0669 26.4629 27.0405 27.293 24.5015 27.293ZM24.6479 11.0576C22.8088 11.0576 21.3154 11.7209 20.168 13.0474C19.0205 14.3739 18.4468 16.1154 18.4468 18.272C18.4468 20.4285 19.0042 22.166 20.1191 23.4844C21.2422 24.7946 22.703 25.4497 24.5015 25.4497C26.422 25.4497 27.9357 24.8231 29.0425 23.5698C30.1493 22.3166 30.7026 20.5628 30.7026 18.3086C30.7026 15.9974 30.1655 14.2111 29.0913 12.9497C28.0171 11.6883 26.536 11.0576 24.6479 11.0576ZM38.0757 25.1934H38.0269V32.7495H36.0249V14.5H38.0269V16.6973H38.0757C39.0604 15.0371 40.5008 14.207 42.397 14.207C44.0083 14.207 45.2656 14.7686 46.1689 15.8916C47.0723 17.0065 47.5239 18.5039 47.5239 20.3838C47.5239 22.4753 47.0153 24.1517 45.998 25.4131C44.9808 26.6663 43.5892 27.293 41.8232 27.293C40.2038 27.293 38.9546 26.5931 38.0757 25.1934ZM38.0269 20.1519V21.8975C38.0269 22.931 38.3605 23.8099 39.0278 24.5342C39.7033 25.2503 40.5578 25.6084 41.5913 25.6084C42.8039 25.6084 43.752 25.1445 44.4355 24.2168C45.1273 23.2891 45.4731 21.9992 45.4731 20.3472C45.4731 18.9556 45.1517 17.8651 44.5088 17.0757C43.8659 16.2863 42.9951 15.8916 41.8965 15.8916C40.7327 15.8916 39.7969 16.2985 39.0889 17.1123C38.3809 17.918 38.0269 18.9312 38.0269 20.1519ZM60.7686 21.2505H51.9429C51.9754 22.6421 52.3498 23.7163 53.0659 24.4731C53.7821 25.23 54.7668 25.6084 56.02 25.6084C57.4279 25.6084 58.7218 25.1445 59.9019 24.2168V26.0967C58.8032 26.8942 57.3506 27.293 55.5439 27.293C53.778 27.293 52.3905 26.7274 51.3813 25.5962C50.3722 24.4569 49.8677 22.8577 49.8677 20.7988C49.8677 18.8538 50.417 17.271 51.5156 16.0503C52.6224 14.8215 53.9937 14.207 55.6294 14.207C57.2651 14.207 58.5306 14.736 59.4258 15.7939C60.321 16.8519 60.7686 18.3208 60.7686 20.2007V21.2505ZM58.7178 19.5537C58.7096 18.3981 58.4289 17.4989 57.8755 16.856C57.3302 16.2131 56.5693 15.8916 55.5928 15.8916C54.6488 15.8916 53.8472 16.2293 53.188 16.9048C52.5288 17.5802 52.1219 18.4632 51.9673 19.5537H58.7178ZM74.1841 27H72.1821V19.8711C72.1821 17.2181 71.2137 15.8916 69.2769 15.8916C68.2759 15.8916 67.4458 16.27 66.7866 17.0269C66.1356 17.7756 65.8101 18.7236 65.8101 19.8711V27H63.8081V14.5H65.8101V16.5752H65.8589C66.8029 14.9964 68.1701 14.207 69.9604 14.207C71.3276 14.207 72.3734 14.6506 73.0977 15.5376C73.8219 16.4165 74.1841 17.6901 74.1841 19.3584V27ZM97.2798 27H94.4233L87.6606 18.9922C87.4084 18.6911 87.2537 18.4876 87.1968 18.3818H87.1479V27H85.0972V9.49512H87.1479V17.7227H87.1968C87.3107 17.5436 87.4653 17.3442 87.6606 17.1245L94.2036 9.49512H96.7549L89.2476 17.8936L97.2798 27ZM109.707 27H107.705V19.8711C107.705 17.2181 106.736 15.8916 104.799 15.8916C103.798 15.8916 102.968 16.27 102.309 17.0269C101.658 17.7756 101.333 18.7236 101.333 19.8711V27H99.3306V14.5H101.333V16.5752H101.381C102.325 14.9964 103.693 14.207 105.483 14.207C106.85 14.207 107.896 14.6506 108.62 15.5376C109.344 16.4165 109.707 17.6901 109.707 19.3584V27ZM118.715 27.293C116.868 27.293 115.391 26.7111 114.284 25.5474C113.186 24.3755 112.636 22.8252 112.636 20.8965C112.636 18.7969 113.21 17.1571 114.357 15.9771C115.505 14.797 117.055 14.207 119.008 14.207C120.872 14.207 122.325 14.7808 123.366 15.9282C124.416 17.0757 124.941 18.6667 124.941 20.7012C124.941 22.695 124.375 24.2941 123.244 25.4985C122.121 26.6948 120.611 27.293 118.715 27.293ZM118.862 15.8916C117.576 15.8916 116.559 16.3311 115.81 17.21C115.061 18.0807 114.687 19.2852 114.687 20.8232C114.687 22.3044 115.065 23.4722 115.822 24.3267C116.579 25.1812 117.592 25.6084 118.862 25.6084C120.156 25.6084 121.149 25.1893 121.84 24.3511C122.54 23.5129 122.89 22.3206 122.89 20.7744C122.89 19.2119 122.54 18.0075 121.84 17.1611C121.149 16.3148 120.156 15.8916 118.862 15.8916ZM143.886 14.5L140.139 27H138.063L135.488 18.0522C135.39 17.7104 135.325 17.3239 135.292 16.8926H135.244C135.219 17.1855 135.134 17.564 134.987 18.0278L132.192 27H130.19L126.406 14.5H128.505L131.093 23.8994C131.175 24.1842 131.232 24.5586 131.264 25.0225H131.362C131.386 24.6644 131.459 24.2819 131.582 23.875L134.462 14.5H136.293L138.881 23.9238C138.963 24.2249 139.024 24.5993 139.064 25.0469H139.162C139.178 24.7295 139.248 24.3551 139.37 23.9238L141.909 14.5H143.886ZM148.208 27H146.206V8.49414H148.208V27ZM162.307 21.2505H153.481C153.514 22.6421 153.888 23.7163 154.604 24.4731C155.32 25.23 156.305 25.6084 157.558 25.6084C158.966 25.6084 160.26 25.1445 161.44 24.2168V26.0967C160.341 26.8942 158.889 27.293 157.082 27.293C155.316 27.293 153.929 26.7274 152.919 25.5962C151.91 24.4569 151.406 22.8577 151.406 20.7988C151.406 18.8538 151.955 17.271 153.054 16.0503C154.16 14.8215 155.532 14.207 157.167 14.207C158.803 14.207 160.069 14.736 160.964 15.7939C161.859 16.8519 162.307 18.3208 162.307 20.2007V21.2505ZM160.256 19.5537C160.248 18.3981 159.967 17.4989 159.414 16.856C158.868 16.2131 158.107 15.8916 157.131 15.8916C156.187 15.8916 155.385 16.2293 154.726 16.9048C154.067 17.5802 153.66 18.4632 153.505 19.5537H160.256ZM176.015 27H174.013V24.876H173.964C173.037 26.4873 171.604 27.293 169.667 27.293C168.097 27.293 166.84 26.7355 165.896 25.6206C164.96 24.4976 164.492 22.9717 164.492 21.043C164.492 18.9759 165.013 17.3198 166.054 16.0747C167.096 14.8296 168.483 14.207 170.217 14.207C171.934 14.207 173.183 14.8825 173.964 16.2334H174.013V8.49414H176.015V27ZM174.013 21.3481V19.5049C174.013 18.4958 173.68 17.6413 173.012 16.9414C172.345 16.2415 171.499 15.8916 170.473 15.8916C169.252 15.8916 168.292 16.3392 167.592 17.2344C166.892 18.1296 166.542 19.3665 166.542 20.9453C166.542 22.3857 166.876 23.5251 167.543 24.3633C168.219 25.1934 169.122 25.6084 170.253 25.6084C171.368 25.6084 172.272 25.2056 172.963 24.3999C173.663 23.5942 174.013 22.577 174.013 21.3481ZM190.737 25.999C190.737 30.5889 188.54 32.8838 184.145 32.8838C182.599 32.8838 181.248 32.5908 180.092 32.0049V30.0029C181.5 30.7842 182.843 31.1748 184.121 31.1748C187.197 31.1748 188.735 29.5391 188.735 26.2676V24.9004H188.686C187.734 26.4954 186.302 27.293 184.389 27.293C182.835 27.293 181.582 26.7396 180.629 25.6328C179.685 24.5179 179.213 23.0246 179.213 21.1528C179.213 19.0288 179.722 17.3402 180.739 16.0869C181.765 14.8337 183.164 14.207 184.938 14.207C186.623 14.207 187.872 14.8825 188.686 16.2334H188.735V14.5H190.737V25.999ZM188.735 21.3481V19.5049C188.735 18.512 188.397 17.6616 187.722 16.9536C187.054 16.2456 186.22 15.8916 185.219 15.8916C183.982 15.8916 183.014 16.3433 182.314 17.2466C181.614 18.1418 181.264 19.3991 181.264 21.0186C181.264 22.4102 181.598 23.5251 182.265 24.3633C182.941 25.1934 183.832 25.6084 184.938 25.6084C186.062 25.6084 186.973 25.2096 187.673 24.4121C188.381 23.6146 188.735 22.5933 188.735 21.3481ZM204.836 21.2505H196.01C196.043 22.6421 196.417 23.7163 197.133 24.4731C197.849 25.23 198.834 25.6084 200.087 25.6084C201.495 25.6084 202.789 25.1445 203.969 24.2168V26.0967C202.871 26.8942 201.418 27.293 199.611 27.293C197.845 27.293 196.458 26.7274 195.449 25.5962C194.44 24.4569 193.935 22.8577 193.935 20.7988C193.935 18.8538 194.484 17.271 195.583 16.0503C196.69 14.8215 198.061 14.207 199.697 14.207C201.333 14.207 202.598 14.736 203.493 15.7939C204.388 16.8519 204.836 18.3208 204.836 20.2007V21.2505ZM202.785 19.5537C202.777 18.3981 202.496 17.4989 201.943 16.856C201.398 16.2131 200.637 15.8916 199.66 15.8916C198.716 15.8916 197.915 16.2293 197.255 16.9048C196.596 17.5802 196.189 18.4632 196.035 19.5537H202.785Z" fill="#FFFEFE"/>
</svg>
