<svg width="183" height="38" viewBox="0 0 183 38" fill="none" xmlns="http://www.w3.org/2000/svg">
<rect width="183" height="38" fill="#7837AB"/>
<path d="M26.9883 27.293C24.5062 27.293 22.5164 26.4751 21.019 24.8394C19.5298 23.2036 18.7851 21.0755 18.7851 18.4551C18.7851 15.6393 19.5461 13.3932 21.0679 11.7168C22.5897 10.0404 24.6608 9.20215 27.2812 9.20215C29.6982 9.20215 31.6432 10.016 33.1162 11.6436C34.5973 13.2712 35.3379 15.3993 35.3379 18.0278C35.3379 20.8843 34.581 23.1426 33.0674 24.8027C31.5537 26.4629 29.5273 27.293 26.9883 27.293ZM27.1348 11.0576C25.2956 11.0576 23.8022 11.7209 22.6548 13.0474C21.5073 14.3739 20.9336 16.1154 20.9336 18.272C20.9336 20.4285 21.491 22.166 22.6059 23.4844C23.729 24.7946 25.1898 25.4497 26.9883 25.4497C28.9088 25.4497 30.4225 24.8231 31.5293 23.5698C32.6361 22.3166 33.1894 20.5628 33.1894 18.3086C33.1894 15.9974 32.6523 14.2111 31.5781 12.9497C30.5039 11.6883 29.0228 11.0576 27.1348 11.0576ZM40.5625 25.1934H40.5137V32.7495H38.5117V14.5H40.5137V16.6973H40.5625C41.5472 15.0371 42.9876 14.207 44.8838 14.207C46.4951 14.207 47.7524 14.7686 48.6558 15.8916C49.5591 17.0065 50.0107 18.5039 50.0107 20.3838C50.0107 22.4753 49.5021 24.1517 48.4849 25.4131C47.4676 26.6663 46.076 27.293 44.3101 27.293C42.6906 27.293 41.4414 26.5931 40.5625 25.1934ZM40.5137 20.1519V21.8975C40.5137 22.931 40.8473 23.8099 41.5146 24.5342C42.1901 25.2503 43.0446 25.6084 44.0781 25.6084C45.2907 25.6084 46.2388 25.1445 46.9224 24.2168C47.6141 23.2891 47.96 21.9992 47.96 20.3472C47.96 18.9556 47.6385 17.8651 46.9956 17.0757C46.3527 16.2863 45.4819 15.8916 44.3833 15.8916C43.2196 15.8916 42.2837 16.2985 41.5757 17.1123C40.8677 17.918 40.5137 18.9312 40.5137 20.1519ZM63.2554 21.2505H54.4297C54.4622 22.6421 54.8366 23.7163 55.5527 24.4731C56.2689 25.23 57.2536 25.6084 58.5068 25.6084C59.9147 25.6084 61.2087 25.1445 62.3887 24.2168V26.0967C61.29 26.8942 59.8374 27.293 58.0308 27.293C56.2648 27.293 54.8773 26.7274 53.8682 25.5962C52.859 24.4569 52.3545 22.8577 52.3545 20.7988C52.3545 18.8538 52.9038 17.271 54.0024 16.0503C55.1092 14.8215 56.4805 14.207 58.1162 14.207C59.7519 14.207 61.0174 14.736 61.9126 15.7939C62.8078 16.8519 63.2554 18.3208 63.2554 20.2007V21.2505ZM61.2046 19.5537C61.1964 18.3981 60.9157 17.4989 60.3623 16.856C59.817 16.2131 59.0561 15.8916 58.0796 15.8916C57.1356 15.8916 56.334 16.2293 55.6748 16.9048C55.0156 17.5802 54.6087 18.4632 54.4541 19.5537H61.2046ZM76.6709 27H74.6689V19.8711C74.6689 17.2181 73.7005 15.8916 71.7637 15.8916C70.7627 15.8916 69.9326 16.27 69.2734 17.0269C68.6224 17.7756 68.2969 18.7236 68.2969 19.8711V27H66.2949V14.5H68.2969V16.5752H68.3457C69.2897 14.9964 70.6569 14.207 72.4473 14.207C73.8144 14.207 74.8602 14.6506 75.5845 15.5376C76.3087 16.4165 76.6709 17.6901 76.6709 19.3584V27ZM86.7661 26.292V23.875C87.0428 24.1191 87.3724 24.3389 87.7549 24.5342C88.1455 24.7295 88.5524 24.8963 88.9756 25.0347C89.4069 25.1649 89.8382 25.2666 90.2695 25.3398C90.7008 25.4131 91.0996 25.4497 91.4658 25.4497C92.7272 25.4497 93.6671 25.2178 94.2856 24.7539C94.9123 24.2819 95.2256 23.6064 95.2256 22.7275C95.2256 22.2555 95.1198 21.8446 94.9082 21.4946C94.7047 21.1447 94.4199 20.8273 94.0537 20.5425C93.6875 20.2495 93.2521 19.9728 92.7476 19.7124C92.2511 19.4438 91.714 19.1631 91.1362 18.8701C90.5259 18.5609 89.9562 18.2476 89.4272 17.9302C88.8983 17.6128 88.4385 17.2629 88.0478 16.8804C87.6572 16.4979 87.348 16.0666 87.1201 15.5864C86.9004 15.0981 86.7905 14.5285 86.7905 13.8774C86.7905 13.0799 86.9655 12.3882 87.3154 11.8022C87.6654 11.2082 88.1252 10.7199 88.6948 10.3374C89.2645 9.95492 89.9115 9.67008 90.6357 9.48291C91.3682 9.29574 92.1128 9.20215 92.8696 9.20215C94.5949 9.20215 95.8522 9.40967 96.6416 9.82471V12.1318C95.6081 11.4157 94.2816 11.0576 92.6621 11.0576C92.2145 11.0576 91.7669 11.1064 91.3193 11.2041C90.8717 11.2936 90.473 11.4442 90.123 11.6558C89.7731 11.8674 89.4883 12.14 89.2685 12.4736C89.0488 12.8073 88.939 13.2142 88.939 13.6943C88.939 14.1419 89.0203 14.5285 89.1831 14.854C89.354 15.1795 89.6022 15.4766 89.9277 15.7451C90.2532 16.0137 90.6479 16.2741 91.1118 16.5264C91.5838 16.7786 92.125 17.0553 92.7353 17.3564C93.362 17.6657 93.956 17.9912 94.5176 18.333C95.0791 18.6748 95.5714 19.0532 95.9946 19.4683C96.4178 19.8833 96.7515 20.3431 96.9956 20.8477C97.2479 21.3522 97.374 21.93 97.374 22.5811C97.374 23.4437 97.2031 24.1761 96.8613 24.7783C96.5277 25.3724 96.0719 25.8566 95.4941 26.231C94.9245 26.6053 94.2653 26.8739 93.5166 27.0366C92.7679 27.2075 91.9785 27.293 91.1484 27.293C90.8717 27.293 90.5299 27.2686 90.123 27.2197C89.7161 27.179 89.3011 27.1139 88.8779 27.0244C88.4547 26.943 88.0519 26.8413 87.6694 26.7192C87.2951 26.589 86.994 26.4466 86.7661 26.292ZM105.821 27.293C103.974 27.293 102.497 26.7111 101.39 25.5474C100.291 24.3755 99.7422 22.8252 99.7422 20.8965C99.7422 18.7969 100.316 17.1571 101.463 15.9771C102.611 14.797 104.161 14.207 106.114 14.207C107.978 14.207 109.43 14.7808 110.472 15.9282C111.522 17.0757 112.047 18.6667 112.047 20.7012C112.047 22.695 111.481 24.2941 110.35 25.4985C109.227 26.6948 107.717 27.293 105.821 27.293ZM105.968 15.8916C104.682 15.8916 103.665 16.3311 102.916 17.21C102.167 18.0807 101.793 19.2852 101.793 20.8232C101.793 22.3044 102.171 23.4722 102.928 24.3267C103.685 25.1812 104.698 25.6084 105.968 25.6084C107.262 25.6084 108.255 25.1893 108.946 24.3511C109.646 23.5129 109.996 22.3206 109.996 20.7744C109.996 19.2119 109.646 18.0075 108.946 17.1611C108.255 16.3148 107.262 15.8916 105.968 15.8916ZM125.353 27H123.351V25.0225H123.302C122.472 26.5361 121.186 27.293 119.444 27.293C116.466 27.293 114.977 25.5189 114.977 21.9707V14.5H116.966V21.6533C116.966 24.29 117.975 25.6084 119.994 25.6084C120.97 25.6084 121.772 25.2503 122.398 24.5342C123.033 23.8099 123.351 22.8659 123.351 21.7021V14.5H125.353V27ZM135.924 16.5264C135.574 16.2578 135.069 16.1235 134.41 16.1235C133.556 16.1235 132.84 16.5264 132.262 17.332C131.692 18.1377 131.407 19.2363 131.407 20.6279V27H129.405V14.5H131.407V17.0757H131.456C131.741 16.1968 132.176 15.5132 132.762 15.0249C133.348 14.5285 134.003 14.2803 134.728 14.2803C135.248 14.2803 135.647 14.3372 135.924 14.4512V16.5264ZM146.275 26.4263C145.315 27.0041 144.176 27.293 142.857 27.293C141.075 27.293 139.635 26.7152 138.536 25.5596C137.446 24.3958 136.9 22.8903 136.9 21.043C136.9 18.984 137.49 17.332 138.67 16.0869C139.85 14.8337 141.425 14.207 143.395 14.207C144.493 14.207 145.462 14.4105 146.3 14.8174V16.8682C145.372 16.2171 144.379 15.8916 143.321 15.8916C142.044 15.8916 140.994 16.3514 140.172 17.271C139.358 18.1825 138.951 19.3828 138.951 20.8721C138.951 22.3369 139.334 23.4925 140.099 24.3389C140.872 25.1852 141.905 25.6084 143.199 25.6084C144.29 25.6084 145.315 25.2463 146.275 24.522V26.4263ZM159.349 21.2505H150.523C150.556 22.6421 150.93 23.7163 151.646 24.4731C152.363 25.23 153.347 25.6084 154.601 25.6084C156.008 25.6084 157.302 25.1445 158.482 24.2168V26.0967C157.384 26.8942 155.931 27.293 154.125 27.293C152.359 27.293 150.971 26.7274 149.962 25.5962C148.953 24.4569 148.448 22.8577 148.448 20.7988C148.448 18.8538 148.998 17.271 150.096 16.0503C151.203 14.8215 152.574 14.207 154.21 14.207C155.846 14.207 157.111 14.736 158.006 15.7939C158.902 16.8519 159.349 18.3208 159.349 20.2007V21.2505ZM157.298 19.5537C157.29 18.3981 157.009 17.4989 156.456 16.856C155.911 16.2131 155.15 15.8916 154.173 15.8916C153.229 15.8916 152.428 16.2293 151.769 16.9048C151.109 17.5802 150.702 18.4632 150.548 19.5537H157.298Z" fill="#FFFEFE"/>
</svg>
