<svg width="134" height="40" viewBox="0 0 134 40" fill="none" xmlns="http://www.w3.org/2000/svg">
<g filter="url(#filter0_d)">
<rect x="4.00061" width="125.001" height="31.0234" rx="15.5117" fill="#514D3D"/>
<path d="M37.3124 21.0003L37.3126 9.83231L42.5926 9.83242C43.1152 9.83243 43.5846 9.9231 44.0006 10.1044C44.4166 10.2751 44.7686 10.5151 45.0566 10.8245C45.3552 11.1338 45.5845 11.5125 45.7445 11.9605C45.9045 12.3978 45.9845 12.8778 45.9845 13.4005C45.9845 13.9338 45.9045 14.4192 45.7445 14.8565C45.5845 15.2938 45.3551 15.6671 45.0565 15.9765C44.7684 16.2858 44.4164 16.5311 44.0004 16.7124C43.5844 16.8831 43.1151 16.9684 42.5924 16.9684L39.7444 16.9684L39.7444 21.0004L37.3124 21.0003ZM39.7445 14.8564L42.3045 14.8564C42.6671 14.8564 42.9498 14.7658 43.1525 14.5844C43.3658 14.3924 43.4725 14.1151 43.4725 13.7524L43.4725 13.0484C43.4725 12.6858 43.3659 12.4138 43.1525 12.2324C42.9499 12.0404 42.6672 11.9444 42.3045 11.9444L39.7445 11.9444L39.7445 14.8564ZM50.7798 21.1926C50.1612 21.1926 49.6065 21.0912 49.1159 20.8886C48.6359 20.6859 48.2252 20.3925 47.8839 20.0085C47.5532 19.6245 47.2972 19.1605 47.1159 18.6165C46.9346 18.0725 46.8439 17.4645 46.8439 16.7925C46.844 16.1205 46.9346 15.5125 47.116 14.9685C47.2973 14.4245 47.5533 13.9659 47.884 13.5925C48.2253 13.2085 48.636 12.9152 49.116 12.7126C49.6067 12.5099 50.1614 12.4086 50.78 12.4086C51.3987 12.4086 51.948 12.5099 52.428 12.7126C52.9187 12.9153 53.3293 13.2086 53.66 13.5926C54.0013 13.966 54.2627 14.4247 54.444 14.9687C54.6253 15.5127 54.716 16.1207 54.7159 16.7927C54.7159 17.4647 54.6252 18.0727 54.4439 18.6167C54.2626 19.1607 54.0012 19.6246 53.6599 20.0086C53.3292 20.3926 52.9185 20.686 52.4279 20.8886C51.9478 21.0913 51.3985 21.1926 50.7798 21.1926ZM50.7799 19.3206C51.2492 19.3206 51.6119 19.1766 51.8679 18.8886C52.1239 18.6006 52.2519 18.1899 52.2519 17.6566L52.252 15.9446C52.252 15.4113 52.124 15.0006 51.868 14.7126C51.612 14.4246 51.2493 14.2806 50.78 14.2806C50.3107 14.2806 49.948 14.4246 49.692 14.7126C49.436 15.0006 49.308 15.4112 49.308 15.9446L49.3079 17.6566C49.3079 18.1899 49.4359 18.6006 49.6919 18.8886C49.9479 19.1766 50.3106 19.3206 50.7799 19.3206ZM59.8111 21.1928C59.1924 21.1928 58.6378 21.0914 58.1471 20.8887C57.6671 20.6861 57.2564 20.3927 56.9151 20.0087C56.5845 19.6247 56.3285 19.1607 56.1471 18.6167C55.9658 18.0727 55.8752 17.4647 55.8752 16.7927C55.8752 16.1207 55.9659 15.5127 56.1472 14.9687C56.3286 14.4247 56.5846 13.966 56.9153 13.5927C57.2566 13.2087 57.6673 12.9154 58.1473 12.7127C58.6379 12.5101 59.1926 12.4088 59.8113 12.4088C60.4299 12.4088 60.9793 12.5101 61.4593 12.7128C61.9499 12.9155 62.3606 13.2088 62.6913 13.5928C63.0326 13.9662 63.2939 14.4248 63.4752 14.9688C63.6565 15.5128 63.7472 16.1208 63.7472 16.7928C63.7472 17.4648 63.6565 18.0728 63.4751 18.6168C63.2938 19.1608 63.0325 19.6248 62.6911 20.0088C62.3604 20.3928 61.9498 20.6861 61.4591 20.8888C60.9791 21.0915 60.4298 21.1928 59.8111 21.1928ZM59.8111 19.3208C60.2805 19.3208 60.6431 19.1768 60.8991 18.8888C61.1551 18.6008 61.2832 18.1901 61.2832 17.6568L61.2832 15.9448C61.2832 15.4115 61.1552 15.0008 60.8992 14.7128C60.6432 14.4248 60.2806 14.2808 59.8112 14.2808C59.3419 14.2808 58.9792 14.4248 58.7232 14.7127C58.4672 15.0007 58.3392 15.4114 58.3392 15.9447L58.3392 17.6567C58.3392 18.1901 58.4671 18.6007 58.7231 18.8887C58.9791 19.1768 59.3418 19.3208 59.8111 19.3208ZM70.0743 21.193C69.317 21.193 68.6343 21.0756 68.0264 20.8409C67.4184 20.5956 66.901 20.2382 66.4744 19.7689C66.0477 19.2889 65.7171 18.6969 65.4824 17.9929C65.2478 17.2782 65.1304 16.4462 65.1305 15.4969C65.1305 14.5582 65.2478 13.7262 65.4825 13.0009C65.7172 12.2649 66.0479 11.6516 66.4746 11.1609C66.9012 10.6596 67.4186 10.2809 68.0266 10.0249C68.6346 9.76895 69.3172 9.64096 70.0746 9.64098C71.1092 9.641 71.9626 9.85435 72.6346 10.281C73.3066 10.697 73.8452 11.3584 74.2505 12.2651L72.1545 13.353C72.0052 12.8837 71.7705 12.5103 71.4505 12.233C71.1412 11.945 70.6825 11.801 70.0745 11.801C69.3599 11.801 68.7839 12.0356 68.3465 12.5049C67.9198 12.9636 67.7065 13.6356 67.7065 14.5209L67.7064 16.3129C67.7064 17.1983 67.9197 17.8756 68.3464 18.3449C68.7837 18.8036 69.3597 19.033 70.0744 19.033C70.6717 19.033 71.1464 18.873 71.4984 18.553C71.8611 18.2223 72.1277 17.8277 72.2984 17.369L74.2824 18.5211C73.8664 19.3744 73.317 20.0357 72.6344 20.505C71.9624 20.9637 71.109 21.193 70.0743 21.193ZM79.2642 21.1932C78.6456 21.1931 78.0909 21.0918 77.6002 20.8891C77.1202 20.6865 76.7096 20.3931 76.3682 20.0091C76.0376 19.6251 75.7816 19.1611 75.6003 18.6171C75.419 18.0731 75.3283 17.4651 75.3283 16.7931C75.3283 16.1211 75.419 15.5131 75.6003 14.9691C75.7817 14.4251 76.0377 13.9664 76.3684 13.5931C76.7097 13.2091 77.1204 12.9158 77.6004 12.7131C78.0911 12.5105 78.6457 12.4091 79.2644 12.4092C79.8831 12.4092 80.4324 12.5105 80.9124 12.7132C81.4031 12.9159 81.8137 13.2092 82.1444 13.5932C82.4857 13.9666 82.747 14.4252 82.9283 14.9692C83.1097 15.5132 83.2003 16.1212 83.2003 16.7932C83.2003 17.4652 83.1096 18.0732 82.9283 18.6172C82.7469 19.1612 82.4856 19.6252 82.1442 20.0092C81.8136 20.3932 81.4029 20.6865 80.9122 20.8892C80.4322 21.0919 79.8829 21.1932 79.2642 21.1932ZM79.2643 19.3212C79.7336 19.3212 80.0963 19.1772 80.3523 18.8892C80.6083 18.6012 80.7363 18.1905 80.7363 17.6572L80.7363 15.9452C80.7363 15.4119 80.6083 15.0012 80.3524 14.7132C80.0964 14.4252 79.7337 14.2812 79.2644 14.2812C78.795 14.2812 78.4324 14.4251 78.1764 14.7131C77.9203 15.0011 77.7923 15.4118 77.7923 15.9451L77.7923 17.6571C77.7923 18.1905 77.9203 18.6011 78.1763 18.8891C78.4323 19.1771 78.7949 19.3212 79.2643 19.3212ZM86.0717 11.7053C85.5917 11.7053 85.2397 11.5986 85.0157 11.3853C84.8023 11.1613 84.6957 10.8786 84.6957 10.5373L84.6957 10.1853C84.6957 9.84394 84.8024 9.56661 85.0157 9.35328C85.2397 9.12928 85.5917 9.01729 86.0717 9.0173C86.5517 9.01731 86.8984 9.12932 87.1117 9.35332C87.3357 9.56666 87.4477 9.84399 87.4477 10.1853L87.4477 10.5373C87.4477 10.8787 87.3357 11.1613 87.1117 11.3853C86.8983 11.5987 86.5517 11.7053 86.0717 11.7053ZM84.8876 12.6013L87.2556 12.6013L87.2555 21.0013L84.8875 21.0013L84.8876 12.6013ZM89.4656 21.0014L89.4658 12.6014L91.8338 12.6014L91.8337 14.0254L91.9297 14.0254C92.0791 13.5881 92.3404 13.2094 92.7138 12.8894C93.0871 12.5694 93.6044 12.4095 94.2658 12.4095C95.1298 12.4095 95.7804 12.6975 96.2178 13.2735C96.6657 13.8495 96.8897 14.6709 96.8897 15.7375L96.8896 21.0015L94.5216 21.0015L94.5217 15.9295C94.5217 15.3855 94.4364 14.9855 94.2657 14.7295C94.0951 14.4628 93.7911 14.3295 93.3537 14.3294C93.1617 14.3294 92.9751 14.3561 92.7937 14.4094C92.6124 14.4521 92.4471 14.5268 92.2977 14.6334C92.1591 14.7401 92.0471 14.8734 91.9617 15.0334C91.8764 15.1828 91.8337 15.3588 91.8337 15.5614L91.8336 21.0014L89.4656 21.0014Z" fill="#FFFAFA"/>
</g>
<defs>
<filter id="filter0_d" x="0" y="0" width="133.001" height="39.0259" filterUnits="userSpaceOnUse" color-interpolation-filters="sRGB">
<feFlood flood-opacity="0" result="BackgroundImageFix"/>
<feColorMatrix in="SourceAlpha" type="matrix" values="0 0 0 0 0 0 0 0 0 0 0 0 0 0 0 0 0 0 127 0"/>
<feOffset dy="4"/>
<feGaussianBlur stdDeviation="2"/>
<feColorMatrix type="matrix" values="0 0 0 0 0 0 0 0 0 0 0 0 0 0 0 0 0 0 0.25 0"/>
<feBlend mode="normal" in2="BackgroundImageFix" result="effect1_dropShadow"/>
<feBlend mode="normal" in="SourceGraphic" in2="effect1_dropShadow" result="shape"/>
</filter>
</defs>
</svg>
