<svg width="38" height="37" viewBox="0 0 38 37" fill="none" xmlns="http://www.w3.org/2000/svg">
<path fill-rule="evenodd" clip-rule="evenodd" d="M37.021 18.2042C37.021 28.2581 28.8707 36.4084 18.8168 36.4084C8.76285 36.4084 0.612549 28.2581 0.612549 18.2042C0.612549 8.1503 8.76285 0 18.8168 0C28.8707 0 37.021 8.1503 37.021 18.2042ZM28.2915 15.5427C29.7606 15.5427 30.9529 16.735 30.9529 18.2041C30.9529 19.29 30.2929 20.2268 29.4199 20.6527C29.4625 20.9082 29.4838 21.1637 29.4838 21.4405C29.4838 25.5284 24.7358 28.8286 18.8594 28.8286C12.9829 28.8286 8.23491 25.5284 8.23491 21.4405C8.23491 21.1637 8.2562 20.8869 8.29878 20.6314C7.36196 20.2055 6.72321 19.29 6.72321 18.2041C6.72321 16.735 7.91553 15.5427 9.38465 15.5427C10.0873 15.5427 10.7473 15.8408 11.2157 16.2879C13.0468 14.9466 15.5805 14.1162 18.4122 14.031L19.7536 7.68616C19.7962 7.55841 19.8601 7.45195 19.9665 7.38808C20.073 7.3242 20.2007 7.30291 20.3285 7.3242L24.7358 8.26103C25.0339 7.62228 25.6726 7.19645 26.4178 7.19645C27.4611 7.19645 28.3128 8.04811 28.3128 9.0914C28.3128 10.1347 27.4611 10.9863 26.4178 10.9863C25.3958 10.9863 24.5655 10.1773 24.5229 9.17656L20.584 8.34619L19.3704 14.031C22.1382 14.1375 24.6506 14.9891 26.4604 16.2879C26.9288 15.8195 27.5676 15.5427 28.2915 15.5427ZM14.6436 18.2041C13.6004 18.2041 12.7487 19.0558 12.7487 20.0991C12.7487 21.1424 13.6004 21.994 14.6436 21.994C15.6869 21.994 16.5386 21.1424 16.5386 20.0991C16.5386 19.0558 15.6869 18.2041 14.6436 18.2041ZM18.8381 26.4865C19.562 26.4865 22.0318 26.4014 23.3306 25.1026C23.5222 24.911 23.5222 24.6129 23.3731 24.4C23.1815 24.2083 22.8622 24.2083 22.6705 24.4C21.8402 25.209 20.1156 25.5071 18.8594 25.5071C17.6032 25.5071 15.8573 25.209 15.0482 24.4C14.8566 24.2083 14.5372 24.2083 14.3456 24.4C14.1539 24.5916 14.1539 24.911 14.3456 25.1026C15.623 26.3801 18.1142 26.4865 18.8381 26.4865ZM21.095 20.0991C21.095 21.1424 21.9466 21.994 22.9899 21.994C24.0332 21.994 24.8848 21.1424 24.8848 20.0991C24.8848 19.0558 24.0332 18.2041 22.9899 18.2041C21.9466 18.2041 21.095 19.0558 21.095 20.0991Z" fill="white"/>
</svg>
