<svg width="480" height="2599" viewBox="0 0 480 2599" fill="none" xmlns="http://www.w3.org/2000/svg">
<rect width="480" height="2448" fill="#00392E"/>
<g filter="url(#filter0_d)">
<path d="M99.9924 1990.2C102.153 2000.99 109.582 2008.71 117.929 2008.23C124.511 2007.85 129.214 2013.47 118.964 2039.43C116.39 2045.96 116.109 2053.7 118.288 2060.47C132.072 2103.34 149.913 2143.5 170.478 2180.23C177.865 2193.43 190.507 2199.58 202.387 2195.15C214.008 2190.82 218.681 2195.83 214.228 2221.02C211.775 2234.89 215.093 2249.46 222.766 2259.37C250.389 2295.03 280.249 2325.43 310.331 2349.48C317.297 2355.05 326.227 2354.11 332.229 2346.81C340.741 2336.46 353.865 2327.39 363.374 2352.6C365.286 2357.66 365.891 2362.29 365.49 2366.5C364.407 2377.85 369.573 2388.67 377.641 2392.5C418.893 2412.1 457.556 2417.48 487.959 2405.58C508.827 2397.42 527.217 2376.64 531.185 2348.79C539.746 2288.69 528.032 2233.61 503.653 2183.89C499.305 2175.02 491.866 2169.57 483.939 2169.99C471.502 2170.66 470.044 2155.64 470.716 2144.21C471.24 2135.3 468.705 2126.55 463.931 2120.3C443.221 2093.14 419.114 2068 393.29 2044.95C385.001 2037.55 374.177 2038.82 366.604 2047.48C354.228 2061.63 337.688 2053.8 340.245 2023.11C341.252 2011.01 336.74 1999.3 328.709 1993.56C297.535 1971.27 265.894 1951.75 236.243 1935.1C230.322 1931.78 223.564 1933.46 218.731 1939.11C206.079 1953.91 200.2 1936.8 197.733 1924.33C196.358 1917.38 192.547 1911.76 187.509 1909.23C129.589 1880.2 87.8733 1865.13 87.8733 1865.13C87.6252 1908.3 91.9685 1950.16 99.9924 1990.2Z" fill="#005141"/>
</g>
<path d="M200 388.944C223.619 430.762 220.872 474.047 226.365 526.136C251.082 756.501 286.785 993.469 386.752 1182.75C390.597 1156.34 393.344 1133.6 394.991 1115.25C398.287 1069.03 397.738 936.244 395.541 790.982C387.302 777.777 379.612 763.837 371.922 749.898C335.67 683.136 307.108 612.706 308.206 529.804C326.332 603.903 358.739 669.197 394.991 731.557C391.696 520.267 386.752 304.575 386.752 304.575L419.159 207C419.159 207 432.891 352.996 439.482 556.216C442.229 635.449 443.327 722.753 442.778 813.725C483.973 884.889 522.972 958.254 541.098 1044.09C565.815 1159.27 549.886 1283.99 514.733 1394.77C479.579 1504.82 426.849 1603.13 374.119 1699.97C374.119 1697.77 373.57 1695.57 373.021 1693.37C368.626 1730.78 364.781 1768.2 362.035 1808.55C346.106 2013.97 370.274 2273.68 370.274 2273.68L281.292 2284.69C281.292 2284.69 248.885 1928.13 281.292 1732.98C304.362 1592.86 348.853 1396.97 374.668 1253.18C298.869 1144.6 256.026 998.604 231.308 854.076C206.591 700.744 202.746 544.477 200 388.944ZM533.408 1212.1C537.253 1171.74 541.098 1118.92 533.408 1080.04C524.07 1033.09 512.536 978.796 490.015 940.646C474.636 914.235 458.158 889.291 441.679 863.613C440.581 925.24 438.384 987.6 434.539 1049.96C418.61 1319.21 399.386 1472.54 383.457 1603.86C458.707 1482.08 518.028 1366.89 533.408 1212.1Z" fill="#005141"/>
<g filter="url(#filter1_d)">
<path d="M685.401 2305.06C698.774 2179.73 693.264 2046.54 669.903 1912.47C652.175 2044.53 634.19 2180.49 661.497 2323.14C646.907 2329.61 630.933 2335.76 616.342 2342.22C627.524 2292.41 632.193 2238.13 626.478 2182.6C595.277 2210.11 573.004 2249.37 562.307 2295.68C557.948 2314.78 555.575 2336.02 562.055 2357.2C570.233 2226.13 518.132 2072.98 432.383 1956.76C442.808 2091.53 443.805 2156.2 500.36 2287.51C460.43 2203 444.359 2193.01 377.098 2132.79C423.251 2207.39 403.363 2214.26 449.516 2288.86C368.335 2168.5 318.493 2150.67 201.799 2093.05C301.407 2185.44 383.486 2309.61 493.016 2379.81C414.583 2309.63 284.666 2233.63 195.402 2206.59C224.906 2226.33 237.323 2237.55 281.49 2274.12C342.951 2339.6 319.094 2312.6 361.082 2364.63C261.39 2284.1 191.549 2304.96 52.6429 2300.57C116.733 2328.08 175.833 2398.81 238.806 2432.33C301.698 2466.43 370.075 2464.04 433.395 2468.29L690.806 2325.76C686.537 2319.51 684.74 2311.89 685.401 2305.06Z" fill="#00A259"/>
</g>
<mask id="mask0" mask-type="alpha" maskUnits="userSpaceOnUse" x="-84" y="965" width="240" height="1440">
<rect x="-84" y="965" width="240" height="1440" fill="#FCCF00"/>
</mask>
<g mask="url(#mask0)">
<g filter="url(#filter2_d)">
<rect x="16" y="1025" width="40" height="1467" rx="20" fill="#6B3400"/>
</g>
</g>
<g filter="url(#filter3_d)">
<path d="M46.8112 1489.19C46.8112 1489.19 74.9461 1494.73 92.8389 1476.84C110.732 1458.95 105.189 1430.81 105.189 1430.81C105.189 1430.81 77.0539 1425.27 59.1611 1443.16C41.2683 1461.05 46.8112 1489.19 46.8112 1489.19Z" fill="#00A259"/>
</g>
<g filter="url(#filter4_d)">
<path d="M46.8112 1817.19C46.8112 1817.19 74.9461 1822.73 92.8389 1804.84C110.732 1786.95 105.189 1758.81 105.189 1758.81C105.189 1758.81 77.0539 1753.27 59.1611 1771.16C41.2683 1789.05 46.8112 1817.19 46.8112 1817.19Z" fill="#00A259"/>
</g>
<g filter="url(#filter5_d)">
<path d="M46.8112 2165.19C46.8112 2165.19 74.9461 2170.73 92.8389 2152.84C110.732 2134.95 105.189 2106.81 105.189 2106.81C105.189 2106.81 77.0539 2101.27 59.1611 2119.16C41.2683 2137.05 46.8112 2165.19 46.8112 2165.19Z" fill="#00A259"/>
</g>
<rect x="-46" y="1509.97" width="24" height="120" rx="12" transform="rotate(-45 -46 1509.97)" fill="#6B3400"/>
<rect x="-46" y="1857.97" width="24" height="120" rx="12" transform="rotate(-45 -46 1857.97)" fill="#6B3400"/>
<rect x="-46" y="2182.97" width="24" height="120" rx="12" transform="rotate(-45 -46 2182.97)" fill="#6B3400"/>
<rect width="24" height="120" rx="12" transform="matrix(0.707108 0.707105 -0.707108 0.707105 100.853 1658)" fill="#6B3400"/>
<rect width="24" height="120" rx="12" transform="matrix(0.707108 0.707105 -0.707108 0.707105 100.853 2006)" fill="#6B3400"/>
<g filter="url(#filter6_d)">
<path d="M25.1889 1654.19C25.1889 1654.19 30.7318 1626.05 12.839 1608.16C-5.05376 1590.27 -33.1887 1595.81 -33.1887 1595.81C-33.1887 1595.81 -38.7316 1623.95 -20.8387 1641.84C-2.94579 1659.73 25.1889 1654.19 25.1889 1654.19Z" fill="#00A259"/>
</g>
<g filter="url(#filter7_d)">
<path d="M25.1889 2002.19C25.1889 2002.19 30.7318 1974.05 12.839 1956.16C-5.05376 1938.27 -33.1887 1943.81 -33.1887 1943.81C-33.1887 1943.81 -38.7316 1971.95 -20.8387 1989.84C-2.94579 2007.73 25.1889 2002.19 25.1889 2002.19Z" fill="#00A259"/>
</g>
<rect x="-46" y="1151.97" width="24" height="120" rx="12" transform="rotate(-45 -46 1151.97)" fill="#6B3400"/>
<g filter="url(#filter8_d)">
<path d="M25.1889 1296.19C25.1889 1296.19 30.7318 1268.05 12.839 1250.16C-5.05376 1232.27 -33.1887 1237.81 -33.1887 1237.81C-33.1887 1237.81 -38.7316 1265.95 -20.8387 1283.84C-2.94579 1301.73 25.1889 1296.19 25.1889 1296.19Z" fill="#00A259"/>
</g>
<rect width="24" height="120" rx="12" transform="matrix(0.707108 0.707105 -0.707108 0.707105 100.853 1300)" fill="#6B3400"/>
<mask id="mask1" mask-type="alpha" maskUnits="userSpaceOnUse" x="-84" y="87" width="240" height="1440">
<rect x="-84" y="87" width="240" height="1440" fill="#FCCF00"/>
</mask>
<g mask="url(#mask1)">
<g filter="url(#filter9_d)">
<rect x="16" y="147" width="40" height="1467" rx="20" fill="#6B3400"/>
</g>
</g>
<g filter="url(#filter10_d)">
<path d="M37.8112 665.189C37.8112 665.189 65.9461 670.732 83.8389 652.839C101.732 634.946 96.1888 606.811 96.1888 606.811C96.1888 606.811 68.0539 601.268 50.1611 619.161C32.2683 637.054 37.8112 665.189 37.8112 665.189Z" fill="#00A259"/>
</g>
<g filter="url(#filter11_d)">
<path d="M46.8112 976.189C46.8112 976.189 74.9461 981.732 92.8389 963.839C110.732 945.946 105.189 917.811 105.189 917.811C105.189 917.811 77.0539 912.268 59.1611 930.161C41.2683 948.054 46.8112 976.189 46.8112 976.189Z" fill="#00A259"/>
</g>
<g filter="url(#filter12_d)">
<path d="M46.8112 1287.19C46.8112 1287.19 74.9461 1292.73 92.8389 1274.84C110.732 1256.95 105.189 1228.81 105.189 1228.81C105.189 1228.81 77.0539 1223.27 59.1611 1241.16C41.2683 1259.05 46.8112 1287.19 46.8112 1287.19Z" fill="#00A259"/>
</g>
<rect x="-46" y="631.971" width="24" height="120" rx="12" transform="rotate(-45 -46 631.971)" fill="#6B3400"/>
<rect x="-46" y="979.971" width="24" height="120" rx="12" transform="rotate(-45 -46 979.971)" fill="#6B3400"/>
<rect x="-46" y="1304.97" width="24" height="120" rx="12" transform="rotate(-45 -46 1304.97)" fill="#6B3400"/>
<rect width="24" height="120" rx="12" transform="matrix(0.707108 0.707105 -0.707108 0.707105 100.853 780)" fill="#6B3400"/>
<rect width="24" height="120" rx="12" transform="matrix(0.707108 0.707105 -0.707108 0.707105 100.853 1128)" fill="#6B3400"/>
<g filter="url(#filter13_d)">
<path d="M25.1889 776.189C25.1889 776.189 30.7318 748.054 12.839 730.161C-5.05376 712.268 -33.1887 717.811 -33.1887 717.811C-33.1887 717.811 -38.7316 745.946 -20.8387 763.839C-2.94579 781.732 25.1889 776.189 25.1889 776.189Z" fill="#00A259"/>
</g>
<g filter="url(#filter14_d)">
<path d="M25.1889 1124.19C25.1889 1124.19 30.7318 1096.05 12.839 1078.16C-5.05376 1060.27 -33.1887 1065.81 -33.1887 1065.81C-33.1887 1065.81 -38.7316 1093.95 -20.8387 1111.84C-2.94579 1129.73 25.1889 1124.19 25.1889 1124.19Z" fill="#00A259"/>
</g>
<rect x="-46" y="273.971" width="24" height="120" rx="12" transform="rotate(-45 -46 273.971)" fill="#6B3400"/>
<g filter="url(#filter15_d)">
<path d="M46.8112 361.189C46.8112 361.189 74.9461 366.732 92.8389 348.839C110.732 330.946 105.189 302.811 105.189 302.811C105.189 302.811 77.0539 297.268 59.1611 315.161C41.2683 333.054 46.8112 361.189 46.8112 361.189Z" fill="#00A259"/>
</g>
<g filter="url(#filter16_d)">
<path d="M25.1889 418.189C25.1889 418.189 30.7318 390.054 12.839 372.161C-5.05376 354.268 -33.1887 359.811 -33.1887 359.811C-33.1887 359.811 -38.7316 387.946 -20.8387 405.839C-2.94579 423.732 25.1889 418.189 25.1889 418.189Z" fill="#00A259"/>
</g>
<rect width="24" height="120" rx="12" transform="matrix(0.707108 0.707105 -0.707108 0.707105 93.853 481)" fill="#6B3400"/>
<rect width="24" height="120" rx="12" transform="matrix(0.707108 0.707105 -0.707108 0.707105 101.853 165)" fill="#6B3400"/>
<defs>
<filter id="filter0_d" x="83.8633" y="1865.13" width="454.109" height="554.729" filterUnits="userSpaceOnUse" color-interpolation-filters="sRGB">
<feFlood flood-opacity="0" result="BackgroundImageFix"/>
<feColorMatrix in="SourceAlpha" type="matrix" values="0 0 0 0 0 0 0 0 0 0 0 0 0 0 0 0 0 0 127 0"/>
<feOffset dy="4"/>
<feGaussianBlur stdDeviation="2"/>
<feColorMatrix type="matrix" values="0 0 0 0 0 0 0 0 0 0 0 0 0 0 0 0 0 0 0.25 0"/>
<feBlend mode="normal" in2="BackgroundImageFix" result="effect1_dropShadow"/>
<feBlend mode="normal" in="SourceGraphic" in2="effect1_dropShadow" result="shape"/>
</filter>
<filter id="filter1_d" x="-7.94983" y="1845.71" width="861.9" height="752.579" filterUnits="userSpaceOnUse" color-interpolation-filters="sRGB">
<feFlood flood-opacity="0" result="BackgroundImageFix"/>
<feColorMatrix in="SourceAlpha" type="matrix" values="0 0 0 0 0 0 0 0 0 0 0 0 0 0 0 0 0 0 127 0"/>
<feOffset dy="4"/>
<feGaussianBlur stdDeviation="2"/>
<feColorMatrix type="matrix" values="0 0 0 0 0 0 0 0 0 0 0 0 0 0 0 0 0 0 0.25 0"/>
<feBlend mode="normal" in2="BackgroundImageFix" result="effect1_dropShadow"/>
<feBlend mode="normal" in="SourceGraphic" in2="effect1_dropShadow" result="shape"/>
</filter>
<filter id="filter2_d" x="12" y="1025" width="48" height="1475" filterUnits="userSpaceOnUse" color-interpolation-filters="sRGB">
<feFlood flood-opacity="0" result="BackgroundImageFix"/>
<feColorMatrix in="SourceAlpha" type="matrix" values="0 0 0 0 0 0 0 0 0 0 0 0 0 0 0 0 0 0 127 0"/>
<feOffset dy="4"/>
<feGaussianBlur stdDeviation="2"/>
<feColorMatrix type="matrix" values="0 0 0 0 0 0 0 0 0 0 0 0 0 0 0 0 0 0 0.25 0"/>
<feBlend mode="normal" in2="BackgroundImageFix" result="effect1_dropShadow"/>
<feBlend mode="normal" in="SourceGraphic" in2="effect1_dropShadow" result="shape"/>
</filter>
<filter id="filter3_d" x="42" y="1430" width="68" height="68" filterUnits="userSpaceOnUse" color-interpolation-filters="sRGB">
<feFlood flood-opacity="0" result="BackgroundImageFix"/>
<feColorMatrix in="SourceAlpha" type="matrix" values="0 0 0 0 0 0 0 0 0 0 0 0 0 0 0 0 0 0 127 0"/>
<feOffset dy="4"/>
<feGaussianBlur stdDeviation="2"/>
<feColorMatrix type="matrix" values="0 0 0 0 0 0 0 0 0 0 0 0 0 0 0 0 0 0 0.25 0"/>
<feBlend mode="normal" in2="BackgroundImageFix" result="effect1_dropShadow"/>
<feBlend mode="normal" in="SourceGraphic" in2="effect1_dropShadow" result="shape"/>
</filter>
<filter id="filter4_d" x="42" y="1758" width="68" height="68" filterUnits="userSpaceOnUse" color-interpolation-filters="sRGB">
<feFlood flood-opacity="0" result="BackgroundImageFix"/>
<feColorMatrix in="SourceAlpha" type="matrix" values="0 0 0 0 0 0 0 0 0 0 0 0 0 0 0 0 0 0 127 0"/>
<feOffset dy="4"/>
<feGaussianBlur stdDeviation="2"/>
<feColorMatrix type="matrix" values="0 0 0 0 0 0 0 0 0 0 0 0 0 0 0 0 0 0 0.25 0"/>
<feBlend mode="normal" in2="BackgroundImageFix" result="effect1_dropShadow"/>
<feBlend mode="normal" in="SourceGraphic" in2="effect1_dropShadow" result="shape"/>
</filter>
<filter id="filter5_d" x="42" y="2106" width="68" height="68" filterUnits="userSpaceOnUse" color-interpolation-filters="sRGB">
<feFlood flood-opacity="0" result="BackgroundImageFix"/>
<feColorMatrix in="SourceAlpha" type="matrix" values="0 0 0 0 0 0 0 0 0 0 0 0 0 0 0 0 0 0 127 0"/>
<feOffset dy="4"/>
<feGaussianBlur stdDeviation="2"/>
<feColorMatrix type="matrix" values="0 0 0 0 0 0 0 0 0 0 0 0 0 0 0 0 0 0 0.25 0"/>
<feBlend mode="normal" in2="BackgroundImageFix" result="effect1_dropShadow"/>
<feBlend mode="normal" in="SourceGraphic" in2="effect1_dropShadow" result="shape"/>
</filter>
<filter id="filter6_d" x="-37.9999" y="1595" width="68" height="68" filterUnits="userSpaceOnUse" color-interpolation-filters="sRGB">
<feFlood flood-opacity="0" result="BackgroundImageFix"/>
<feColorMatrix in="SourceAlpha" type="matrix" values="0 0 0 0 0 0 0 0 0 0 0 0 0 0 0 0 0 0 127 0"/>
<feOffset dy="4"/>
<feGaussianBlur stdDeviation="2"/>
<feColorMatrix type="matrix" values="0 0 0 0 0 0 0 0 0 0 0 0 0 0 0 0 0 0 0.25 0"/>
<feBlend mode="normal" in2="BackgroundImageFix" result="effect1_dropShadow"/>
<feBlend mode="normal" in="SourceGraphic" in2="effect1_dropShadow" result="shape"/>
</filter>
<filter id="filter7_d" x="-37.9999" y="1943" width="68" height="68" filterUnits="userSpaceOnUse" color-interpolation-filters="sRGB">
<feFlood flood-opacity="0" result="BackgroundImageFix"/>
<feColorMatrix in="SourceAlpha" type="matrix" values="0 0 0 0 0 0 0 0 0 0 0 0 0 0 0 0 0 0 127 0"/>
<feOffset dy="4"/>
<feGaussianBlur stdDeviation="2"/>
<feColorMatrix type="matrix" values="0 0 0 0 0 0 0 0 0 0 0 0 0 0 0 0 0 0 0.25 0"/>
<feBlend mode="normal" in2="BackgroundImageFix" result="effect1_dropShadow"/>
<feBlend mode="normal" in="SourceGraphic" in2="effect1_dropShadow" result="shape"/>
</filter>
<filter id="filter8_d" x="-37.9999" y="1237" width="68" height="68" filterUnits="userSpaceOnUse" color-interpolation-filters="sRGB">
<feFlood flood-opacity="0" result="BackgroundImageFix"/>
<feColorMatrix in="SourceAlpha" type="matrix" values="0 0 0 0 0 0 0 0 0 0 0 0 0 0 0 0 0 0 127 0"/>
<feOffset dy="4"/>
<feGaussianBlur stdDeviation="2"/>
<feColorMatrix type="matrix" values="0 0 0 0 0 0 0 0 0 0 0 0 0 0 0 0 0 0 0.25 0"/>
<feBlend mode="normal" in2="BackgroundImageFix" result="effect1_dropShadow"/>
<feBlend mode="normal" in="SourceGraphic" in2="effect1_dropShadow" result="shape"/>
</filter>
<filter id="filter9_d" x="12" y="147" width="48" height="1475" filterUnits="userSpaceOnUse" color-interpolation-filters="sRGB">
<feFlood flood-opacity="0" result="BackgroundImageFix"/>
<feColorMatrix in="SourceAlpha" type="matrix" values="0 0 0 0 0 0 0 0 0 0 0 0 0 0 0 0 0 0 127 0"/>
<feOffset dy="4"/>
<feGaussianBlur stdDeviation="2"/>
<feColorMatrix type="matrix" values="0 0 0 0 0 0 0 0 0 0 0 0 0 0 0 0 0 0 0.25 0"/>
<feBlend mode="normal" in2="BackgroundImageFix" result="effect1_dropShadow"/>
<feBlend mode="normal" in="SourceGraphic" in2="effect1_dropShadow" result="shape"/>
</filter>
<filter id="filter10_d" x="33" y="606" width="68" height="68" filterUnits="userSpaceOnUse" color-interpolation-filters="sRGB">
<feFlood flood-opacity="0" result="BackgroundImageFix"/>
<feColorMatrix in="SourceAlpha" type="matrix" values="0 0 0 0 0 0 0 0 0 0 0 0 0 0 0 0 0 0 127 0"/>
<feOffset dy="4"/>
<feGaussianBlur stdDeviation="2"/>
<feColorMatrix type="matrix" values="0 0 0 0 0 0 0 0 0 0 0 0 0 0 0 0 0 0 0.25 0"/>
<feBlend mode="normal" in2="BackgroundImageFix" result="effect1_dropShadow"/>
<feBlend mode="normal" in="SourceGraphic" in2="effect1_dropShadow" result="shape"/>
</filter>
<filter id="filter11_d" x="42" y="917" width="68" height="68" filterUnits="userSpaceOnUse" color-interpolation-filters="sRGB">
<feFlood flood-opacity="0" result="BackgroundImageFix"/>
<feColorMatrix in="SourceAlpha" type="matrix" values="0 0 0 0 0 0 0 0 0 0 0 0 0 0 0 0 0 0 127 0"/>
<feOffset dy="4"/>
<feGaussianBlur stdDeviation="2"/>
<feColorMatrix type="matrix" values="0 0 0 0 0 0 0 0 0 0 0 0 0 0 0 0 0 0 0.25 0"/>
<feBlend mode="normal" in2="BackgroundImageFix" result="effect1_dropShadow"/>
<feBlend mode="normal" in="SourceGraphic" in2="effect1_dropShadow" result="shape"/>
</filter>
<filter id="filter12_d" x="42" y="1228" width="68" height="68" filterUnits="userSpaceOnUse" color-interpolation-filters="sRGB">
<feFlood flood-opacity="0" result="BackgroundImageFix"/>
<feColorMatrix in="SourceAlpha" type="matrix" values="0 0 0 0 0 0 0 0 0 0 0 0 0 0 0 0 0 0 127 0"/>
<feOffset dy="4"/>
<feGaussianBlur stdDeviation="2"/>
<feColorMatrix type="matrix" values="0 0 0 0 0 0 0 0 0 0 0 0 0 0 0 0 0 0 0.25 0"/>
<feBlend mode="normal" in2="BackgroundImageFix" result="effect1_dropShadow"/>
<feBlend mode="normal" in="SourceGraphic" in2="effect1_dropShadow" result="shape"/>
</filter>
<filter id="filter13_d" x="-37.9999" y="717" width="68" height="68" filterUnits="userSpaceOnUse" color-interpolation-filters="sRGB">
<feFlood flood-opacity="0" result="BackgroundImageFix"/>
<feColorMatrix in="SourceAlpha" type="matrix" values="0 0 0 0 0 0 0 0 0 0 0 0 0 0 0 0 0 0 127 0"/>
<feOffset dy="4"/>
<feGaussianBlur stdDeviation="2"/>
<feColorMatrix type="matrix" values="0 0 0 0 0 0 0 0 0 0 0 0 0 0 0 0 0 0 0.25 0"/>
<feBlend mode="normal" in2="BackgroundImageFix" result="effect1_dropShadow"/>
<feBlend mode="normal" in="SourceGraphic" in2="effect1_dropShadow" result="shape"/>
</filter>
<filter id="filter14_d" x="-37.9999" y="1065" width="68" height="68" filterUnits="userSpaceOnUse" color-interpolation-filters="sRGB">
<feFlood flood-opacity="0" result="BackgroundImageFix"/>
<feColorMatrix in="SourceAlpha" type="matrix" values="0 0 0 0 0 0 0 0 0 0 0 0 0 0 0 0 0 0 127 0"/>
<feOffset dy="4"/>
<feGaussianBlur stdDeviation="2"/>
<feColorMatrix type="matrix" values="0 0 0 0 0 0 0 0 0 0 0 0 0 0 0 0 0 0 0.25 0"/>
<feBlend mode="normal" in2="BackgroundImageFix" result="effect1_dropShadow"/>
<feBlend mode="normal" in="SourceGraphic" in2="effect1_dropShadow" result="shape"/>
</filter>
<filter id="filter15_d" x="42" y="302" width="68" height="68" filterUnits="userSpaceOnUse" color-interpolation-filters="sRGB">
<feFlood flood-opacity="0" result="BackgroundImageFix"/>
<feColorMatrix in="SourceAlpha" type="matrix" values="0 0 0 0 0 0 0 0 0 0 0 0 0 0 0 0 0 0 127 0"/>
<feOffset dy="4"/>
<feGaussianBlur stdDeviation="2"/>
<feColorMatrix type="matrix" values="0 0 0 0 0 0 0 0 0 0 0 0 0 0 0 0 0 0 0.25 0"/>
<feBlend mode="normal" in2="BackgroundImageFix" result="effect1_dropShadow"/>
<feBlend mode="normal" in="SourceGraphic" in2="effect1_dropShadow" result="shape"/>
</filter>
<filter id="filter16_d" x="-37.9999" y="359" width="68" height="68" filterUnits="userSpaceOnUse" color-interpolation-filters="sRGB">
<feFlood flood-opacity="0" result="BackgroundImageFix"/>
<feColorMatrix in="SourceAlpha" type="matrix" values="0 0 0 0 0 0 0 0 0 0 0 0 0 0 0 0 0 0 127 0"/>
<feOffset dy="4"/>
<feGaussianBlur stdDeviation="2"/>
<feColorMatrix type="matrix" values="0 0 0 0 0 0 0 0 0 0 0 0 0 0 0 0 0 0 0.25 0"/>
<feBlend mode="normal" in2="BackgroundImageFix" result="effect1_dropShadow"/>
<feBlend mode="normal" in="SourceGraphic" in2="effect1_dropShadow" result="shape"/>
</filter>
</defs>
</svg>
