<svg width="1920" height="1201" viewBox="0 0 1920 1201" fill="none" xmlns="http://www.w3.org/2000/svg">
<mask id="mask0" mask-type="alpha" maskUnits="userSpaceOnUse" x="0" y="0" width="1920" height="1201">
<rect width="1920" height="1201" fill="#015F4D"/>
</mask>
<g mask="url(#mask0)">
<g filter="url(#filter0_d)">
<path d="M1614.87 706.592C1604.61 711.625 1599.1 722.591 1602.19 732.934C1604.63 741.089 1600.4 748.19 1570.86 740.972C1563.44 739.159 1555.5 740.48 1549.31 744.67C1510.12 771.185 1474.96 802.191 1444.12 835.863C1433.04 847.96 1430.75 865.11 1438.95 879.021C1446.97 892.628 1443.35 899.559 1416.4 899.428C1401.57 899.357 1387.82 906.658 1380.17 918.401C1352.62 960.675 1331.1 1004.61 1316.1 1047.46C1312.63 1057.38 1316.37 1068.35 1325.65 1074.28C1338.81 1082.7 1352.11 1097.16 1329.51 1114.51C1324.97 1118 1320.47 1119.76 1316.07 1120.16C1304.22 1121.26 1294.86 1130.06 1293.49 1140.99C1286.48 1196.85 1293.11 1246.4 1314.67 1281.87C1329.47 1306.23 1356.3 1324.75 1385.78 1323.7C1449.43 1321.43 1501.65 1294.86 1544.47 1253.61C1552.1 1246.25 1555.31 1235.77 1552.41 1225.94C1547.85 1210.52 1562.63 1205.45 1574.44 1203.82C1583.64 1202.55 1591.71 1197.49 1596.57 1190.16C1617.65 1158.37 1635.62 1122.77 1650.94 1085.47C1655.86 1073.5 1651.2 1060.23 1640.05 1052.62C1621.82 1040.19 1624.6 1017.8 1656.53 1014.37C1669.12 1013.02 1679.59 1004.84 1682.91 993.547C1695.78 949.718 1705.7 905.902 1713.33 865.198C1714.85 857.07 1711.03 848.976 1703.79 844.149C1684.83 831.513 1700.34 820.459 1712.22 814.677C1718.84 811.454 1723.36 805.47 1724.35 798.619C1735.71 719.86 1737.97 664.398 1737.97 664.398C1694.1 673.416 1652.99 687.896 1614.87 706.592Z" fill="#00A259"/>
</g>
<g filter="url(#filter1_d)">
<path d="M976.224 -104.773C997.063 -50.124 1021.41 2.98056 1050.05 54.6515C1078.69 106.322 1109.81 157.664 1151.68 203.044C1161.82 214.002 1173.65 224.519 1186.5 233.82C1199.36 243.121 1212.45 251.096 1225.43 259.734C1251.61 275.683 1277.02 291.521 1305.92 305.814C1364.21 331.747 1432.33 343.423 1495.7 368.033C1527.45 380.006 1557.93 394.522 1589.72 401.74C1606.02 405.405 1622.66 407.079 1637.74 408.531C1653.6 410.094 1668.67 411.546 1683.99 411.671C1715.4 412.033 1747.22 405.649 1780.61 399.488C1813.22 393.215 1846.07 385.616 1878.24 377.242C1894.39 372.723 1910.42 368.868 1926.02 362.911C1941.5 357.617 1957.1 351.66 1971.92 345.592C2002.33 333.567 2033.84 324.418 2064.8 313.831C2126.72 292.657 2186.76 268.495 2245.04 240.683L2255.05 252.304C2202.98 290.517 2142.77 320.098 2081.04 344.7C2065.44 350.657 2049.84 356.614 2034.24 362.571C2017.97 367.753 2002.49 373.046 1985.67 376.79C1968.86 380.534 1952.83 384.39 1936.01 388.134C1927.66 389.674 1919.2 391.878 1911.52 394.193C1903.05 396.397 1895.37 398.712 1887.02 400.252L1789.58 425.926C1757.4 434.301 1722.86 442.341 1686.13 444.628C1668.1 446.159 1648.3 444.039 1631.22 440.263C1613.36 436.376 1596.88 429.283 1581.06 422.964C1549.32 410.991 1517.45 399.681 1485.11 391.025C1421.09 374.487 1355.15 359.716 1289.17 336.099C1272.45 330.333 1255.85 323.903 1240.28 316.258C1224.82 307.949 1210.4 298.425 1197.78 287.797C1185.16 277.169 1173.69 264.662 1163.79 252.377L1133.2 216.076C1092.58 168.153 1054.57 119.238 1024.48 66.6813C993.954 12.0227 971.779 -44.1762 959.527 -101.693L976.224 -104.773Z" fill="#00A259"/>
</g>
<path d="M322.902 -31.8378C322.902 -31.8378 253.105 219.563 232.446 306.165C219.534 360.292 181.773 412.525 155.942 443.58C154.211 420.976 152.48 398.372 149.578 375.528C137.696 277.061 65.6532 -3.74763 30.1155 -91.6047C7.77296 -147.252 22.8481 -8.62562 4.5283 -69.8089C147.118 602.076 82.2726 1225.03 82.2726 1225.03C110.1 1219.59 150.457 1310.93 178.285 1305.48C152.284 1094.24 162.92 783.99 160.852 571.276C182.649 539.625 218.06 482.825 244.601 411.727C286.29 300.809 338.542 -15.0223 338.542 -15.0223L322.902 -31.8378Z" fill="#015F4D"/>
<path d="M536.806 -14.7986C475.514 107.211 413.689 229.22 352.397 351.229C327.88 399.935 303.363 449.132 290.039 501.281C270.852 576.553 276.182 655.269 278.314 732.509C284.176 914.539 274.05 1096.57 249 1277.12C315.089 1293.85 375.315 1313.04 443.536 1316.48C408.359 1136.91 368.919 943.073 334.276 763.995C319.886 688.723 304.962 611.483 320.419 536.703C334.809 467.335 374.249 405.346 412.623 344.342C489.904 222.824 567.186 100.815 645 -21.1943C603.428 -22.1782 577.845 -9.38691 536.806 -14.7986Z" fill="#015F4D"/>
</g>
<defs>
<filter id="filter0_d" x="1286.81" y="664.398" width="455.16" height="667.343" filterUnits="userSpaceOnUse" color-interpolation-filters="sRGB">
<feFlood flood-opacity="0" result="BackgroundImageFix"/>
<feColorMatrix in="SourceAlpha" type="matrix" values="0 0 0 0 0 0 0 0 0 0 0 0 0 0 0 0 0 0 127 0"/>
<feOffset dy="4"/>
<feGaussianBlur stdDeviation="2"/>
<feColorMatrix type="matrix" values="0 0 0 0 0 0 0 0 0 0 0 0 0 0 0 0 0 0 0.25 0"/>
<feBlend mode="normal" in2="BackgroundImageFix" result="effect1_dropShadow"/>
<feBlend mode="normal" in="SourceGraphic" in2="effect1_dropShadow" result="shape"/>
</filter>
<filter id="filter1_d" x="955.527" y="-104.773" width="1303.53" height="557.903" filterUnits="userSpaceOnUse" color-interpolation-filters="sRGB">
<feFlood flood-opacity="0" result="BackgroundImageFix"/>
<feColorMatrix in="SourceAlpha" type="matrix" values="0 0 0 0 0 0 0 0 0 0 0 0 0 0 0 0 0 0 127 0"/>
<feOffset dy="4"/>
<feGaussianBlur stdDeviation="2"/>
<feColorMatrix type="matrix" values="0 0 0 0 0 0 0 0 0 0 0 0 0 0 0 0 0 0 0.25 0"/>
<feBlend mode="normal" in2="BackgroundImageFix" result="effect1_dropShadow"/>
<feBlend mode="normal" in="SourceGraphic" in2="effect1_dropShadow" result="shape"/>
</filter>
</defs>
</svg>
