<svg width="558" height="387" viewBox="0 0 558 387" fill="none" xmlns="http://www.w3.org/2000/svg">
<g filter="url(#filter0_d)">
<rect x="30" y="20" width="498" height="327" rx="16" fill="#015F4D"/>
</g>
<path d="M180.832 60.488V74H177.184V60.488H172.648V57.248H185.368V60.488H180.832ZM186.594 74V61.4H190.146V64.136H190.266C190.33 63.784 190.442 63.448 190.602 63.128C190.762 62.792 190.97 62.496 191.226 62.24C191.498 61.984 191.818 61.784 192.186 61.64C192.554 61.48 192.986 61.4 193.482 61.4H194.106V64.712H193.218C192.178 64.712 191.402 64.848 190.89 65.12C190.394 65.392 190.146 65.896 190.146 66.632V74H186.594ZM205.281 74C204.641 74 204.105 73.8 203.673 73.4C203.257 73 202.993 72.464 202.881 71.792H202.737C202.545 72.608 202.121 73.232 201.465 73.664C200.809 74.08 200.001 74.288 199.041 74.288C197.777 74.288 196.809 73.952 196.137 73.28C195.465 72.608 195.129 71.72 195.129 70.616C195.129 69.288 195.609 68.304 196.569 67.664C197.545 67.008 198.865 66.68 200.529 66.68H202.521V65.888C202.521 65.28 202.361 64.8 202.041 64.448C201.721 64.08 201.185 63.896 200.433 63.896C199.729 63.896 199.169 64.048 198.753 64.352C198.337 64.656 197.993 65 197.721 65.384L195.609 63.512C196.121 62.76 196.761 62.176 197.529 61.76C198.313 61.328 199.369 61.112 200.697 61.112C202.489 61.112 203.833 61.504 204.729 62.288C205.625 63.072 206.073 64.216 206.073 65.72V71.24H207.249V74H205.281ZM200.361 71.816C200.953 71.816 201.457 71.688 201.873 71.432C202.305 71.176 202.521 70.76 202.521 70.184V68.696H200.793C199.401 68.696 198.705 69.168 198.705 70.112V70.472C198.705 70.936 198.849 71.28 199.137 71.504C199.425 71.712 199.833 71.816 200.361 71.816ZM209.633 74V61.4H213.185V63.536H213.329C213.553 62.88 213.945 62.312 214.505 61.832C215.065 61.352 215.841 61.112 216.833 61.112C218.129 61.112 219.105 61.544 219.761 62.408C220.433 63.272 220.769 64.504 220.769 66.104V74H217.217V66.392C217.217 65.576 217.089 64.976 216.833 64.592C216.577 64.192 216.121 63.992 215.465 63.992C215.177 63.992 214.897 64.032 214.625 64.112C214.353 64.176 214.105 64.288 213.881 64.448C213.673 64.608 213.505 64.808 213.377 65.048C213.249 65.272 213.185 65.536 213.185 65.84V74H209.633ZM228.201 74.288C226.985 74.288 225.961 74.096 225.129 73.712C224.297 73.312 223.553 72.752 222.897 72.032L224.985 69.92C225.433 70.416 225.929 70.808 226.473 71.096C227.017 71.384 227.633 71.528 228.321 71.528C229.025 71.528 229.513 71.424 229.785 71.216C230.057 70.992 230.193 70.696 230.193 70.328C230.193 69.736 229.769 69.384 228.921 69.272L227.553 69.104C224.721 68.752 223.305 67.456 223.305 65.216C223.305 64.608 223.417 64.056 223.641 63.56C223.881 63.048 224.209 62.616 224.625 62.264C225.057 61.896 225.569 61.616 226.161 61.424C226.769 61.216 227.449 61.112 228.201 61.112C228.857 61.112 229.433 61.16 229.929 61.256C230.441 61.336 230.889 61.464 231.273 61.64C231.673 61.8 232.033 62.008 232.353 62.264C232.689 62.504 233.017 62.776 233.337 63.08L231.297 65.168C230.897 64.768 230.441 64.456 229.929 64.232C229.433 63.992 228.921 63.872 228.393 63.872C227.785 63.872 227.353 63.968 227.097 64.16C226.841 64.352 226.713 64.608 226.713 64.928C226.713 65.264 226.801 65.528 226.977 65.72C227.169 65.896 227.521 66.024 228.033 66.104L229.449 66.296C232.217 66.664 233.601 67.928 233.601 70.088C233.601 70.696 233.473 71.256 233.217 71.768C232.961 72.28 232.593 72.728 232.113 73.112C231.649 73.48 231.081 73.768 230.409 73.976C229.753 74.184 229.017 74.288 228.201 74.288ZM245.335 74C244.695 74 244.159 73.8 243.727 73.4C243.311 73 243.047 72.464 242.935 71.792H242.791C242.599 72.608 242.175 73.232 241.519 73.664C240.863 74.08 240.055 74.288 239.095 74.288C237.831 74.288 236.863 73.952 236.191 73.28C235.519 72.608 235.183 71.72 235.183 70.616C235.183 69.288 235.663 68.304 236.623 67.664C237.599 67.008 238.919 66.68 240.583 66.68H242.575V65.888C242.575 65.28 242.415 64.8 242.095 64.448C241.775 64.08 241.239 63.896 240.487 63.896C239.783 63.896 239.223 64.048 238.807 64.352C238.391 64.656 238.047 65 237.775 65.384L235.663 63.512C236.175 62.76 236.815 62.176 237.583 61.76C238.367 61.328 239.423 61.112 240.751 61.112C242.543 61.112 243.887 61.504 244.783 62.288C245.679 63.072 246.127 64.216 246.127 65.72V71.24H247.303V74H245.335ZM240.415 71.816C241.007 71.816 241.511 71.688 241.927 71.432C242.359 71.176 242.575 70.76 242.575 70.184V68.696H240.847C239.455 68.696 238.759 69.168 238.759 70.112V70.472C238.759 70.936 238.903 71.28 239.191 71.504C239.479 71.712 239.887 71.816 240.415 71.816ZM254.775 74.288C253.831 74.288 252.991 74.136 252.255 73.832C251.519 73.512 250.903 73.072 250.407 72.512C249.911 71.936 249.535 71.24 249.279 70.424C249.023 69.608 248.895 68.696 248.895 67.688C248.895 66.68 249.023 65.776 249.279 64.976C249.535 64.16 249.911 63.464 250.407 62.888C250.903 62.312 251.519 61.872 252.255 61.568C252.991 61.264 253.831 61.112 254.775 61.112C256.055 61.112 257.119 61.4 257.967 61.976C258.831 62.552 259.447 63.36 259.815 64.4L256.935 65.648C256.823 65.168 256.591 64.76 256.239 64.424C255.887 64.088 255.399 63.92 254.775 63.92C254.055 63.92 253.511 64.16 253.143 64.64C252.775 65.104 252.591 65.736 252.591 66.536V68.888C252.591 69.688 252.775 70.32 253.143 70.784C253.511 71.248 254.055 71.48 254.775 71.48C255.415 71.48 255.919 71.312 256.287 70.976C256.671 70.624 256.951 70.168 257.127 69.608L259.887 70.808C259.471 72.008 258.823 72.888 257.943 73.448C257.079 74.008 256.023 74.288 254.775 74.288ZM266.502 74C265.27 74 264.334 73.688 263.694 73.064C263.07 72.44 262.758 71.528 262.758 70.328V64.16H260.982V61.4H261.87C262.35 61.4 262.678 61.288 262.854 61.064C263.03 60.824 263.118 60.488 263.118 60.056V57.992H266.31V61.4H268.806V64.16H266.31V71.24H268.614V74H266.502ZM273.049 60.056C272.329 60.056 271.801 59.896 271.465 59.576C271.145 59.24 270.985 58.816 270.985 58.304V57.776C270.985 57.264 271.145 56.848 271.465 56.528C271.801 56.192 272.329 56.024 273.049 56.024C273.769 56.024 274.289 56.192 274.609 56.528C274.945 56.848 275.113 57.264 275.113 57.776V58.304C275.113 58.816 274.945 59.24 274.609 59.576C274.289 59.896 273.769 60.056 273.049 60.056ZM271.273 61.4H274.825V74H271.273V61.4ZM283.252 74.288C282.324 74.288 281.492 74.136 280.756 73.832C280.036 73.528 279.42 73.088 278.908 72.512C278.412 71.936 278.028 71.24 277.756 70.424C277.484 69.608 277.348 68.696 277.348 67.688C277.348 66.68 277.484 65.768 277.756 64.952C278.028 64.136 278.412 63.448 278.908 62.888C279.42 62.312 280.036 61.872 280.756 61.568C281.492 61.264 282.324 61.112 283.252 61.112C284.18 61.112 285.004 61.264 285.724 61.568C286.46 61.872 287.076 62.312 287.572 62.888C288.084 63.448 288.476 64.136 288.748 64.952C289.02 65.768 289.156 66.68 289.156 67.688C289.156 68.696 289.02 69.608 288.748 70.424C288.476 71.24 288.084 71.936 287.572 72.512C287.076 73.088 286.46 73.528 285.724 73.832C285.004 74.136 284.18 74.288 283.252 74.288ZM283.252 71.48C283.956 71.48 284.5 71.264 284.884 70.832C285.268 70.4 285.46 69.784 285.46 68.984V66.416C285.46 65.616 285.268 65 284.884 64.568C284.5 64.136 283.956 63.92 283.252 63.92C282.548 63.92 282.004 64.136 281.62 64.568C281.236 65 281.044 65.616 281.044 66.416V68.984C281.044 69.784 281.236 70.4 281.62 70.832C282.004 71.264 282.548 71.48 283.252 71.48ZM291.687 74V61.4H295.239V63.536H295.383C295.607 62.88 295.999 62.312 296.559 61.832C297.119 61.352 297.895 61.112 298.887 61.112C300.183 61.112 301.159 61.544 301.815 62.408C302.487 63.272 302.823 64.504 302.823 66.104V74H299.271V66.392C299.271 65.576 299.143 64.976 298.887 64.592C298.631 64.192 298.175 63.992 297.519 63.992C297.231 63.992 296.951 64.032 296.679 64.112C296.407 64.176 296.159 64.288 295.935 64.448C295.727 64.608 295.559 64.808 295.431 65.048C295.303 65.272 295.239 65.536 295.239 65.84V74H291.687ZM311.848 74V57.248H322.96V60.488H315.496V63.92H321.856V67.136H315.496V74H311.848ZM330.178 74.288C329.218 74.288 328.362 74.136 327.61 73.832C326.858 73.512 326.218 73.072 325.69 72.512C325.178 71.936 324.786 71.24 324.514 70.424C324.258 69.608 324.13 68.696 324.13 67.688C324.13 66.696 324.258 65.8 324.514 65C324.77 64.184 325.146 63.488 325.642 62.912C326.154 62.336 326.778 61.896 327.514 61.592C328.25 61.272 329.09 61.112 330.034 61.112C331.074 61.112 331.962 61.288 332.698 61.64C333.45 61.992 334.058 62.464 334.522 63.056C335.002 63.648 335.346 64.336 335.554 65.12C335.778 65.888 335.89 66.696 335.89 67.544V68.6H327.802V68.792C327.802 69.624 328.026 70.288 328.474 70.784C328.922 71.264 329.626 71.504 330.586 71.504C331.322 71.504 331.922 71.36 332.386 71.072C332.85 70.768 333.282 70.408 333.682 69.992L335.458 72.2C334.898 72.856 334.162 73.368 333.25 73.736C332.354 74.104 331.33 74.288 330.178 74.288ZM330.106 63.728C329.386 63.728 328.818 63.968 328.402 64.448C328.002 64.912 327.802 65.536 327.802 66.32V66.512H332.218V66.296C332.218 65.528 332.042 64.912 331.69 64.448C331.354 63.968 330.826 63.728 330.106 63.728ZM343.654 74.288C342.694 74.288 341.838 74.136 341.086 73.832C340.334 73.512 339.694 73.072 339.166 72.512C338.654 71.936 338.262 71.24 337.99 70.424C337.734 69.608 337.606 68.696 337.606 67.688C337.606 66.696 337.734 65.8 337.99 65C338.246 64.184 338.622 63.488 339.118 62.912C339.63 62.336 340.254 61.896 340.99 61.592C341.726 61.272 342.566 61.112 343.51 61.112C344.55 61.112 345.438 61.288 346.174 61.64C346.926 61.992 347.534 62.464 347.998 63.056C348.478 63.648 348.822 64.336 349.03 65.12C349.254 65.888 349.366 66.696 349.366 67.544V68.6H341.278V68.792C341.278 69.624 341.502 70.288 341.95 70.784C342.398 71.264 343.102 71.504 344.062 71.504C344.798 71.504 345.398 71.36 345.862 71.072C346.326 70.768 346.758 70.408 347.158 69.992L348.934 72.2C348.374 72.856 347.638 73.368 346.726 73.736C345.83 74.104 344.806 74.288 343.654 74.288ZM343.582 63.728C342.862 63.728 342.294 63.968 341.878 64.448C341.478 64.912 341.278 65.536 341.278 66.32V66.512H345.694V66.296C345.694 65.528 345.518 64.912 345.166 64.448C344.83 63.968 344.302 63.728 343.582 63.728ZM356.779 66.512C356.779 65.36 356.883 64.248 357.091 63.176C357.315 62.104 357.611 61.112 357.979 60.2C358.347 59.272 358.787 58.432 359.299 57.68C359.811 56.928 360.371 56.288 360.979 55.76H364.315C363.019 56.96 361.995 58.408 361.243 60.104C360.507 61.784 360.139 63.648 360.139 65.696V67.376C360.139 69.504 360.515 71.4 361.267 73.064C362.019 74.728 363.035 76.144 364.315 77.312H360.955C360.379 76.816 359.835 76.192 359.323 75.44C358.811 74.688 358.363 73.848 357.979 72.92C357.611 71.976 357.315 70.968 357.091 69.896C356.883 68.808 356.779 67.68 356.779 66.512ZM373.301 60.488V74H369.653V60.488H365.117V57.248H377.837V60.488H373.301ZM394.252 74H390.028L386.404 67.832H386.332L382.804 74H378.868L384.244 65.336L379.132 57.248H383.38L386.644 62.912H386.716L390.028 57.248H393.964L388.804 65.408L394.252 74ZM401.857 66.512C401.857 67.68 401.745 68.808 401.521 69.896C401.313 70.968 401.017 71.976 400.633 72.92C400.265 73.848 399.825 74.688 399.313 75.44C398.801 76.192 398.257 76.816 397.681 77.312H394.321C395.601 76.144 396.617 74.728 397.369 73.064C398.121 71.4 398.497 69.504 398.497 67.376V65.696C398.497 63.648 398.121 61.784 397.369 60.104C396.633 58.408 395.617 56.96 394.321 55.76H397.657C398.265 56.288 398.825 56.928 399.337 57.68C399.849 58.432 400.289 59.272 400.657 60.2C401.025 61.112 401.313 62.104 401.521 63.176C401.745 64.248 401.857 65.36 401.857 66.512ZM184.528 117L183.016 112.464H176.752L175.288 117H172.528L178.24 100.248H181.648L187.36 117H184.528ZM179.944 102.744H179.824L177.4 110.136H182.344L179.944 102.744ZM197.323 114.936H197.227C197.115 115.24 196.963 115.536 196.771 115.824C196.595 116.112 196.363 116.368 196.075 116.592C195.803 116.8 195.467 116.968 195.067 117.096C194.683 117.224 194.235 117.288 193.723 117.288C192.427 117.288 191.419 116.872 190.699 116.04C189.995 115.208 189.643 114.016 189.643 112.464V104.52H192.259V112.128C192.259 114.064 193.059 115.032 194.659 115.032C194.995 115.032 195.323 114.992 195.643 114.912C195.963 114.816 196.243 114.68 196.483 114.504C196.739 114.328 196.939 114.104 197.083 113.832C197.243 113.56 197.323 113.24 197.323 112.872V104.52H199.939V117H197.323V114.936ZM207.141 117C206.229 117 205.541 116.768 205.077 116.304C204.613 115.824 204.381 115.152 204.381 114.288V106.656H202.437V104.52H203.493C203.925 104.52 204.221 104.424 204.381 104.232C204.557 104.04 204.645 103.728 204.645 103.296V101.112H206.997V104.52H209.613V106.656H206.997V114.864H209.421V117H207.141ZM217.252 117.288C216.388 117.288 215.596 117.136 214.876 116.832C214.172 116.528 213.572 116.096 213.076 115.536C212.58 114.96 212.196 114.272 211.924 113.472C211.652 112.656 211.516 111.752 211.516 110.76C211.516 109.768 211.652 108.872 211.924 108.072C212.196 107.256 212.58 106.568 213.076 106.008C213.572 105.432 214.172 104.992 214.876 104.688C215.596 104.384 216.388 104.232 217.252 104.232C218.116 104.232 218.9 104.384 219.604 104.688C220.324 104.992 220.932 105.432 221.428 106.008C221.924 106.568 222.308 107.256 222.58 108.072C222.852 108.872 222.988 109.768 222.988 110.76C222.988 111.752 222.852 112.656 222.58 113.472C222.308 114.272 221.924 114.96 221.428 115.536C220.932 116.096 220.324 116.528 219.604 116.832C218.9 117.136 218.116 117.288 217.252 117.288ZM217.252 115.128C218.148 115.128 218.868 114.856 219.412 114.312C219.956 113.752 220.228 112.92 220.228 111.816V109.704C220.228 108.6 219.956 107.776 219.412 107.232C218.868 106.672 218.148 106.392 217.252 106.392C216.356 106.392 215.636 106.672 215.092 107.232C214.548 107.776 214.276 108.6 214.276 109.704V111.816C214.276 112.92 214.548 113.752 215.092 114.312C215.636 114.856 216.356 115.128 217.252 115.128ZM239.423 114.936H239.303C239.031 115.672 238.583 116.248 237.959 116.664C237.351 117.08 236.631 117.288 235.799 117.288C234.215 117.288 232.991 116.72 232.127 115.584C231.263 114.432 230.831 112.824 230.831 110.76C230.831 108.696 231.263 107.096 232.127 105.96C232.991 104.808 234.215 104.232 235.799 104.232C236.631 104.232 237.351 104.44 237.959 104.856C238.583 105.256 239.031 105.832 239.303 106.584H239.423V99.24H242.039V117H239.423V114.936ZM236.591 115.032C237.391 115.032 238.063 114.84 238.607 114.456C239.151 114.056 239.423 113.536 239.423 112.896V108.624C239.423 107.984 239.151 107.472 238.607 107.088C238.063 106.688 237.391 106.488 236.591 106.488C235.679 106.488 234.951 106.784 234.407 107.376C233.863 107.952 233.591 108.72 233.591 109.68V111.84C233.591 112.8 233.863 113.576 234.407 114.168C234.951 114.744 235.679 115.032 236.591 115.032ZM247.098 102.288C246.554 102.288 246.154 102.16 245.898 101.904C245.658 101.648 245.538 101.32 245.538 100.92V100.512C245.538 100.112 245.658 99.784 245.898 99.528C246.154 99.272 246.554 99.144 247.098 99.144C247.642 99.144 248.034 99.272 248.274 99.528C248.514 99.784 248.634 100.112 248.634 100.512V100.92C248.634 101.32 248.514 101.648 248.274 101.904C248.034 102.16 247.642 102.288 247.098 102.288ZM245.778 104.52H248.394V117H245.778V104.52ZM256.09 117.288C254.906 117.288 253.914 117.08 253.114 116.664C252.314 116.248 251.618 115.672 251.026 114.936L252.706 113.4C253.17 113.96 253.682 114.4 254.242 114.72C254.818 115.024 255.482 115.176 256.234 115.176C257.002 115.176 257.57 115.032 257.938 114.744C258.322 114.44 258.514 114.024 258.514 113.496C258.514 113.096 258.378 112.76 258.106 112.488C257.85 112.2 257.394 112.016 256.738 111.936L255.586 111.792C254.306 111.632 253.298 111.264 252.562 110.688C251.842 110.096 251.482 109.224 251.482 108.072C251.482 107.464 251.594 106.928 251.818 106.464C252.042 105.984 252.354 105.584 252.754 105.264C253.17 104.928 253.658 104.672 254.218 104.496C254.794 104.32 255.426 104.232 256.114 104.232C257.234 104.232 258.146 104.408 258.85 104.76C259.57 105.112 260.21 105.6 260.77 106.224L259.162 107.76C258.842 107.376 258.418 107.048 257.89 106.776C257.378 106.488 256.786 106.344 256.114 106.344C255.394 106.344 254.858 106.488 254.506 106.776C254.17 107.064 254.002 107.44 254.002 107.904C254.002 108.384 254.154 108.744 254.458 108.984C254.762 109.224 255.25 109.4 255.922 109.512L257.074 109.656C258.45 109.864 259.45 110.272 260.074 110.88C260.714 111.472 261.034 112.272 261.034 113.28C261.034 113.888 260.914 114.44 260.674 114.936C260.45 115.416 260.122 115.832 259.69 116.184C259.258 116.536 258.738 116.808 258.13 117C257.522 117.192 256.842 117.288 256.09 117.288ZM267.281 117C266.369 117 265.681 116.768 265.217 116.304C264.753 115.824 264.521 115.152 264.521 114.288V106.656H262.577V104.52H263.633C264.065 104.52 264.361 104.424 264.521 104.232C264.697 104.04 264.785 103.728 264.785 103.296V101.112H267.137V104.52H269.753V106.656H267.137V114.864H269.561V117H267.281ZM272.591 117V104.52H275.207V106.92H275.327C275.503 106.28 275.871 105.72 276.431 105.24C276.991 104.76 277.767 104.52 278.759 104.52H279.455V107.04H278.423C277.383 107.04 276.583 107.208 276.023 107.544C275.479 107.88 275.207 108.376 275.207 109.032V117H272.591ZM283.098 102.288C282.554 102.288 282.154 102.16 281.898 101.904C281.658 101.648 281.538 101.32 281.538 100.92V100.512C281.538 100.112 281.658 99.784 281.898 99.528C282.154 99.272 282.554 99.144 283.098 99.144C283.642 99.144 284.034 99.272 284.274 99.528C284.514 99.784 284.634 100.112 284.634 100.512V100.92C284.634 101.32 284.514 101.648 284.274 101.904C284.034 102.16 283.642 102.288 283.098 102.288ZM281.778 104.52H284.394V117H281.778V104.52ZM288.13 99.24H290.746V106.584H290.866C291.138 105.832 291.578 105.256 292.186 104.856C292.81 104.44 293.538 104.232 294.37 104.232C295.954 104.232 297.178 104.808 298.042 105.96C298.906 107.096 299.338 108.696 299.338 110.76C299.338 112.824 298.906 114.432 298.042 115.584C297.178 116.72 295.954 117.288 294.37 117.288C293.538 117.288 292.81 117.08 292.186 116.664C291.578 116.248 291.138 115.672 290.866 114.936H290.746V117H288.13V99.24ZM293.578 115.032C294.49 115.032 295.218 114.744 295.762 114.168C296.306 113.576 296.578 112.8 296.578 111.84V109.68C296.578 108.72 296.306 107.952 295.762 107.376C295.218 106.784 294.49 106.488 293.578 106.488C292.778 106.488 292.106 106.688 291.562 107.088C291.018 107.472 290.746 107.984 290.746 108.624V112.896C290.746 113.536 291.018 114.056 291.562 114.456C292.106 114.84 292.778 115.032 293.578 115.032ZM309.893 114.936H309.797C309.685 115.24 309.533 115.536 309.341 115.824C309.165 116.112 308.933 116.368 308.645 116.592C308.373 116.8 308.037 116.968 307.637 117.096C307.253 117.224 306.805 117.288 306.293 117.288C304.997 117.288 303.989 116.872 303.269 116.04C302.565 115.208 302.213 114.016 302.213 112.464V104.52H304.829V112.128C304.829 114.064 305.629 115.032 307.229 115.032C307.565 115.032 307.893 114.992 308.213 114.912C308.533 114.816 308.813 114.68 309.053 114.504C309.309 114.328 309.509 114.104 309.653 113.832C309.813 113.56 309.893 113.24 309.893 112.872V104.52H312.509V117H309.893V114.936ZM319.711 117C318.799 117 318.111 116.768 317.647 116.304C317.183 115.824 316.951 115.152 316.951 114.288V106.656H315.007V104.52H316.063C316.495 104.52 316.791 104.424 316.951 104.232C317.127 104.04 317.215 103.728 317.215 103.296V101.112H319.567V104.52H322.183V106.656H319.567V114.864H321.991V117H319.711ZM329.823 117.288C328.927 117.288 328.127 117.136 327.423 116.832C326.719 116.528 326.119 116.096 325.623 115.536C325.127 114.96 324.743 114.272 324.471 113.472C324.215 112.656 324.087 111.752 324.087 110.76C324.087 109.768 324.215 108.872 324.471 108.072C324.743 107.256 325.127 106.568 325.623 106.008C326.119 105.432 326.719 104.992 327.423 104.688C328.127 104.384 328.927 104.232 329.823 104.232C330.735 104.232 331.535 104.392 332.223 104.712C332.927 105.032 333.511 105.48 333.975 106.056C334.439 106.616 334.783 107.272 335.007 108.024C335.247 108.776 335.367 109.584 335.367 110.448V111.432H326.799V111.84C326.799 112.8 327.079 113.592 327.639 114.216C328.215 114.824 329.031 115.128 330.087 115.128C330.855 115.128 331.503 114.96 332.031 114.624C332.559 114.288 333.007 113.832 333.375 113.256L334.911 114.768C334.447 115.536 333.775 116.152 332.895 116.616C332.015 117.064 330.991 117.288 329.823 117.288ZM329.823 106.272C329.375 106.272 328.959 106.352 328.575 106.512C328.207 106.672 327.887 106.896 327.615 107.184C327.359 107.472 327.159 107.816 327.015 108.216C326.871 108.616 326.799 109.056 326.799 109.536V109.704H332.607V109.464C332.607 108.504 332.359 107.736 331.863 107.16C331.367 106.568 330.687 106.272 329.823 106.272ZM346.111 114.936H345.991C345.719 115.672 345.271 116.248 344.647 116.664C344.039 117.08 343.319 117.288 342.487 117.288C340.903 117.288 339.679 116.72 338.815 115.584C337.951 114.432 337.519 112.824 337.519 110.76C337.519 108.696 337.951 107.096 338.815 105.96C339.679 104.808 340.903 104.232 342.487 104.232C343.319 104.232 344.039 104.44 344.647 104.856C345.271 105.256 345.719 105.832 345.991 106.584H346.111V99.24H348.727V117H346.111V114.936ZM343.279 115.032C344.079 115.032 344.751 114.84 345.295 114.456C345.839 114.056 346.111 113.536 346.111 112.896V108.624C346.111 107.984 345.839 107.472 345.295 107.088C344.751 106.688 344.079 106.488 343.279 106.488C342.367 106.488 341.639 106.784 341.095 107.376C340.551 107.952 340.279 108.72 340.279 109.68V111.84C340.279 112.8 340.551 113.576 341.095 114.168C341.639 114.744 342.367 115.032 343.279 115.032ZM367.282 117C366.594 117 366.066 116.808 365.698 116.424C365.33 116.024 365.106 115.52 365.026 114.912H364.906C364.666 115.696 364.226 116.288 363.586 116.688C362.946 117.088 362.17 117.288 361.258 117.288C359.962 117.288 358.962 116.952 358.258 116.28C357.57 115.608 357.226 114.704 357.226 113.568C357.226 112.32 357.674 111.384 358.57 110.76C359.482 110.136 360.81 109.824 362.554 109.824H364.81V108.768C364.81 108 364.602 107.408 364.186 106.992C363.77 106.576 363.122 106.368 362.242 106.368C361.506 106.368 360.906 106.528 360.442 106.848C359.978 107.168 359.586 107.576 359.266 108.072L357.706 106.656C358.122 105.952 358.706 105.376 359.458 104.928C360.21 104.464 361.194 104.232 362.41 104.232C364.026 104.232 365.266 104.608 366.13 105.36C366.994 106.112 367.426 107.192 367.426 108.6V114.864H368.746V117H367.282ZM362.002 115.296C362.818 115.296 363.49 115.12 364.018 114.768C364.546 114.4 364.81 113.912 364.81 113.304V111.504H362.602C360.794 111.504 359.89 112.064 359.89 113.184V113.616C359.89 114.176 360.074 114.6 360.442 114.888C360.826 115.16 361.346 115.296 362.002 115.296ZM371.31 117V104.52H373.926V106.584H374.046C374.174 106.264 374.326 105.96 374.502 105.672C374.694 105.384 374.918 105.136 375.174 104.928C375.446 104.704 375.758 104.536 376.11 104.424C376.478 104.296 376.902 104.232 377.382 104.232C378.23 104.232 378.982 104.44 379.638 104.856C380.294 105.272 380.774 105.912 381.078 106.776H381.15C381.374 106.072 381.806 105.472 382.446 104.976C383.086 104.48 383.91 104.232 384.918 104.232C386.166 104.232 387.134 104.656 387.822 105.504C388.51 106.336 388.854 107.528 388.854 109.08V117H386.238V109.392C386.238 108.432 386.054 107.712 385.686 107.232C385.318 106.736 384.734 106.488 383.934 106.488C383.598 106.488 383.278 106.536 382.974 106.632C382.67 106.712 382.398 106.84 382.158 107.016C381.934 107.192 381.75 107.416 381.606 107.688C381.462 107.96 381.39 108.272 381.39 108.624V117H378.774V109.392C378.774 107.456 378.014 106.488 376.493 106.488C376.174 106.488 375.854 106.536 375.534 106.632C375.23 106.712 374.958 106.84 374.718 107.016C374.478 107.192 374.286 107.416 374.142 107.688C373.998 107.96 373.926 108.272 373.926 108.624V117H371.31ZM397.37 117.288C396.506 117.288 395.714 117.136 394.994 116.832C394.29 116.528 393.69 116.096 393.194 115.536C392.698 114.96 392.314 114.272 392.042 113.472C391.77 112.656 391.634 111.752 391.634 110.76C391.634 109.768 391.77 108.872 392.042 108.072C392.314 107.256 392.698 106.568 393.194 106.008C393.69 105.432 394.29 104.992 394.994 104.688C395.714 104.384 396.506 104.232 397.37 104.232C398.234 104.232 399.018 104.384 399.722 104.688C400.442 104.992 401.05 105.432 401.546 106.008C402.042 106.568 402.426 107.256 402.698 108.072C402.97 108.872 403.106 109.768 403.106 110.76C403.106 111.752 402.97 112.656 402.698 113.472C402.426 114.272 402.042 114.96 401.546 115.536C401.05 116.096 400.442 116.528 399.722 116.832C399.018 117.136 398.234 117.288 397.37 117.288ZM397.37 115.128C398.266 115.128 398.986 114.856 399.53 114.312C400.074 113.752 400.346 112.92 400.346 111.816V109.704C400.346 108.6 400.074 107.776 399.53 107.232C398.986 106.672 398.266 106.392 397.37 106.392C396.474 106.392 395.754 106.672 395.21 107.232C394.666 107.776 394.394 108.6 394.394 109.704V111.816C394.394 112.92 394.666 113.752 395.21 114.312C395.754 114.856 396.474 115.128 397.37 115.128ZM406.02 117V104.52H408.636V106.584H408.756C409.028 105.912 409.436 105.352 409.98 104.904C410.54 104.456 411.3 104.232 412.26 104.232C413.54 104.232 414.532 104.656 415.236 105.504C415.956 106.336 416.316 107.528 416.316 109.08V117H413.7V109.416C413.7 107.464 412.916 106.488 411.348 106.488C411.012 106.488 410.676 106.536 410.34 106.632C410.02 106.712 409.732 106.84 409.476 107.016C409.22 107.192 409.012 107.416 408.852 107.688C408.708 107.96 408.636 108.28 408.636 108.648V117H406.02ZM430.886 118.176C430.886 119.472 430.39 120.448 429.398 121.104C428.406 121.76 426.79 122.088 424.55 122.088C423.526 122.088 422.654 122.016 421.934 121.872C421.23 121.744 420.646 121.552 420.182 121.296C419.734 121.04 419.406 120.728 419.198 120.36C418.99 119.992 418.886 119.568 418.886 119.088C418.886 118.4 419.07 117.864 419.438 117.48C419.822 117.096 420.35 116.832 421.022 116.688V116.424C420.078 116.12 419.606 115.48 419.606 114.504C419.606 113.864 419.822 113.376 420.254 113.04C420.686 112.688 421.206 112.44 421.814 112.296V112.2C421.078 111.848 420.51 111.36 420.11 110.736C419.726 110.096 419.534 109.352 419.534 108.504C419.534 107.224 419.958 106.192 420.806 105.408C421.67 104.624 422.902 104.232 424.502 104.232C425.382 104.232 426.134 104.36 426.758 104.616V104.28C426.758 103.72 426.886 103.288 427.142 102.984C427.414 102.664 427.83 102.504 428.39 102.504H430.31V104.616H427.766V105.12C428.326 105.488 428.758 105.968 429.062 106.56C429.366 107.136 429.518 107.784 429.518 108.504C429.518 109.768 429.086 110.792 428.222 111.576C427.358 112.344 426.126 112.728 424.526 112.728C423.918 112.728 423.374 112.664 422.894 112.536C422.574 112.648 422.294 112.808 422.054 113.016C421.814 113.208 421.694 113.464 421.694 113.784C421.694 114.12 421.846 114.36 422.15 114.504C422.454 114.648 422.886 114.72 423.446 114.72H426.518C428.054 114.72 429.166 115.032 429.854 115.656C430.542 116.264 430.886 117.104 430.886 118.176ZM428.438 118.464C428.438 118.032 428.27 117.688 427.934 117.432C427.614 117.176 427.022 117.048 426.158 117.048H421.934C421.358 117.384 421.07 117.864 421.07 118.488C421.07 119 421.27 119.408 421.67 119.712C422.086 120.032 422.782 120.192 423.758 120.192H425.39C427.422 120.192 428.438 119.616 428.438 118.464ZM424.526 110.832C425.294 110.832 425.886 110.664 426.302 110.328C426.734 109.976 426.95 109.44 426.95 108.72V108.24C426.95 107.52 426.734 106.992 426.302 106.656C425.886 106.304 425.294 106.128 424.526 106.128C423.758 106.128 423.158 106.304 422.726 106.656C422.31 106.992 422.102 107.52 422.102 108.24V108.72C422.102 109.44 422.31 109.976 422.726 110.328C423.158 110.664 423.758 110.832 424.526 110.832ZM173.872 142.24H176.488V149.584H176.608C176.88 148.912 177.288 148.352 177.832 147.904C178.392 147.456 179.152 147.232 180.112 147.232C181.392 147.232 182.384 147.656 183.088 148.504C183.808 149.336 184.168 150.528 184.168 152.08V160H181.552V152.392C181.552 150.456 180.768 149.488 179.2 149.488C178.864 149.488 178.528 149.536 178.192 149.632C177.872 149.712 177.584 149.84 177.328 150.016C177.072 150.192 176.864 150.416 176.704 150.688C176.56 150.96 176.488 151.272 176.488 151.624V160H173.872V142.24ZM192.69 160.288C191.826 160.288 191.034 160.136 190.314 159.832C189.61 159.528 189.01 159.096 188.514 158.536C188.018 157.96 187.634 157.272 187.362 156.472C187.09 155.656 186.954 154.752 186.954 153.76C186.954 152.768 187.09 151.872 187.362 151.072C187.634 150.256 188.018 149.568 188.514 149.008C189.01 148.432 189.61 147.992 190.314 147.688C191.034 147.384 191.826 147.232 192.69 147.232C193.554 147.232 194.338 147.384 195.042 147.688C195.762 147.992 196.37 148.432 196.866 149.008C197.362 149.568 197.746 150.256 198.018 151.072C198.29 151.872 198.426 152.768 198.426 153.76C198.426 154.752 198.29 155.656 198.018 156.472C197.746 157.272 197.362 157.96 196.866 158.536C196.37 159.096 195.762 159.528 195.042 159.832C194.338 160.136 193.554 160.288 192.69 160.288ZM192.69 158.128C193.586 158.128 194.306 157.856 194.85 157.312C195.394 156.752 195.666 155.92 195.666 154.816V152.704C195.666 151.6 195.394 150.776 194.85 150.232C194.306 149.672 193.586 149.392 192.69 149.392C191.794 149.392 191.074 149.672 190.53 150.232C189.986 150.776 189.714 151.6 189.714 152.704V154.816C189.714 155.92 189.986 156.752 190.53 157.312C191.074 157.856 191.794 158.128 192.69 158.128ZM204.005 160C203.109 160 202.437 159.776 201.989 159.328C201.557 158.864 201.341 158.224 201.341 157.408V142.24H203.957V157.864H205.685V160H204.005ZM216.033 157.936H215.913C215.641 158.672 215.193 159.248 214.569 159.664C213.961 160.08 213.241 160.288 212.409 160.288C210.825 160.288 209.601 159.72 208.737 158.584C207.873 157.432 207.441 155.824 207.441 153.76C207.441 151.696 207.873 150.096 208.737 148.96C209.601 147.808 210.825 147.232 212.409 147.232C213.241 147.232 213.961 147.44 214.569 147.856C215.193 148.256 215.641 148.832 215.913 149.584H216.033V142.24H218.648V160H216.033V157.936ZM213.201 158.032C214.001 158.032 214.673 157.84 215.217 157.456C215.761 157.056 216.033 156.536 216.033 155.896V151.624C216.033 150.984 215.761 150.472 215.217 150.088C214.673 149.688 214.001 149.488 213.201 149.488C212.289 149.488 211.561 149.784 211.017 150.376C210.473 150.952 210.201 151.72 210.201 152.68V154.84C210.201 155.8 210.473 156.576 211.017 157.168C211.561 157.744 212.289 158.032 213.201 158.032ZM227.284 160.288C226.388 160.288 225.588 160.136 224.884 159.832C224.18 159.528 223.58 159.096 223.084 158.536C222.588 157.96 222.204 157.272 221.932 156.472C221.676 155.656 221.548 154.752 221.548 153.76C221.548 152.768 221.676 151.872 221.932 151.072C222.204 150.256 222.588 149.568 223.084 149.008C223.58 148.432 224.18 147.992 224.884 147.688C225.588 147.384 226.388 147.232 227.284 147.232C228.196 147.232 228.996 147.392 229.684 147.712C230.388 148.032 230.972 148.48 231.436 149.056C231.9 149.616 232.244 150.272 232.468 151.024C232.708 151.776 232.828 152.584 232.828 153.448V154.432H224.26V154.84C224.26 155.8 224.54 156.592 225.1 157.216C225.676 157.824 226.492 158.128 227.548 158.128C228.316 158.128 228.964 157.96 229.492 157.624C230.02 157.288 230.468 156.832 230.836 156.256L232.372 157.768C231.908 158.536 231.236 159.152 230.356 159.616C229.476 160.064 228.452 160.288 227.284 160.288ZM227.284 149.272C226.836 149.272 226.42 149.352 226.036 149.512C225.668 149.672 225.348 149.896 225.076 150.184C224.82 150.472 224.62 150.816 224.476 151.216C224.332 151.616 224.26 152.056 224.26 152.536V152.704H230.068V152.464C230.068 151.504 229.82 150.736 229.324 150.16C228.828 149.568 228.148 149.272 227.284 149.272ZM235.724 160V147.52H238.34V149.92H238.46C238.636 149.28 239.004 148.72 239.564 148.24C240.124 147.76 240.9 147.52 241.892 147.52H242.588V150.04H241.556C240.516 150.04 239.716 150.208 239.156 150.544C238.612 150.88 238.34 151.376 238.34 152.032V160H235.724ZM248.871 160.288C247.687 160.288 246.695 160.08 245.895 159.664C245.095 159.248 244.399 158.672 243.807 157.936L245.487 156.4C245.951 156.96 246.463 157.4 247.023 157.72C247.599 158.024 248.263 158.176 249.015 158.176C249.783 158.176 250.351 158.032 250.719 157.744C251.103 157.44 251.295 157.024 251.295 156.496C251.295 156.096 251.159 155.76 250.887 155.488C250.631 155.2 250.175 155.016 249.519 154.936L248.367 154.792C247.087 154.632 246.079 154.264 245.343 153.688C244.623 153.096 244.263 152.224 244.263 151.072C244.263 150.464 244.375 149.928 244.599 149.464C244.823 148.984 245.135 148.584 245.535 148.264C245.951 147.928 246.439 147.672 246.999 147.496C247.575 147.32 248.207 147.232 248.895 147.232C250.015 147.232 250.927 147.408 251.631 147.76C252.351 148.112 252.991 148.6 253.551 149.224L251.943 150.76C251.623 150.376 251.199 150.048 250.671 149.776C250.159 149.488 249.567 149.344 248.895 149.344C248.175 149.344 247.639 149.488 247.287 149.776C246.951 150.064 246.783 150.44 246.783 150.904C246.783 151.384 246.935 151.744 247.239 151.984C247.543 152.224 248.031 152.4 248.703 152.512L249.855 152.656C251.231 152.864 252.231 153.272 252.855 153.88C253.495 154.472 253.815 155.272 253.815 156.28C253.815 156.888 253.695 157.44 253.455 157.936C253.231 158.416 252.903 158.832 252.471 159.184C252.039 159.536 251.519 159.808 250.911 160C250.303 160.192 249.623 160.288 248.871 160.288ZM258.238 160.288C257.646 160.288 257.206 160.136 256.918 159.832C256.63 159.512 256.486 159.12 256.486 158.656V158.296C256.486 157.832 256.63 157.448 256.918 157.144C257.206 156.824 257.646 156.664 258.238 156.664C258.83 156.664 259.27 156.824 259.558 157.144C259.846 157.448 259.99 157.832 259.99 158.296V158.656C259.99 159.12 259.846 159.512 259.558 159.832C259.27 160.136 258.83 160.288 258.238 160.288ZM180.352 203.288C178.16 203.288 176.44 202.552 175.192 201.08C173.944 199.592 173.32 197.44 173.32 194.624C173.32 193.216 173.48 191.976 173.8 190.904C174.12 189.832 174.584 188.928 175.192 188.192C175.8 187.456 176.536 186.904 177.4 186.536C178.28 186.152 179.264 185.96 180.352 185.96C181.808 185.96 183.024 186.28 184 186.92C184.992 187.56 185.768 188.504 186.328 189.752L184.048 191C183.76 190.2 183.312 189.568 182.704 189.104C182.112 188.624 181.328 188.384 180.352 188.384C179.056 188.384 178.04 188.824 177.304 189.704C176.568 190.584 176.2 191.8 176.2 193.352V195.896C176.2 197.448 176.568 198.664 177.304 199.544C178.04 200.424 179.056 200.864 180.352 200.864C181.36 200.864 182.176 200.608 182.8 200.096C183.44 199.568 183.912 198.896 184.216 198.08L186.4 199.4C185.84 200.616 185.056 201.568 184.048 202.256C183.04 202.944 181.808 203.288 180.352 203.288ZM193.979 203.288C193.115 203.288 192.323 203.136 191.603 202.832C190.899 202.528 190.299 202.096 189.803 201.536C189.307 200.96 188.923 200.272 188.651 199.472C188.379 198.656 188.243 197.752 188.243 196.76C188.243 195.768 188.379 194.872 188.651 194.072C188.923 193.256 189.307 192.568 189.803 192.008C190.299 191.432 190.899 190.992 191.603 190.688C192.323 190.384 193.115 190.232 193.979 190.232C194.843 190.232 195.627 190.384 196.331 190.688C197.051 190.992 197.659 191.432 198.155 192.008C198.651 192.568 199.035 193.256 199.307 194.072C199.579 194.872 199.715 195.768 199.715 196.76C199.715 197.752 199.579 198.656 199.307 199.472C199.035 200.272 198.651 200.96 198.155 201.536C197.659 202.096 197.051 202.528 196.331 202.832C195.627 203.136 194.843 203.288 193.979 203.288ZM193.979 201.128C194.875 201.128 195.595 200.856 196.139 200.312C196.683 199.752 196.955 198.92 196.955 197.816V195.704C196.955 194.6 196.683 193.776 196.139 193.232C195.595 192.672 194.875 192.392 193.979 192.392C193.083 192.392 192.363 192.672 191.819 193.232C191.275 193.776 191.003 194.6 191.003 195.704V197.816C191.003 198.92 191.275 199.752 191.819 200.312C192.363 200.856 193.083 201.128 193.979 201.128ZM202.63 203V190.52H205.246V192.584H205.366C205.494 192.264 205.646 191.96 205.822 191.672C206.014 191.384 206.238 191.136 206.494 190.928C206.766 190.704 207.078 190.536 207.43 190.424C207.798 190.296 208.222 190.232 208.702 190.232C209.55 190.232 210.302 190.44 210.958 190.856C211.614 191.272 212.094 191.912 212.398 192.776H212.47C212.694 192.072 213.126 191.472 213.766 190.976C214.406 190.48 215.23 190.232 216.238 190.232C217.486 190.232 218.454 190.656 219.142 191.504C219.83 192.336 220.174 193.528 220.174 195.08V203H217.558V195.392C217.558 194.432 217.374 193.712 217.006 193.232C216.638 192.736 216.054 192.488 215.254 192.488C214.918 192.488 214.598 192.536 214.294 192.632C213.99 192.712 213.718 192.84 213.478 193.016C213.254 193.192 213.07 193.416 212.926 193.688C212.782 193.96 212.71 194.272 212.71 194.624V203H210.094V195.392C210.094 193.456 209.334 192.488 207.814 192.488C207.494 192.488 207.174 192.536 206.854 192.632C206.55 192.712 206.278 192.84 206.038 193.016C205.798 193.192 205.606 193.416 205.462 193.688C205.318 193.96 205.246 194.272 205.246 194.624V203H202.63ZM223.794 203V190.52H226.41V192.584H226.53C226.658 192.264 226.81 191.96 226.986 191.672C227.178 191.384 227.402 191.136 227.658 190.928C227.93 190.704 228.242 190.536 228.594 190.424C228.962 190.296 229.386 190.232 229.866 190.232C230.714 190.232 231.466 190.44 232.122 190.856C232.778 191.272 233.258 191.912 233.562 192.776H233.634C233.858 192.072 234.29 191.472 234.93 190.976C235.57 190.48 236.394 190.232 237.402 190.232C238.65 190.232 239.618 190.656 240.306 191.504C240.994 192.336 241.338 193.528 241.338 195.08V203H238.722V195.392C238.722 194.432 238.538 193.712 238.17 193.232C237.802 192.736 237.218 192.488 236.418 192.488C236.082 192.488 235.762 192.536 235.458 192.632C235.154 192.712 234.882 192.84 234.642 193.016C234.418 193.192 234.234 193.416 234.09 193.688C233.946 193.96 233.874 194.272 233.874 194.624V203H231.258V195.392C231.258 193.456 230.498 192.488 228.978 192.488C228.658 192.488 228.338 192.536 228.018 192.632C227.714 192.712 227.442 192.84 227.202 193.016C226.962 193.192 226.77 193.416 226.626 193.688C226.482 193.96 226.41 194.272 226.41 194.624V203H223.794ZM252.518 200.936H252.422C252.31 201.24 252.158 201.536 251.966 201.824C251.79 202.112 251.558 202.368 251.27 202.592C250.998 202.8 250.662 202.968 250.262 203.096C249.878 203.224 249.43 203.288 248.918 203.288C247.622 203.288 246.614 202.872 245.894 202.04C245.19 201.208 244.838 200.016 244.838 198.464V190.52H247.454V198.128C247.454 200.064 248.254 201.032 249.854 201.032C250.19 201.032 250.518 200.992 250.838 200.912C251.158 200.816 251.438 200.68 251.678 200.504C251.934 200.328 252.134 200.104 252.278 199.832C252.438 199.56 252.518 199.24 252.518 198.872V190.52H255.134V203H252.518V200.936ZM258.88 203V190.52H261.496V192.584H261.616C261.888 191.912 262.296 191.352 262.84 190.904C263.4 190.456 264.16 190.232 265.12 190.232C266.4 190.232 267.392 190.656 268.096 191.504C268.816 192.336 269.176 193.528 269.176 195.08V203H266.56V195.416C266.56 193.464 265.776 192.488 264.208 192.488C263.872 192.488 263.536 192.536 263.2 192.632C262.88 192.712 262.592 192.84 262.336 193.016C262.08 193.192 261.872 193.416 261.712 193.688C261.568 193.96 261.496 194.28 261.496 194.648V203H258.88ZM274.122 188.288C273.578 188.288 273.178 188.16 272.922 187.904C272.682 187.648 272.562 187.32 272.562 186.92V186.512C272.562 186.112 272.682 185.784 272.922 185.528C273.178 185.272 273.578 185.144 274.122 185.144C274.666 185.144 275.058 185.272 275.298 185.528C275.538 185.784 275.658 186.112 275.658 186.512V186.92C275.658 187.32 275.538 187.648 275.298 187.904C275.058 188.16 274.666 188.288 274.122 188.288ZM272.802 190.52H275.418V203H272.802V190.52ZM282.609 203C281.697 203 281.009 202.768 280.545 202.304C280.081 201.824 279.849 201.152 279.849 200.288V192.656H277.905V190.52H278.961C279.393 190.52 279.689 190.424 279.849 190.232C280.025 190.04 280.113 189.728 280.113 189.296V187.112H282.465V190.52H285.081V192.656H282.465V200.864H284.889V203H282.609ZM295.575 190.52H298.095L292.839 205.472C292.695 205.888 292.527 206.24 292.335 206.528C292.159 206.832 291.943 207.072 291.687 207.248C291.447 207.44 291.151 207.576 290.799 207.656C290.447 207.752 290.031 207.8 289.551 207.8H288.039V205.664H290.151L290.871 203.552L286.335 190.52H288.951L291.447 197.864L292.167 200.576H292.287L293.079 197.864L295.575 190.52ZM308.823 203H306.111V186.248H313.335C314.839 186.248 316.023 186.704 316.887 187.616C317.751 188.512 318.183 189.736 318.183 191.288C318.183 192.488 317.903 193.488 317.343 194.288C316.799 195.072 315.991 195.624 314.919 195.944L318.543 203H315.519L312.159 196.232H308.823V203ZM313.143 193.952C313.831 193.952 314.367 193.776 314.751 193.424C315.135 193.056 315.327 192.536 315.327 191.864V190.712C315.327 190.04 315.135 189.528 314.751 189.176C314.367 188.808 313.831 188.624 313.143 188.624H308.823V193.952H313.143ZM326.19 203.288C325.294 203.288 324.494 203.136 323.79 202.832C323.086 202.528 322.486 202.096 321.99 201.536C321.494 200.96 321.11 200.272 320.838 199.472C320.582 198.656 320.454 197.752 320.454 196.76C320.454 195.768 320.582 194.872 320.838 194.072C321.11 193.256 321.494 192.568 321.99 192.008C322.486 191.432 323.086 190.992 323.79 190.688C324.494 190.384 325.294 190.232 326.19 190.232C327.102 190.232 327.902 190.392 328.59 190.712C329.294 191.032 329.878 191.48 330.342 192.056C330.806 192.616 331.15 193.272 331.374 194.024C331.614 194.776 331.734 195.584 331.734 196.448V197.432H323.166V197.84C323.166 198.8 323.446 199.592 324.006 200.216C324.582 200.824 325.398 201.128 326.454 201.128C327.222 201.128 327.87 200.96 328.398 200.624C328.926 200.288 329.374 199.832 329.742 199.256L331.278 200.768C330.814 201.536 330.142 202.152 329.262 202.616C328.382 203.064 327.358 203.288 326.19 203.288ZM326.19 192.272C325.742 192.272 325.326 192.352 324.942 192.512C324.574 192.672 324.254 192.896 323.982 193.184C323.726 193.472 323.526 193.816 323.382 194.216C323.238 194.616 323.166 195.056 323.166 195.536V195.704H328.974V195.464C328.974 194.504 328.726 193.736 328.23 193.16C327.734 192.568 327.054 192.272 326.19 192.272ZM333.265 190.52H335.809L337.081 195.752L338.209 200.48H338.281L339.577 195.752L341.089 190.52H343.441L344.977 195.752L346.297 200.48H346.369L347.473 195.752L348.769 190.52H351.193L347.833 203H344.881L343.249 197.312L342.241 193.808H342.193L341.209 197.312L339.553 203H336.673L333.265 190.52ZM362.571 203C361.883 203 361.355 202.808 360.987 202.424C360.619 202.024 360.395 201.52 360.315 200.912H360.195C359.955 201.696 359.515 202.288 358.875 202.688C358.235 203.088 357.459 203.288 356.547 203.288C355.251 203.288 354.251 202.952 353.547 202.28C352.859 201.608 352.515 200.704 352.515 199.568C352.515 198.32 352.963 197.384 353.859 196.76C354.771 196.136 356.099 195.824 357.843 195.824H360.099V194.768C360.099 194 359.891 193.408 359.475 192.992C359.059 192.576 358.411 192.368 357.531 192.368C356.795 192.368 356.195 192.528 355.731 192.848C355.267 193.168 354.875 193.576 354.555 194.072L352.995 192.656C353.411 191.952 353.995 191.376 354.747 190.928C355.499 190.464 356.483 190.232 357.699 190.232C359.315 190.232 360.555 190.608 361.419 191.36C362.283 192.112 362.715 193.192 362.715 194.6V200.864H364.035V203H362.571ZM357.291 201.296C358.107 201.296 358.779 201.12 359.307 200.768C359.835 200.4 360.099 199.912 360.099 199.304V197.504H357.891C356.083 197.504 355.179 198.064 355.179 199.184V199.616C355.179 200.176 355.363 200.6 355.731 200.888C356.115 201.16 356.635 201.296 357.291 201.296ZM366.599 203V190.52H369.215V192.92H369.335C369.511 192.28 369.879 191.72 370.439 191.24C370.999 190.76 371.775 190.52 372.767 190.52H373.463V193.04H372.431C371.391 193.04 370.591 193.208 370.031 193.544C369.487 193.88 369.215 194.376 369.215 195.032V203H366.599ZM383.517 200.936H383.397C383.125 201.672 382.677 202.248 382.053 202.664C381.445 203.08 380.725 203.288 379.893 203.288C378.309 203.288 377.085 202.72 376.221 201.584C375.357 200.432 374.925 198.824 374.925 196.76C374.925 194.696 375.357 193.096 376.221 191.96C377.085 190.808 378.309 190.232 379.893 190.232C380.725 190.232 381.445 190.44 382.053 190.856C382.677 191.256 383.125 191.832 383.397 192.584H383.517V185.24H386.133V203H383.517V200.936ZM380.685 201.032C381.485 201.032 382.157 200.84 382.701 200.456C383.245 200.056 383.517 199.536 383.517 198.896V194.624C383.517 193.984 383.245 193.472 382.701 193.088C382.157 192.688 381.485 192.488 380.685 192.488C379.773 192.488 379.045 192.784 378.501 193.376C377.957 193.952 377.685 194.72 377.685 195.68V197.84C377.685 198.8 377.957 199.576 378.501 200.168C379.045 200.744 379.773 201.032 380.685 201.032ZM391.48 203.288C390.888 203.288 390.448 203.136 390.16 202.832C389.872 202.512 389.728 202.12 389.728 201.656V201.296C389.728 200.832 389.872 200.448 390.16 200.144C390.448 199.824 390.888 199.664 391.48 199.664C392.072 199.664 392.512 199.824 392.8 200.144C393.088 200.448 393.232 200.832 393.232 201.296V201.656C393.232 202.12 393.088 202.512 392.8 202.832C392.512 203.136 392.072 203.288 391.48 203.288ZM174.064 229.248H181.48C182.872 229.248 183.96 229.64 184.744 230.424C185.544 231.208 185.944 232.256 185.944 233.568C185.944 234.192 185.856 234.728 185.68 235.176C185.504 235.608 185.28 235.968 185.008 236.256C184.736 236.528 184.424 236.736 184.072 236.88C183.72 237.008 183.376 237.088 183.04 237.12V237.264C183.376 237.28 183.744 237.36 184.144 237.504C184.56 237.648 184.944 237.88 185.296 238.2C185.648 238.504 185.944 238.904 186.184 239.4C186.424 239.88 186.544 240.472 186.544 241.176C186.544 241.848 186.432 242.48 186.208 243.072C186 243.664 185.704 244.176 185.32 244.608C184.936 245.04 184.48 245.384 183.952 245.64C183.424 245.88 182.848 246 182.224 246H174.064V229.248ZM176.776 243.672H181.432C182.136 243.672 182.688 243.488 183.088 243.12C183.488 242.752 183.688 242.224 183.688 241.536V240.72C183.688 240.032 183.488 239.504 183.088 239.136C182.688 238.768 182.136 238.584 181.432 238.584H176.776V243.672ZM176.776 236.328H180.976C181.648 236.328 182.168 236.16 182.536 235.824C182.904 235.472 183.088 234.976 183.088 234.336V233.568C183.088 232.928 182.904 232.44 182.536 232.104C182.168 231.752 181.648 231.576 180.976 231.576H176.776V236.328ZM197.252 243.936H197.156C197.044 244.24 196.892 244.536 196.7 244.824C196.524 245.112 196.292 245.368 196.004 245.592C195.732 245.8 195.396 245.968 194.996 246.096C194.612 246.224 194.164 246.288 193.652 246.288C192.356 246.288 191.348 245.872 190.628 245.04C189.924 244.208 189.572 243.016 189.572 241.464V233.52H192.188V241.128C192.188 243.064 192.988 244.032 194.588 244.032C194.924 244.032 195.252 243.992 195.572 243.912C195.892 243.816 196.172 243.68 196.412 243.504C196.668 243.328 196.868 243.104 197.012 242.832C197.172 242.56 197.252 242.24 197.252 241.872V233.52H199.868V246H197.252V243.936ZM203.614 246V233.52H206.23V235.92H206.35C206.526 235.28 206.894 234.72 207.454 234.24C208.014 233.76 208.79 233.52 209.782 233.52H210.478V236.04H209.446C208.406 236.04 207.606 236.208 207.046 236.544C206.502 236.88 206.23 237.376 206.23 238.032V246H203.614ZM212.802 246V233.52H215.418V235.584H215.538C215.81 234.912 216.218 234.352 216.762 233.904C217.322 233.456 218.082 233.232 219.042 233.232C220.322 233.232 221.314 233.656 222.018 234.504C222.738 235.336 223.098 236.528 223.098 238.08V246H220.482V238.416C220.482 236.464 219.698 235.488 218.13 235.488C217.794 235.488 217.458 235.536 217.122 235.632C216.802 235.712 216.514 235.84 216.258 236.016C216.002 236.192 215.794 236.416 215.634 236.688C215.49 236.96 215.418 237.28 215.418 237.648V246H212.802ZM231.62 246.288C230.724 246.288 229.924 246.136 229.22 245.832C228.516 245.528 227.916 245.096 227.42 244.536C226.924 243.96 226.54 243.272 226.268 242.472C226.012 241.656 225.884 240.752 225.884 239.76C225.884 238.768 226.012 237.872 226.268 237.072C226.54 236.256 226.924 235.568 227.42 235.008C227.916 234.432 228.516 233.992 229.22 233.688C229.924 233.384 230.724 233.232 231.62 233.232C232.532 233.232 233.332 233.392 234.02 233.712C234.724 234.032 235.308 234.48 235.772 235.056C236.236 235.616 236.58 236.272 236.804 237.024C237.044 237.776 237.164 238.584 237.164 239.448V240.432H228.596V240.84C228.596 241.8 228.876 242.592 229.436 243.216C230.012 243.824 230.828 244.128 231.884 244.128C232.652 244.128 233.3 243.96 233.828 243.624C234.356 243.288 234.804 242.832 235.172 242.256L236.708 243.768C236.244 244.536 235.572 245.152 234.692 245.616C233.812 246.064 232.788 246.288 231.62 246.288ZM231.62 235.272C231.172 235.272 230.756 235.352 230.372 235.512C230.004 235.672 229.684 235.896 229.412 236.184C229.156 236.472 228.956 236.816 228.812 237.216C228.668 237.616 228.596 238.056 228.596 238.536V238.704H234.404V238.464C234.404 237.504 234.156 236.736 233.66 236.16C233.164 235.568 232.484 235.272 231.62 235.272ZM247.908 243.936H247.788C247.516 244.672 247.068 245.248 246.444 245.664C245.836 246.08 245.116 246.288 244.284 246.288C242.7 246.288 241.476 245.72 240.612 244.584C239.748 243.432 239.316 241.824 239.316 239.76C239.316 237.696 239.748 236.096 240.612 234.96C241.476 233.808 242.7 233.232 244.284 233.232C245.116 233.232 245.836 233.44 246.444 233.856C247.068 234.256 247.516 234.832 247.788 235.584H247.908V228.24H250.523V246H247.908V243.936ZM245.076 244.032C245.876 244.032 246.548 243.84 247.092 243.456C247.636 243.056 247.908 242.536 247.908 241.896V237.624C247.908 236.984 247.636 236.472 247.092 236.088C246.548 235.688 245.876 235.488 245.076 235.488C244.164 235.488 243.436 235.784 242.892 236.376C242.348 236.952 242.076 237.72 242.076 238.68V240.84C242.076 241.8 242.348 242.576 242.892 243.168C243.436 243.744 244.164 244.032 245.076 244.032ZM255.871 246.288C255.279 246.288 254.839 246.136 254.551 245.832C254.263 245.512 254.119 245.12 254.119 244.656V244.296C254.119 243.832 254.263 243.448 254.551 243.144C254.839 242.824 255.279 242.664 255.871 242.664C256.463 242.664 256.903 242.824 257.191 243.144C257.479 243.448 257.623 243.832 257.623 244.296V244.656C257.623 245.12 257.479 245.512 257.191 245.832C256.903 246.136 256.463 246.288 255.871 246.288ZM176.536 289L172.576 272.248H175.336L177.04 280.312L178.216 285.88H178.288L179.632 280.312L181.624 272.248H184.648L186.616 280.312L187.936 285.856H188.008L189.232 280.312L190.984 272.248H193.648L189.52 289H186.472L184.336 280.336L183.088 275.248H183.04L181.768 280.336L179.584 289H176.536ZM197.411 274.288C196.867 274.288 196.467 274.16 196.211 273.904C195.971 273.648 195.851 273.32 195.851 272.92V272.512C195.851 272.112 195.971 271.784 196.211 271.528C196.467 271.272 196.867 271.144 197.411 271.144C197.955 271.144 198.347 271.272 198.587 271.528C198.827 271.784 198.947 272.112 198.947 272.512V272.92C198.947 273.32 198.827 273.648 198.587 273.904C198.347 274.16 197.955 274.288 197.411 274.288ZM196.091 276.52H198.707V289H196.091V276.52ZM205.106 289C204.21 289 203.538 288.776 203.09 288.328C202.658 287.864 202.442 287.224 202.442 286.408V271.24H205.058V286.864H206.786V289H205.106ZM217.134 286.936H217.014C216.742 287.672 216.294 288.248 215.67 288.664C215.062 289.08 214.342 289.288 213.51 289.288C211.926 289.288 210.702 288.72 209.838 287.584C208.974 286.432 208.542 284.824 208.542 282.76C208.542 280.696 208.974 279.096 209.838 277.96C210.702 276.808 211.926 276.232 213.51 276.232C214.342 276.232 215.062 276.44 215.67 276.856C216.294 277.256 216.742 277.832 217.014 278.584H217.134V271.24H219.75V289H217.134V286.936ZM214.302 287.032C215.102 287.032 215.774 286.84 216.318 286.456C216.862 286.056 217.134 285.536 217.134 284.896V280.624C217.134 279.984 216.862 279.472 216.318 279.088C215.774 278.688 215.102 278.488 214.302 278.488C213.39 278.488 212.662 278.784 212.118 279.376C211.574 279.952 211.302 280.72 211.302 281.68V283.84C211.302 284.8 211.574 285.576 212.118 286.168C212.662 286.744 213.39 287.032 214.302 287.032ZM226.153 289C225.257 289 224.585 288.776 224.137 288.328C223.705 287.864 223.489 287.224 223.489 286.408V271.24H226.105V286.864H227.833V289H226.153ZM231.653 274.288C231.109 274.288 230.709 274.16 230.453 273.904C230.213 273.648 230.093 273.32 230.093 272.92V272.512C230.093 272.112 230.213 271.784 230.453 271.528C230.709 271.272 231.109 271.144 231.653 271.144C232.197 271.144 232.589 271.272 232.829 271.528C233.069 271.784 233.189 272.112 233.189 272.512V272.92C233.189 273.32 233.069 273.648 232.829 273.904C232.589 274.16 232.197 274.288 231.653 274.288ZM230.333 276.52H232.949V289H230.333V276.52ZM237.333 278.656H235.437V276.52H237.333V274.456C237.333 273.448 237.597 272.664 238.125 272.104C238.653 271.528 239.445 271.24 240.501 271.24H242.565V273.376H239.949V276.52H242.565V278.656H239.949V289H237.333V278.656ZM249.643 289.288C248.747 289.288 247.947 289.136 247.243 288.832C246.539 288.528 245.939 288.096 245.443 287.536C244.947 286.96 244.563 286.272 244.291 285.472C244.035 284.656 243.907 283.752 243.907 282.76C243.907 281.768 244.035 280.872 244.291 280.072C244.563 279.256 244.947 278.568 245.443 278.008C245.939 277.432 246.539 276.992 247.243 276.688C247.947 276.384 248.747 276.232 249.643 276.232C250.555 276.232 251.355 276.392 252.043 276.712C252.747 277.032 253.331 277.48 253.795 278.056C254.259 278.616 254.603 279.272 254.827 280.024C255.067 280.776 255.187 281.584 255.187 282.448V283.432H246.619V283.84C246.619 284.8 246.899 285.592 247.459 286.216C248.035 286.824 248.851 287.128 249.907 287.128C250.675 287.128 251.323 286.96 251.851 286.624C252.379 286.288 252.827 285.832 253.195 285.256L254.731 286.768C254.267 287.536 253.595 288.152 252.715 288.616C251.835 289.064 250.811 289.288 249.643 289.288ZM249.643 278.272C249.195 278.272 248.779 278.352 248.395 278.512C248.027 278.672 247.707 278.896 247.435 279.184C247.179 279.472 246.979 279.816 246.835 280.216C246.691 280.616 246.619 281.056 246.619 281.536V281.704H252.427V281.464C252.427 280.504 252.179 279.736 251.683 279.16C251.187 278.568 250.507 278.272 249.643 278.272ZM270.235 289.288C268.043 289.288 266.323 288.552 265.075 287.08C263.827 285.592 263.203 283.44 263.203 280.624C263.203 279.216 263.363 277.976 263.683 276.904C264.003 275.832 264.467 274.928 265.075 274.192C265.683 273.456 266.419 272.904 267.283 272.536C268.163 272.152 269.147 271.96 270.235 271.96C271.691 271.96 272.907 272.28 273.883 272.92C274.875 273.56 275.651 274.504 276.211 275.752L273.931 277C273.643 276.2 273.195 275.568 272.587 275.104C271.995 274.624 271.211 274.384 270.235 274.384C268.939 274.384 267.923 274.824 267.187 275.704C266.451 276.584 266.083 277.8 266.083 279.352V281.896C266.083 283.448 266.451 284.664 267.187 285.544C267.923 286.424 268.939 286.864 270.235 286.864C271.243 286.864 272.059 286.608 272.683 286.096C273.323 285.568 273.795 284.896 274.099 284.08L276.283 285.4C275.723 286.616 274.939 287.568 273.931 288.256C272.923 288.944 271.691 289.288 270.235 289.288ZM283.862 289.288C282.998 289.288 282.206 289.136 281.486 288.832C280.782 288.528 280.182 288.096 279.686 287.536C279.19 286.96 278.806 286.272 278.534 285.472C278.262 284.656 278.126 283.752 278.126 282.76C278.126 281.768 278.262 280.872 278.534 280.072C278.806 279.256 279.19 278.568 279.686 278.008C280.182 277.432 280.782 276.992 281.486 276.688C282.206 276.384 282.998 276.232 283.862 276.232C284.726 276.232 285.51 276.384 286.214 276.688C286.934 276.992 287.542 277.432 288.038 278.008C288.534 278.568 288.918 279.256 289.19 280.072C289.462 280.872 289.598 281.768 289.598 282.76C289.598 283.752 289.462 284.656 289.19 285.472C288.918 286.272 288.534 286.96 288.038 287.536C287.542 288.096 286.934 288.528 286.214 288.832C285.51 289.136 284.726 289.288 283.862 289.288ZM283.862 287.128C284.758 287.128 285.478 286.856 286.022 286.312C286.566 285.752 286.838 284.92 286.838 283.816V281.704C286.838 280.6 286.566 279.776 286.022 279.232C285.478 278.672 284.758 278.392 283.862 278.392C282.966 278.392 282.246 278.672 281.702 279.232C281.158 279.776 280.886 280.6 280.886 281.704V283.816C280.886 284.92 281.158 285.752 281.702 286.312C282.246 286.856 282.966 287.128 283.862 287.128ZM292.513 289V276.52H295.129V278.584H295.249C295.521 277.912 295.929 277.352 296.473 276.904C297.033 276.456 297.793 276.232 298.753 276.232C300.033 276.232 301.025 276.656 301.729 277.504C302.449 278.336 302.809 279.528 302.809 281.08V289H300.193V281.416C300.193 279.464 299.409 278.488 297.841 278.488C297.505 278.488 297.169 278.536 296.833 278.632C296.513 278.712 296.225 278.84 295.969 279.016C295.713 279.192 295.505 279.416 295.345 279.688C295.201 279.96 295.129 280.28 295.129 280.648V289H292.513ZM310.395 289.288C309.211 289.288 308.219 289.08 307.419 288.664C306.619 288.248 305.923 287.672 305.331 286.936L307.011 285.4C307.475 285.96 307.987 286.4 308.547 286.72C309.123 287.024 309.787 287.176 310.539 287.176C311.307 287.176 311.875 287.032 312.243 286.744C312.627 286.44 312.819 286.024 312.819 285.496C312.819 285.096 312.683 284.76 312.411 284.488C312.155 284.2 311.699 284.016 311.043 283.936L309.891 283.792C308.611 283.632 307.603 283.264 306.867 282.688C306.147 282.096 305.787 281.224 305.787 280.072C305.787 279.464 305.899 278.928 306.123 278.464C306.347 277.984 306.659 277.584 307.059 277.264C307.475 276.928 307.963 276.672 308.523 276.496C309.099 276.32 309.731 276.232 310.419 276.232C311.539 276.232 312.451 276.408 313.155 276.76C313.875 277.112 314.515 277.6 315.075 278.224L313.467 279.76C313.147 279.376 312.723 279.048 312.195 278.776C311.683 278.488 311.091 278.344 310.419 278.344C309.699 278.344 309.163 278.488 308.811 278.776C308.475 279.064 308.307 279.44 308.307 279.904C308.307 280.384 308.459 280.744 308.763 280.984C309.067 281.224 309.555 281.4 310.227 281.512L311.379 281.656C312.755 281.864 313.755 282.272 314.379 282.88C315.019 283.472 315.339 284.272 315.339 285.28C315.339 285.888 315.219 286.44 314.979 286.936C314.755 287.416 314.427 287.832 313.995 288.184C313.563 288.536 313.043 288.808 312.435 289C311.827 289.192 311.147 289.288 310.395 289.288ZM323.19 289.288C322.294 289.288 321.494 289.136 320.79 288.832C320.086 288.528 319.486 288.096 318.99 287.536C318.494 286.96 318.11 286.272 317.838 285.472C317.582 284.656 317.454 283.752 317.454 282.76C317.454 281.768 317.582 280.872 317.838 280.072C318.11 279.256 318.494 278.568 318.99 278.008C319.486 277.432 320.086 276.992 320.79 276.688C321.494 276.384 322.294 276.232 323.19 276.232C324.102 276.232 324.902 276.392 325.59 276.712C326.294 277.032 326.878 277.48 327.342 278.056C327.806 278.616 328.15 279.272 328.374 280.024C328.614 280.776 328.734 281.584 328.734 282.448V283.432H320.166V283.84C320.166 284.8 320.446 285.592 321.006 286.216C321.582 286.824 322.398 287.128 323.454 287.128C324.222 287.128 324.87 286.96 325.398 286.624C325.926 286.288 326.374 285.832 326.742 285.256L328.278 286.768C327.814 287.536 327.142 288.152 326.262 288.616C325.382 289.064 324.358 289.288 323.19 289.288ZM323.19 278.272C322.742 278.272 322.326 278.352 321.942 278.512C321.574 278.672 321.254 278.896 320.982 279.184C320.726 279.472 320.526 279.816 320.382 280.216C320.238 280.616 320.166 281.056 320.166 281.536V281.704H325.974V281.464C325.974 280.504 325.726 279.736 325.23 279.16C324.734 278.568 324.054 278.272 323.19 278.272ZM331.63 289V276.52H334.246V278.92H334.366C334.542 278.28 334.91 277.72 335.47 277.24C336.03 276.76 336.806 276.52 337.798 276.52H338.494V279.04H337.462C336.422 279.04 335.622 279.208 335.062 279.544C334.518 279.88 334.246 280.376 334.246 281.032V289H331.63ZM343.74 289L339.492 276.52H342.084L343.98 282.208L345.252 286.576H345.396L346.668 282.208L348.612 276.52H351.108L346.812 289H343.74ZM362.243 289C361.555 289 361.027 288.808 360.659 288.424C360.291 288.024 360.067 287.52 359.987 286.912H359.867C359.627 287.696 359.187 288.288 358.547 288.688C357.907 289.088 357.131 289.288 356.219 289.288C354.923 289.288 353.923 288.952 353.219 288.28C352.531 287.608 352.187 286.704 352.187 285.568C352.187 284.32 352.635 283.384 353.531 282.76C354.443 282.136 355.771 281.824 357.515 281.824H359.771V280.768C359.771 280 359.563 279.408 359.147 278.992C358.731 278.576 358.083 278.368 357.203 278.368C356.467 278.368 355.867 278.528 355.403 278.848C354.939 279.168 354.547 279.576 354.227 280.072L352.667 278.656C353.083 277.952 353.667 277.376 354.419 276.928C355.171 276.464 356.155 276.232 357.371 276.232C358.987 276.232 360.227 276.608 361.091 277.36C361.955 278.112 362.387 279.192 362.387 280.6V286.864H363.707V289H362.243ZM356.963 287.296C357.779 287.296 358.451 287.12 358.979 286.768C359.507 286.4 359.771 285.912 359.771 285.304V283.504H357.563C355.755 283.504 354.851 284.064 354.851 285.184V285.616C354.851 286.176 355.035 286.6 355.403 286.888C355.787 287.16 356.307 287.296 356.963 287.296ZM369.656 289C368.744 289 368.056 288.768 367.592 288.304C367.128 287.824 366.896 287.152 366.896 286.288V278.656H364.952V276.52H366.008C366.44 276.52 366.736 276.424 366.896 276.232C367.072 276.04 367.16 275.728 367.16 275.296V273.112H369.512V276.52H372.128V278.656H369.512V286.864H371.936V289H369.656ZM376.286 274.288C375.742 274.288 375.342 274.16 375.086 273.904C374.846 273.648 374.726 273.32 374.726 272.92V272.512C374.726 272.112 374.846 271.784 375.086 271.528C375.342 271.272 375.742 271.144 376.286 271.144C376.83 271.144 377.222 271.272 377.462 271.528C377.702 271.784 377.822 272.112 377.822 272.512V272.92C377.822 273.32 377.702 273.648 377.462 273.904C377.222 274.16 376.83 274.288 376.286 274.288ZM374.966 276.52H377.582V289H374.966V276.52ZM386.213 289.288C385.349 289.288 384.557 289.136 383.837 288.832C383.133 288.528 382.533 288.096 382.037 287.536C381.541 286.96 381.157 286.272 380.885 285.472C380.613 284.656 380.477 283.752 380.477 282.76C380.477 281.768 380.613 280.872 380.885 280.072C381.157 279.256 381.541 278.568 382.037 278.008C382.533 277.432 383.133 276.992 383.837 276.688C384.557 276.384 385.349 276.232 386.213 276.232C387.077 276.232 387.861 276.384 388.565 276.688C389.285 276.992 389.893 277.432 390.389 278.008C390.885 278.568 391.269 279.256 391.541 280.072C391.813 280.872 391.949 281.768 391.949 282.76C391.949 283.752 391.813 284.656 391.541 285.472C391.269 286.272 390.885 286.96 390.389 287.536C389.893 288.096 389.285 288.528 388.565 288.832C387.861 289.136 387.077 289.288 386.213 289.288ZM386.213 287.128C387.109 287.128 387.829 286.856 388.373 286.312C388.917 285.752 389.189 284.92 389.189 283.816V281.704C389.189 280.6 388.917 279.776 388.373 279.232C387.829 278.672 387.109 278.392 386.213 278.392C385.317 278.392 384.597 278.672 384.053 279.232C383.509 279.776 383.237 280.6 383.237 281.704V283.816C383.237 284.92 383.509 285.752 384.053 286.312C384.597 286.856 385.317 287.128 386.213 287.128ZM394.864 289V276.52H397.48V278.584H397.6C397.872 277.912 398.28 277.352 398.824 276.904C399.384 276.456 400.144 276.232 401.104 276.232C402.384 276.232 403.376 276.656 404.08 277.504C404.8 278.336 405.16 279.528 405.16 281.08V289H402.544V281.416C402.544 279.464 401.76 278.488 400.192 278.488C399.856 278.488 399.52 278.536 399.184 278.632C398.864 278.712 398.576 278.84 398.32 279.016C398.064 279.192 397.856 279.416 397.696 279.688C397.552 279.96 397.48 280.28 397.48 280.648V289H394.864ZM414.65 289V272.248H425.114V274.648H417.362V279.304H424.25V281.704H417.362V289H414.65ZM435.096 286.936H435C434.888 287.24 434.736 287.536 434.544 287.824C434.368 288.112 434.136 288.368 433.848 288.592C433.576 288.8 433.24 288.968 432.84 289.096C432.456 289.224 432.008 289.288 431.496 289.288C430.2 289.288 429.192 288.872 428.472 288.04C427.768 287.208 427.416 286.016 427.416 284.464V276.52H430.032V284.128C430.032 286.064 430.832 287.032 432.432 287.032C432.768 287.032 433.096 286.992 433.416 286.912C433.736 286.816 434.016 286.68 434.256 286.504C434.512 286.328 434.712 286.104 434.856 285.832C435.016 285.56 435.096 285.24 435.096 284.872V276.52H437.712V289H435.096V286.936ZM441.458 289V276.52H444.074V278.584H444.194C444.466 277.912 444.874 277.352 445.418 276.904C445.978 276.456 446.738 276.232 447.698 276.232C448.978 276.232 449.97 276.656 450.674 277.504C451.394 278.336 451.754 279.528 451.754 281.08V289H449.138V281.416C449.138 279.464 448.354 278.488 446.786 278.488C446.45 278.488 446.114 278.536 445.778 278.632C445.458 278.712 445.17 278.84 444.914 279.016C444.658 279.192 444.45 279.416 444.29 279.688C444.146 279.96 444.074 280.28 444.074 280.648V289H441.458ZM463.228 286.936H463.108C462.836 287.672 462.388 288.248 461.764 288.664C461.156 289.08 460.436 289.288 459.604 289.288C458.02 289.288 456.796 288.72 455.932 287.584C455.068 286.432 454.636 284.824 454.636 282.76C454.636 280.696 455.068 279.096 455.932 277.96C456.796 276.808 458.02 276.232 459.604 276.232C460.436 276.232 461.156 276.44 461.764 276.856C462.388 277.256 462.836 277.832 463.108 278.584H463.228V271.24H465.844V289H463.228V286.936ZM460.396 287.032C461.196 287.032 461.868 286.84 462.412 286.456C462.956 286.056 463.228 285.536 463.228 284.896V280.624C463.228 279.984 462.956 279.472 462.412 279.088C461.868 278.688 461.196 278.488 460.396 278.488C459.484 278.488 458.756 278.784 458.212 279.376C457.668 279.952 457.396 280.72 457.396 281.68V283.84C457.396 284.8 457.668 285.576 458.212 286.168C458.756 286.744 459.484 287.032 460.396 287.032ZM471.191 289.288C470.599 289.288 470.159 289.136 469.871 288.832C469.583 288.512 469.439 288.12 469.439 287.656V287.296C469.439 286.832 469.583 286.448 469.871 286.144C470.159 285.824 470.599 285.664 471.191 285.664C471.783 285.664 472.223 285.824 472.511 286.144C472.799 286.448 472.943 286.832 472.943 287.296V287.656C472.943 288.12 472.799 288.512 472.511 288.832C472.223 289.136 471.783 289.288 471.191 289.288Z" fill="white"/>
<path d="M70.7415 57.04C70.7415 57 70.7015 56.96 70.7015 56.92C70.7015 56.88 70.7015 56.84 70.7015 56.8V56.68C70.7015 56.64 70.6615 56.6 70.6615 56.56C70.6615 56.52 70.6615 56.48 70.6215 56.44V56.32C70.5815 56.28 70.5815 56.24 70.5815 56.24L70.5015 56.12C70.5015 56.08 70.5015 56.04 70.4615 56C70.4615 55.96 70.4215 55.92 70.4215 55.88L70.3415 55.76C70.3415 55.76 70.3015 55.72 70.3015 55.68C70.2615 55.64 70.2215 55.6 70.2215 55.56C70.1815 55.56 70.1815 55.52 70.1415 55.52C70.1015 55.48 70.1015 55.44 70.0615 55.4L69.9815 55.32C69.9415 55.28 69.9015 55.28 69.9015 55.24L69.7815 55.16C69.7815 55.16 69.7815 55.12 69.7415 55.12C69.7415 55.12 69.7015 55.12 69.7015 55.08C69.6615 55.08 69.6215 55.04 69.5815 55C69.5415 55 69.5415 54.96 69.5015 54.96L69.3815 54.88C69.3415 54.88 69.3015 54.84 69.2615 54.84C69.2215 54.84 69.1815 54.8 69.1415 54.8C69.1415 54.8 69.1015 54.76 69.0615 54.76C69.0215 54.76 68.9815 54.72 68.9415 54.72C68.9015 54.72 68.8615 54.68 68.8215 54.68H68.7015C68.6615 54.64 68.6215 54.64 68.5815 54.64C68.5415 54.64 68.5015 54.64 68.4615 54.64H68.3015H68.2615H68.2215C68.1815 54.64 68.1415 54.64 68.0615 54.64H67.9815C67.9415 54.64 67.9015 54.64 67.8615 54.68H67.7415C67.7015 54.68 67.6615 54.72 67.6215 54.72C67.5815 54.72 67.5415 54.72 67.5015 54.76C67.4615 54.76 67.4215 54.76 67.3815 54.8C67.3415 54.8 67.3015 54.8 67.2615 54.84C67.2215 54.84 67.1815 54.88 67.1815 54.88C67.1415 54.92 67.1015 54.92 67.0615 54.92C67.0215 54.96 66.9815 55 66.9415 55L66.8615 55.08C66.8215 55.08 66.7815 55.12 66.7415 55.16C66.7015 55.16 66.7015 55.2 66.6615 55.2C66.6215 55.24 66.6215 55.28 66.5815 55.28L66.5015 55.36C66.4615 55.4 66.4215 55.44 66.4215 55.48C66.3815 55.48 66.3415 55.52 66.3415 55.56C66.3015 55.56 66.3015 55.6 66.3015 55.6C65.4215 56.76 63.9415 57.48 63.0615 57.48C61.7015 57.48 60.5815 58.6 60.5815 59.96C60.5815 61.32 61.7015 62.44 63.0615 62.44C63.9415 62.44 64.9015 62.24 65.7815 61.88V82.52C65.7815 83.88 66.9015 85 68.2615 85C69.6215 85 70.7415 83.88 70.7415 82.52V57.08V57.04ZM85.73 85C80.81 85 76.53 81.48 75.77 76.8C75.73 76.68 75.73 76.52 75.73 76.4C75.73 72.88 75.77 69.32 75.77 65.8C75.77 62.88 76.49 60.04 78.45 57.84C80.33 55.8 82.97 54.64 85.73 54.64C90.85 54.64 95.09 58.6 95.49 63.64C95.57 63.88 95.61 64.16 95.61 64.44L95.57 76.4C95.57 76.56 95.53 76.68 95.53 76.8C94.73 81.48 90.53 85 85.73 85ZM90.57 64.44C90.57 61.76 88.41 59.56 85.73 59.56C83.05 59.56 80.85 61.76 80.85 64.44C80.85 65.44 80.69 74.44 80.69 76.16C81.13 78.36 83.33 80.04 85.73 80.04C88.09 80.04 90.17 78.4 90.61 76.16L90.57 64.44ZM105.397 56.04C107.371 56.04 108.864 56.8267 109.877 58.4C110.891 59.9467 111.397 62.1333 111.397 64.96C111.397 67.7867 110.904 70 109.917 71.6C108.957 73.1733 107.451 73.96 105.397 73.96C103.504 73.96 102.051 73.1733 101.037 71.6C100.051 70 99.5572 67.7867 99.5572 64.96C99.5572 62.1333 100.024 59.9467 100.957 58.4C101.891 56.8267 103.371 56.04 105.397 56.04ZM123.677 56.44L107.837 85H104.757L120.597 56.44H123.677ZM105.397 58.52C104.384 58.52 103.637 59.0667 103.157 60.16C102.704 61.2267 102.477 62.8267 102.477 64.96C102.477 67.0933 102.704 68.7067 103.157 69.8C103.637 70.8933 104.384 71.44 105.397 71.44C107.451 71.44 108.477 69.28 108.477 64.96C108.477 60.6667 107.451 58.52 105.397 58.52ZM122.877 67.48C124.824 67.48 126.304 68.2667 127.317 69.84C128.357 71.3867 128.877 73.5733 128.877 76.4C128.877 79.2267 128.384 81.44 127.397 83.04C126.437 84.6133 124.931 85.4 122.877 85.4C120.984 85.4 119.531 84.6133 118.517 83.04C117.531 81.44 117.037 79.2267 117.037 76.4C117.037 73.5733 117.504 71.3867 118.437 69.84C119.371 68.2667 120.851 67.48 122.877 67.48ZM122.877 70C121.864 70 121.117 70.5333 120.637 71.6C120.184 72.6667 119.957 74.2667 119.957 76.4C119.957 78.56 120.184 80.1867 120.637 81.28C121.117 82.3467 121.864 82.88 122.877 82.88C124.931 82.88 125.957 80.72 125.957 76.4C125.957 72.1333 124.931 70 122.877 70ZM79.0215 121.48C78.7815 121.2 78.4615 120.96 78.1015 120.68C79.4615 119.04 80.1815 116.92 80.1815 114.88C80.1815 112.72 79.4215 110.72 78.1015 109.2C77.0615 108 75.1015 106.56 71.8615 106.56C68.5015 106.56 65.4215 108.44 64.0615 111.32C63.5015 112.56 64.0215 114.04 65.2615 114.6C66.5015 115.16 67.9815 114.64 68.5415 113.4C69.0615 112.24 70.4215 111.48 71.8615 111.48C72.9815 111.48 73.8615 111.8 74.4215 112.44C74.9415 113.04 75.2215 113.92 75.2215 114.88C75.2215 116.28 74.5415 118.6 71.8615 118.6C70.5015 118.6 69.4215 119.72 69.4215 121.08V121.36C69.5015 122.64 70.5815 123.64 71.8615 123.64C73.4615 123.64 74.7015 124.08 75.5415 124.92C76.2215 125.64 76.5815 126.6 76.5815 127.64C76.5815 129.72 75.1015 131.96 71.8615 131.96C70.0615 131.96 68.3815 131.2 67.4215 129.84C66.5815 128.76 65.0615 128.56 63.9415 129.36C62.8615 130.2 62.6615 131.72 63.4615 132.8C65.3815 135.36 68.5415 136.92 71.8615 136.92C75.5015 136.92 77.7815 135.32 79.0215 134C80.6215 132.28 81.5015 130.04 81.5015 127.64C81.5015 125.28 80.6215 123.12 79.0215 121.48ZM103.327 108.04C105.3 108.04 106.794 108.827 107.807 110.4C108.82 111.947 109.327 114.133 109.327 116.96C109.327 119.787 108.834 122 107.847 123.6C106.887 125.173 105.38 125.96 103.327 125.96C101.434 125.96 99.9802 125.173 98.9669 123.6C97.9802 122 97.4869 119.787 97.4869 116.96C97.4869 114.133 97.9535 111.947 98.8869 110.4C99.8202 108.827 101.3 108.04 103.327 108.04ZM121.607 108.44L105.767 137H102.687L118.527 108.44H121.607ZM103.327 110.52C102.314 110.52 101.567 111.067 101.087 112.16C100.634 113.227 100.407 114.827 100.407 116.96C100.407 119.093 100.634 120.707 101.087 121.8C101.567 122.893 102.314 123.44 103.327 123.44C105.38 123.44 106.407 121.28 106.407 116.96C106.407 112.667 105.38 110.52 103.327 110.52ZM120.807 119.48C122.754 119.48 124.234 120.267 125.247 121.84C126.287 123.387 126.807 125.573 126.807 128.4C126.807 131.227 126.314 133.44 125.327 135.04C124.367 136.613 122.86 137.4 120.807 137.4C118.914 137.4 117.46 136.613 116.447 135.04C115.46 133.44 114.967 131.227 114.967 128.4C114.967 125.573 115.434 123.387 116.367 121.84C117.3 120.267 118.78 119.48 120.807 119.48ZM120.807 122C119.794 122 119.047 122.533 118.567 123.6C118.114 124.667 117.887 126.267 117.887 128.4C117.887 130.56 118.114 132.187 118.567 133.28C119.047 134.347 119.794 134.88 120.807 134.88C122.86 134.88 123.887 132.72 123.887 128.4C123.887 124.133 122.86 122 120.807 122ZM79.0215 173.48C78.7815 173.2 78.4615 172.96 78.1015 172.68C79.4615 171.04 80.1815 168.92 80.1815 166.88C80.1815 164.72 79.4215 162.72 78.1015 161.2C77.0615 160 75.1015 158.56 71.8615 158.56C68.5015 158.56 65.4215 160.44 64.0615 163.32C63.5015 164.56 64.0215 166.04 65.2615 166.6C66.5015 167.16 67.9815 166.64 68.5415 165.4C69.0615 164.24 70.4215 163.48 71.8615 163.48C72.9815 163.48 73.8615 163.8 74.4215 164.44C74.9415 165.04 75.2215 165.92 75.2215 166.88C75.2215 168.28 74.5415 170.6 71.8615 170.6C70.5015 170.6 69.4215 171.72 69.4215 173.08V173.36C69.5015 174.64 70.5815 175.64 71.8615 175.64C73.4615 175.64 74.7015 176.08 75.5415 176.92C76.2215 177.64 76.5815 178.6 76.5815 179.64C76.5815 181.72 75.1015 183.96 71.8615 183.96C70.0615 183.96 68.3815 183.2 67.4215 181.84C66.5815 180.76 65.0615 180.56 63.9415 181.36C62.8615 182.2 62.6615 183.72 63.4615 184.8C65.3815 187.36 68.5415 188.92 71.8615 188.92C75.5015 188.92 77.7815 187.32 79.0215 186C80.6215 184.28 81.5015 182.04 81.5015 179.64C81.5015 177.28 80.6215 175.12 79.0215 173.48ZM103.327 160.04C105.3 160.04 106.794 160.827 107.807 162.4C108.82 163.947 109.327 166.133 109.327 168.96C109.327 171.787 108.834 174 107.847 175.6C106.887 177.173 105.38 177.96 103.327 177.96C101.434 177.96 99.9802 177.173 98.9669 175.6C97.9802 174 97.4869 171.787 97.4869 168.96C97.4869 166.133 97.9535 163.947 98.8869 162.4C99.8202 160.827 101.3 160.04 103.327 160.04ZM121.607 160.44L105.767 189H102.687L118.527 160.44H121.607ZM103.327 162.52C102.314 162.52 101.567 163.067 101.087 164.16C100.634 165.227 100.407 166.827 100.407 168.96C100.407 171.093 100.634 172.707 101.087 173.8C101.567 174.893 102.314 175.44 103.327 175.44C105.38 175.44 106.407 173.28 106.407 168.96C106.407 164.667 105.38 162.52 103.327 162.52ZM120.807 171.48C122.754 171.48 124.234 172.267 125.247 173.84C126.287 175.387 126.807 177.573 126.807 180.4C126.807 183.227 126.314 185.44 125.327 187.04C124.367 188.613 122.86 189.4 120.807 189.4C118.914 189.4 117.46 188.613 116.447 187.04C115.46 185.44 114.967 183.227 114.967 180.4C114.967 177.573 115.434 175.387 116.367 173.84C117.3 172.267 118.78 171.48 120.807 171.48ZM120.807 174C119.794 174 119.047 174.533 118.567 175.6C118.114 176.667 117.887 178.267 117.887 180.4C117.887 182.56 118.114 184.187 118.567 185.28C119.047 186.347 119.794 186.88 120.807 186.88C122.86 186.88 123.887 184.72 123.887 180.4C123.887 176.133 122.86 174 120.807 174ZM79.0215 225.48C78.7815 225.2 78.4615 224.96 78.1015 224.68C79.4615 223.04 80.1815 220.92 80.1815 218.88C80.1815 216.72 79.4215 214.72 78.1015 213.2C77.0615 212 75.1015 210.56 71.8615 210.56C68.5015 210.56 65.4215 212.44 64.0615 215.32C63.5015 216.56 64.0215 218.04 65.2615 218.6C66.5015 219.16 67.9815 218.64 68.5415 217.4C69.0615 216.24 70.4215 215.48 71.8615 215.48C72.9815 215.48 73.8615 215.8 74.4215 216.44C74.9415 217.04 75.2215 217.92 75.2215 218.88C75.2215 220.28 74.5415 222.6 71.8615 222.6C70.5015 222.6 69.4215 223.72 69.4215 225.08V225.36C69.5015 226.64 70.5815 227.64 71.8615 227.64C73.4615 227.64 74.7015 228.08 75.5415 228.92C76.2215 229.64 76.5815 230.6 76.5815 231.64C76.5815 233.72 75.1015 235.96 71.8615 235.96C70.0615 235.96 68.3815 235.2 67.4215 233.84C66.5815 232.76 65.0615 232.56 63.9415 233.36C62.8615 234.2 62.6615 235.72 63.4615 236.8C65.3815 239.36 68.5415 240.92 71.8615 240.92C75.5015 240.92 77.7815 239.32 79.0215 238C80.6215 236.28 81.5015 234.04 81.5015 231.64C81.5015 229.28 80.6215 227.12 79.0215 225.48ZM103.327 212.04C105.3 212.04 106.794 212.827 107.807 214.4C108.82 215.947 109.327 218.133 109.327 220.96C109.327 223.787 108.834 226 107.847 227.6C106.887 229.173 105.38 229.96 103.327 229.96C101.434 229.96 99.9802 229.173 98.9669 227.6C97.9802 226 97.4869 223.787 97.4869 220.96C97.4869 218.133 97.9535 215.947 98.8869 214.4C99.8202 212.827 101.3 212.04 103.327 212.04ZM121.607 212.44L105.767 241H102.687L118.527 212.44H121.607ZM103.327 214.52C102.314 214.52 101.567 215.067 101.087 216.16C100.634 217.227 100.407 218.827 100.407 220.96C100.407 223.093 100.634 224.707 101.087 225.8C101.567 226.893 102.314 227.44 103.327 227.44C105.38 227.44 106.407 225.28 106.407 220.96C106.407 216.667 105.38 214.52 103.327 214.52ZM120.807 223.48C122.754 223.48 124.234 224.267 125.247 225.84C126.287 227.387 126.807 229.573 126.807 232.4C126.807 235.227 126.314 237.44 125.327 239.04C124.367 240.613 122.86 241.4 120.807 241.4C118.914 241.4 117.46 240.613 116.447 239.04C115.46 237.44 114.967 235.227 114.967 232.4C114.967 229.573 115.434 227.387 116.367 225.84C117.3 224.267 118.78 223.48 120.807 223.48ZM120.807 226C119.794 226 119.047 226.533 118.567 227.6C118.114 228.667 117.887 230.267 117.887 232.4C117.887 234.56 118.114 236.187 118.567 237.28C119.047 238.347 119.794 238.88 120.807 238.88C122.86 238.88 123.887 236.72 123.887 232.4C123.887 228.133 122.86 226 120.807 226ZM70.7415 265.04C70.7415 265 70.7015 264.96 70.7015 264.92C70.7015 264.88 70.7015 264.84 70.7015 264.8V264.68C70.7015 264.64 70.6615 264.6 70.6615 264.56C70.6615 264.52 70.6615 264.48 70.6215 264.44V264.32C70.5815 264.28 70.5815 264.24 70.5815 264.24L70.5015 264.12C70.5015 264.08 70.5015 264.04 70.4615 264C70.4615 263.96 70.4215 263.92 70.4215 263.88L70.3415 263.76C70.3415 263.76 70.3015 263.72 70.3015 263.68C70.2615 263.64 70.2215 263.6 70.2215 263.56C70.1815 263.56 70.1815 263.52 70.1415 263.52C70.1015 263.48 70.1015 263.44 70.0615 263.4L69.9815 263.32C69.9415 263.28 69.9015 263.28 69.9015 263.24L69.7815 263.16C69.7815 263.16 69.7815 263.12 69.7415 263.12C69.7415 263.12 69.7015 263.12 69.7015 263.08C69.6615 263.08 69.6215 263.04 69.5815 263C69.5415 263 69.5415 262.96 69.5015 262.96L69.3815 262.88C69.3415 262.88 69.3015 262.84 69.2615 262.84C69.2215 262.84 69.1815 262.8 69.1415 262.8C69.1415 262.8 69.1015 262.76 69.0615 262.76C69.0215 262.76 68.9815 262.72 68.9415 262.72C68.9015 262.72 68.8615 262.68 68.8215 262.68H68.7015C68.6615 262.64 68.6215 262.64 68.5815 262.64C68.5415 262.64 68.5015 262.64 68.4615 262.64H68.3015H68.2615H68.2215C68.1815 262.64 68.1415 262.64 68.0615 262.64H67.9815C67.9415 262.64 67.9015 262.64 67.8615 262.68H67.7415C67.7015 262.68 67.6615 262.72 67.6215 262.72C67.5815 262.72 67.5415 262.72 67.5015 262.76C67.4615 262.76 67.4215 262.76 67.3815 262.8C67.3415 262.8 67.3015 262.8 67.2615 262.84C67.2215 262.84 67.1815 262.88 67.1815 262.88C67.1415 262.92 67.1015 262.92 67.0615 262.92C67.0215 262.96 66.9815 263 66.9415 263L66.8615 263.08C66.8215 263.08 66.7815 263.12 66.7415 263.16C66.7015 263.16 66.7015 263.2 66.6615 263.2C66.6215 263.24 66.6215 263.28 66.5815 263.28L66.5015 263.36C66.4615 263.4 66.4215 263.44 66.4215 263.48C66.3815 263.48 66.3415 263.52 66.3415 263.56C66.3015 263.56 66.3015 263.6 66.3015 263.6C65.4215 264.76 63.9415 265.48 63.0615 265.48C61.7015 265.48 60.5815 266.6 60.5815 267.96C60.5815 269.32 61.7015 270.44 63.0615 270.44C63.9415 270.44 64.9015 270.24 65.7815 269.88V290.52C65.7815 291.88 66.9015 293 68.2615 293C69.6215 293 70.7415 291.88 70.7415 290.52V265.08V265.04ZM92.5456 264.04C94.5189 264.04 96.0123 264.827 97.0256 266.4C98.0389 267.947 98.5456 270.133 98.5456 272.96C98.5456 275.787 98.0523 278 97.0656 279.6C96.1056 281.173 94.5989 281.96 92.5456 281.96C90.6523 281.96 89.1989 281.173 88.1856 279.6C87.1989 278 86.7056 275.787 86.7056 272.96C86.7056 270.133 87.1723 267.947 88.1056 266.4C89.0389 264.827 90.5189 264.04 92.5456 264.04ZM110.826 264.44L94.9856 293H91.9056L107.746 264.44H110.826ZM92.5456 266.52C91.5323 266.52 90.7856 267.067 90.3056 268.16C89.8523 269.227 89.6256 270.827 89.6256 272.96C89.6256 275.093 89.8523 276.707 90.3056 277.8C90.7856 278.893 91.5323 279.44 92.5456 279.44C94.5989 279.44 95.6256 277.28 95.6256 272.96C95.6256 268.667 94.5989 266.52 92.5456 266.52ZM110.026 275.48C111.972 275.48 113.452 276.267 114.466 277.84C115.506 279.387 116.026 281.573 116.026 284.4C116.026 287.227 115.532 289.44 114.546 291.04C113.586 292.613 112.079 293.4 110.026 293.4C108.132 293.4 106.679 292.613 105.666 291.04C104.679 289.44 104.186 287.227 104.186 284.4C104.186 281.573 104.652 279.387 105.586 277.84C106.519 276.267 107.999 275.48 110.026 275.48ZM110.026 278C109.012 278 108.266 278.533 107.786 279.6C107.332 280.667 107.106 282.267 107.106 284.4C107.106 286.56 107.332 288.187 107.786 289.28C108.266 290.347 109.012 290.88 110.026 290.88C112.079 290.88 113.106 288.72 113.106 284.4C113.106 280.133 112.079 278 110.026 278Z" fill="#FCCF00"/>
<defs>
<filter id="filter0_d" x="0" y="0" width="558" height="387" filterUnits="userSpaceOnUse" color-interpolation-filters="sRGB">
<feFlood flood-opacity="0" result="BackgroundImageFix"/>
<feColorMatrix in="SourceAlpha" type="matrix" values="0 0 0 0 0 0 0 0 0 0 0 0 0 0 0 0 0 0 127 0"/>
<feOffset dy="10"/>
<feGaussianBlur stdDeviation="15"/>
<feColorMatrix type="matrix" values="0 0 0 0 0.0666667 0 0 0 0 0.0666667 0 0 0 0 0.0666667 0 0 0 0.2 0"/>
<feBlend mode="normal" in2="BackgroundImageFix" result="effect1_dropShadow"/>
<feBlend mode="normal" in="SourceGraphic" in2="effect1_dropShadow" result="shape"/>
</filter>
</defs>
</svg>
