<svg width="514" height="312" viewBox="0 0 514 312" fill="none" xmlns="http://www.w3.org/2000/svg">
<g filter="url(#filter0_d)">
<rect x="30.0002" y="20.9985" width="454" height="251" rx="16" fill="#015F4D"/>
</g>
<g filter="url(#filter1_d)">
<rect x="314.001" y="191.998" width="125.001" height="31.0234" rx="15.5117" fill="#00CFFC"/>
<path d="M344.446 201.83L348.654 201.83C349.39 201.83 350.062 201.948 350.67 202.182C351.278 202.417 351.795 202.769 352.222 203.238C352.648 203.697 352.979 204.278 353.214 204.982C353.448 205.676 353.566 206.486 353.566 207.414C353.566 208.342 353.448 209.158 353.214 209.862C352.979 210.556 352.648 211.137 352.222 211.606C351.795 212.065 351.278 212.412 350.67 212.646C350.062 212.881 349.39 212.998 348.654 212.998L344.446 212.998L344.446 201.83ZM348.654 210.838C349.379 210.838 349.95 210.636 350.366 210.23C350.782 209.825 350.99 209.174 350.99 208.278L350.99 206.55C350.99 205.654 350.782 205.004 350.366 204.598C349.95 204.193 349.379 203.99 348.654 203.99L346.878 203.99L346.878 210.838L348.654 210.838ZM358.978 213.191C358.338 213.191 357.767 213.089 357.266 212.887C356.764 212.673 356.338 212.38 355.986 212.007C355.644 211.623 355.383 211.159 355.202 210.615C355.031 210.071 354.946 209.463 354.946 208.791C354.946 208.129 355.031 207.532 355.202 206.999C355.373 206.455 355.623 205.991 355.954 205.607C356.295 205.223 356.711 204.929 357.202 204.727C357.693 204.513 358.253 204.407 358.882 204.407C359.575 204.407 360.167 204.524 360.658 204.759C361.159 204.993 361.565 205.308 361.874 205.703C362.194 206.097 362.423 206.556 362.562 207.079C362.711 207.591 362.786 208.129 362.786 208.695L362.786 209.399L357.394 209.399L357.394 209.527C357.394 210.081 357.543 210.524 357.842 210.855C358.14 211.175 358.61 211.335 359.25 211.335C359.74 211.335 360.14 211.239 360.45 211.047C360.759 210.844 361.047 210.604 361.314 210.327L362.498 211.799C362.124 212.236 361.634 212.577 361.026 212.823C360.428 213.068 359.746 213.191 358.978 213.191ZM358.93 206.151C358.45 206.151 358.071 206.311 357.794 206.631C357.527 206.94 357.394 207.356 357.394 207.879L357.394 208.007L360.338 208.007L360.338 207.863C360.338 207.351 360.221 206.94 359.986 206.631C359.762 206.311 359.41 206.151 358.93 206.151ZM363.392 212.999L366.16 208.727L363.424 204.599L366.112 204.599L367.68 207.239L367.744 207.239L369.264 204.599L371.76 204.599L368.976 208.807L371.776 212.999L369.088 212.999L367.472 210.263L367.408 210.263L365.856 212.999L363.392 212.999ZM377.383 203.991L377.383 212.999L374.951 212.999L374.951 203.991L371.927 203.991L371.927 201.831L380.407 201.831L380.407 203.991L377.383 203.991ZM384.304 213.191C383.685 213.191 383.13 213.09 382.64 212.887C382.16 212.684 381.749 212.391 381.408 212.007C381.077 211.623 380.821 211.159 380.64 210.615C380.458 210.071 380.368 209.463 380.368 208.791C380.368 208.119 380.458 207.511 380.64 206.967C380.821 206.423 381.077 205.964 381.408 205.591C381.749 205.207 382.16 204.914 382.64 204.711C383.13 204.508 383.685 204.407 384.304 204.407C384.922 204.407 385.472 204.508 385.952 204.711C386.442 204.914 386.853 205.207 387.184 205.591C387.525 205.965 387.786 206.423 387.968 206.967C388.149 207.511 388.24 208.119 388.24 208.791C388.24 209.463 388.149 210.071 387.968 210.615C387.786 211.159 387.525 211.623 387.184 212.007C386.853 212.391 386.442 212.684 385.952 212.887C385.472 213.09 384.922 213.191 384.304 213.191ZM384.304 211.319C384.773 211.319 385.136 211.175 385.392 210.887C385.648 210.599 385.776 210.188 385.776 209.655L385.776 207.943C385.776 207.41 385.648 206.999 385.392 206.711C385.136 206.423 384.773 206.279 384.304 206.279C383.834 206.279 383.472 206.423 383.216 206.711C382.96 206.999 382.832 207.41 382.832 207.943L382.832 209.655C382.832 210.188 382.96 210.599 383.216 210.887C383.472 211.175 383.834 211.319 384.304 211.319ZM393.335 213.191C392.716 213.191 392.162 213.09 391.671 212.887C391.191 212.685 390.78 212.391 390.439 212.007C390.108 211.623 389.852 211.159 389.671 210.615C389.49 210.071 389.399 209.463 389.399 208.791C389.399 208.119 389.49 207.511 389.671 206.967C389.852 206.423 390.108 205.965 390.439 205.591C390.78 205.207 391.191 204.914 391.671 204.711C392.162 204.509 392.716 204.407 393.335 204.407C393.954 204.407 394.503 204.509 394.983 204.711C395.474 204.914 395.884 205.207 396.215 205.591C396.556 205.965 396.818 206.423 396.999 206.967C397.18 207.511 397.271 208.119 397.271 208.791C397.271 209.463 397.18 210.071 396.999 210.615C396.818 211.159 396.556 211.623 396.215 212.007C395.884 212.391 395.474 212.685 394.983 212.887C394.503 213.09 393.954 213.191 393.335 213.191ZM393.335 211.319C393.804 211.319 394.167 211.175 394.423 210.887C394.679 210.599 394.807 210.189 394.807 209.655L394.807 207.943C394.807 207.41 394.679 206.999 394.423 206.711C394.167 206.423 393.804 206.279 393.335 206.279C392.866 206.279 392.503 206.423 392.247 206.711C391.991 206.999 391.863 207.41 391.863 207.943L391.863 209.655C391.863 210.189 391.991 210.599 392.247 210.887C392.503 211.175 392.866 211.319 393.335 211.319ZM401.31 212.999C400.499 212.999 399.902 212.802 399.518 212.407C399.145 212.013 398.958 211.442 398.958 210.695L398.958 201.159L401.326 201.159L401.326 211.159L402.382 211.159L402.382 212.999L401.31 212.999ZM406.65 213.192C405.839 213.192 405.157 213.064 404.602 212.808C404.047 212.541 403.551 212.167 403.114 211.687L404.506 210.28C404.805 210.61 405.135 210.872 405.498 211.064C405.861 211.256 406.271 211.352 406.73 211.352C407.199 211.352 407.525 211.282 407.706 211.144C407.887 210.994 407.978 210.797 407.978 210.552C407.978 210.157 407.695 209.922 407.13 209.848L406.218 209.736C404.33 209.501 403.386 208.637 403.386 207.143C403.386 206.738 403.461 206.37 403.61 206.04C403.77 205.698 403.989 205.41 404.266 205.176C404.554 204.93 404.895 204.744 405.29 204.616C405.695 204.477 406.149 204.408 406.65 204.408C407.087 204.408 407.471 204.44 407.802 204.504C408.143 204.557 408.442 204.642 408.698 204.76C408.965 204.866 409.205 205.005 409.418 205.176C409.642 205.336 409.861 205.517 410.074 205.72L408.714 207.112C408.447 206.845 408.143 206.637 407.802 206.488C407.471 206.328 407.13 206.248 406.778 206.248C406.373 206.248 406.085 206.312 405.914 206.44C405.743 206.568 405.658 206.738 405.658 206.952C405.658 207.176 405.717 207.352 405.834 207.48C405.962 207.597 406.197 207.682 406.538 207.736L407.482 207.864C409.327 208.109 410.25 208.952 410.25 210.392C410.25 210.797 410.165 211.17 409.994 211.512C409.823 211.853 409.578 212.152 409.258 212.408C408.949 212.653 408.57 212.845 408.122 212.984C407.685 213.122 407.194 213.192 406.65 213.192Z" fill="white"/>
</g>
<g filter="url(#filter2_d)">
<rect x="314.001" y="48" width="125.001" height="31.0234" rx="15.5117" fill="#FCCF00"/>
<path d="M347.234 57.8323L352.658 57.8324C353.586 57.8324 354.306 58.0938 354.818 58.6165C355.341 59.1391 355.602 59.8325 355.602 60.6965C355.602 61.1231 355.544 61.4858 355.426 61.7845C355.32 62.0831 355.17 62.3285 354.978 62.5205C354.797 62.7125 354.578 62.8565 354.322 62.9525C354.077 63.0378 353.81 63.0858 353.522 63.0964L353.522 63.1924C353.789 63.1924 354.066 63.2404 354.354 63.3365C354.653 63.4325 354.925 63.5871 355.17 63.8005C355.416 64.0031 355.618 64.2698 355.778 64.6005C355.949 64.9312 356.034 65.3365 356.034 65.8165C356.034 66.2538 355.96 66.6698 355.81 67.0645C355.672 67.4485 355.474 67.7845 355.218 68.0725C354.962 68.3605 354.658 68.5898 354.306 68.7605C353.954 68.9204 353.57 69.0004 353.154 69.0004L347.234 69.0003L347.234 57.8323ZM349.666 66.9524L352.466 66.9524C352.786 66.9524 353.037 66.8671 353.218 66.6964C353.41 66.5151 353.506 66.2644 353.506 65.9444L353.506 65.4004C353.506 65.0804 353.41 64.8351 353.218 64.6644C353.037 64.4831 352.786 64.3924 352.466 64.3924L349.666 64.3924L349.666 66.9524ZM349.666 62.4084L352.082 62.4084C352.402 62.4084 352.653 62.3178 352.834 62.1364C353.016 61.9551 353.106 61.7044 353.106 61.3844L353.106 60.9044C353.106 60.5844 353.016 60.3338 352.834 60.1524C352.653 59.9711 352.402 59.8804 352.082 59.8804L349.666 59.8804L349.666 62.4084ZM360.626 69.1926C359.815 69.1926 359.133 69.0646 358.578 68.8085C358.023 68.5419 357.527 68.1685 357.09 67.6885L358.482 66.2805C358.781 66.6112 359.111 66.8726 359.474 67.0646C359.837 67.2566 360.247 67.3526 360.706 67.3526C361.175 67.3526 361.501 67.2833 361.682 67.1446C361.863 66.9953 361.954 66.7979 361.954 66.5526C361.954 66.1579 361.671 65.9233 361.106 65.8486L360.194 65.7366C358.306 65.5019 357.362 64.6378 357.362 63.1445C357.362 62.7392 357.437 62.3712 357.586 62.0405C357.746 61.6992 357.965 61.4112 358.242 61.1765C358.53 60.9312 358.872 60.7445 359.266 60.6166C359.672 60.4779 360.125 60.4086 360.626 60.4086C361.064 60.4086 361.448 60.4406 361.778 60.5046C362.12 60.5579 362.418 60.6433 362.674 60.7606C362.941 60.8673 363.181 61.006 363.394 61.1766C363.618 61.3366 363.837 61.518 364.05 61.7207L362.69 63.1126C362.424 62.846 362.12 62.6379 361.778 62.4886C361.448 62.3286 361.106 62.2486 360.754 62.2486C360.349 62.2486 360.061 62.3126 359.89 62.4406C359.72 62.5686 359.634 62.7392 359.634 62.9526C359.634 63.1766 359.693 63.3526 359.81 63.4806C359.938 63.5979 360.173 63.6832 360.514 63.7366L361.458 63.8646C363.304 64.11 364.226 64.9527 364.226 66.3927C364.226 66.798 364.141 67.1713 363.97 67.5126C363.799 67.854 363.554 68.1526 363.234 68.4086C362.925 68.654 362.546 68.846 362.098 68.9846C361.661 69.1233 361.17 69.1926 360.626 69.1926ZM369.233 69.1928C368.603 69.1927 368.043 69.0914 367.553 68.8887C367.062 68.6754 366.651 68.382 366.321 68.0087C365.99 67.6247 365.739 67.1607 365.569 66.6167C365.398 66.0727 365.313 65.4647 365.313 64.7927C365.313 64.1207 365.398 63.518 365.569 62.9847C365.739 62.4407 365.99 61.9767 366.321 61.5927C366.651 61.2087 367.062 60.9154 367.553 60.7127C368.043 60.5101 368.603 60.4087 369.233 60.4088C370.086 60.4088 370.795 60.6008 371.361 60.9848C371.937 61.3688 372.347 61.9075 372.593 62.6008L370.673 63.4328C370.598 63.1128 370.443 62.8408 370.209 62.6168C369.974 62.3928 369.649 62.2808 369.233 62.2808C368.753 62.2807 368.39 62.4407 368.145 62.7607C367.899 63.0701 367.777 63.4914 367.777 64.0247L367.777 65.5927C367.777 66.1261 367.899 66.5474 368.145 66.8567C368.39 67.1661 368.753 67.3207 369.233 67.3208C369.659 67.3208 369.995 67.2088 370.241 66.9848C370.497 66.7501 370.683 66.4461 370.801 66.0728L372.641 66.8728C372.363 67.6728 371.931 68.2595 371.345 68.6328C370.769 69.0061 370.065 69.1928 369.233 69.1928ZM376.954 69.1929C376.144 69.1929 375.461 69.0649 374.906 68.8089C374.352 68.5422 373.856 68.1688 373.418 67.6888L374.81 66.2809C375.109 66.6115 375.44 66.8729 375.802 67.0649C376.165 67.2569 376.576 67.3529 377.034 67.3529C377.504 67.3529 377.829 67.2836 378.01 67.1449C378.192 66.9956 378.282 66.7983 378.282 66.5529C378.282 66.1583 378 65.9236 377.434 65.8489L376.522 65.7369C374.634 65.5022 373.69 64.6382 373.69 63.1448C373.69 62.7395 373.765 62.3715 373.914 62.0409C374.074 61.6995 374.293 61.4115 374.57 61.1769C374.858 60.9315 375.2 60.7449 375.594 60.6169C376 60.4782 376.453 60.4089 376.954 60.4089C377.392 60.4089 377.776 60.4409 378.106 60.5049C378.448 60.5583 378.746 60.6436 379.002 60.761C379.269 60.8676 379.509 61.0063 379.722 61.177C379.946 61.337 380.165 61.5183 380.378 61.721L379.018 63.113C378.752 62.8463 378.448 62.6383 378.106 62.4889C377.776 62.3289 377.434 62.2489 377.082 62.2489C376.677 62.2489 376.389 62.3129 376.218 62.4409C376.048 62.5689 375.962 62.7396 375.962 62.9529C375.962 63.1769 376.021 63.3529 376.138 63.4809C376.266 63.5982 376.501 63.6836 376.842 63.7369L377.786 63.8649C379.632 64.1103 380.554 64.953 380.554 66.393C380.554 66.7983 380.469 67.1717 380.298 67.513C380.128 67.8543 379.882 68.153 379.562 68.409C379.253 68.6543 378.874 68.8463 378.426 68.9849C377.989 69.1236 377.498 69.1929 376.954 69.1929ZM385.561 69.1931C384.931 69.1931 384.371 69.0917 383.881 68.8891C383.39 68.6757 382.979 68.3824 382.649 68.009C382.318 67.625 382.067 67.161 381.897 66.617C381.726 66.073 381.641 65.465 381.641 64.793C381.641 64.121 381.726 63.5183 381.897 62.985C382.068 62.441 382.318 61.977 382.649 61.593C382.98 61.209 383.39 60.9157 383.881 60.7131C384.372 60.5104 384.932 60.4091 385.561 60.4091C386.414 60.4091 387.124 60.6011 387.689 60.9851C388.265 61.3691 388.676 61.9078 388.921 62.6012L387.001 63.4331C386.926 63.1131 386.772 62.8411 386.537 62.6171C386.302 62.3931 385.977 62.2811 385.561 62.2811C385.081 62.2811 384.718 62.4411 384.473 62.7611C384.228 63.0704 384.105 63.4917 384.105 64.0251L384.105 65.5931C384.105 66.1264 384.227 66.5477 384.473 66.8571C384.718 67.1664 385.081 67.3211 385.561 67.3211C385.987 67.3211 386.323 67.2091 386.569 66.9851C386.825 66.7504 387.011 66.4465 387.129 66.0731L388.969 66.8732C388.691 67.6732 388.259 68.2598 387.673 68.6331C387.097 69.0065 386.393 69.1931 385.561 69.1931ZM396.642 69.0013C396.216 69.0013 395.858 68.868 395.57 68.6013C395.293 68.3346 395.117 67.9773 395.042 67.5293L394.946 67.5293C394.818 68.0733 394.536 68.4893 394.098 68.7773C393.661 69.0546 393.122 69.1932 392.482 69.1932C391.64 69.1932 390.994 68.9692 390.546 68.5212C390.098 68.0732 389.874 67.4812 389.874 66.7452C389.874 65.8598 390.194 65.2038 390.834 64.7772C391.485 64.3399 392.365 64.1212 393.474 64.1212L394.802 64.1213L394.802 63.5933C394.802 63.1879 394.696 62.8679 394.482 62.6333C394.269 62.3879 393.912 62.2653 393.41 62.2652C392.941 62.2652 392.568 62.3666 392.29 62.5692C392.013 62.7719 391.784 63.0012 391.602 63.2572L390.194 62.0092C390.536 61.5079 390.963 61.1185 391.475 60.8412C391.997 60.5532 392.701 60.4092 393.587 60.4093C394.781 60.4093 395.677 60.6706 396.275 61.1933C396.872 61.716 397.17 62.4787 397.17 63.4813L397.17 67.1613L397.954 67.1613L397.954 69.0013L396.642 69.0013ZM393.362 67.5452C393.757 67.5453 394.093 67.4599 394.37 67.2893C394.658 67.1186 394.802 66.8413 394.802 66.4573L394.802 65.4653L393.65 65.4653C392.722 65.4652 392.258 65.7799 392.258 66.4092L392.258 66.6492C392.258 66.9586 392.354 67.1879 392.546 67.3372C392.738 67.4759 393.01 67.5452 393.362 67.5452ZM399.544 69.0014L399.544 60.6014L401.912 60.6014L401.912 62.0254L402.008 62.0254C402.157 61.5881 402.419 61.2094 402.792 60.8894C403.165 60.5694 403.683 60.4095 404.344 60.4095C405.208 60.4095 405.859 60.6975 406.296 61.2735C406.744 61.8495 406.968 62.6709 406.968 63.7375L406.968 69.0015L404.6 69.0015L404.6 63.9295C404.6 63.3855 404.515 62.9855 404.344 62.7295C404.173 62.4628 403.869 62.3295 403.432 62.3294C403.24 62.3294 403.053 62.3561 402.872 62.4094C402.691 62.4521 402.525 62.5268 402.376 62.6334C402.237 62.7401 402.125 62.8734 402.04 63.0334C401.955 63.1828 401.912 63.3588 401.912 63.5614L401.912 69.0014L399.544 69.0014Z" fill="black"/>
</g>
<g filter="url(#filter3_d)">
<rect x="314.001" y="96" width="125.001" height="31.0234" rx="15.5117" fill="#514D3D"/>
<path d="M347.312 117L347.313 105.832L352.593 105.832C353.115 105.832 353.585 105.923 354.001 106.104C354.417 106.275 354.769 106.515 355.057 106.824C355.355 107.134 355.585 107.512 355.745 107.96C355.905 108.398 355.985 108.878 355.985 109.4C355.984 109.934 355.904 110.419 355.744 110.856C355.584 111.294 355.355 111.667 355.056 111.976C354.768 112.286 354.416 112.531 354 112.712C353.584 112.883 353.115 112.968 352.592 112.968L349.744 112.968L349.744 117L347.312 117ZM349.744 110.856L352.304 110.856C352.667 110.856 352.95 110.766 353.152 110.584C353.366 110.392 353.472 110.115 353.472 109.752L353.473 109.048C353.473 108.686 353.366 108.414 353.153 108.232C352.95 108.04 352.667 107.944 352.305 107.944L349.745 107.944L349.744 110.856ZM360.78 117.193C360.161 117.193 359.607 117.091 359.116 116.889C358.636 116.686 358.225 116.393 357.884 116.009C357.553 115.625 357.297 115.161 357.116 114.617C356.935 114.073 356.844 113.465 356.844 112.793C356.844 112.121 356.935 111.513 357.116 110.969C357.297 110.425 357.553 109.966 357.884 109.593C358.225 109.209 358.636 108.915 359.116 108.713C359.607 108.51 360.161 108.409 360.78 108.409C361.399 108.409 361.948 108.51 362.428 108.713C362.919 108.915 363.329 109.209 363.66 109.593C364.001 109.966 364.263 110.425 364.444 110.969C364.625 111.513 364.716 112.121 364.716 112.793C364.716 113.465 364.625 114.073 364.444 114.617C364.263 115.161 364.001 115.625 363.66 116.009C363.329 116.393 362.919 116.686 362.428 116.889C361.948 117.091 361.399 117.193 360.78 117.193ZM360.78 115.321C361.249 115.321 361.612 115.177 361.868 114.889C362.124 114.601 362.252 114.19 362.252 113.657L362.252 111.945C362.252 111.411 362.124 111.001 361.868 110.713C361.612 110.425 361.249 110.281 360.78 110.281C360.311 110.281 359.948 110.425 359.692 110.713C359.436 111.001 359.308 111.411 359.308 111.945L359.308 113.657C359.308 114.19 359.436 114.601 359.692 114.889C359.948 115.177 360.311 115.321 360.78 115.321ZM369.811 117.193C369.192 117.193 368.638 117.091 368.147 116.889C367.667 116.686 367.256 116.393 366.915 116.009C366.584 115.625 366.328 115.161 366.147 114.617C365.966 114.073 365.875 113.465 365.875 112.793C365.875 112.121 365.966 111.513 366.147 110.969C366.329 110.425 366.585 109.966 366.915 109.593C367.257 109.209 367.667 108.915 368.147 108.713C368.638 108.51 369.193 108.409 369.811 108.409C370.43 108.409 370.979 108.51 371.459 108.713C371.95 108.915 372.361 109.209 372.691 109.593C373.033 109.966 373.294 110.425 373.475 110.969C373.657 111.513 373.747 112.121 373.747 112.793C373.747 113.465 373.656 114.073 373.475 114.617C373.294 115.161 373.032 115.625 372.691 116.009C372.36 116.393 371.95 116.686 371.459 116.889C370.979 117.091 370.43 117.193 369.811 117.193ZM369.811 115.321C370.28 115.321 370.643 115.177 370.899 114.889C371.155 114.601 371.283 114.19 371.283 113.657L371.283 111.945C371.283 111.411 371.155 111.001 370.899 110.713C370.643 110.425 370.281 110.281 369.811 110.281C369.342 110.281 368.979 110.425 368.723 110.713C368.467 111.001 368.339 111.411 368.339 111.945L368.339 113.657C368.339 114.19 368.467 114.601 368.723 114.889C368.979 115.177 369.342 115.321 369.811 115.321ZM380.074 117.193C379.317 117.193 378.634 117.076 378.026 116.841C377.418 116.596 376.901 116.238 376.474 115.769C376.048 115.289 375.717 114.697 375.482 113.993C375.248 113.278 375.13 112.446 375.13 111.497C375.13 110.558 375.248 109.726 375.483 109.001C375.717 108.265 376.048 107.652 376.475 107.161C376.901 106.66 377.419 106.281 378.027 106.025C378.635 105.769 379.317 105.641 380.075 105.641C381.109 105.641 381.963 105.854 382.635 106.281C383.307 106.697 383.845 107.358 384.251 108.265L382.155 109.353C382.005 108.884 381.771 108.51 381.451 108.233C381.141 107.945 380.683 107.801 380.075 107.801C379.36 107.801 378.784 108.036 378.347 108.505C377.92 108.964 377.707 109.636 377.706 110.521L377.706 112.313C377.706 113.198 377.92 113.876 378.346 114.345C378.784 114.804 379.36 115.033 380.074 115.033C380.672 115.033 381.146 114.873 381.498 114.553C381.861 114.222 382.128 113.828 382.298 113.369L384.282 114.521C383.866 115.374 383.317 116.036 382.634 116.505C381.962 116.964 381.109 117.193 380.074 117.193ZM389.264 117.193C388.646 117.193 388.091 117.092 387.6 116.889C387.12 116.686 386.71 116.393 386.368 116.009C386.038 115.625 385.782 115.161 385.6 114.617C385.419 114.073 385.328 113.465 385.328 112.793C385.328 112.121 385.419 111.513 385.6 110.969C385.782 110.425 386.038 109.966 386.368 109.593C386.71 109.209 387.12 108.916 387.6 108.713C388.091 108.51 388.646 108.409 389.264 108.409C389.883 108.409 390.432 108.511 390.912 108.713C391.403 108.916 391.814 109.209 392.144 109.593C392.486 109.967 392.747 110.425 392.928 110.969C393.11 111.513 393.2 112.121 393.2 112.793C393.2 113.465 393.11 114.073 392.928 114.617C392.747 115.161 392.486 115.625 392.144 116.009C391.814 116.393 391.403 116.687 390.912 116.889C390.432 117.092 389.883 117.193 389.264 117.193ZM389.264 115.321C389.734 115.321 390.096 115.177 390.352 114.889C390.608 114.601 390.736 114.191 390.736 113.657L390.736 111.945C390.736 111.412 390.608 111.001 390.352 110.713C390.096 110.425 389.734 110.281 389.264 110.281C388.795 110.281 388.432 110.425 388.176 110.713C387.92 111.001 387.792 111.412 387.792 111.945L387.792 113.657C387.792 114.19 387.92 114.601 388.176 114.889C388.432 115.177 388.795 115.321 389.264 115.321ZM396.072 107.705C395.592 107.705 395.24 107.599 395.016 107.385C394.802 107.161 394.696 106.879 394.696 106.537L394.696 106.185C394.696 105.844 394.802 105.567 395.016 105.353C395.24 105.129 395.592 105.017 396.072 105.017C396.552 105.017 396.898 105.129 397.112 105.353C397.336 105.567 397.448 105.844 397.448 106.185L397.448 106.537C397.448 106.879 397.336 107.161 397.112 107.385C396.898 107.599 396.552 107.705 396.072 107.705ZM394.888 108.601L397.256 108.601L397.255 117.001L394.887 117.001L394.888 108.601ZM399.466 117.001L399.466 108.601L401.834 108.601L401.834 110.025L401.93 110.025C402.079 109.588 402.34 109.209 402.714 108.889C403.087 108.569 403.604 108.409 404.266 108.409C405.13 108.409 405.78 108.697 406.218 109.274C406.666 109.85 406.89 110.671 406.89 111.738L406.89 117.002L404.522 117.001L404.522 111.929C404.522 111.385 404.436 110.985 404.266 110.729C404.095 110.463 403.791 110.329 403.354 110.329C403.162 110.329 402.975 110.356 402.794 110.409C402.612 110.452 402.447 110.527 402.298 110.633C402.159 110.74 402.047 110.873 401.962 111.033C401.876 111.183 401.834 111.359 401.834 111.561L401.834 117.001L399.466 117.001Z" fill="#FFFAFA"/>
</g>
<g filter="url(#filter4_d)">
<rect x="314.001" y="144" width="125.001" height="31.0234" rx="15.5117" fill="#FCCF00"/>
<rect x="314.001" y="144" width="125.001" height="31.0234" rx="15.5117" fill="url(#paint0_linear)"/>
<rect x="314.001" y="144" width="125.001" height="31.0234" rx="15.5117" stroke="black"/>
<path d="M345.875 153.832L351.299 153.832C352.227 153.832 352.947 154.094 353.459 154.616C353.982 155.139 354.243 155.832 354.243 156.696C354.243 157.123 354.185 157.486 354.067 157.784C353.961 158.083 353.811 158.328 353.619 158.52C353.438 158.712 353.219 158.856 352.963 158.952C352.718 159.038 352.451 159.086 352.163 159.096L352.163 159.192C352.43 159.192 352.707 159.24 352.995 159.336C353.294 159.432 353.566 159.587 353.811 159.8C354.057 160.003 354.259 160.27 354.419 160.6C354.59 160.931 354.675 161.336 354.675 161.816C354.675 162.254 354.6 162.67 354.451 163.064C354.312 163.448 354.115 163.784 353.859 164.072C353.603 164.36 353.299 164.59 352.947 164.76C352.595 164.92 352.211 165 351.795 165L345.875 165L345.875 153.832ZM348.307 162.952L351.107 162.952C351.427 162.952 351.678 162.867 351.859 162.696C352.051 162.515 352.147 162.264 352.147 161.944L352.147 161.4C352.147 161.08 352.051 160.835 351.859 160.664C351.678 160.483 351.427 160.392 351.107 160.392L348.307 160.392L348.307 162.952ZM348.307 158.408L350.723 158.408C351.043 158.408 351.294 158.318 351.475 158.136C351.657 157.955 351.747 157.704 351.747 157.384L351.747 156.904C351.747 156.584 351.657 156.334 351.475 156.152C351.294 155.971 351.043 155.88 350.723 155.88L348.307 155.88L348.307 158.408ZM357.603 155.705C357.123 155.705 356.771 155.598 356.547 155.384C356.334 155.16 356.227 154.878 356.227 154.536L356.227 154.184C356.227 153.843 356.334 153.566 356.547 153.352C356.771 153.129 357.123 153.017 357.603 153.017C358.083 153.017 358.43 153.129 358.643 153.353C358.867 153.566 358.979 153.843 358.979 154.185L358.979 154.537C358.979 154.878 358.867 155.161 358.643 155.385C358.43 155.598 358.083 155.705 357.603 155.705ZM356.419 156.6L358.787 156.601L358.787 165.001L356.419 165L356.419 156.6ZM363.941 165.001C363.12 165.001 362.496 164.793 362.069 164.377C361.653 163.961 361.445 163.353 361.445 162.553L361.445 158.441L360.261 158.441L360.261 156.601L360.853 156.601C361.173 156.601 361.392 156.526 361.509 156.377C361.627 156.217 361.685 155.993 361.685 155.705L361.685 154.329L363.813 154.329L363.813 156.601L365.477 156.601L365.477 158.441L363.813 158.441L363.813 163.161L365.349 163.161L365.349 165.001L363.941 165.001ZM372.212 163.593L372.132 163.593C372.068 163.817 371.966 164.03 371.828 164.233C371.689 164.425 371.518 164.595 371.316 164.745C371.124 164.883 370.9 164.99 370.644 165.065C370.398 165.15 370.142 165.193 369.876 165.193C368.809 165.193 368.004 164.819 367.46 164.073C366.916 163.315 366.644 162.222 366.644 160.793C366.644 159.363 366.916 158.275 367.46 157.529C368.004 156.782 368.809 156.409 369.876 156.409C370.42 156.409 370.9 156.558 371.316 156.857C371.742 157.155 372.014 157.539 372.132 158.009L372.212 158.009L372.212 156.601L374.58 156.601L374.58 168.201L372.212 168.201L372.212 163.593ZM370.66 163.273C371.108 163.273 371.476 163.166 371.764 162.953C372.062 162.729 372.212 162.425 372.212 162.041L372.212 159.561C372.212 159.177 372.062 158.878 371.764 158.665C371.476 158.441 371.108 158.329 370.66 158.329C370.212 158.329 369.838 158.489 369.54 158.809C369.252 159.118 369.108 159.539 369.108 160.073L369.108 161.529C369.108 162.062 369.252 162.489 369.54 162.809C369.838 163.118 370.212 163.273 370.66 163.273ZM381.754 163.593L381.674 163.593C381.599 163.806 381.498 164.009 381.37 164.201C381.253 164.393 381.098 164.564 380.906 164.713C380.714 164.862 380.485 164.98 380.218 165.065C379.962 165.15 379.663 165.193 379.322 165.193C378.458 165.193 377.802 164.91 377.354 164.345C376.917 163.769 376.698 162.948 376.698 161.881L376.698 156.601L379.066 156.601L379.066 161.673C379.066 162.185 379.157 162.58 379.338 162.857C379.519 163.134 379.829 163.273 380.266 163.273C380.447 163.273 380.629 163.246 380.81 163.193C380.991 163.14 381.151 163.065 381.29 162.969C381.429 162.862 381.541 162.734 381.626 162.585C381.711 162.436 381.754 162.26 381.754 162.057L381.754 156.601L384.122 156.601L384.122 165.001L381.754 165.001L381.754 163.593ZM389.829 165.193C389.189 165.193 388.619 165.092 388.117 164.889C387.616 164.676 387.189 164.382 386.837 164.009C386.496 163.625 386.235 163.161 386.053 162.617C385.883 162.073 385.797 161.465 385.797 160.793C385.797 160.132 385.883 159.534 386.053 159.001C386.224 158.457 386.475 157.993 386.805 157.609C387.147 157.225 387.563 156.932 388.053 156.729C388.544 156.516 389.104 156.409 389.733 156.409C390.427 156.409 391.019 156.527 391.509 156.761C392.011 156.996 392.416 157.311 392.725 157.705C393.045 158.1 393.275 158.559 393.413 159.081C393.563 159.593 393.637 160.132 393.637 160.697L393.637 161.401L388.245 161.401L388.245 161.529C388.245 162.084 388.395 162.526 388.693 162.857C388.992 163.177 389.461 163.337 390.101 163.337C390.592 163.337 390.992 163.241 391.301 163.049C391.611 162.847 391.899 162.607 392.165 162.329L393.349 163.801C392.976 164.239 392.485 164.58 391.877 164.825C391.28 165.071 390.597 165.193 389.829 165.193ZM389.781 158.153C389.301 158.153 388.923 158.313 388.645 158.633C388.379 158.942 388.245 159.358 388.245 159.881L388.245 160.009L391.189 160.009L391.189 159.865C391.189 159.353 391.072 158.943 390.837 158.633C390.613 158.313 390.261 158.153 389.781 158.153ZM395.31 165.001L395.31 156.601L397.678 156.601L397.678 158.425L397.758 158.425C397.8 158.191 397.875 157.967 397.982 157.753C398.088 157.529 398.227 157.332 398.398 157.161C398.579 156.991 398.792 156.857 399.038 156.761C399.283 156.655 399.571 156.601 399.902 156.601L400.318 156.601L400.318 158.809L399.726 158.809C399.032 158.809 398.515 158.9 398.174 159.081C397.843 159.263 397.678 159.599 397.678 160.089L397.678 165.001L395.31 165.001ZM407.024 156.602L409.232 156.602L406 166.298C405.786 166.948 405.482 167.428 405.088 167.737C404.704 168.047 404.149 168.201 403.424 168.201L401.952 168.201L401.952 166.361L403.536 166.361L403.824 165.433L400.88 156.601L403.232 156.601L404.464 160.521L405.072 162.953L405.168 162.953L405.792 160.521L407.024 156.602Z" fill="white"/>
</g>
<path d="M98.2 75C95.248 75 92.68 72.888 92.224 70.08C92.2 70.008 92.2 69.912 92.2 69.84C92.2 67.728 92.224 65.592 92.224 63.48C92.224 61.728 92.656 60.024 93.832 58.704C94.96 57.48 96.544 56.784 98.2 56.784C101.272 56.784 103.816 59.16 104.056 62.184C104.104 62.328 104.128 62.496 104.128 62.664L104.104 69.84C104.104 69.936 104.08 70.008 104.08 70.08C103.6 72.888 101.08 75 98.2 75ZM101.104 62.664C101.104 61.056 99.808 59.736 98.2 59.736C96.592 59.736 95.272 61.056 95.272 62.664C95.272 63.264 95.176 68.664 95.176 69.696C95.44 71.016 96.76 72.024 98.2 72.024C99.616 72.024 100.864 71.04 101.128 69.696L101.104 62.664ZM112.52 75C109.568 75 107 72.888 106.544 70.08C106.52 70.008 106.52 69.912 106.52 69.84C106.52 67.728 106.544 65.592 106.544 63.48C106.544 61.728 106.976 60.024 108.152 58.704C109.28 57.48 110.864 56.784 112.52 56.784C115.592 56.784 118.136 59.16 118.376 62.184C118.424 62.328 118.448 62.496 118.448 62.664L118.424 69.84C118.424 69.936 118.4 70.008 118.4 70.08C117.92 72.888 115.4 75 112.52 75ZM115.424 62.664C115.424 61.056 114.128 59.736 112.52 59.736C110.912 59.736 109.592 61.056 109.592 62.664C109.592 63.264 109.496 68.664 109.496 69.696C109.76 71.016 111.08 72.024 112.52 72.024C113.936 72.024 115.184 71.04 115.448 69.696L115.424 62.664ZM126.841 75C123.889 75 121.321 72.888 120.865 70.08C120.841 70.008 120.841 69.912 120.841 69.84C120.841 67.728 120.865 65.592 120.865 63.48C120.865 61.728 121.297 60.024 122.473 58.704C123.601 57.48 125.185 56.784 126.841 56.784C129.913 56.784 132.457 59.16 132.697 62.184C132.745 62.328 132.769 62.496 132.769 62.664L132.745 69.84C132.745 69.936 132.721 70.008 132.721 70.08C132.241 72.888 129.721 75 126.841 75ZM129.745 62.664C129.745 61.056 128.449 59.736 126.841 59.736C125.233 59.736 123.913 61.056 123.913 62.664C123.913 63.264 123.817 68.664 123.817 69.696C124.081 71.016 125.401 72.024 126.841 72.024C128.257 72.024 129.505 71.04 129.769 69.696L129.745 62.664ZM141.161 75C138.209 75 135.641 72.888 135.185 70.08C135.161 70.008 135.161 69.912 135.161 69.84C135.161 67.728 135.185 65.592 135.185 63.48C135.185 61.728 135.617 60.024 136.793 58.704C137.921 57.48 139.505 56.784 141.161 56.784C144.233 56.784 146.777 59.16 147.017 62.184C147.065 62.328 147.089 62.496 147.089 62.664L147.065 69.84C147.065 69.936 147.041 70.008 147.041 70.08C146.561 72.888 144.041 75 141.161 75ZM144.065 62.664C144.065 61.056 142.769 59.736 141.161 59.736C139.553 59.736 138.233 61.056 138.233 62.664C138.233 63.264 138.137 68.664 138.137 69.696C138.401 71.016 139.721 72.024 141.161 72.024C142.577 72.024 143.825 71.04 144.089 69.696L144.065 62.664ZM155.481 75C152.529 75 149.961 72.888 149.505 70.08C149.481 70.008 149.481 69.912 149.481 69.84C149.481 67.728 149.505 65.592 149.505 63.48C149.505 61.728 149.937 60.024 151.113 58.704C152.241 57.48 153.825 56.784 155.481 56.784C158.553 56.784 161.097 59.16 161.337 62.184C161.385 62.328 161.409 62.496 161.409 62.664L161.385 69.84C161.385 69.936 161.361 70.008 161.361 70.08C160.881 72.888 158.361 75 155.481 75ZM158.385 62.664C158.385 61.056 157.089 59.736 155.481 59.736C153.873 59.736 152.553 61.056 152.553 62.664C152.553 63.264 152.457 68.664 152.457 69.696C152.721 71.016 154.041 72.024 155.481 72.024C156.897 72.024 158.145 71.04 158.409 69.696L158.385 62.664ZM98.2 135C95.248 135 92.68 132.888 92.224 130.08C92.2 130.008 92.2 129.912 92.2 129.84C92.2 127.728 92.224 125.592 92.224 123.48C92.224 121.728 92.656 120.024 93.832 118.704C94.96 117.48 96.544 116.784 98.2 116.784C101.272 116.784 103.816 119.16 104.056 122.184C104.104 122.328 104.128 122.496 104.128 122.664L104.104 129.84C104.104 129.936 104.08 130.008 104.08 130.08C103.6 132.888 101.08 135 98.2 135ZM101.104 122.664C101.104 121.056 99.808 119.736 98.2 119.736C96.592 119.736 95.272 121.056 95.272 122.664C95.272 123.264 95.176 128.664 95.176 129.696C95.44 131.016 96.76 132.024 98.2 132.024C99.616 132.024 100.864 131.04 101.128 129.696L101.104 122.664ZM112.52 135C109.568 135 107 132.888 106.544 130.08C106.52 130.008 106.52 129.912 106.52 129.84C106.52 127.728 106.544 125.592 106.544 123.48C106.544 121.728 106.976 120.024 108.152 118.704C109.28 117.48 110.864 116.784 112.52 116.784C115.592 116.784 118.136 119.16 118.376 122.184C118.424 122.328 118.448 122.496 118.448 122.664L118.424 129.84C118.424 129.936 118.4 130.008 118.4 130.08C117.92 132.888 115.4 135 112.52 135ZM115.424 122.664C115.424 121.056 114.128 119.736 112.52 119.736C110.912 119.736 109.592 121.056 109.592 122.664C109.592 123.264 109.496 128.664 109.496 129.696C109.76 131.016 111.08 132.024 112.52 132.024C113.936 132.024 115.184 131.04 115.448 129.696L115.424 122.664ZM126.841 135C123.889 135 121.321 132.888 120.865 130.08C120.841 130.008 120.841 129.912 120.841 129.84C120.841 127.728 120.865 125.592 120.865 123.48C120.865 121.728 121.297 120.024 122.473 118.704C123.601 117.48 125.185 116.784 126.841 116.784C129.913 116.784 132.457 119.16 132.697 122.184C132.745 122.328 132.769 122.496 132.769 122.664L132.745 129.84C132.745 129.936 132.721 130.008 132.721 130.08C132.241 132.888 129.721 135 126.841 135ZM129.745 122.664C129.745 121.056 128.449 119.736 126.841 119.736C125.233 119.736 123.913 121.056 123.913 122.664C123.913 123.264 123.817 128.664 123.817 129.696C124.081 131.016 125.401 132.024 126.841 132.024C128.257 132.024 129.505 131.04 129.769 129.696L129.745 122.664ZM141.161 135C138.209 135 135.641 132.888 135.185 130.08C135.161 130.008 135.161 129.912 135.161 129.84C135.161 127.728 135.185 125.592 135.185 123.48C135.185 121.728 135.617 120.024 136.793 118.704C137.921 117.48 139.505 116.784 141.161 116.784C144.233 116.784 146.777 119.16 147.017 122.184C147.065 122.328 147.089 122.496 147.089 122.664L147.065 129.84C147.065 129.936 147.041 130.008 147.041 130.08C146.561 132.888 144.041 135 141.161 135ZM144.065 122.664C144.065 121.056 142.769 119.736 141.161 119.736C139.553 119.736 138.233 121.056 138.233 122.664C138.233 123.264 138.137 128.664 138.137 129.696C138.401 131.016 139.721 132.024 141.161 132.024C142.577 132.024 143.825 131.04 144.089 129.696L144.065 122.664ZM98.2 195C95.248 195 92.68 192.888 92.224 190.08C92.2 190.008 92.2 189.912 92.2 189.84C92.2 187.728 92.224 185.592 92.224 183.48C92.224 181.728 92.656 180.024 93.832 178.704C94.96 177.48 96.544 176.784 98.2 176.784C101.272 176.784 103.816 179.16 104.056 182.184C104.104 182.328 104.128 182.496 104.128 182.664L104.104 189.84C104.104 189.936 104.08 190.008 104.08 190.08C103.6 192.888 101.08 195 98.2 195ZM101.104 182.664C101.104 181.056 99.808 179.736 98.2 179.736C96.592 179.736 95.272 181.056 95.272 182.664C95.272 183.264 95.176 188.664 95.176 189.696C95.44 191.016 96.76 192.024 98.2 192.024C99.616 192.024 100.864 191.04 101.128 189.696L101.104 182.664ZM112.52 195C109.568 195 107 192.888 106.544 190.08C106.52 190.008 106.52 189.912 106.52 189.84C106.52 187.728 106.544 185.592 106.544 183.48C106.544 181.728 106.976 180.024 108.152 178.704C109.28 177.48 110.864 176.784 112.52 176.784C115.592 176.784 118.136 179.16 118.376 182.184C118.424 182.328 118.448 182.496 118.448 182.664L118.424 189.84C118.424 189.936 118.4 190.008 118.4 190.08C117.92 192.888 115.4 195 112.52 195ZM115.424 182.664C115.424 181.056 114.128 179.736 112.52 179.736C110.912 179.736 109.592 181.056 109.592 182.664C109.592 183.264 109.496 188.664 109.496 189.696C109.76 191.016 111.08 192.024 112.52 192.024C113.936 192.024 115.184 191.04 115.448 189.696L115.424 182.664ZM126.841 195C123.889 195 121.321 192.888 120.865 190.08C120.841 190.008 120.841 189.912 120.841 189.84C120.841 187.728 120.865 185.592 120.865 183.48C120.865 181.728 121.297 180.024 122.473 178.704C123.601 177.48 125.185 176.784 126.841 176.784C129.913 176.784 132.457 179.16 132.697 182.184C132.745 182.328 132.769 182.496 132.769 182.664L132.745 189.84C132.745 189.936 132.721 190.008 132.721 190.08C132.241 192.888 129.721 195 126.841 195ZM129.745 182.664C129.745 181.056 128.449 179.736 126.841 179.736C125.233 179.736 123.913 181.056 123.913 182.664C123.913 183.264 123.817 188.664 123.817 189.696C124.081 191.016 125.401 192.024 126.841 192.024C128.257 192.024 129.505 191.04 129.769 189.696L129.745 182.664ZM141.161 195C138.209 195 135.641 192.888 135.185 190.08C135.161 190.008 135.161 189.912 135.161 189.84C135.161 187.728 135.185 185.592 135.185 183.48C135.185 181.728 135.617 180.024 136.793 178.704C137.921 177.48 139.505 176.784 141.161 176.784C144.233 176.784 146.777 179.16 147.017 182.184C147.065 182.328 147.089 182.496 147.089 182.664L147.065 189.84C147.065 189.936 147.041 190.008 147.041 190.08C146.561 192.888 144.041 195 141.161 195ZM144.065 182.664C144.065 181.056 142.769 179.736 141.161 179.736C139.553 179.736 138.233 181.056 138.233 182.664C138.233 183.264 138.137 188.664 138.137 189.696C138.401 191.016 139.721 192.024 141.161 192.024C142.577 192.024 143.825 191.04 144.089 189.696L144.065 182.664ZM155.481 195C152.529 195 149.961 192.888 149.505 190.08C149.481 190.008 149.481 189.912 149.481 189.84C149.481 187.728 149.505 185.592 149.505 183.48C149.505 181.728 149.937 180.024 151.113 178.704C152.241 177.48 153.825 176.784 155.481 176.784C158.553 176.784 161.097 179.16 161.337 182.184C161.385 182.328 161.409 182.496 161.409 182.664L161.385 189.84C161.385 189.936 161.361 190.008 161.361 190.08C160.881 192.888 158.361 195 155.481 195ZM158.385 182.664C158.385 181.056 157.089 179.736 155.481 179.736C153.873 179.736 152.553 181.056 152.553 182.664C152.553 183.264 152.457 188.664 152.457 189.696C152.721 191.016 154.041 192.024 155.481 192.024C156.897 192.024 158.145 191.04 158.409 189.696L158.385 182.664Z" fill="#FCCF00"/>
<path d="M106.84 82.144C106.096 81.832 105.256 82.168 104.944 82.888L99.712 94.96L94.504 82.888C94.168 82.168 93.328 81.832 92.608 82.144C91.864 82.456 91.528 83.296 91.84 84.04L98.392 99.16C98.392 99.184 98.392 99.184 98.416 99.184C98.44 99.232 98.464 99.304 98.488 99.352L98.512 99.376C98.536 99.424 98.56 99.472 98.608 99.52C98.632 99.52 98.632 99.544 98.632 99.544C98.68 99.592 98.728 99.64 98.752 99.664L98.776 99.688C98.824 99.736 98.872 99.76 98.92 99.784L98.968 99.832C98.992 99.856 99.04 99.88 99.088 99.88C99.112 99.904 99.112 99.904 99.136 99.904V99.928C99.208 99.952 99.256 99.952 99.304 99.976H99.328C99.376 100 99.448 100 99.496 100.024C99.496 100.024 99.52 100.024 99.544 100.024L99.712 100.048C99.784 100.048 99.832 100.024 99.904 100.024H99.952C100 100 100.048 100 100.096 99.976H100.144C100.192 99.952 100.24 99.952 100.288 99.928L100.312 99.904C100.312 99.904 100.336 99.904 100.336 99.88C100.384 99.88 100.432 99.856 100.48 99.832C100.48 99.808 100.504 99.808 100.528 99.784C100.576 99.76 100.624 99.736 100.672 99.688V99.664C100.72 99.64 100.768 99.592 100.792 99.544C100.816 99.544 100.816 99.52 100.816 99.52C100.864 99.472 100.912 99.424 100.936 99.376V99.352C100.984 99.304 101.008 99.232 101.032 99.184V99.16L107.584 84.04C107.896 83.296 107.56 82.456 106.84 82.144ZM119.646 88C118.854 88 118.374 88.624 118.374 89.368V89.488C117.342 88.648 116.142 88.096 114.702 88.096C111.486 88.096 108.894 90.712 108.894 93.904C108.894 97.096 111.486 99.688 114.702 99.688C116.142 99.688 117.342 99.16 118.374 98.272V98.56C118.374 99.304 118.854 99.928 119.646 99.928C120.438 99.928 121.038 99.304 121.038 98.56V89.368C121.038 88.624 120.438 88 119.646 88ZM114.702 96.88C113.046 96.88 111.678 95.56 111.678 93.904C111.678 92.248 113.046 90.904 114.702 90.904C116.334 90.904 117.702 92.248 117.702 93.904C117.702 95.56 116.334 96.88 114.702 96.88ZM126.944 97.096C126.728 97.096 126.56 96.904 126.56 96.688C126.56 96.616 126.536 96.544 126.536 96.472C126.536 96.4 126.56 96.328 126.56 96.256V83.224C126.56 82.432 125.912 81.784 125.096 81.784C124.304 81.784 123.656 82.432 123.656 83.224C123.656 84.952 123.656 86.68 123.656 88.408V95.584C123.656 96.712 123.608 97.768 124.328 98.704C124.952 99.496 125.936 100 126.944 100C127.76 100 128.408 99.352 128.408 98.536C128.408 97.744 127.76 97.096 126.944 97.096ZM135.664 100.072C132.544 100.072 129.976 97.36 129.976 94.048V89.464C129.976 88.672 130.576 88.024 131.32 88.024C132.088 88.024 132.832 88.672 132.832 89.464V94.048C132.832 95.776 134.272 97.168 135.664 97.168C137.296 97.168 138.52 95.776 138.52 94.048V89.656C138.52 88.84 139.36 88.216 140.008 88.216C140.752 88.216 141.376 88.84 141.376 89.656V94.048C141.376 97.36 138.808 100.072 135.664 100.072ZM154.208 93.928C154.304 93.688 154.4 93.448 154.4 93.232C154.448 92.44 154.016 91.552 153.632 90.88C152.768 89.44 151.376 88.432 149.744 88.12C149.384 88.048 149.048 88.024 148.688 88.024C145.352 88.024 142.688 90.76 142.688 94.048C142.688 97.384 145.352 100.072 148.688 100.072C150.056 100.072 151.904 99.64 153.224 98.368C153.8 97.816 153.824 96.88 153.248 96.328C152.696 95.752 151.784 95.752 151.208 96.304C150.584 96.904 149.456 97.216 148.688 97.216C147.2 97.216 145.976 96.16 145.64 94.792H153.032C153.608 94.792 154.016 94.384 154.208 93.928ZM148.688 90.928C149.768 90.928 150.656 91.456 151.136 92.368H146.048C146.624 91.48 147.584 90.928 148.688 90.928ZM105.328 141.208C104.512 141.208 103.864 141.856 103.864 142.672V148.984H95.008V142.672C95.008 141.856 94.336 141.208 93.544 141.208C92.728 141.208 92.08 141.856 92.08 142.672V157.96C92.08 158.776 92.728 159.424 93.544 159.424C94.336 159.424 95.008 158.776 95.008 157.96V151.888H103.864V157.96C103.864 158.776 104.512 159.424 105.328 159.424C106.12 159.424 106.792 158.776 106.792 157.96V142.672C106.792 141.856 106.12 141.208 105.328 141.208ZM114.619 159.952C111.307 159.952 108.595 157.264 108.595 153.928C108.595 150.616 111.307 147.904 114.619 147.904C117.931 147.904 120.643 150.616 120.667 153.952C120.643 157.264 117.931 159.952 114.619 159.952ZM114.619 150.856C112.915 150.856 111.547 152.224 111.547 153.928C111.547 155.632 112.915 157 114.619 157C116.323 157 117.691 155.632 117.691 153.928C117.691 152.224 116.323 150.856 114.619 150.856ZM126.006 157.096C125.79 157.096 125.622 156.904 125.622 156.688C125.622 156.616 125.598 156.544 125.598 156.472C125.598 156.4 125.622 156.328 125.622 156.256V143.224C125.622 142.432 124.974 141.784 124.158 141.784C123.366 141.784 122.718 142.432 122.718 143.224C122.718 144.952 122.718 146.68 122.718 148.408V155.584C122.718 156.712 122.67 157.768 123.39 158.704C124.014 159.496 124.998 160 126.006 160C126.822 160 127.47 159.352 127.47 158.536C127.47 157.744 126.822 157.096 126.006 157.096ZM139.214 141.784C138.422 141.784 137.774 142.456 137.774 143.248V148.864C136.79 148.24 135.638 147.856 134.39 147.856C131.054 147.856 128.318 150.592 128.318 153.928C128.318 157.288 131.054 160 134.39 160C135.662 160 136.862 159.616 137.822 158.944C138.014 159.544 138.566 159.952 139.214 159.952C140.03 159.952 140.678 159.304 140.678 158.512V143.248C140.678 142.456 140.03 141.784 139.214 141.784ZM134.39 157.096C132.638 157.096 131.222 155.68 131.222 153.928C131.222 152.176 132.638 150.76 134.39 150.76C136.142 150.76 137.558 152.176 137.558 153.928C137.558 155.68 136.142 157.096 134.39 157.096ZM153.388 153.928C153.484 153.688 153.58 153.448 153.58 153.232C153.628 152.44 153.196 151.552 152.812 150.88C151.948 149.44 150.556 148.432 148.924 148.12C148.564 148.048 148.228 148.024 147.868 148.024C144.532 148.024 141.868 150.76 141.868 154.048C141.868 157.384 144.532 160.072 147.868 160.072C149.236 160.072 151.084 159.64 152.404 158.368C152.98 157.816 153.004 156.88 152.428 156.328C151.876 155.752 150.964 155.752 150.388 156.304C149.764 156.904 148.636 157.216 147.868 157.216C146.38 157.216 145.156 156.16 144.82 154.792H152.212C152.788 154.792 153.196 154.384 153.388 153.928ZM147.868 150.928C148.948 150.928 149.836 151.456 150.316 152.368H145.228C145.804 151.48 146.764 150.928 147.868 150.928ZM164.706 149.632C163.626 148.624 162.234 148.048 160.746 148.048C159.642 148.048 158.586 148.384 157.698 148.936C157.506 148.36 156.978 147.952 156.33 147.952C155.538 147.952 154.89 148.576 154.89 149.368V158.56C154.89 159.352 155.538 160 156.33 160C157.122 160 157.77 159.352 157.77 158.56V154.024C157.77 152.32 159.114 150.928 160.746 150.928C161.49 150.928 162.21 151.216 162.738 151.72C163.338 152.272 164.226 152.224 164.778 151.648C165.33 151.072 165.282 150.16 164.706 149.632ZM170.412 160.048C168.876 160.048 167.34 159.424 166.548 158.68C165.972 158.152 165.924 157.24 166.476 156.664C167.004 156.064 167.916 156.04 168.492 156.568C168.924 156.976 170.532 157.528 171.444 156.928C171.684 156.784 171.828 156.52 171.828 156.256C171.828 155.92 171.54 155.68 171.3 155.584C171.084 155.464 170.7 155.464 170.268 155.464C169.692 155.464 169.044 155.44 168.372 155.2C167.124 154.792 166.116 153.496 166.02 152.248C165.9 150.736 166.548 149.8 167.1 149.272C168.3 148.168 170.052 148 171.324 148.216C172.284 148.384 173.004 148.72 173.604 149.272C174.18 149.8 174.228 150.712 173.7 151.288C173.388 151.624 172.932 151.792 172.476 151.744C172.26 151.72 172.044 151.648 171.852 151.528C171.516 151.288 171.276 151.12 170.844 151.048C170.124 150.928 168.78 150.976 168.876 152.008C168.9 152.128 169.116 152.44 169.308 152.512C169.548 152.584 169.908 152.584 170.292 152.584C170.916 152.608 171.708 152.608 172.5 152.968C173.82 153.568 174.684 154.864 174.684 156.256C174.684 157.48 174.06 158.632 173.028 159.328C172.212 159.856 171.324 160.048 170.412 160.048ZM107.728 203.224V203.152C107.728 203.128 107.728 203.104 107.728 203.08V203.008C107.704 202.984 107.704 202.96 107.704 202.936C107.704 202.912 107.68 202.888 107.68 202.864C107.68 202.84 107.68 202.816 107.656 202.792C107.656 202.768 107.656 202.768 107.632 202.744C107.632 202.72 107.632 202.696 107.608 202.672C107.608 202.648 107.584 202.624 107.584 202.6C107.56 202.576 107.56 202.576 107.56 202.552C107.536 202.528 107.512 202.504 107.512 202.48L107.464 202.432C107.464 202.408 107.44 202.384 107.416 202.36C107.416 202.336 107.392 202.336 107.392 202.312C107.368 202.288 107.344 202.288 107.344 202.264L107.296 202.216C107.272 202.192 107.248 202.168 107.224 202.168C107.224 202.144 107.2 202.12 107.176 202.12L107.152 202.096C107.128 202.072 107.128 202.072 107.128 202.072L107.056 202.024C107.032 202.024 107.008 202 107.008 202L106.936 201.952C106.912 201.952 106.888 201.952 106.864 201.928C106.84 201.928 106.816 201.904 106.816 201.904C106.792 201.904 106.768 201.88 106.72 201.88C106.72 201.88 106.696 201.88 106.672 201.856C106.648 201.856 106.624 201.856 106.6 201.832H106.528C106.504 201.832 106.48 201.832 106.456 201.808H106.408C106.36 201.808 106.336 201.808 106.312 201.808H106.288C106.264 201.808 106.264 201.808 106.24 201.808H106.168C106.144 201.808 106.12 201.808 106.096 201.832H106.024C106 201.832 105.976 201.832 105.952 201.856H105.88C105.856 201.88 105.832 201.88 105.808 201.88C105.784 201.904 105.784 201.904 105.76 201.904C105.736 201.928 105.712 201.928 105.688 201.928L105.616 201.976C105.592 201.976 105.592 201.976 105.568 202C105.544 202 105.52 202.024 105.496 202.048C105.472 202.048 105.472 202.072 105.448 202.072C105.424 202.096 105.4 202.096 105.376 202.12L105.328 202.168C105.304 202.168 105.304 202.192 105.28 202.216C105.256 202.24 105.232 202.24 105.232 202.264C105.208 202.288 105.184 202.288 105.184 202.312C105.16 202.336 105.136 202.36 105.136 202.384C105.112 202.384 105.112 202.384 105.112 202.408L99.904 209.536L94.72 202.408C94.696 202.384 94.696 202.384 94.672 202.384C94.672 202.36 94.648 202.336 94.624 202.312C94.624 202.288 94.6 202.288 94.576 202.264C94.576 202.24 94.552 202.24 94.552 202.216C94.528 202.192 94.504 202.168 94.48 202.168C94.456 202.144 94.456 202.144 94.432 202.12L94.36 202.072C94.36 202.072 94.336 202.048 94.312 202.048C94.288 202.024 94.264 202 94.24 202C94.24 201.976 94.216 201.976 94.192 201.976L94.12 201.928C94.096 201.928 94.096 201.928 94.072 201.904C94.048 201.904 94.024 201.904 94 201.88C93.976 201.88 93.952 201.88 93.928 201.856H93.856C93.832 201.832 93.808 201.832 93.784 201.832H93.712C93.688 201.808 93.664 201.808 93.664 201.808H93.568C93.544 201.808 93.544 201.808 93.52 201.808C93.472 201.808 93.448 201.808 93.424 201.808H93.376C93.328 201.832 93.304 201.832 93.28 201.832H93.232C93.184 201.856 93.16 201.856 93.136 201.856C93.112 201.88 93.112 201.88 93.088 201.88C93.064 201.88 93.04 201.904 93.016 201.904C92.992 201.904 92.968 201.928 92.944 201.928C92.92 201.952 92.896 201.952 92.872 201.952C92.872 201.976 92.848 201.976 92.824 202C92.8 202 92.776 202.024 92.752 202.024C92.728 202.048 92.704 202.048 92.704 202.072C92.68 202.072 92.68 202.072 92.68 202.096C92.656 202.096 92.656 202.096 92.632 202.12L92.584 202.168C92.56 202.168 92.536 202.192 92.536 202.216C92.512 202.216 92.488 202.24 92.488 202.264L92.416 202.312C92.416 202.336 92.392 202.336 92.392 202.36C92.368 202.384 92.344 202.408 92.344 202.432L92.296 202.48C92.296 202.504 92.272 202.528 92.272 202.552L92.224 202.6C92.224 202.624 92.224 202.648 92.2 202.672C92.2 202.696 92.176 202.72 92.176 202.744C92.176 202.768 92.152 202.768 92.152 202.792C92.152 202.816 92.128 202.84 92.128 202.864C92.128 202.888 92.128 202.912 92.104 202.936V203.008C92.104 203.032 92.08 203.056 92.08 203.08V203.152C92.08 203.176 92.08 203.2 92.08 203.224V203.272V218.56C92.08 219.376 92.728 220.024 93.52 220.024C94.336 220.024 94.984 219.376 94.984 218.56V207.736L98.728 212.872C99.016 213.232 99.448 213.472 99.904 213.472C100.384 213.472 100.816 213.232 101.08 212.872L104.824 207.736V218.56C104.824 219.376 105.472 220.024 106.288 220.024C107.08 220.024 107.752 219.376 107.752 218.56V203.272C107.752 203.248 107.728 203.248 107.728 203.224ZM119.951 208C119.159 208 118.679 208.624 118.679 209.368V209.488C117.647 208.648 116.447 208.096 115.007 208.096C111.791 208.096 109.199 210.712 109.199 213.904C109.199 217.096 111.791 219.688 115.007 219.688C116.447 219.688 117.647 219.16 118.679 218.272V218.56C118.679 219.304 119.159 219.928 119.951 219.928C120.743 219.928 121.343 219.304 121.343 218.56V209.368C121.343 208.624 120.743 208 119.951 208ZM115.007 216.88C113.351 216.88 111.983 215.56 111.983 213.904C111.983 212.248 113.351 210.904 115.007 210.904C116.639 210.904 118.007 212.248 118.007 213.904C118.007 215.56 116.639 216.88 115.007 216.88ZM133.417 209.632C132.337 208.624 130.945 208.048 129.457 208.048C128.353 208.048 127.297 208.384 126.409 208.936C126.217 208.36 125.689 207.952 125.041 207.952C124.249 207.952 123.601 208.576 123.601 209.368V218.56C123.601 219.352 124.249 220 125.041 220C125.833 220 126.481 219.352 126.481 218.56V214.024C126.481 212.32 127.825 210.928 129.457 210.928C130.201 210.928 130.921 211.216 131.449 211.72C132.049 212.272 132.937 212.224 133.489 211.648C134.041 211.072 133.993 210.16 133.417 209.632ZM144.643 217.408L140.179 213.304L144.187 210.592C144.835 210.112 145.003 209.2 144.523 208.552C144.067 207.88 143.155 207.736 142.483 208.192L137.755 211.456V203.344C137.755 202.528 137.107 201.88 136.291 201.88C135.475 201.88 134.827 202.528 134.827 203.344V218.632C134.827 219.448 135.475 220.096 136.291 220.096C137.107 220.096 137.755 219.448 137.755 218.632V215.056L142.651 219.568C142.939 219.832 143.275 219.952 143.635 219.952C144.019 219.952 144.427 219.784 144.715 219.496C145.267 218.872 145.219 217.96 144.643 217.408ZM156.974 213.928C157.07 213.688 157.166 213.448 157.166 213.232C157.214 212.44 156.782 211.552 156.398 210.88C155.534 209.44 154.142 208.432 152.51 208.12C152.15 208.048 151.814 208.024 151.454 208.024C148.118 208.024 145.454 210.76 145.454 214.048C145.454 217.384 148.118 220.072 151.454 220.072C152.822 220.072 154.67 219.64 155.99 218.368C156.566 217.816 156.59 216.88 156.014 216.328C155.462 215.752 154.55 215.752 153.974 216.304C153.35 216.904 152.222 217.216 151.454 217.216C149.966 217.216 148.742 216.16 148.406 214.792H155.798C156.374 214.792 156.782 214.384 156.974 213.928ZM151.454 210.928C152.534 210.928 153.422 211.456 153.902 212.368H148.814C149.39 211.48 150.35 210.928 151.454 210.928ZM163.444 217.048C163.276 217.048 163.06 217.072 162.94 216.952C162.772 216.808 162.82 216.52 162.772 216.328V210.616H163.564C164.356 210.616 165.004 209.968 165.004 209.176C165.004 208.384 164.356 207.736 163.564 207.736H162.772V203.152C162.772 202.36 162.124 201.712 161.332 201.712C160.54 201.712 159.892 202.36 159.892 203.152V207.736H158.86C158.068 207.736 157.42 208.384 157.42 209.176C157.42 209.968 158.068 210.616 158.86 210.616H159.892V216.664C159.892 217.408 160.228 218.272 160.708 218.824C161.26 219.448 162.028 219.784 162.82 219.904C163.036 219.928 163.228 219.928 163.444 219.928C164.236 219.928 164.884 219.304 164.884 218.488C164.884 217.696 164.236 217.048 163.444 217.048ZM182.387 220C177.371 220 173.291 215.896 173.291 210.88C173.291 205.864 177.371 201.784 182.387 201.784C184.643 201.784 186.803 202.6 188.483 204.112C189.083 204.64 189.131 205.552 188.579 206.152C188.051 206.728 187.139 206.776 186.563 206.248C185.411 205.216 183.923 204.664 182.387 204.664C178.955 204.664 176.171 207.448 176.171 210.88C176.171 214.312 178.955 217.096 182.387 217.096C183.971 217.096 185.483 216.52 186.635 215.44C187.211 214.888 188.123 214.936 188.675 215.512C189.203 216.088 189.179 217 188.603 217.552C186.899 219.112 184.691 220 182.387 220ZM201.255 208C200.463 208 199.983 208.624 199.983 209.368V209.488C198.951 208.648 197.751 208.096 196.311 208.096C193.095 208.096 190.503 210.712 190.503 213.904C190.503 217.096 193.095 219.688 196.311 219.688C197.751 219.688 198.951 219.16 199.983 218.272V218.56C199.983 219.304 200.463 219.928 201.255 219.928C202.047 219.928 202.647 219.304 202.647 218.56V209.368C202.647 208.624 202.047 208 201.255 208ZM196.311 216.88C194.655 216.88 193.287 215.56 193.287 213.904C193.287 212.248 194.655 210.904 196.311 210.904C197.943 210.904 199.311 212.248 199.311 213.904C199.311 215.56 197.943 216.88 196.311 216.88ZM211.313 207.952C210.041 207.952 208.841 208.336 207.881 209.008C207.689 208.432 207.137 208 206.489 208C205.673 208 205.025 208.648 205.025 209.44V224.704C205.025 225.52 205.673 226.168 206.489 226.168C207.281 226.168 207.929 225.52 207.929 224.704V219.088C208.913 219.712 210.065 220.096 211.313 220.096C214.649 220.096 217.385 217.384 217.385 214.024C217.385 210.664 214.649 207.952 211.313 207.952ZM211.313 217.192C209.561 217.192 208.145 215.776 208.145 214.024C208.145 212.272 209.561 210.856 211.313 210.856C213.041 210.856 214.481 212.272 214.481 214.024C214.481 215.776 213.041 217.192 211.313 217.192Z" fill="white"/>
<defs>
<filter id="filter0_d" x="0.000244141" y="0.998535" width="514" height="311" filterUnits="userSpaceOnUse" color-interpolation-filters="sRGB">
<feFlood flood-opacity="0" result="BackgroundImageFix"/>
<feColorMatrix in="SourceAlpha" type="matrix" values="0 0 0 0 0 0 0 0 0 0 0 0 0 0 0 0 0 0 127 0"/>
<feOffset dy="10"/>
<feGaussianBlur stdDeviation="15"/>
<feColorMatrix type="matrix" values="0 0 0 0 0.0666667 0 0 0 0 0.0666667 0 0 0 0 0.0666667 0 0 0 0.2 0"/>
<feBlend mode="normal" in2="BackgroundImageFix" result="effect1_dropShadow"/>
<feBlend mode="normal" in="SourceGraphic" in2="effect1_dropShadow" result="shape"/>
</filter>
<filter id="filter1_d" x="310" y="191.998" width="133.001" height="39.0259" filterUnits="userSpaceOnUse" color-interpolation-filters="sRGB">
<feFlood flood-opacity="0" result="BackgroundImageFix"/>
<feColorMatrix in="SourceAlpha" type="matrix" values="0 0 0 0 0 0 0 0 0 0 0 0 0 0 0 0 0 0 127 0"/>
<feOffset dy="4"/>
<feGaussianBlur stdDeviation="2"/>
<feColorMatrix type="matrix" values="0 0 0 0 0 0 0 0 0 0 0 0 0 0 0 0 0 0 0.25 0"/>
<feBlend mode="normal" in2="BackgroundImageFix" result="effect1_dropShadow"/>
<feBlend mode="normal" in="SourceGraphic" in2="effect1_dropShadow" result="shape"/>
</filter>
<filter id="filter2_d" x="310" y="48" width="133.001" height="39.0259" filterUnits="userSpaceOnUse" color-interpolation-filters="sRGB">
<feFlood flood-opacity="0" result="BackgroundImageFix"/>
<feColorMatrix in="SourceAlpha" type="matrix" values="0 0 0 0 0 0 0 0 0 0 0 0 0 0 0 0 0 0 127 0"/>
<feOffset dy="4"/>
<feGaussianBlur stdDeviation="2"/>
<feColorMatrix type="matrix" values="0 0 0 0 0 0 0 0 0 0 0 0 0 0 0 0 0 0 0.25 0"/>
<feBlend mode="normal" in2="BackgroundImageFix" result="effect1_dropShadow"/>
<feBlend mode="normal" in="SourceGraphic" in2="effect1_dropShadow" result="shape"/>
</filter>
<filter id="filter3_d" x="310" y="96" width="133.001" height="39.0259" filterUnits="userSpaceOnUse" color-interpolation-filters="sRGB">
<feFlood flood-opacity="0" result="BackgroundImageFix"/>
<feColorMatrix in="SourceAlpha" type="matrix" values="0 0 0 0 0 0 0 0 0 0 0 0 0 0 0 0 0 0 127 0"/>
<feOffset dy="4"/>
<feGaussianBlur stdDeviation="2"/>
<feColorMatrix type="matrix" values="0 0 0 0 0 0 0 0 0 0 0 0 0 0 0 0 0 0 0.25 0"/>
<feBlend mode="normal" in2="BackgroundImageFix" result="effect1_dropShadow"/>
<feBlend mode="normal" in="SourceGraphic" in2="effect1_dropShadow" result="shape"/>
</filter>
<filter id="filter4_d" x="310" y="144" width="133.001" height="39.0259" filterUnits="userSpaceOnUse" color-interpolation-filters="sRGB">
<feFlood flood-opacity="0" result="BackgroundImageFix"/>
<feColorMatrix in="SourceAlpha" type="matrix" values="0 0 0 0 0 0 0 0 0 0 0 0 0 0 0 0 0 0 127 0"/>
<feOffset dy="4"/>
<feGaussianBlur stdDeviation="2"/>
<feColorMatrix type="matrix" values="0 0 0 0 0 0 0 0 0 0 0 0 0 0 0 0 0 0 0.25 0"/>
<feBlend mode="normal" in2="BackgroundImageFix" result="effect1_dropShadow"/>
<feBlend mode="normal" in="SourceGraphic" in2="effect1_dropShadow" result="shape"/>
</filter>
<linearGradient id="paint0_linear" x1="376.501" y1="144" x2="376.501" y2="175.023" gradientUnits="userSpaceOnUse">
<stop offset="0.25" stop-color="#92D1C3"/>
<stop offset="0.484375" stop-color="#DD763E"/>
<stop offset="0.713542" stop-color="#B82B5C"/>
<stop offset="1" stop-color="#9E254E"/>
</linearGradient>
</defs>
</svg>
