<svg width="1920" height="1549" viewBox="0 0 1920 1549" fill="none" xmlns="http://www.w3.org/2000/svg">
<rect width="1920" height="1549" fill="#00392E"/>
<mask id="mask0" mask-type="alpha" maskUnits="userSpaceOnUse" x="0" y="0" width="1920" height="1549">
<rect width="1920" height="1549" fill="#00392E"/>
</mask>
<g mask="url(#mask0)">
<path d="M1527 -272.073C1550.62 -230.255 1547.87 -186.97 1553.36 -134.881C1578.08 95.4838 1613.78 332.451 1713.75 521.732C1717.6 495.321 1720.34 472.578 1721.99 454.237C1725.29 408.017 1724.74 275.227 1722.54 129.965C1714.3 116.759 1706.61 102.82 1698.92 88.8809C1662.67 22.1191 1634.11 -48.3109 1635.21 -131.213C1653.33 -57.1147 1685.74 8.17987 1721.99 70.5398C1718.7 -140.75 1713.75 -356.442 1713.75 -356.442L1746.16 -454.017C1746.16 -454.017 1759.89 -308.022 1766.48 -104.802C1769.23 -25.5679 1770.33 61.736 1769.78 152.708C1810.97 223.872 1849.97 297.236 1868.1 383.073C1892.81 498.255 1876.89 622.975 1841.73 733.756C1806.58 843.803 1753.85 942.111 1701.12 1038.95C1701.12 1036.75 1700.57 1034.55 1700.02 1032.35C1695.63 1069.77 1691.78 1107.18 1689.04 1147.53C1673.11 1352.95 1697.27 1612.66 1697.27 1612.66L1608.29 1623.67C1608.29 1623.67 1575.89 1267.12 1608.29 1071.97C1631.36 931.84 1675.85 735.957 1701.67 592.162C1625.87 483.583 1583.03 337.587 1558.31 193.059C1533.59 39.7266 1529.75 -116.54 1527 -272.073ZM1860.41 551.078C1864.25 510.727 1868.1 457.905 1860.41 419.022C1851.07 372.068 1839.54 317.779 1817.02 279.629C1801.64 253.218 1785.16 228.274 1768.68 202.596C1767.58 264.222 1765.38 326.582 1761.54 388.942C1745.61 658.19 1726.39 811.522 1710.46 942.845C1785.71 821.06 1845.03 705.877 1860.41 551.078Z" fill="#005141"/>
<g filter="url(#filter0_d)">
<path d="M1478.21 1111.92C1478.75 1127.42 1487.13 1140.85 1498.57 1143.5C1507.6 1145.59 1512.74 1155.08 1493.06 1186.29C1488.11 1194.13 1486.02 1204.53 1487.47 1214.59C1496.69 1278.28 1512.02 1339.88 1531.8 1397.9C1538.91 1418.74 1554.72 1432.1 1571.84 1430.79C1588.58 1429.5 1593.82 1438.15 1582.18 1470.6C1575.78 1488.47 1577.05 1509.58 1585.28 1526.07C1614.89 1585.43 1648.7 1638.53 1684.23 1683.09C1692.46 1693.41 1704.79 1695.66 1714.56 1688.12C1728.42 1677.42 1748.26 1670.29 1755.59 1708.29C1757.06 1715.93 1756.86 1722.45 1755.38 1728.01C1751.39 1743 1756.01 1759.73 1766.11 1768.13C1817.8 1811.07 1869.12 1833.66 1913.05 1829.52C1943.21 1826.68 1972.8 1805.73 1984.36 1769.48C2009.32 1691.23 2005.62 1611.78 1983.53 1534.61C1979.59 1520.85 1970.7 1510.5 1959.84 1507.94C1942.8 1503.92 1944.15 1482.95 1947.59 1467.69C1950.28 1455.79 1948.78 1442.92 1943.68 1432.53C1921.57 1387.46 1894.4 1343.78 1864.44 1302.26C1854.82 1288.93 1839.84 1286.37 1827.63 1295.13C1807.69 1309.46 1786.96 1292.28 1797.24 1251.61C1801.29 1235.58 1797.75 1217.89 1788.12 1206.92C1750.72 1164.32 1712.07 1125.29 1675.49 1090.96C1668.18 1084.1 1658.63 1083.71 1650.81 1089.48C1630.35 1104.57 1626.16 1079.01 1625.57 1061.1C1625.24 1051.12 1621.31 1041.97 1615.03 1036.55C1542.8 974.207 1489.48 937.244 1489.48 937.244C1479.57 995.783 1476.19 1054.35 1478.21 1111.92Z" fill="#005141"/>
</g>
<g filter="url(#filter1_d)">
<path d="M1139.79 -259.628C1153.87 -201.245 1170.33 -144.566 1189.71 -89.4811C1209.09 -34.3961 1230.15 20.3031 1258.52 68.4643C1265.39 80.0932 1273.4 91.2271 1282.12 101.043C1290.83 110.859 1299.71 119.248 1308.51 128.35C1326.27 145.128 1343.49 161.797 1363.1 176.761C1402.63 203.837 1448.86 215.484 1491.85 241.074C1513.39 253.512 1534.06 268.696 1555.64 276.03C1566.69 279.752 1577.99 281.333 1588.22 282.695C1598.99 284.167 1609.22 285.529 1619.61 285.465C1640.94 285.445 1662.55 278.18 1685.22 271.133C1707.37 263.978 1729.67 255.395 1751.53 245.989C1762.5 240.93 1773.38 236.584 1783.98 229.988C1794.5 224.105 1805.09 217.509 1815.16 210.804C1835.82 197.503 1857.22 187.274 1878.25 175.51C1920.31 151.98 1961.1 125.268 2000.7 94.6608L2007.48 107.003C1972.08 148.693 1931.17 181.223 1889.24 208.429C1878.64 215.025 1868.04 221.621 1857.44 228.217C1846.39 233.99 1835.88 239.873 1824.46 244.11C1813.04 248.346 1802.15 252.692 1790.73 256.929C1785.06 258.691 1779.31 261.166 1774.09 263.75C1768.34 266.226 1763.12 268.81 1757.46 270.572L1691.28 299.393C1669.42 308.798 1645.96 317.876 1621.03 320.808C1608.78 322.686 1595.35 320.668 1583.76 316.837C1571.64 312.897 1560.46 305.498 1549.73 298.922C1528.19 286.483 1506.58 274.759 1484.63 265.888C1441.19 248.97 1396.44 233.974 1351.69 209.483C1340.35 203.511 1329.08 196.826 1318.52 188.823C1308.04 180.106 1298.26 170.072 1289.71 158.828C1281.15 147.585 1273.38 134.311 1266.68 121.255L1245.95 82.691C1218.44 31.7848 1192.7 -20.2208 1172.34 -76.2378C1151.68 -134.505 1136.7 -194.534 1128.46 -256.105L1139.79 -259.628Z" fill="#00A259"/>
</g>
<g filter="url(#filter2_d)">
<path d="M1867.39 1464.27C1939.8 1361.11 1999.49 1241.92 2044 1113.32C1964.52 1220.25 1882.93 1330.48 1837.72 1468.51C1821.82 1467.1 1804.87 1464.74 1788.97 1463.33C1822.88 1425.17 1853.26 1379.95 1875.16 1328.6C1834.54 1337.55 1796.03 1361.11 1764.24 1396.44C1751.18 1411.04 1738.81 1428.47 1734.22 1450.14C1804.87 1339.44 1833.48 1180.21 1814.76 1037C1758.59 1159.95 1728.14 1217.01 1714.01 1359.28C1720.01 1266.01 1710.79 1249.48 1681.12 1164.22C1685.36 1251.84 1664.63 1248.21 1668.87 1335.83C1656.16 1191.21 1621.19 1151.47 1547.01 1044.54C1589.4 1173.61 1601.05 1322.01 1662.87 1436.48C1628.25 1337.08 1551.41 1207.66 1486.41 1140.77C1502.66 1172.33 1508.09 1188.16 1529.02 1241.54C1551.07 1328.6 1543.27 1293.43 1554.81 1359.28C1506.6 1240.55 1435.39 1224.96 1316 1153.83C1358.74 1208.95 1376.18 1299.45 1415.03 1359.28C1453.54 1419.58 1514.51 1450.61 1567.85 1485L1862.09 1485C1861.38 1477.46 1863.5 1469.93 1867.39 1464.27Z" fill="#00A259"/>
</g>
<g filter="url(#filter3_d)">
<path d="M1851.27 1180.85C1840.85 1187.73 1835 1203.37 1837.78 1218.43C1839.96 1230.3 1835.51 1240.4 1806.21 1228.84C1798.85 1225.94 1790.87 1227.55 1784.55 1233.36C1744.56 1270.18 1708.45 1313.63 1676.58 1361.1C1665.13 1378.16 1662.31 1402.85 1670.07 1423.26C1677.67 1443.23 1673.84 1453.1 1646.91 1451.88C1632.08 1451.21 1618.11 1461.24 1610.1 1477.91C1581.25 1537.94 1558.39 1600.6 1542.06 1661.93C1538.28 1676.13 1541.68 1692.12 1550.78 1701.05C1563.67 1713.71 1576.52 1735.12 1553.39 1759.32C1548.74 1764.19 1544.19 1766.55 1539.78 1766.97C1527.9 1768.11 1518.27 1780.47 1516.56 1796.2C1507.83 1876.64 1512.92 1948.48 1533.37 2000.56C1547.41 2036.31 1573.65 2064.1 1603.16 2063.71C1666.85 2062.86 1719.87 2026.48 1763.95 1968.51C1771.81 1958.17 1775.34 1943.14 1772.74 1928.83C1768.67 1906.37 1783.6 1899.61 1795.45 1897.71C1804.69 1896.23 1812.92 1889.22 1818 1878.82C1840.05 1833.7 1859.12 1782.95 1875.59 1729.65C1880.88 1712.54 1876.63 1693.18 1865.72 1681.77C1847.88 1663.11 1851.36 1630.87 1883.38 1627.13C1896 1625.66 1906.72 1614.24 1910.39 1598.05C1924.61 1535.22 1935.89 1472.29 1944.77 1413.77C1946.54 1402.09 1942.98 1390.25 1935.89 1383C1917.33 1364.01 1933.18 1348.64 1945.23 1340.74C1951.95 1336.33 1956.65 1327.86 1957.85 1318C1971.65 1204.64 1975.62 1124.59 1975.62 1124.59C1931.49 1135.95 1889.95 1155.3 1851.27 1180.85Z" fill="#005141"/>
</g>
<g filter="url(#filter4_d)">
<path d="M1320.99 1345.2C1323.15 1355.99 1330.58 1363.71 1338.93 1363.23C1345.51 1362.85 1350.21 1368.47 1339.96 1394.43C1337.39 1400.96 1337.11 1408.69 1339.29 1415.47C1353.07 1458.34 1370.91 1498.5 1391.48 1535.23C1398.87 1548.43 1411.51 1554.58 1423.39 1550.15C1435.01 1545.82 1439.68 1550.83 1435.23 1576.02C1432.78 1589.89 1436.09 1604.46 1443.77 1614.37C1471.39 1650.03 1501.25 1680.43 1531.33 1704.48C1538.3 1710.05 1547.23 1709.11 1553.23 1701.81C1561.74 1691.46 1574.87 1682.39 1584.37 1707.6C1586.29 1712.66 1586.89 1717.29 1586.49 1721.5C1585.41 1732.85 1590.57 1743.67 1598.64 1747.5C1639.89 1767.1 1678.56 1772.48 1708.96 1760.58C1729.83 1752.42 1748.22 1731.64 1752.18 1703.79C1760.75 1643.69 1749.03 1588.61 1724.65 1538.89C1720.31 1530.02 1712.87 1524.57 1704.94 1524.99C1692.5 1525.65 1691.04 1510.64 1691.72 1499.2C1692.24 1490.3 1689.71 1481.55 1684.93 1475.3C1664.22 1448.14 1640.11 1423 1614.29 1399.95C1606 1392.55 1595.18 1393.81 1587.6 1402.47C1575.23 1416.63 1558.69 1408.8 1561.25 1378.11C1562.25 1366.01 1557.74 1354.3 1549.71 1348.56C1518.53 1326.27 1486.89 1306.75 1457.24 1290.1C1451.32 1286.78 1444.56 1288.46 1439.73 1294.11C1427.08 1308.91 1421.2 1291.8 1418.73 1279.33C1417.36 1272.38 1413.55 1266.76 1408.51 1264.23C1350.59 1235.2 1308.87 1220.13 1308.87 1220.13C1308.63 1263.3 1312.97 1305.16 1320.99 1345.2Z" fill="#005141"/>
</g>
</g>
<mask id="mask1" mask-type="alpha" maskUnits="userSpaceOnUse" x="714" y="109" width="240" height="1440">
<rect x="714" y="109" width="240" height="1440" fill="#FCCF00"/>
</mask>
<g mask="url(#mask1)">
<g filter="url(#filter5_d)">
<rect x="814" y="169" width="40" height="1467" rx="20" fill="#6B3400"/>
</g>
</g>
<g filter="url(#filter6_d)">
<path d="M844.811 633.189C844.811 633.189 872.946 638.732 890.839 620.839C908.732 602.946 903.189 574.811 903.189 574.811C903.189 574.811 875.054 569.268 857.161 587.161C839.268 605.054 844.811 633.189 844.811 633.189Z" fill="#00A259"/>
</g>
<g filter="url(#filter7_d)">
<path d="M844.811 961.189C844.811 961.189 872.946 966.732 890.839 948.839C908.732 930.946 903.189 902.811 903.189 902.811C903.189 902.811 875.054 897.268 857.161 915.161C839.268 933.054 844.811 961.189 844.811 961.189Z" fill="#00A259"/>
</g>
<g filter="url(#filter8_d)">
<path d="M844.811 1309.19C844.811 1309.19 872.946 1314.73 890.839 1296.84C908.732 1278.95 903.189 1250.81 903.189 1250.81C903.189 1250.81 875.054 1245.27 857.161 1263.16C839.268 1281.05 844.811 1309.19 844.811 1309.19Z" fill="#00A259"/>
</g>
<rect x="752" y="653.971" width="24" height="120" rx="12" transform="rotate(-45 752 653.971)" fill="#6B3400"/>
<rect x="752" y="1001.97" width="24" height="120" rx="12" transform="rotate(-45 752 1001.97)" fill="#6B3400"/>
<rect x="752" y="1326.97" width="24" height="120" rx="12" transform="rotate(-45 752 1326.97)" fill="#6B3400"/>
<rect width="24" height="120" rx="12" transform="matrix(0.707108 0.707105 -0.707108 0.707105 898.853 802)" fill="#6B3400"/>
<rect width="24" height="120" rx="12" transform="matrix(0.707108 0.707105 -0.707108 0.707105 898.853 1150)" fill="#6B3400"/>
<g filter="url(#filter9_d)">
<path d="M823.189 798.189C823.189 798.189 828.732 770.054 810.839 752.161C792.946 734.268 764.811 739.811 764.811 739.811C764.811 739.811 759.268 767.946 777.161 785.839C795.054 803.732 823.189 798.189 823.189 798.189Z" fill="#00A259"/>
</g>
<g filter="url(#filter10_d)">
<path d="M823.189 1146.19C823.189 1146.19 828.732 1118.05 810.839 1100.16C792.946 1082.27 764.811 1087.81 764.811 1087.81C764.811 1087.81 759.268 1115.95 777.161 1133.84C795.054 1151.73 823.189 1146.19 823.189 1146.19Z" fill="#00A259"/>
</g>
<rect x="752" y="295.971" width="24" height="120" rx="12" transform="rotate(-45 752 295.971)" fill="#6B3400"/>
<g filter="url(#filter11_d)">
<path d="M844.811 278.189C844.811 278.189 872.946 283.732 890.839 265.839C908.732 247.946 903.189 219.811 903.189 219.811C903.189 219.811 875.054 214.268 857.161 232.161C839.268 250.054 844.811 278.189 844.811 278.189Z" fill="#00A259"/>
</g>
<g filter="url(#filter12_d)">
<path d="M823.189 440.189C823.189 440.189 828.732 412.054 810.839 394.161C792.946 376.268 764.811 381.811 764.811 381.811C764.811 381.811 759.268 409.946 777.161 427.839C795.054 445.732 823.189 440.189 823.189 440.189Z" fill="#00A259"/>
</g>
<rect width="24" height="120" rx="12" transform="matrix(0.707108 0.707105 -0.707108 0.707105 898.853 444)" fill="#6B3400"/>
<defs>
<filter id="filter0_d" x="1473.65" y="937.244" width="531.98" height="900.76" filterUnits="userSpaceOnUse" color-interpolation-filters="sRGB">
<feFlood flood-opacity="0" result="BackgroundImageFix"/>
<feColorMatrix in="SourceAlpha" type="matrix" values="0 0 0 0 0 0 0 0 0 0 0 0 0 0 0 0 0 0 127 0"/>
<feOffset dy="4"/>
<feGaussianBlur stdDeviation="2"/>
<feColorMatrix type="matrix" values="0 0 0 0 0 0 0 0 0 0 0 0 0 0 0 0 0 0 0.25 0"/>
<feBlend mode="normal" in2="BackgroundImageFix" result="effect1_dropShadow"/>
<feBlend mode="normal" in="SourceGraphic" in2="effect1_dropShadow" result="shape"/>
</filter>
<filter id="filter1_d" x="1124.46" y="-259.628" width="887.026" height="589.148" filterUnits="userSpaceOnUse" color-interpolation-filters="sRGB">
<feFlood flood-opacity="0" result="BackgroundImageFix"/>
<feColorMatrix in="SourceAlpha" type="matrix" values="0 0 0 0 0 0 0 0 0 0 0 0 0 0 0 0 0 0 127 0"/>
<feOffset dy="4"/>
<feGaussianBlur stdDeviation="2"/>
<feColorMatrix type="matrix" values="0 0 0 0 0 0 0 0 0 0 0 0 0 0 0 0 0 0 0.25 0"/>
<feBlend mode="normal" in2="BackgroundImageFix" result="effect1_dropShadow"/>
<feBlend mode="normal" in="SourceGraphic" in2="effect1_dropShadow" result="shape"/>
</filter>
<filter id="filter2_d" x="1312" y="1037" width="736" height="456" filterUnits="userSpaceOnUse" color-interpolation-filters="sRGB">
<feFlood flood-opacity="0" result="BackgroundImageFix"/>
<feColorMatrix in="SourceAlpha" type="matrix" values="0 0 0 0 0 0 0 0 0 0 0 0 0 0 0 0 0 0 127 0"/>
<feOffset dy="4"/>
<feGaussianBlur stdDeviation="2"/>
<feColorMatrix type="matrix" values="0 0 0 0 0 0 0 0 0 0 0 0 0 0 0 0 0 0 0.25 0"/>
<feBlend mode="normal" in2="BackgroundImageFix" result="effect1_dropShadow"/>
<feBlend mode="normal" in="SourceGraphic" in2="effect1_dropShadow" result="shape"/>
</filter>
<filter id="filter3_d" x="1508.47" y="1124.59" width="471.153" height="947.121" filterUnits="userSpaceOnUse" color-interpolation-filters="sRGB">
<feFlood flood-opacity="0" result="BackgroundImageFix"/>
<feColorMatrix in="SourceAlpha" type="matrix" values="0 0 0 0 0 0 0 0 0 0 0 0 0 0 0 0 0 0 127 0"/>
<feOffset dy="4"/>
<feGaussianBlur stdDeviation="2"/>
<feColorMatrix type="matrix" values="0 0 0 0 0 0 0 0 0 0 0 0 0 0 0 0 0 0 0.25 0"/>
<feBlend mode="normal" in2="BackgroundImageFix" result="effect1_dropShadow"/>
<feBlend mode="normal" in="SourceGraphic" in2="effect1_dropShadow" result="shape"/>
</filter>
<filter id="filter4_d" x="1304.86" y="1220.13" width="454.109" height="554.729" filterUnits="userSpaceOnUse" color-interpolation-filters="sRGB">
<feFlood flood-opacity="0" result="BackgroundImageFix"/>
<feColorMatrix in="SourceAlpha" type="matrix" values="0 0 0 0 0 0 0 0 0 0 0 0 0 0 0 0 0 0 127 0"/>
<feOffset dy="4"/>
<feGaussianBlur stdDeviation="2"/>
<feColorMatrix type="matrix" values="0 0 0 0 0 0 0 0 0 0 0 0 0 0 0 0 0 0 0.25 0"/>
<feBlend mode="normal" in2="BackgroundImageFix" result="effect1_dropShadow"/>
<feBlend mode="normal" in="SourceGraphic" in2="effect1_dropShadow" result="shape"/>
</filter>
<filter id="filter5_d" x="810" y="169" width="48" height="1475" filterUnits="userSpaceOnUse" color-interpolation-filters="sRGB">
<feFlood flood-opacity="0" result="BackgroundImageFix"/>
<feColorMatrix in="SourceAlpha" type="matrix" values="0 0 0 0 0 0 0 0 0 0 0 0 0 0 0 0 0 0 127 0"/>
<feOffset dy="4"/>
<feGaussianBlur stdDeviation="2"/>
<feColorMatrix type="matrix" values="0 0 0 0 0 0 0 0 0 0 0 0 0 0 0 0 0 0 0.25 0"/>
<feBlend mode="normal" in2="BackgroundImageFix" result="effect1_dropShadow"/>
<feBlend mode="normal" in="SourceGraphic" in2="effect1_dropShadow" result="shape"/>
</filter>
<filter id="filter6_d" x="840" y="574" width="68" height="68" filterUnits="userSpaceOnUse" color-interpolation-filters="sRGB">
<feFlood flood-opacity="0" result="BackgroundImageFix"/>
<feColorMatrix in="SourceAlpha" type="matrix" values="0 0 0 0 0 0 0 0 0 0 0 0 0 0 0 0 0 0 127 0"/>
<feOffset dy="4"/>
<feGaussianBlur stdDeviation="2"/>
<feColorMatrix type="matrix" values="0 0 0 0 0 0 0 0 0 0 0 0 0 0 0 0 0 0 0.25 0"/>
<feBlend mode="normal" in2="BackgroundImageFix" result="effect1_dropShadow"/>
<feBlend mode="normal" in="SourceGraphic" in2="effect1_dropShadow" result="shape"/>
</filter>
<filter id="filter7_d" x="840" y="902" width="68" height="68" filterUnits="userSpaceOnUse" color-interpolation-filters="sRGB">
<feFlood flood-opacity="0" result="BackgroundImageFix"/>
<feColorMatrix in="SourceAlpha" type="matrix" values="0 0 0 0 0 0 0 0 0 0 0 0 0 0 0 0 0 0 127 0"/>
<feOffset dy="4"/>
<feGaussianBlur stdDeviation="2"/>
<feColorMatrix type="matrix" values="0 0 0 0 0 0 0 0 0 0 0 0 0 0 0 0 0 0 0.25 0"/>
<feBlend mode="normal" in2="BackgroundImageFix" result="effect1_dropShadow"/>
<feBlend mode="normal" in="SourceGraphic" in2="effect1_dropShadow" result="shape"/>
</filter>
<filter id="filter8_d" x="840" y="1250" width="68" height="68" filterUnits="userSpaceOnUse" color-interpolation-filters="sRGB">
<feFlood flood-opacity="0" result="BackgroundImageFix"/>
<feColorMatrix in="SourceAlpha" type="matrix" values="0 0 0 0 0 0 0 0 0 0 0 0 0 0 0 0 0 0 127 0"/>
<feOffset dy="4"/>
<feGaussianBlur stdDeviation="2"/>
<feColorMatrix type="matrix" values="0 0 0 0 0 0 0 0 0 0 0 0 0 0 0 0 0 0 0.25 0"/>
<feBlend mode="normal" in2="BackgroundImageFix" result="effect1_dropShadow"/>
<feBlend mode="normal" in="SourceGraphic" in2="effect1_dropShadow" result="shape"/>
</filter>
<filter id="filter9_d" x="760" y="739" width="68" height="68" filterUnits="userSpaceOnUse" color-interpolation-filters="sRGB">
<feFlood flood-opacity="0" result="BackgroundImageFix"/>
<feColorMatrix in="SourceAlpha" type="matrix" values="0 0 0 0 0 0 0 0 0 0 0 0 0 0 0 0 0 0 127 0"/>
<feOffset dy="4"/>
<feGaussianBlur stdDeviation="2"/>
<feColorMatrix type="matrix" values="0 0 0 0 0 0 0 0 0 0 0 0 0 0 0 0 0 0 0.25 0"/>
<feBlend mode="normal" in2="BackgroundImageFix" result="effect1_dropShadow"/>
<feBlend mode="normal" in="SourceGraphic" in2="effect1_dropShadow" result="shape"/>
</filter>
<filter id="filter10_d" x="760" y="1087" width="68" height="68" filterUnits="userSpaceOnUse" color-interpolation-filters="sRGB">
<feFlood flood-opacity="0" result="BackgroundImageFix"/>
<feColorMatrix in="SourceAlpha" type="matrix" values="0 0 0 0 0 0 0 0 0 0 0 0 0 0 0 0 0 0 127 0"/>
<feOffset dy="4"/>
<feGaussianBlur stdDeviation="2"/>
<feColorMatrix type="matrix" values="0 0 0 0 0 0 0 0 0 0 0 0 0 0 0 0 0 0 0.25 0"/>
<feBlend mode="normal" in2="BackgroundImageFix" result="effect1_dropShadow"/>
<feBlend mode="normal" in="SourceGraphic" in2="effect1_dropShadow" result="shape"/>
</filter>
<filter id="filter11_d" x="840" y="219" width="68" height="68" filterUnits="userSpaceOnUse" color-interpolation-filters="sRGB">
<feFlood flood-opacity="0" result="BackgroundImageFix"/>
<feColorMatrix in="SourceAlpha" type="matrix" values="0 0 0 0 0 0 0 0 0 0 0 0 0 0 0 0 0 0 127 0"/>
<feOffset dy="4"/>
<feGaussianBlur stdDeviation="2"/>
<feColorMatrix type="matrix" values="0 0 0 0 0 0 0 0 0 0 0 0 0 0 0 0 0 0 0.25 0"/>
<feBlend mode="normal" in2="BackgroundImageFix" result="effect1_dropShadow"/>
<feBlend mode="normal" in="SourceGraphic" in2="effect1_dropShadow" result="shape"/>
</filter>
<filter id="filter12_d" x="760" y="381" width="68" height="68" filterUnits="userSpaceOnUse" color-interpolation-filters="sRGB">
<feFlood flood-opacity="0" result="BackgroundImageFix"/>
<feColorMatrix in="SourceAlpha" type="matrix" values="0 0 0 0 0 0 0 0 0 0 0 0 0 0 0 0 0 0 127 0"/>
<feOffset dy="4"/>
<feGaussianBlur stdDeviation="2"/>
<feColorMatrix type="matrix" values="0 0 0 0 0 0 0 0 0 0 0 0 0 0 0 0 0 0 0.25 0"/>
<feBlend mode="normal" in2="BackgroundImageFix" result="effect1_dropShadow"/>
<feBlend mode="normal" in="SourceGraphic" in2="effect1_dropShadow" result="shape"/>
</filter>
</defs>
</svg>
