<svg width="418" height="209" viewBox="0 0 418 209" fill="none" xmlns="http://www.w3.org/2000/svg">
<path d="M19.85 16.85C18.35 16.5 16.95 16.45 15.55 16.35C13.5 16.25 11.75 16.15 10.45 15.25C9.05 14.3 7.95 12.45 8.45 10.7C9 8.6 11.1 6.95 13.45 6.6C16.5 6.15 19.75 7 22 8.8C23.3 9.8 25.2 9.55 26.2 8.3C27.2 7 26.95 5.1 25.7 4.1C22.15 1.35 17.25 0.0499969 12.65 0.699997C7.9 1.4 3.9 4.75 2.7 9.1C1.6 13.1 3.4 17.65 7.05 20.15C9.75 22 12.65 22.15 15.25 22.3C16.4 22.35 17.55 22.4 18.55 22.65C21 23.2 22.75 25.3 22.6 27.55C22.45 30.1 19.75 31.6 17.3 31.95C13.6 32.5 9.65 31.1 7.45 28.55C6.4 27.3 4.55 27.15 3.3 28.2C2.05 29.3 1.9 31.15 2.95 32.4C5.95 35.95 10.8 38 15.7 38C16.5 38 17.35 37.95 18.15 37.85C22.9 37.15 28.2 33.75 28.55 27.9C28.85 22.8 25.1 18 19.85 16.85ZM45.3605 37.85C42.0605 37.85 39.0105 36.6 36.6605 34.35C34.2605 32 32.9105 28.9 32.8105 25.55C32.7605 22.25 33.9605 19.05 36.3605 16.65C38.6605 14.25 41.7605 12.9 45.1105 12.8C48.4605 12.75 51.6105 14 54.0105 16.35C55.2105 17.45 55.2605 19.4 54.1105 20.55C52.9605 21.75 51.0605 21.8 49.8605 20.65C48.6105 19.45 46.9605 18.8 45.2105 18.8C43.4605 18.8 41.8605 19.55 40.6105 20.8C39.4605 22.05 38.7605 23.7 38.8105 25.45C38.8105 27.15 39.5605 28.85 40.8105 30C42.0605 31.25 43.7105 31.9 45.4105 31.85C47.0605 31.85 48.6105 31.2 49.8105 30.1C50.9605 28.95 52.9105 29.05 54.0105 30.25C55.1605 31.45 55.0605 33.35 53.8605 34.5C51.6105 36.6 48.6605 37.8 45.5605 37.85H45.3605ZM80.1383 13C78.4883 13 77.4883 14.3 77.4883 15.85V16.1C75.3383 14.35 72.8383 13.2 69.8383 13.2C63.1383 13.2 57.7383 18.65 57.7383 25.3C57.7383 31.95 63.1383 37.35 69.8383 37.35C72.8383 37.35 75.3383 36.25 77.4883 34.4V35C77.4883 36.55 78.4883 37.85 80.1383 37.85C81.7883 37.85 83.0383 36.55 83.0383 35V15.85C83.0383 14.3 81.7883 13 80.1383 13ZM69.8383 31.5C66.3883 31.5 63.5383 28.75 63.5383 25.3C63.5383 21.85 66.3883 19.05 69.8383 19.05C73.2383 19.05 76.0883 21.85 76.0883 25.3C76.0883 28.75 73.2383 31.5 69.8383 31.5ZM121.242 22.55C121.242 17.35 116.792 13.1 111.442 13.1C108.692 13.1 106.292 14.1 104.542 15.8C102.692 14.1 100.292 13.1 97.6422 13.1C95.9922 13.1 94.4422 13.5 93.0422 14.2C92.5922 13.5 91.6922 13 90.7422 13C89.1422 13 87.7422 14.4 87.7422 16.05V35.15C87.7422 36.75 89.1422 38.1 90.7422 38.1C92.4422 38.1 93.7422 36.75 93.7422 35.15V22.55C93.7422 20.6 95.4922 19.1 97.6422 19.1C99.7922 19.1 101.542 20.6 101.542 22.55C101.542 22.6 101.542 22.65 101.542 22.7V22.9V35C101.542 36.7 102.842 38 104.542 38C106.142 38 107.492 36.7 107.492 35V22.9C107.492 22.85 107.492 22.8 107.492 22.7V22.55C107.492 20.6 109.242 19.1 111.442 19.1C113.492 19.1 115.242 20.6 115.242 22.55C115.242 22.6 115.242 22.65 115.242 22.7V22.9V35C115.242 36.7 116.642 38 118.292 38C119.942 38 121.242 36.7 121.242 35V22.9C121.242 22.85 121.242 22.8 121.242 22.7V22.55ZM143.336 16.85C141.836 16.5 140.436 16.45 139.036 16.35C136.986 16.25 135.236 16.15 133.936 15.25C132.536 14.3 131.436 12.45 131.936 10.7C132.486 8.6 134.586 6.95 136.936 6.6C139.986 6.15 143.236 7 145.486 8.8C146.786 9.8 148.686 9.55 149.686 8.3C150.686 7 150.436 5.1 149.186 4.1C145.636 1.35 140.736 0.0499969 136.136 0.699997C131.386 1.4 127.386 4.75 126.186 9.1C125.086 13.1 126.886 17.65 130.536 20.15C133.236 22 136.136 22.15 138.736 22.3C139.886 22.35 141.036 22.4 142.036 22.65C144.486 23.2 146.236 25.3 146.086 27.55C145.936 30.1 143.236 31.6 140.786 31.95C137.086 32.5 133.136 31.1 130.936 28.55C129.886 27.3 128.036 27.15 126.786 28.2C125.536 29.3 125.386 31.15 126.436 32.4C129.436 35.95 134.286 38 139.186 38C139.986 38 140.836 37.95 141.636 37.85C146.386 37.15 151.686 33.75 152.036 27.9C152.336 22.8 148.586 18 143.336 16.85ZM168.847 37.85C165.547 37.85 162.497 36.6 160.147 34.35C157.747 32 156.397 28.9 156.297 25.55C156.247 22.25 157.447 19.05 159.847 16.65C162.147 14.25 165.247 12.9 168.597 12.8C171.947 12.75 175.097 14 177.497 16.35C178.697 17.45 178.747 19.4 177.597 20.55C176.447 21.75 174.547 21.8 173.347 20.65C172.097 19.45 170.447 18.8 168.697 18.8C166.947 18.8 165.347 19.55 164.097 20.8C162.947 22.05 162.247 23.7 162.297 25.45C162.297 27.15 163.047 28.85 164.297 30C165.547 31.25 167.197 31.9 168.897 31.85C170.547 31.85 172.097 31.2 173.297 30.1C174.447 28.95 176.397 29.05 177.497 30.25C178.647 31.45 178.547 33.35 177.347 34.5C175.097 36.6 172.147 37.8 169.047 37.85H168.847ZM203.625 13C201.975 13 200.975 14.3 200.975 15.85V16.1C198.825 14.35 196.325 13.2 193.325 13.2C186.625 13.2 181.225 18.65 181.225 25.3C181.225 31.95 186.625 37.35 193.325 37.35C196.325 37.35 198.825 36.25 200.975 34.4V35C200.975 36.55 201.975 37.85 203.625 37.85C205.275 37.85 206.525 36.55 206.525 35V15.85C206.525 14.3 205.275 13 203.625 13ZM193.325 31.5C189.875 31.5 187.025 28.75 187.025 25.3C187.025 21.85 189.875 19.05 193.325 19.05C196.725 19.05 199.575 21.85 199.575 25.3C199.575 28.75 196.725 31.5 193.325 31.5ZM223.129 13.05C220.879 13.05 218.829 13.7 217.029 14.85C216.629 13.65 215.529 12.8 214.229 12.8C212.579 12.8 211.229 14.15 211.229 15.8V34.9C211.229 36.55 212.579 37.9 214.229 37.9C215.879 37.9 217.229 36.55 217.229 34.9V26.4C217.229 22.95 219.229 19.05 223.129 19.05C226.279 19.05 228.879 21.9 228.879 25.45V34.9C228.879 36.55 230.179 37.9 231.879 37.9C233.529 37.9 234.829 36.55 234.829 34.9V25.45C234.829 18.6 229.579 13.05 223.129 13.05ZM22.98 85.51L13.53 66.58C13.2 65.98 12.6 65.59 11.91 65.59H11.88C11.19 65.62 10.59 66.01 10.29 66.64L1.53 85.57C1.11 86.47 1.5 87.52 2.4 87.94C2.64 88.06 2.88 88.12 3.15 88.12C3.81 88.12 4.47 87.73 4.77 87.07L6.93 82.42C6.99 82.45 7.05 82.45 7.14 82.45H17.4H17.43L19.77 87.13C20.22 88 21.3 88.36 22.17 87.91C23.07 87.49 23.43 86.41 22.98 85.51ZM8.58 78.85L11.97 71.53L15.63 78.85H8.58ZM46.5274 65.23C45.5374 65.23 44.7274 66.07 44.7274 67.06V74.08C43.4974 73.3 42.0574 72.82 40.4974 72.82C36.3274 72.82 32.9074 76.24 32.9074 80.41C32.9074 84.61 36.3274 88 40.4974 88C42.0874 88 43.5874 87.52 44.7874 86.68C45.0274 87.43 45.7174 87.94 46.5274 87.94C47.5474 87.94 48.3574 87.13 48.3574 86.14V67.06C48.3574 66.07 47.5474 65.23 46.5274 65.23ZM40.4974 84.37C38.3074 84.37 36.5374 82.6 36.5374 80.41C36.5374 78.22 38.3074 76.45 40.4974 76.45C42.6874 76.45 44.4574 78.22 44.4574 80.41C44.4574 82.6 42.6874 84.37 40.4974 84.37ZM64.2445 80.41C64.3645 80.11 64.4845 79.81 64.4845 79.54C64.5445 78.55 64.0045 77.44 63.5245 76.6C62.4445 74.8 60.7045 73.54 58.6645 73.15C58.2145 73.06 57.7945 73.03 57.3445 73.03C53.1745 73.03 49.8445 76.45 49.8445 80.56C49.8445 84.73 53.1745 88.09 57.3445 88.09C59.0545 88.09 61.3645 87.55 63.0145 85.96C63.7345 85.27 63.7645 84.1 63.0445 83.41C62.3545 82.69 61.2145 82.69 60.4945 83.38C59.7145 84.13 58.3045 84.52 57.3445 84.52C55.4845 84.52 53.9545 83.2 53.5345 81.49H62.7745C63.4945 81.49 64.0045 80.98 64.2445 80.41ZM57.3445 76.66C58.6945 76.66 59.8045 77.32 60.4045 78.46H54.0445C54.7645 77.35 55.9645 76.66 57.3445 76.66ZM73.6519 87.91C71.6719 87.91 69.8419 87.16 68.4319 85.81C66.9919 84.4 66.1819 82.54 66.1219 80.53C66.0919 78.55 66.8119 76.63 68.2519 75.19C69.6319 73.75 71.4919 72.94 73.5019 72.88C75.5119 72.85 77.4019 73.6 78.8419 75.01C79.5619 75.67 79.5919 76.84 78.9019 77.53C78.2119 78.25 77.0719 78.28 76.3519 77.59C75.6019 76.87 74.6119 76.48 73.5619 76.48C72.5119 76.48 71.5519 76.93 70.8019 77.68C70.1119 78.43 69.6919 79.42 69.7219 80.47C69.7219 81.49 70.1719 82.51 70.9219 83.2C71.6719 83.95 72.6619 84.34 73.6819 84.31C74.6719 84.31 75.6019 83.92 76.3219 83.26C77.0119 82.57 78.1819 82.63 78.8419 83.35C79.5319 84.07 79.4719 85.21 78.7519 85.9C77.4019 87.16 75.6319 87.88 73.7719 87.91H73.6519ZM95.3285 80.41C95.4485 80.11 95.5685 79.81 95.5685 79.54C95.6285 78.55 95.0885 77.44 94.6085 76.6C93.5285 74.8 91.7885 73.54 89.7485 73.15C89.2985 73.06 88.8785 73.03 88.4285 73.03C84.2585 73.03 80.9285 76.45 80.9285 80.56C80.9285 84.73 84.2585 88.09 88.4285 88.09C90.1385 88.09 92.4485 87.55 94.0985 85.96C94.8185 85.27 94.8485 84.1 94.1285 83.41C93.4385 82.69 92.2985 82.69 91.5785 83.38C90.7985 84.13 89.3885 84.52 88.4285 84.52C86.5685 84.52 85.0385 83.2 84.6185 81.49H93.8585C94.5785 81.49 95.0885 80.98 95.3285 80.41ZM88.4285 76.66C89.7785 76.66 90.8885 77.32 91.4885 78.46H85.1285C85.8485 77.35 87.0485 76.66 88.4285 76.66ZM104.346 73.03C102.996 73.03 101.766 73.42 100.686 74.11C100.446 73.39 99.7859 72.88 99.0059 72.88C98.0159 72.88 97.2059 73.69 97.2059 74.68V86.14C97.2059 87.13 98.0159 87.94 99.0059 87.94C99.9959 87.94 100.806 87.13 100.806 86.14V81.04C100.806 78.97 102.006 76.63 104.346 76.63C106.236 76.63 107.796 78.34 107.796 80.47V86.14C107.796 87.13 108.576 87.94 109.596 87.94C110.586 87.94 111.366 87.13 111.366 86.14V80.47C111.366 76.36 108.216 73.03 104.346 73.03ZM119.822 84.31C119.612 84.31 119.342 84.34 119.192 84.19C118.982 84.01 119.042 83.65 118.982 83.41V76.27H119.972C120.962 76.27 121.772 75.46 121.772 74.47C121.772 73.48 120.962 72.67 119.972 72.67H118.982V66.94C118.982 65.95 118.172 65.14 117.182 65.14C116.192 65.14 115.382 65.95 115.382 66.94V72.67H114.092C113.102 72.67 112.292 73.48 112.292 74.47C112.292 75.46 113.102 76.27 114.092 76.27H115.382V83.83C115.382 84.76 115.802 85.84 116.402 86.53C117.092 87.31 118.052 87.73 119.042 87.88C119.312 87.91 119.552 87.91 119.822 87.91C120.812 87.91 121.622 87.13 121.622 86.11C121.622 85.12 120.812 84.31 119.822 84.31ZM135.99 75.04C134.64 73.78 132.9 73.06 131.04 73.06C129.66 73.06 128.34 73.48 127.23 74.17C126.99 73.45 126.33 72.94 125.52 72.94C124.53 72.94 123.72 73.72 123.72 74.71V86.2C123.72 87.19 124.53 88 125.52 88C126.51 88 127.32 87.19 127.32 86.2V80.53C127.32 78.4 129 76.66 131.04 76.66C131.97 76.66 132.87 77.02 133.53 77.65C134.28 78.34 135.39 78.28 136.08 77.56C136.77 76.84 136.71 75.7 135.99 75.04ZM150.593 73C149.603 73 149.003 73.78 149.003 74.71V74.86C147.713 73.81 146.213 73.12 144.413 73.12C140.393 73.12 137.153 76.39 137.153 80.38C137.153 84.37 140.393 87.61 144.413 87.61C146.213 87.61 147.713 86.95 149.003 85.84V86.2C149.003 87.13 149.603 87.91 150.593 87.91C151.583 87.91 152.333 87.13 152.333 86.2V74.71C152.333 73.78 151.583 73 150.593 73ZM144.413 84.1C142.343 84.1 140.633 82.45 140.633 80.38C140.633 78.31 142.343 76.63 144.413 76.63C146.453 76.63 148.163 78.31 148.163 80.38C148.163 82.45 146.453 84.1 144.413 84.1ZM159.715 84.37C159.445 84.37 159.235 84.13 159.235 83.86C159.235 83.77 159.205 83.68 159.205 83.59C159.205 83.5 159.235 83.41 159.235 83.32V67.03C159.235 66.04 158.425 65.23 157.405 65.23C156.415 65.23 155.605 66.04 155.605 67.03C155.605 69.19 155.605 71.35 155.605 73.51V82.48C155.605 83.89 155.545 85.21 156.445 86.38C157.225 87.37 158.455 88 159.715 88C160.735 88 161.545 87.19 161.545 86.17C161.545 85.18 160.735 84.37 159.715 84.37ZM165.695 70.39C164.645 70.39 163.805 69.55 163.805 68.56V68.41C163.805 67.36 164.645 66.55 165.695 66.55C166.685 66.55 167.525 67.36 167.525 68.41V68.56C167.525 69.55 166.685 70.39 165.695 70.39ZM165.695 88C164.645 88 163.805 87.16 163.805 86.14V74.56C163.805 73.54 164.645 72.73 165.695 72.73C166.685 72.73 167.525 73.54 167.525 74.56V86.14C167.525 87.16 166.685 88 165.695 88ZM183.054 88.06H172.014C171.294 88.06 170.634 87.64 170.364 86.98C170.064 86.32 170.214 85.57 170.724 85.03L178.854 76.6H172.014C171.024 76.6 170.214 75.79 170.214 74.8C170.214 73.81 171.024 73 172.014 73H183.054C183.774 73 184.434 73.45 184.704 74.11C185.004 74.77 184.854 75.52 184.344 76.03L176.214 84.49H183.054C184.044 84.49 184.854 85.3 184.854 86.29C184.854 87.28 184.044 88.06 183.054 88.06ZM200.592 80.41C200.712 80.11 200.832 79.81 200.832 79.54C200.892 78.55 200.352 77.44 199.872 76.6C198.792 74.8 197.052 73.54 195.012 73.15C194.562 73.06 194.142 73.03 193.692 73.03C189.522 73.03 186.192 76.45 186.192 80.56C186.192 84.73 189.522 88.09 193.692 88.09C195.402 88.09 197.712 87.55 199.362 85.96C200.082 85.27 200.112 84.1 199.392 83.41C198.702 82.69 197.562 82.69 196.842 83.38C196.062 84.13 194.652 84.52 193.692 84.52C191.832 84.52 190.302 83.2 189.882 81.49H199.122C199.842 81.49 200.352 80.98 200.592 80.41ZM193.692 76.66C195.042 76.66 196.152 77.32 196.752 78.46H190.392C191.112 77.35 192.312 76.66 193.692 76.66ZM215.19 65.23C214.2 65.23 213.39 66.07 213.39 67.06V74.08C212.16 73.3 210.72 72.82 209.16 72.82C204.99 72.82 201.57 76.24 201.57 80.41C201.57 84.61 204.99 88 209.16 88C210.75 88 212.25 87.52 213.45 86.68C213.69 87.43 214.38 87.94 215.19 87.94C216.21 87.94 217.02 87.13 217.02 86.14V67.06C217.02 66.07 216.21 65.23 215.19 65.23ZM209.16 84.37C206.97 84.37 205.2 82.6 205.2 80.41C205.2 78.22 206.97 76.45 209.16 76.45C211.35 76.45 213.12 78.22 213.12 80.41C213.12 82.6 211.35 84.37 209.16 84.37ZM240.358 73C239.368 73 238.768 73.78 238.768 74.71V74.86C237.478 73.81 235.978 73.12 234.178 73.12C230.158 73.12 226.918 76.39 226.918 80.38C226.918 84.37 230.158 87.61 234.178 87.61C235.978 87.61 237.478 86.95 238.768 85.84V86.2C238.768 87.13 239.368 87.91 240.358 87.91C241.348 87.91 242.098 87.13 242.098 86.2V74.71C242.098 73.78 241.348 73 240.358 73ZM234.178 84.1C232.108 84.1 230.398 82.45 230.398 80.38C230.398 78.31 232.108 76.63 234.178 76.63C236.218 76.63 237.928 78.31 237.928 80.38C237.928 82.45 236.218 84.1 234.178 84.1ZM252.031 88.09C248.131 88.09 244.921 84.7 244.921 80.56V74.83C244.921 73.84 245.671 73.03 246.601 73.03C247.561 73.03 248.491 73.84 248.491 74.83V80.56C248.491 82.72 250.291 84.46 252.031 84.46C254.071 84.46 255.601 82.72 255.601 80.56V75.07C255.601 74.05 256.651 73.27 257.461 73.27C258.391 73.27 259.171 74.05 259.171 75.07V80.56C259.171 84.7 255.961 88.09 252.031 88.09ZM274.281 65.23C273.291 65.23 272.481 66.07 272.481 67.06V74.08C271.251 73.3 269.811 72.82 268.251 72.82C264.081 72.82 260.661 76.24 260.661 80.41C260.661 84.61 264.081 88 268.251 88C269.841 88 271.341 87.52 272.541 86.68C272.781 87.43 273.471 87.94 274.281 87.94C275.301 87.94 276.111 87.13 276.111 86.14V67.06C276.111 66.07 275.301 65.23 274.281 65.23ZM268.251 84.37C266.061 84.37 264.291 82.6 264.291 80.41C264.291 78.22 266.061 76.45 268.251 76.45C270.441 76.45 272.211 78.22 272.211 80.41C272.211 82.6 270.441 84.37 268.251 84.37ZM280.538 70.39C279.488 70.39 278.648 69.55 278.648 68.56V68.41C278.648 67.36 279.488 66.55 280.538 66.55C281.528 66.55 282.368 67.36 282.368 68.41V68.56C282.368 69.55 281.528 70.39 280.538 70.39ZM280.538 88C279.488 88 278.648 87.16 278.648 86.14V74.56C278.648 73.54 279.488 72.73 280.538 72.73C281.528 72.73 282.368 73.54 282.368 74.56V86.14C282.368 87.16 281.528 88 280.538 88ZM291.267 84.31C291.057 84.31 290.787 84.34 290.637 84.19C290.427 84.01 290.487 83.65 290.427 83.41V76.27H291.417C292.407 76.27 293.217 75.46 293.217 74.47C293.217 73.48 292.407 72.67 291.417 72.67H290.427V66.94C290.427 65.95 289.617 65.14 288.627 65.14C287.637 65.14 286.827 65.95 286.827 66.94V72.67H285.537C284.547 72.67 283.737 73.48 283.737 74.47C283.737 75.46 284.547 76.27 285.537 76.27H286.827V83.83C286.827 84.76 287.247 85.84 287.847 86.53C288.537 87.31 289.497 87.73 290.487 87.88C290.757 87.91 290.997 87.91 291.267 87.91C292.257 87.91 293.067 87.13 293.067 86.11C293.067 85.12 292.257 84.31 291.267 84.31ZM311.437 72.94C309.847 72.94 308.347 73.42 307.147 74.26C306.907 73.54 306.217 73 305.407 73C304.387 73 303.577 73.81 303.577 74.8V93.88C303.577 94.9 304.387 95.71 305.407 95.71C306.397 95.71 307.207 94.9 307.207 93.88V86.86C308.437 87.64 309.877 88.12 311.437 88.12C315.607 88.12 319.027 84.73 319.027 80.53C319.027 76.33 315.607 72.94 311.437 72.94ZM311.437 84.49C309.247 84.49 307.477 82.72 307.477 80.53C307.477 78.34 309.247 76.57 311.437 76.57C313.597 76.57 315.397 78.34 315.397 80.53C315.397 82.72 313.597 84.49 311.437 84.49ZM333.245 75.04C331.895 73.78 330.155 73.06 328.295 73.06C326.915 73.06 325.595 73.48 324.485 74.17C324.245 73.45 323.585 72.94 322.775 72.94C321.785 72.94 320.975 73.72 320.975 74.71V86.2C320.975 87.19 321.785 88 322.775 88C323.765 88 324.575 87.19 324.575 86.2V80.53C324.575 78.4 326.255 76.66 328.295 76.66C329.225 76.66 330.125 77.02 330.785 77.65C331.535 78.34 332.645 78.28 333.335 77.56C334.025 76.84 333.965 75.7 333.245 75.04ZM342.239 87.94C338.099 87.94 334.709 84.58 334.709 80.41C334.709 76.27 338.099 72.88 342.239 72.88C346.379 72.88 349.769 76.27 349.799 80.44C349.769 84.58 346.379 87.94 342.239 87.94ZM342.239 76.57C340.109 76.57 338.399 78.28 338.399 80.41C338.399 82.54 340.109 84.25 342.239 84.25C344.369 84.25 346.079 82.54 346.079 80.41C346.079 78.28 344.369 76.57 342.239 76.57ZM358.123 84.31C357.913 84.31 357.643 84.34 357.493 84.19C357.283 84.01 357.343 83.65 357.283 83.41V76.27H358.273C359.263 76.27 360.073 75.46 360.073 74.47C360.073 73.48 359.263 72.67 358.273 72.67H357.283V66.94C357.283 65.95 356.473 65.14 355.483 65.14C354.493 65.14 353.683 65.95 353.683 66.94V72.67H352.393C351.403 72.67 350.593 73.48 350.593 74.47C350.593 75.46 351.403 76.27 352.393 76.27H353.683V83.83C353.683 84.76 354.103 85.84 354.703 86.53C355.393 87.31 356.353 87.73 357.343 87.88C357.613 87.91 357.853 87.91 358.123 87.91C359.113 87.91 359.923 87.13 359.923 86.11C359.923 85.12 359.113 84.31 358.123 84.31ZM369.25 87.94C365.11 87.94 361.72 84.58 361.72 80.41C361.72 76.27 365.11 72.88 369.25 72.88C373.39 72.88 376.78 76.27 376.81 80.44C376.78 84.58 373.39 87.94 369.25 87.94ZM369.25 76.57C367.12 76.57 365.41 78.28 365.41 80.41C365.41 82.54 367.12 84.25 369.25 84.25C371.38 84.25 373.09 82.54 373.09 80.41C373.09 78.28 371.38 76.57 369.25 76.57ZM386.455 87.91C384.475 87.91 382.645 87.16 381.235 85.81C379.795 84.4 378.985 82.54 378.925 80.53C378.895 78.55 379.615 76.63 381.055 75.19C382.435 73.75 384.295 72.94 386.305 72.88C388.315 72.85 390.205 73.6 391.645 75.01C392.365 75.67 392.395 76.84 391.705 77.53C391.015 78.25 389.875 78.28 389.155 77.59C388.405 76.87 387.415 76.48 386.365 76.48C385.315 76.48 384.355 76.93 383.605 77.68C382.915 78.43 382.495 79.42 382.525 80.47C382.525 81.49 382.975 82.51 383.725 83.2C384.475 83.95 385.465 84.34 386.485 84.31C387.475 84.31 388.405 83.92 389.125 83.26C389.815 82.57 390.985 82.63 391.645 83.35C392.335 84.07 392.275 85.21 391.555 85.9C390.205 87.16 388.435 87.88 386.575 87.91H386.455ZM401.711 87.94C397.571 87.94 394.181 84.58 394.181 80.41C394.181 76.27 397.571 72.88 401.711 72.88C405.851 72.88 409.241 76.27 409.271 80.44C409.241 84.58 405.851 87.94 401.711 87.94ZM401.711 76.57C399.581 76.57 397.871 78.28 397.871 80.41C397.871 82.54 399.581 84.25 401.711 84.25C403.841 84.25 405.551 82.54 405.551 80.41C405.551 78.28 403.841 76.57 401.711 76.57ZM415.946 84.37C415.676 84.37 415.466 84.13 415.466 83.86C415.466 83.77 415.436 83.68 415.436 83.59C415.436 83.5 415.466 83.41 415.466 83.32V67.03C415.466 66.04 414.656 65.23 413.636 65.23C412.646 65.23 411.836 66.04 411.836 67.03C411.836 69.19 411.836 71.35 411.836 73.51V82.48C411.836 83.89 411.776 85.21 412.676 86.38C413.456 87.37 414.686 88 415.946 88C416.966 88 417.776 87.19 417.776 86.17C417.776 85.18 416.966 84.37 415.946 84.37Z" fill="#005141"/>
<path d="M12.1406 120.977H7.28906V136H5.32031V120.977H0.480469V119.195H12.1406V120.977ZM24.4922 136H22.5703V129.086C22.5703 126.586 21.6406 125.336 19.7812 125.336C18.8438 125.336 18.0547 125.699 17.4141 126.426C16.7734 127.145 16.4531 128.07 16.4531 129.203V136H14.5312V118.234H16.4531V125.992H16.5C17.4219 124.477 18.7344 123.719 20.4375 123.719C23.1406 123.719 24.4922 125.348 24.4922 128.605V136ZM37.7695 130.48H29.2969C29.3281 131.816 29.6875 132.848 30.375 133.574C31.0625 134.301 32.0078 134.664 33.2109 134.664C34.5625 134.664 35.8047 134.219 36.9375 133.328V135.133C35.8828 135.898 34.4883 136.281 32.7539 136.281C31.0586 136.281 29.7266 135.738 28.7578 134.652C27.7891 133.559 27.3047 132.023 27.3047 130.047C27.3047 128.18 27.832 126.66 28.8867 125.488C29.9492 124.309 31.2656 123.719 32.8359 123.719C34.4062 123.719 35.6211 124.227 36.4805 125.242C37.3398 126.258 37.7695 127.668 37.7695 129.473V130.48ZM35.8008 128.852C35.793 127.742 35.5234 126.879 34.9922 126.262C34.4688 125.645 33.7383 125.336 32.8008 125.336C31.8945 125.336 31.125 125.66 30.4922 126.309C29.8594 126.957 29.4688 127.805 29.3203 128.852H35.8008ZM49.2422 134.266H49.1953V136H47.2734V118.234H49.1953V126.109H49.2422C50.1875 124.516 51.5703 123.719 53.3906 123.719C54.9297 123.719 56.1328 124.258 57 125.336C57.875 126.406 58.3125 127.844 58.3125 129.648C58.3125 131.656 57.8242 133.266 56.8477 134.477C55.8711 135.68 54.5352 136.281 52.8398 136.281C51.2539 136.281 50.0547 135.609 49.2422 134.266ZM49.1953 129.426V131.102C49.1953 132.094 49.5156 132.938 50.1562 133.633C50.8047 134.32 51.625 134.664 52.6172 134.664C53.7812 134.664 54.6914 134.219 55.3477 133.328C56.0117 132.438 56.3438 131.199 56.3438 129.613C56.3438 128.277 56.0352 127.23 55.418 126.473C54.8008 125.715 53.9648 125.336 52.9102 125.336C51.793 125.336 50.8945 125.727 50.2148 126.508C49.5352 127.281 49.1953 128.254 49.1953 129.426ZM71.0273 130.48H62.5547C62.5859 131.816 62.9453 132.848 63.6328 133.574C64.3203 134.301 65.2656 134.664 66.4688 134.664C67.8203 134.664 69.0625 134.219 70.1953 133.328V135.133C69.1406 135.898 67.7461 136.281 66.0117 136.281C64.3164 136.281 62.9844 135.738 62.0156 134.652C61.0469 133.559 60.5625 132.023 60.5625 130.047C60.5625 128.18 61.0898 126.66 62.1445 125.488C63.207 124.309 64.5234 123.719 66.0938 123.719C67.6641 123.719 68.8789 124.227 69.7383 125.242C70.5977 126.258 71.0273 127.668 71.0273 129.473V130.48ZM69.0586 128.852C69.0508 127.742 68.7812 126.879 68.25 126.262C67.7266 125.645 66.9961 125.336 66.0586 125.336C65.1523 125.336 64.3828 125.66 63.75 126.309C63.1172 126.957 62.7266 127.805 62.5781 128.852H69.0586ZM73.2188 135.566V133.504C74.2656 134.277 75.418 134.664 76.6758 134.664C78.3633 134.664 79.207 134.102 79.207 132.977C79.207 132.656 79.1328 132.387 78.9844 132.168C78.8438 131.941 78.6484 131.742 78.3984 131.57C78.1562 131.398 77.8672 131.246 77.5312 131.113C77.2031 130.973 76.8477 130.828 76.4648 130.68C75.9336 130.469 75.4648 130.258 75.0586 130.047C74.6602 129.828 74.3242 129.586 74.0508 129.32C73.7852 129.047 73.582 128.738 73.4414 128.395C73.3086 128.051 73.2422 127.648 73.2422 127.188C73.2422 126.625 73.3711 126.129 73.6289 125.699C73.8867 125.262 74.2305 124.898 74.6602 124.609C75.0898 124.312 75.5781 124.09 76.125 123.941C76.6797 123.793 77.25 123.719 77.8359 123.719C78.875 123.719 79.8047 123.898 80.625 124.258V126.203C79.7422 125.625 78.7266 125.336 77.5781 125.336C77.2188 125.336 76.8945 125.379 76.6055 125.465C76.3164 125.543 76.0664 125.656 75.8555 125.805C75.6523 125.953 75.4922 126.133 75.375 126.344C75.2656 126.547 75.2109 126.773 75.2109 127.023C75.2109 127.336 75.2656 127.598 75.375 127.809C75.4922 128.02 75.6602 128.207 75.8789 128.371C76.0977 128.535 76.3633 128.684 76.6758 128.816C76.9883 128.949 77.3438 129.094 77.7422 129.25C78.2734 129.453 78.75 129.664 79.1719 129.883C79.5938 130.094 79.9531 130.336 80.25 130.609C80.5469 130.875 80.7734 131.184 80.9297 131.535C81.0938 131.887 81.1758 132.305 81.1758 132.789C81.1758 133.383 81.043 133.898 80.7773 134.336C80.5195 134.773 80.1719 135.137 79.7344 135.426C79.2969 135.715 78.793 135.93 78.2227 136.07C77.6523 136.211 77.0547 136.281 76.4297 136.281C75.1953 136.281 74.125 136.043 73.2188 135.566ZM89.707 135.883C89.2539 136.133 88.6562 136.258 87.9141 136.258C85.8125 136.258 84.7617 135.086 84.7617 132.742V125.641H82.6992V124H84.7617V121.07L86.6836 120.449V124H89.707V125.641H86.6836V132.402C86.6836 133.207 86.8203 133.781 87.0938 134.125C87.3672 134.469 87.8203 134.641 88.4531 134.641C88.9375 134.641 89.3555 134.508 89.707 134.242V135.883ZM105.117 125.945C104.781 125.688 104.297 125.559 103.664 125.559C102.844 125.559 102.156 125.945 101.602 126.719C101.055 127.492 100.781 128.547 100.781 129.883V136H98.8594V124H100.781V126.473H100.828C101.102 125.629 101.52 124.973 102.082 124.504C102.645 124.027 103.273 123.789 103.969 123.789C104.469 123.789 104.852 123.844 105.117 123.953V125.945ZM116.52 130.48H108.047C108.078 131.816 108.438 132.848 109.125 133.574C109.812 134.301 110.758 134.664 111.961 134.664C113.312 134.664 114.555 134.219 115.688 133.328V135.133C114.633 135.898 113.238 136.281 111.504 136.281C109.809 136.281 108.477 135.738 107.508 134.652C106.539 133.559 106.055 132.023 106.055 130.047C106.055 128.18 106.582 126.66 107.637 125.488C108.699 124.309 110.016 123.719 111.586 123.719C113.156 123.719 114.371 124.227 115.23 125.242C116.09 126.258 116.52 127.668 116.52 129.473V130.48ZM114.551 128.852C114.543 127.742 114.273 126.879 113.742 126.262C113.219 125.645 112.488 125.336 111.551 125.336C110.645 125.336 109.875 125.66 109.242 126.309C108.609 126.957 108.219 127.805 108.07 128.852H114.551ZM118.711 135.566V133.504C119.758 134.277 120.91 134.664 122.168 134.664C123.855 134.664 124.699 134.102 124.699 132.977C124.699 132.656 124.625 132.387 124.477 132.168C124.336 131.941 124.141 131.742 123.891 131.57C123.648 131.398 123.359 131.246 123.023 131.113C122.695 130.973 122.34 130.828 121.957 130.68C121.426 130.469 120.957 130.258 120.551 130.047C120.152 129.828 119.816 129.586 119.543 129.32C119.277 129.047 119.074 128.738 118.934 128.395C118.801 128.051 118.734 127.648 118.734 127.188C118.734 126.625 118.863 126.129 119.121 125.699C119.379 125.262 119.723 124.898 120.152 124.609C120.582 124.312 121.07 124.09 121.617 123.941C122.172 123.793 122.742 123.719 123.328 123.719C124.367 123.719 125.297 123.898 126.117 124.258V126.203C125.234 125.625 124.219 125.336 123.07 125.336C122.711 125.336 122.387 125.379 122.098 125.465C121.809 125.543 121.559 125.656 121.348 125.805C121.145 125.953 120.984 126.133 120.867 126.344C120.758 126.547 120.703 126.773 120.703 127.023C120.703 127.336 120.758 127.598 120.867 127.809C120.984 128.02 121.152 128.207 121.371 128.371C121.59 128.535 121.855 128.684 122.168 128.816C122.48 128.949 122.836 129.094 123.234 129.25C123.766 129.453 124.242 129.664 124.664 129.883C125.086 130.094 125.445 130.336 125.742 130.609C126.039 130.875 126.266 131.184 126.422 131.535C126.586 131.887 126.668 132.305 126.668 132.789C126.668 133.383 126.535 133.898 126.27 134.336C126.012 134.773 125.664 135.137 125.227 135.426C124.789 135.715 124.285 135.93 123.715 136.07C123.145 136.211 122.547 136.281 121.922 136.281C120.688 136.281 119.617 136.043 118.711 135.566ZM139.336 136H137.414V134.102H137.367C136.57 135.555 135.336 136.281 133.664 136.281C130.805 136.281 129.375 134.578 129.375 131.172V124H131.285V130.867C131.285 133.398 132.254 134.664 134.191 134.664C135.129 134.664 135.898 134.32 136.5 133.633C137.109 132.938 137.414 132.031 137.414 130.914V124H139.336V136ZM145.148 136H143.227V118.234H145.148V136ZM154.605 135.883C154.152 136.133 153.555 136.258 152.812 136.258C150.711 136.258 149.66 135.086 149.66 132.742V125.641H147.598V124H149.66V121.07L151.582 120.449V124H154.605V125.641H151.582V132.402C151.582 133.207 151.719 133.781 151.992 134.125C152.266 134.469 152.719 134.641 153.352 134.641C153.836 134.641 154.254 134.508 154.605 134.242V135.883ZM156.445 135.566V133.504C157.492 134.277 158.645 134.664 159.902 134.664C161.59 134.664 162.434 134.102 162.434 132.977C162.434 132.656 162.359 132.387 162.211 132.168C162.07 131.941 161.875 131.742 161.625 131.57C161.383 131.398 161.094 131.246 160.758 131.113C160.43 130.973 160.074 130.828 159.691 130.68C159.16 130.469 158.691 130.258 158.285 130.047C157.887 129.828 157.551 129.586 157.277 129.32C157.012 129.047 156.809 128.738 156.668 128.395C156.535 128.051 156.469 127.648 156.469 127.188C156.469 126.625 156.598 126.129 156.855 125.699C157.113 125.262 157.457 124.898 157.887 124.609C158.316 124.312 158.805 124.09 159.352 123.941C159.906 123.793 160.477 123.719 161.062 123.719C162.102 123.719 163.031 123.898 163.852 124.258V126.203C162.969 125.625 161.953 125.336 160.805 125.336C160.445 125.336 160.121 125.379 159.832 125.465C159.543 125.543 159.293 125.656 159.082 125.805C158.879 125.953 158.719 126.133 158.602 126.344C158.492 126.547 158.438 126.773 158.438 127.023C158.438 127.336 158.492 127.598 158.602 127.809C158.719 128.02 158.887 128.207 159.105 128.371C159.324 128.535 159.59 128.684 159.902 128.816C160.215 128.949 160.57 129.094 160.969 129.25C161.5 129.453 161.977 129.664 162.398 129.883C162.82 130.094 163.18 130.336 163.477 130.609C163.773 130.875 164 131.184 164.156 131.535C164.32 131.887 164.402 132.305 164.402 132.789C164.402 133.383 164.27 133.898 164.004 134.336C163.746 134.773 163.398 135.137 162.961 135.426C162.523 135.715 162.02 135.93 161.449 136.07C160.879 136.211 160.281 136.281 159.656 136.281C158.422 136.281 157.352 136.043 156.445 135.566ZM178.969 136.281C177.195 136.281 175.777 135.723 174.715 134.605C173.66 133.48 173.133 131.992 173.133 130.141C173.133 128.125 173.684 126.551 174.785 125.418C175.887 124.285 177.375 123.719 179.25 123.719C181.039 123.719 182.434 124.27 183.434 125.371C184.441 126.473 184.945 128 184.945 129.953C184.945 131.867 184.402 133.402 183.316 134.559C182.238 135.707 180.789 136.281 178.969 136.281ZM179.109 125.336C177.875 125.336 176.898 125.758 176.18 126.602C175.461 127.438 175.102 128.594 175.102 130.07C175.102 131.492 175.465 132.613 176.191 133.434C176.918 134.254 177.891 134.664 179.109 134.664C180.352 134.664 181.305 134.262 181.969 133.457C182.641 132.652 182.977 131.508 182.977 130.023C182.977 128.523 182.641 127.367 181.969 126.555C181.305 125.742 180.352 125.336 179.109 125.336ZM193.5 119.922C193.125 119.711 192.699 119.605 192.223 119.605C190.879 119.605 190.207 120.453 190.207 122.148V124H193.02V125.641H190.207V136H188.297V125.641H186.246V124H188.297V122.055C188.297 120.797 188.66 119.805 189.387 119.078C190.113 118.344 191.02 117.977 192.105 117.977C192.691 117.977 193.156 118.047 193.5 118.188V119.922ZM210.27 136H208.348V134.125H208.301C207.465 135.562 206.234 136.281 204.609 136.281C203.414 136.281 202.477 135.965 201.797 135.332C201.125 134.699 200.789 133.859 200.789 132.812C200.789 130.57 202.109 129.266 204.75 128.898L208.348 128.395C208.348 126.355 207.523 125.336 205.875 125.336C204.43 125.336 203.125 125.828 201.961 126.812V124.844C203.141 124.094 204.5 123.719 206.039 123.719C208.859 123.719 210.27 125.211 210.27 128.195V136ZM208.348 129.93L205.453 130.328C204.562 130.453 203.891 130.676 203.438 130.996C202.984 131.309 202.758 131.867 202.758 132.672C202.758 133.258 202.965 133.738 203.379 134.113C203.801 134.48 204.359 134.664 205.055 134.664C206.008 134.664 206.793 134.332 207.41 133.668C208.035 132.996 208.348 132.148 208.348 131.125V129.93ZM223.852 136H221.93V129.156C221.93 126.609 221 125.336 219.141 125.336C218.18 125.336 217.383 125.699 216.75 126.426C216.125 127.145 215.812 128.055 215.812 129.156V136H213.891V124H215.812V125.992H215.859C216.766 124.477 218.078 123.719 219.797 123.719C221.109 123.719 222.113 124.145 222.809 124.996C223.504 125.84 223.852 127.062 223.852 128.664V136ZM242.66 136H240.738V134.125H240.691C239.855 135.562 238.625 136.281 237 136.281C235.805 136.281 234.867 135.965 234.188 135.332C233.516 134.699 233.18 133.859 233.18 132.812C233.18 130.57 234.5 129.266 237.141 128.898L240.738 128.395C240.738 126.355 239.914 125.336 238.266 125.336C236.82 125.336 235.516 125.828 234.352 126.812V124.844C235.531 124.094 236.891 123.719 238.43 123.719C241.25 123.719 242.66 125.211 242.66 128.195V136ZM240.738 129.93L237.844 130.328C236.953 130.453 236.281 130.676 235.828 130.996C235.375 131.309 235.148 131.867 235.148 132.672C235.148 133.258 235.355 133.738 235.77 134.113C236.191 134.48 236.75 134.664 237.445 134.664C238.398 134.664 239.184 134.332 239.801 133.668C240.426 132.996 240.738 132.148 240.738 131.125V129.93ZM255.984 136H254.062V134.102H254.016C253.219 135.555 251.984 136.281 250.312 136.281C247.453 136.281 246.023 134.578 246.023 131.172V124H247.934V130.867C247.934 133.398 248.902 134.664 250.84 134.664C251.777 134.664 252.547 134.32 253.148 133.633C253.758 132.938 254.062 132.031 254.062 130.914V124H255.984V136ZM270.117 136H268.195V133.961H268.148C267.258 135.508 265.883 136.281 264.023 136.281C262.516 136.281 261.309 135.746 260.402 134.676C259.504 133.598 259.055 132.133 259.055 130.281C259.055 128.297 259.555 126.707 260.555 125.512C261.555 124.316 262.887 123.719 264.551 123.719C266.199 123.719 267.398 124.367 268.148 125.664H268.195V118.234H270.117V136ZM268.195 130.574V128.805C268.195 127.836 267.875 127.016 267.234 126.344C266.594 125.672 265.781 125.336 264.797 125.336C263.625 125.336 262.703 125.766 262.031 126.625C261.359 127.484 261.023 128.672 261.023 130.188C261.023 131.57 261.344 132.664 261.984 133.469C262.633 134.266 263.5 134.664 264.586 134.664C265.656 134.664 266.523 134.277 267.188 133.504C267.859 132.73 268.195 131.754 268.195 130.574ZM274.992 120.953C274.648 120.953 274.355 120.836 274.113 120.602C273.871 120.367 273.75 120.07 273.75 119.711C273.75 119.352 273.871 119.055 274.113 118.82C274.355 118.578 274.648 118.457 274.992 118.457C275.344 118.457 275.641 118.578 275.883 118.82C276.133 119.055 276.258 119.352 276.258 119.711C276.258 120.055 276.133 120.348 275.883 120.59C275.641 120.832 275.344 120.953 274.992 120.953ZM275.93 136H274.008V124H275.93V136ZM285.387 135.883C284.934 136.133 284.336 136.258 283.594 136.258C281.492 136.258 280.441 135.086 280.441 132.742V125.641H278.379V124H280.441V121.07L282.363 120.449V124H285.387V125.641H282.363V132.402C282.363 133.207 282.5 133.781 282.773 134.125C283.047 134.469 283.5 134.641 284.133 134.641C284.617 134.641 285.035 134.508 285.387 134.242V135.883ZM288.938 120.953C288.594 120.953 288.301 120.836 288.059 120.602C287.816 120.367 287.695 120.07 287.695 119.711C287.695 119.352 287.816 119.055 288.059 118.82C288.301 118.578 288.594 118.457 288.938 118.457C289.289 118.457 289.586 118.578 289.828 118.82C290.078 119.055 290.203 119.352 290.203 119.711C290.203 120.055 290.078 120.348 289.828 120.59C289.586 120.832 289.289 120.953 288.938 120.953ZM289.875 136H287.953V124H289.875V136ZM303.727 136H301.805V129.156C301.805 126.609 300.875 125.336 299.016 125.336C298.055 125.336 297.258 125.699 296.625 126.426C296 127.145 295.688 128.055 295.688 129.156V136H293.766V124H295.688V125.992H295.734C296.641 124.477 297.953 123.719 299.672 123.719C300.984 123.719 301.988 124.145 302.684 124.996C303.379 125.84 303.727 127.062 303.727 128.664V136ZM317.602 135.039C317.602 139.445 315.492 141.648 311.273 141.648C309.789 141.648 308.492 141.367 307.383 140.805V138.883C308.734 139.633 310.023 140.008 311.25 140.008C314.203 140.008 315.68 138.438 315.68 135.297V133.984H315.633C314.719 135.516 313.344 136.281 311.508 136.281C310.016 136.281 308.812 135.75 307.898 134.688C306.992 133.617 306.539 132.184 306.539 130.387C306.539 128.348 307.027 126.727 308.004 125.523C308.988 124.32 310.332 123.719 312.035 123.719C313.652 123.719 314.852 124.367 315.633 125.664H315.68V124H317.602V135.039ZM315.68 130.574V128.805C315.68 127.852 315.355 127.035 314.707 126.355C314.066 125.676 313.266 125.336 312.305 125.336C311.117 125.336 310.188 125.77 309.516 126.637C308.844 127.496 308.508 128.703 308.508 130.258C308.508 131.594 308.828 132.664 309.469 133.469C310.117 134.266 310.973 134.664 312.035 134.664C313.113 134.664 313.988 134.281 314.66 133.516C315.34 132.75 315.68 131.77 315.68 130.574ZM329.062 120.953C328.719 120.953 328.426 120.836 328.184 120.602C327.941 120.367 327.82 120.07 327.82 119.711C327.82 119.352 327.941 119.055 328.184 118.82C328.426 118.578 328.719 118.457 329.062 118.457C329.414 118.457 329.711 118.578 329.953 118.82C330.203 119.055 330.328 119.352 330.328 119.711C330.328 120.055 330.203 120.348 329.953 120.59C329.711 120.832 329.414 120.953 329.062 120.953ZM330 136H328.078V124H330V136ZM333.164 135.566V133.504C334.211 134.277 335.363 134.664 336.621 134.664C338.309 134.664 339.152 134.102 339.152 132.977C339.152 132.656 339.078 132.387 338.93 132.168C338.789 131.941 338.594 131.742 338.344 131.57C338.102 131.398 337.812 131.246 337.477 131.113C337.148 130.973 336.793 130.828 336.41 130.68C335.879 130.469 335.41 130.258 335.004 130.047C334.605 129.828 334.27 129.586 333.996 129.32C333.73 129.047 333.527 128.738 333.387 128.395C333.254 128.051 333.188 127.648 333.188 127.188C333.188 126.625 333.316 126.129 333.574 125.699C333.832 125.262 334.176 124.898 334.605 124.609C335.035 124.312 335.523 124.09 336.07 123.941C336.625 123.793 337.195 123.719 337.781 123.719C338.82 123.719 339.75 123.898 340.57 124.258V126.203C339.688 125.625 338.672 125.336 337.523 125.336C337.164 125.336 336.84 125.379 336.551 125.465C336.262 125.543 336.012 125.656 335.801 125.805C335.598 125.953 335.438 126.133 335.32 126.344C335.211 126.547 335.156 126.773 335.156 127.023C335.156 127.336 335.211 127.598 335.32 127.809C335.438 128.02 335.605 128.207 335.824 128.371C336.043 128.535 336.309 128.684 336.621 128.816C336.934 128.949 337.289 129.094 337.688 129.25C338.219 129.453 338.695 129.664 339.117 129.883C339.539 130.094 339.898 130.336 340.195 130.609C340.492 130.875 340.719 131.184 340.875 131.535C341.039 131.887 341.121 132.305 341.121 132.789C341.121 133.383 340.988 133.898 340.723 134.336C340.465 134.773 340.117 135.137 339.68 135.426C339.242 135.715 338.738 135.93 338.168 136.07C337.598 136.211 337 136.281 336.375 136.281C335.141 136.281 334.07 136.043 333.164 135.566ZM345.844 133.328L343.969 139.094H342.598L343.969 133.328H345.844ZM356.859 120.953C356.516 120.953 356.223 120.836 355.98 120.602C355.738 120.367 355.617 120.07 355.617 119.711C355.617 119.352 355.738 119.055 355.98 118.82C356.223 118.578 356.516 118.457 356.859 118.457C357.211 118.457 357.508 118.578 357.75 118.82C358 119.055 358.125 119.352 358.125 119.711C358.125 120.055 358 120.348 357.75 120.59C357.508 120.832 357.211 120.953 356.859 120.953ZM357.797 136H355.875V124H357.797V136ZM367.617 119.922C367.242 119.711 366.816 119.605 366.34 119.605C364.996 119.605 364.324 120.453 364.324 122.148V124H367.137V125.641H364.324V136H362.414V125.641H360.363V124H362.414V122.055C362.414 120.797 362.777 119.805 363.504 119.078C364.23 118.344 365.137 117.977 366.223 117.977C366.809 117.977 367.273 118.047 367.617 118.188V119.922ZM11.4961 148L5.97656 161.922C4.99219 164.406 3.60938 165.648 1.82812 165.648C1.32812 165.648 0.910156 165.598 0.574219 165.496V163.773C0.988281 163.914 1.36719 163.984 1.71094 163.984C2.67969 163.984 3.40625 163.406 3.89062 162.25L4.85156 159.977L0.164062 148H2.29688L5.54297 157.234C5.58203 157.352 5.66406 157.656 5.78906 158.148H5.85938C5.89844 157.961 5.97656 157.664 6.09375 157.258L9.50391 148H11.4961ZM18.4688 160.281C16.6953 160.281 15.2773 159.723 14.2148 158.605C13.1602 157.48 12.6328 155.992 12.6328 154.141C12.6328 152.125 13.1836 150.551 14.2852 149.418C15.3867 148.285 16.875 147.719 18.75 147.719C20.5391 147.719 21.9336 148.27 22.9336 149.371C23.9414 150.473 24.4453 152 24.4453 153.953C24.4453 155.867 23.9023 157.402 22.8164 158.559C21.7383 159.707 20.2891 160.281 18.4688 160.281ZM18.6094 149.336C17.375 149.336 16.3984 149.758 15.6797 150.602C14.9609 151.438 14.6016 152.594 14.6016 154.07C14.6016 155.492 14.9648 156.613 15.6914 157.434C16.418 158.254 17.3906 158.664 18.6094 158.664C19.8516 158.664 20.8047 158.262 21.4688 157.457C22.1406 156.652 22.4766 155.508 22.4766 154.023C22.4766 152.523 22.1406 151.367 21.4688 150.555C20.8047 149.742 19.8516 149.336 18.6094 149.336ZM37.2188 160H35.2969V158.102H35.25C34.4531 159.555 33.2188 160.281 31.5469 160.281C28.6875 160.281 27.2578 158.578 27.2578 155.172V148H29.168V154.867C29.168 157.398 30.1367 158.664 32.0742 158.664C33.0117 158.664 33.7812 158.32 34.3828 157.633C34.9922 156.938 35.2969 156.031 35.2969 154.914V148H37.2188V160ZM57.6562 160H55.7344V153.086C55.7344 150.586 54.8047 149.336 52.9453 149.336C52.0078 149.336 51.2188 149.699 50.5781 150.426C49.9375 151.145 49.6172 152.07 49.6172 153.203V160H47.6953V142.234H49.6172V149.992H49.6641C50.5859 148.477 51.8984 147.719 53.6016 147.719C56.3047 147.719 57.6562 149.348 57.6562 152.605V160ZM69.8789 160H67.957V158.125H67.9102C67.0742 159.562 65.8438 160.281 64.2188 160.281C63.0234 160.281 62.0859 159.965 61.4062 159.332C60.7344 158.699 60.3984 157.859 60.3984 156.812C60.3984 154.57 61.7188 153.266 64.3594 152.898L67.957 152.395C67.957 150.355 67.1328 149.336 65.4844 149.336C64.0391 149.336 62.7344 149.828 61.5703 150.812V148.844C62.75 148.094 64.1094 147.719 65.6484 147.719C68.4688 147.719 69.8789 149.211 69.8789 152.195V160ZM67.957 153.93L65.0625 154.328C64.1719 154.453 63.5 154.676 63.0469 154.996C62.5938 155.309 62.3672 155.867 62.3672 156.672C62.3672 157.258 62.5742 157.738 62.9883 158.113C63.4102 158.48 63.9688 158.664 64.6641 158.664C65.6172 158.664 66.4023 158.332 67.0195 157.668C67.6445 156.996 67.957 156.148 67.957 155.125V153.93ZM82.9336 148L78.1523 160H76.2656L71.7188 148H73.8281L76.875 156.719C77.1016 157.359 77.2422 157.918 77.2969 158.395H77.3438C77.4219 157.793 77.5469 157.25 77.7188 156.766L80.9062 148H82.9336ZM94.5117 154.48H86.0391C86.0703 155.816 86.4297 156.848 87.1172 157.574C87.8047 158.301 88.75 158.664 89.9531 158.664C91.3047 158.664 92.5469 158.219 93.6797 157.328V159.133C92.625 159.898 91.2305 160.281 89.4961 160.281C87.8008 160.281 86.4688 159.738 85.5 158.652C84.5312 157.559 84.0469 156.023 84.0469 154.047C84.0469 152.18 84.5742 150.66 85.6289 149.488C86.6914 148.309 88.0078 147.719 89.5781 147.719C91.1484 147.719 92.3633 148.227 93.2227 149.242C94.082 150.258 94.5117 151.668 94.5117 153.473V154.48ZM92.543 152.852C92.5352 151.742 92.2656 150.879 91.7344 150.262C91.2109 149.645 90.4805 149.336 89.543 149.336C88.6367 149.336 87.8672 149.66 87.2344 150.309C86.6016 150.957 86.2109 151.805 86.0625 152.852H92.543ZM109.582 159.883C109.129 160.133 108.531 160.258 107.789 160.258C105.688 160.258 104.637 159.086 104.637 156.742V149.641H102.574V148H104.637V145.07L106.559 144.449V148H109.582V149.641H106.559V156.402C106.559 157.207 106.695 157.781 106.969 158.125C107.242 158.469 107.695 158.641 108.328 158.641C108.812 158.641 109.23 158.508 109.582 158.242V159.883ZM122.109 160H120.188V153.086C120.188 150.586 119.258 149.336 117.398 149.336C116.461 149.336 115.672 149.699 115.031 150.426C114.391 151.145 114.07 152.07 114.07 153.203V160H112.148V142.234H114.07V149.992H114.117C115.039 148.477 116.352 147.719 118.055 147.719C120.758 147.719 122.109 149.348 122.109 152.605V160ZM135.387 154.48H126.914C126.945 155.816 127.305 156.848 127.992 157.574C128.68 158.301 129.625 158.664 130.828 158.664C132.18 158.664 133.422 158.219 134.555 157.328V159.133C133.5 159.898 132.105 160.281 130.371 160.281C128.676 160.281 127.344 159.738 126.375 158.652C125.406 157.559 124.922 156.023 124.922 154.047C124.922 152.18 125.449 150.66 126.504 149.488C127.566 148.309 128.883 147.719 130.453 147.719C132.023 147.719 133.238 148.227 134.098 149.242C134.957 150.258 135.387 151.668 135.387 153.473V154.48ZM133.418 152.852C133.41 151.742 133.141 150.879 132.609 150.262C132.086 149.645 131.355 149.336 130.418 149.336C129.512 149.336 128.742 149.66 128.109 150.309C127.477 150.957 127.086 151.805 126.938 152.852H133.418ZM153.07 159.449C152.148 160.004 151.055 160.281 149.789 160.281C148.078 160.281 146.695 159.727 145.641 158.617C144.594 157.5 144.07 156.055 144.07 154.281C144.07 152.305 144.637 150.719 145.77 149.523C146.902 148.32 148.414 147.719 150.305 147.719C151.359 147.719 152.289 147.914 153.094 148.305V150.273C152.203 149.648 151.25 149.336 150.234 149.336C149.008 149.336 148 149.777 147.211 150.66C146.43 151.535 146.039 152.688 146.039 154.117C146.039 155.523 146.406 156.633 147.141 157.445C147.883 158.258 148.875 158.664 150.117 158.664C151.164 158.664 152.148 158.316 153.07 157.621V159.449ZM160.992 160.281C159.219 160.281 157.801 159.723 156.738 158.605C155.684 157.48 155.156 155.992 155.156 154.141C155.156 152.125 155.707 150.551 156.809 149.418C157.91 148.285 159.398 147.719 161.273 147.719C163.062 147.719 164.457 148.27 165.457 149.371C166.465 150.473 166.969 152 166.969 153.953C166.969 155.867 166.426 157.402 165.34 158.559C164.262 159.707 162.812 160.281 160.992 160.281ZM161.133 149.336C159.898 149.336 158.922 149.758 158.203 150.602C157.484 151.438 157.125 152.594 157.125 154.07C157.125 155.492 157.488 156.613 158.215 157.434C158.941 158.254 159.914 158.664 161.133 158.664C162.375 158.664 163.328 158.262 163.992 157.457C164.664 156.652 165 155.508 165 154.023C165 152.523 164.664 151.367 163.992 150.555C163.328 149.742 162.375 149.336 161.133 149.336ZM187.078 160H185.156V153.109C185.156 151.781 184.949 150.82 184.535 150.227C184.129 149.633 183.441 149.336 182.473 149.336C181.652 149.336 180.953 149.711 180.375 150.461C179.805 151.211 179.52 152.109 179.52 153.156V160H177.598V152.875C177.598 150.516 176.688 149.336 174.867 149.336C174.023 149.336 173.328 149.691 172.781 150.402C172.234 151.105 171.961 152.023 171.961 153.156V160H170.039V148H171.961V149.898H172.008C172.859 148.445 174.102 147.719 175.734 147.719C176.555 147.719 177.27 147.949 177.879 148.41C178.488 148.863 178.906 149.461 179.133 150.203C180.023 148.547 181.352 147.719 183.117 147.719C185.758 147.719 187.078 149.348 187.078 152.605V160ZM207.75 160H205.828V153.109C205.828 151.781 205.621 150.82 205.207 150.227C204.801 149.633 204.113 149.336 203.145 149.336C202.324 149.336 201.625 149.711 201.047 150.461C200.477 151.211 200.191 152.109 200.191 153.156V160H198.27V152.875C198.27 150.516 197.359 149.336 195.539 149.336C194.695 149.336 194 149.691 193.453 150.402C192.906 151.105 192.633 152.023 192.633 153.156V160H190.711V148H192.633V149.898H192.68C193.531 148.445 194.773 147.719 196.406 147.719C197.227 147.719 197.941 147.949 198.551 148.41C199.16 148.863 199.578 149.461 199.805 150.203C200.695 148.547 202.023 147.719 203.789 147.719C206.43 147.719 207.75 149.348 207.75 152.605V160ZM221.086 160H219.164V158.102H219.117C218.32 159.555 217.086 160.281 215.414 160.281C212.555 160.281 211.125 158.578 211.125 155.172V148H213.035V154.867C213.035 157.398 214.004 158.664 215.941 158.664C216.879 158.664 217.648 158.32 218.25 157.633C218.859 156.938 219.164 156.031 219.164 154.914V148H221.086V160ZM234.938 160H233.016V153.156C233.016 150.609 232.086 149.336 230.227 149.336C229.266 149.336 228.469 149.699 227.836 150.426C227.211 151.145 226.898 152.055 226.898 153.156V160H224.977V148H226.898V149.992H226.945C227.852 148.477 229.164 147.719 230.883 147.719C232.195 147.719 233.199 148.145 233.895 148.996C234.59 149.84 234.938 151.062 234.938 152.664V160ZM239.555 144.953C239.211 144.953 238.918 144.836 238.676 144.602C238.434 144.367 238.312 144.07 238.312 143.711C238.312 143.352 238.434 143.055 238.676 142.82C238.918 142.578 239.211 142.457 239.555 142.457C239.906 142.457 240.203 142.578 240.445 142.82C240.695 143.055 240.82 143.352 240.82 143.711C240.82 144.055 240.695 144.348 240.445 144.59C240.203 144.832 239.906 144.953 239.555 144.953ZM240.492 160H238.57V148H240.492V160ZM249.949 159.883C249.496 160.133 248.898 160.258 248.156 160.258C246.055 160.258 245.004 159.086 245.004 156.742V149.641H242.941V148H245.004V145.07L246.926 144.449V148H249.949V149.641H246.926V156.402C246.926 157.207 247.062 157.781 247.336 158.125C247.609 158.469 248.062 158.641 248.695 158.641C249.18 158.641 249.598 158.508 249.949 158.242V159.883ZM262.066 148L256.547 161.922C255.562 164.406 254.18 165.648 252.398 165.648C251.898 165.648 251.48 165.598 251.145 165.496V163.773C251.559 163.914 251.938 163.984 252.281 163.984C253.25 163.984 253.977 163.406 254.461 162.25L255.422 159.977L250.734 148H252.867L256.113 157.234C256.152 157.352 256.234 157.656 256.359 158.148H256.43C256.469 157.961 256.547 157.664 256.664 157.258L260.074 148H262.066ZM271.711 144.953C271.367 144.953 271.074 144.836 270.832 144.602C270.59 144.367 270.469 144.07 270.469 143.711C270.469 143.352 270.59 143.055 270.832 142.82C271.074 142.578 271.367 142.457 271.711 142.457C272.062 142.457 272.359 142.578 272.602 142.82C272.852 143.055 272.977 143.352 272.977 143.711C272.977 144.055 272.852 144.348 272.602 144.59C272.359 144.832 272.062 144.953 271.711 144.953ZM272.648 160H270.727V148H272.648V160ZM286.5 160H284.578V153.156C284.578 150.609 283.648 149.336 281.789 149.336C280.828 149.336 280.031 149.699 279.398 150.426C278.773 151.145 278.461 152.055 278.461 153.156V160H276.539V148H278.461V149.992H278.508C279.414 148.477 280.727 147.719 282.445 147.719C283.758 147.719 284.762 148.145 285.457 148.996C286.152 149.84 286.5 151.062 286.5 152.664V160ZM299.566 148L294.785 160H292.898L288.352 148H290.461L293.508 156.719C293.734 157.359 293.875 157.918 293.93 158.395H293.977C294.055 157.793 294.18 157.25 294.352 156.766L297.539 148H299.566ZM306.516 160.281C304.742 160.281 303.324 159.723 302.262 158.605C301.207 157.48 300.68 155.992 300.68 154.141C300.68 152.125 301.23 150.551 302.332 149.418C303.434 148.285 304.922 147.719 306.797 147.719C308.586 147.719 309.98 148.27 310.98 149.371C311.988 150.473 312.492 152 312.492 153.953C312.492 155.867 311.949 157.402 310.863 158.559C309.785 159.707 308.336 160.281 306.516 160.281ZM306.656 149.336C305.422 149.336 304.445 149.758 303.727 150.602C303.008 151.438 302.648 152.594 302.648 154.07C302.648 155.492 303.012 156.613 303.738 157.434C304.465 158.254 305.438 158.664 306.656 158.664C307.898 158.664 308.852 158.262 309.516 157.457C310.188 156.652 310.523 155.508 310.523 154.023C310.523 152.523 310.188 151.367 309.516 150.555C308.852 149.742 307.898 149.336 306.656 149.336ZM317.484 160H315.562V142.234H317.484V160ZM330.809 148L326.027 160H324.141L319.594 148H321.703L324.75 156.719C324.977 157.359 325.117 157.918 325.172 158.395H325.219C325.297 157.793 325.422 157.25 325.594 156.766L328.781 148H330.809ZM342.387 154.48H333.914C333.945 155.816 334.305 156.848 334.992 157.574C335.68 158.301 336.625 158.664 337.828 158.664C339.18 158.664 340.422 158.219 341.555 157.328V159.133C340.5 159.898 339.105 160.281 337.371 160.281C335.676 160.281 334.344 159.738 333.375 158.652C332.406 157.559 331.922 156.023 331.922 154.047C331.922 152.18 332.449 150.66 333.504 149.488C334.566 148.309 335.883 147.719 337.453 147.719C339.023 147.719 340.238 148.227 341.098 149.242C341.957 150.258 342.387 151.668 342.387 153.473V154.48ZM340.418 152.852C340.41 151.742 340.141 150.879 339.609 150.262C339.086 149.645 338.355 149.336 337.418 149.336C336.512 149.336 335.742 149.66 335.109 150.309C334.477 150.957 334.086 151.805 333.938 152.852H340.418ZM355.547 160H353.625V157.961H353.578C352.688 159.508 351.312 160.281 349.453 160.281C347.945 160.281 346.738 159.746 345.832 158.676C344.934 157.598 344.484 156.133 344.484 154.281C344.484 152.297 344.984 150.707 345.984 149.512C346.984 148.316 348.316 147.719 349.98 147.719C351.629 147.719 352.828 148.367 353.578 149.664H353.625V142.234H355.547V160ZM353.625 154.574V152.805C353.625 151.836 353.305 151.016 352.664 150.344C352.023 149.672 351.211 149.336 350.227 149.336C349.055 149.336 348.133 149.766 347.461 150.625C346.789 151.484 346.453 152.672 346.453 154.188C346.453 155.57 346.773 156.664 347.414 157.469C348.062 158.266 348.93 158.664 350.016 158.664C351.086 158.664 351.953 158.277 352.617 157.504C353.289 156.73 353.625 155.754 353.625 154.574ZM360.105 160.258C359.746 160.258 359.438 160.129 359.18 159.871C358.93 159.613 358.805 159.305 358.805 158.945C358.805 158.586 358.93 158.277 359.18 158.02C359.438 157.754 359.746 157.621 360.105 157.621C360.473 157.621 360.785 157.754 361.043 158.02C361.301 158.277 361.43 158.586 361.43 158.945C361.43 159.305 361.301 159.613 361.043 159.871C360.785 160.129 360.473 160.258 360.105 160.258ZM1.41797 183.32V181C1.68359 181.234 2 181.445 2.36719 181.633C2.74219 181.82 3.13281 181.98 3.53906 182.113C3.95312 182.238 4.36719 182.336 4.78125 182.406C5.19531 182.477 5.57812 182.512 5.92969 182.512C7.14062 182.512 8.04297 182.289 8.63672 181.844C9.23828 181.391 9.53906 180.742 9.53906 179.898C9.53906 179.445 9.4375 179.051 9.23438 178.715C9.03906 178.379 8.76562 178.074 8.41406 177.801C8.0625 177.52 7.64453 177.254 7.16016 177.004C6.68359 176.746 6.16797 176.477 5.61328 176.195C5.02734 175.898 4.48047 175.598 3.97266 175.293C3.46484 174.988 3.02344 174.652 2.64844 174.285C2.27344 173.918 1.97656 173.504 1.75781 173.043C1.54688 172.574 1.44141 172.027 1.44141 171.402C1.44141 170.637 1.60938 169.973 1.94531 169.41C2.28125 168.84 2.72266 168.371 3.26953 168.004C3.81641 167.637 4.4375 167.363 5.13281 167.184C5.83594 167.004 6.55078 166.914 7.27734 166.914C8.93359 166.914 10.1406 167.113 10.8984 167.512V169.727C9.90625 169.039 8.63281 168.695 7.07812 168.695C6.64844 168.695 6.21875 168.742 5.78906 168.836C5.35938 168.922 4.97656 169.066 4.64062 169.27C4.30469 169.473 4.03125 169.734 3.82031 170.055C3.60938 170.375 3.50391 170.766 3.50391 171.227C3.50391 171.656 3.58203 172.027 3.73828 172.34C3.90234 172.652 4.14062 172.938 4.45312 173.195C4.76562 173.453 5.14453 173.703 5.58984 173.945C6.04297 174.188 6.5625 174.453 7.14844 174.742C7.75 175.039 8.32031 175.352 8.85938 175.68C9.39844 176.008 9.87109 176.371 10.2773 176.77C10.6836 177.168 11.0039 177.609 11.2383 178.094C11.4805 178.578 11.6016 179.133 11.6016 179.758C11.6016 180.586 11.4375 181.289 11.1094 181.867C10.7891 182.438 10.3516 182.902 9.79688 183.262C9.25 183.621 8.61719 183.879 7.89844 184.035C7.17969 184.199 6.42188 184.281 5.625 184.281C5.35938 184.281 5.03125 184.258 4.64062 184.211C4.25 184.172 3.85156 184.109 3.44531 184.023C3.03906 183.945 2.65234 183.848 2.28516 183.73C1.92578 183.605 1.63672 183.469 1.41797 183.32ZM29.4844 172L25.8867 184H23.8945L21.4219 175.41C21.3281 175.082 21.2656 174.711 21.2344 174.297H21.1875C21.1641 174.578 21.082 174.941 20.9414 175.387L18.2578 184H16.3359L12.7031 172H14.7188L17.2031 181.023C17.2812 181.297 17.3359 181.656 17.3672 182.102H17.4609C17.4844 181.758 17.5547 181.391 17.6719 181L20.4375 172H22.1953L24.6797 181.047C24.7578 181.336 24.8164 181.695 24.8555 182.125H24.9492C24.9648 181.82 25.0312 181.461 25.1484 181.047L27.5859 172H29.4844ZM40.3008 184H38.3789V182.125H38.332C37.4961 183.562 36.2656 184.281 34.6406 184.281C33.4453 184.281 32.5078 183.965 31.8281 183.332C31.1562 182.699 30.8203 181.859 30.8203 180.812C30.8203 178.57 32.1406 177.266 34.7812 176.898L38.3789 176.395C38.3789 174.355 37.5547 173.336 35.9062 173.336C34.4609 173.336 33.1562 173.828 31.9922 174.812V172.844C33.1719 172.094 34.5312 171.719 36.0703 171.719C38.8906 171.719 40.3008 173.211 40.3008 176.195V184ZM38.3789 177.93L35.4844 178.328C34.5938 178.453 33.9219 178.676 33.4688 178.996C33.0156 179.309 32.7891 179.867 32.7891 180.672C32.7891 181.258 32.9961 181.738 33.4102 182.113C33.832 182.48 34.3906 182.664 35.0859 182.664C36.0391 182.664 36.8242 182.332 37.4414 181.668C38.0664 180.996 38.3789 180.148 38.3789 179.125V177.93ZM50.1797 173.945C49.8438 173.688 49.3594 173.559 48.7266 173.559C47.9062 173.559 47.2188 173.945 46.6641 174.719C46.1172 175.492 45.8438 176.547 45.8438 177.883V184H43.9219V172H45.8438V174.473H45.8906C46.1641 173.629 46.582 172.973 47.1445 172.504C47.707 172.027 48.3359 171.789 49.0312 171.789C49.5312 171.789 49.9141 171.844 50.1797 171.953V173.945ZM69.2578 184H67.3359V177.109C67.3359 175.781 67.1289 174.82 66.7148 174.227C66.3086 173.633 65.6211 173.336 64.6523 173.336C63.832 173.336 63.1328 173.711 62.5547 174.461C61.9844 175.211 61.6992 176.109 61.6992 177.156V184H59.7773V176.875C59.7773 174.516 58.8672 173.336 57.0469 173.336C56.2031 173.336 55.5078 173.691 54.9609 174.402C54.4141 175.105 54.1406 176.023 54.1406 177.156V184H52.2188V172H54.1406V173.898H54.1875C55.0391 172.445 56.2812 171.719 57.9141 171.719C58.7344 171.719 59.4492 171.949 60.0586 172.41C60.668 172.863 61.0859 173.461 61.3125 174.203C62.2031 172.547 63.5312 171.719 65.2969 171.719C67.9375 171.719 69.2578 173.348 69.2578 176.605V184ZM80.4609 168.953C80.1172 168.953 79.8242 168.836 79.582 168.602C79.3398 168.367 79.2188 168.07 79.2188 167.711C79.2188 167.352 79.3398 167.055 79.582 166.82C79.8242 166.578 80.1172 166.457 80.4609 166.457C80.8125 166.457 81.1094 166.578 81.3516 166.82C81.6016 167.055 81.7266 167.352 81.7266 167.711C81.7266 168.055 81.6016 168.348 81.3516 168.59C81.1094 168.832 80.8125 168.953 80.4609 168.953ZM81.3984 184H79.4766V172H81.3984V184ZM95.25 184H93.3281V177.156C93.3281 174.609 92.3984 173.336 90.5391 173.336C89.5781 173.336 88.7812 173.699 88.1484 174.426C87.5234 175.145 87.2109 176.055 87.2109 177.156V184H85.2891V172H87.2109V173.992H87.2578C88.1641 172.477 89.4766 171.719 91.1953 171.719C92.5078 171.719 93.5117 172.145 94.207 172.996C94.9023 173.84 95.25 175.062 95.25 176.664V184ZM104.449 183.883C103.996 184.133 103.398 184.258 102.656 184.258C100.555 184.258 99.5039 183.086 99.5039 180.742V173.641H97.4414V172H99.5039V169.07L101.426 168.449V172H104.449V173.641H101.426V180.402C101.426 181.207 101.562 181.781 101.836 182.125C102.109 182.469 102.562 182.641 103.195 182.641C103.68 182.641 104.098 182.508 104.449 182.242V183.883ZM116.473 178.48H108C108.031 179.816 108.391 180.848 109.078 181.574C109.766 182.301 110.711 182.664 111.914 182.664C113.266 182.664 114.508 182.219 115.641 181.328V183.133C114.586 183.898 113.191 184.281 111.457 184.281C109.762 184.281 108.43 183.738 107.461 182.652C106.492 181.559 106.008 180.023 106.008 178.047C106.008 176.18 106.535 174.66 107.59 173.488C108.652 172.309 109.969 171.719 111.539 171.719C113.109 171.719 114.324 172.227 115.184 173.242C116.043 174.258 116.473 175.668 116.473 177.473V178.48ZM114.504 176.852C114.496 175.742 114.227 174.879 113.695 174.262C113.172 173.645 112.441 173.336 111.504 173.336C110.598 173.336 109.828 173.66 109.195 174.309C108.562 174.957 108.172 175.805 108.023 176.852H114.504ZM121.312 184H119.391V166.234H121.312V184ZM127.125 184H125.203V166.234H127.125V184ZM132 168.953C131.656 168.953 131.363 168.836 131.121 168.602C130.879 168.367 130.758 168.07 130.758 167.711C130.758 167.352 130.879 167.055 131.121 166.82C131.363 166.578 131.656 166.457 132 166.457C132.352 166.457 132.648 166.578 132.891 166.82C133.141 167.055 133.266 167.352 133.266 167.711C133.266 168.055 133.141 168.348 132.891 168.59C132.648 168.832 132.352 168.953 132 168.953ZM132.938 184H131.016V172H132.938V184ZM147.07 183.039C147.07 187.445 144.961 189.648 140.742 189.648C139.258 189.648 137.961 189.367 136.852 188.805V186.883C138.203 187.633 139.492 188.008 140.719 188.008C143.672 188.008 145.148 186.438 145.148 183.297V181.984H145.102C144.188 183.516 142.812 184.281 140.977 184.281C139.484 184.281 138.281 183.75 137.367 182.688C136.461 181.617 136.008 180.184 136.008 178.387C136.008 176.348 136.496 174.727 137.473 173.523C138.457 172.32 139.801 171.719 141.504 171.719C143.121 171.719 144.32 172.367 145.102 173.664H145.148V172H147.07V183.039ZM145.148 178.574V176.805C145.148 175.852 144.824 175.035 144.176 174.355C143.535 173.676 142.734 173.336 141.773 173.336C140.586 173.336 139.656 173.77 138.984 174.637C138.312 175.496 137.977 176.703 137.977 178.258C137.977 179.594 138.297 180.664 138.938 181.469C139.586 182.266 140.441 182.664 141.504 182.664C142.582 182.664 143.457 182.281 144.129 181.516C144.809 180.75 145.148 179.77 145.148 178.574ZM160.605 178.48H152.133C152.164 179.816 152.523 180.848 153.211 181.574C153.898 182.301 154.844 182.664 156.047 182.664C157.398 182.664 158.641 182.219 159.773 181.328V183.133C158.719 183.898 157.324 184.281 155.59 184.281C153.895 184.281 152.562 183.738 151.594 182.652C150.625 181.559 150.141 180.023 150.141 178.047C150.141 176.18 150.668 174.66 151.723 173.488C152.785 172.309 154.102 171.719 155.672 171.719C157.242 171.719 158.457 172.227 159.316 173.242C160.176 174.258 160.605 175.668 160.605 177.473V178.48ZM158.637 176.852C158.629 175.742 158.359 174.879 157.828 174.262C157.305 173.645 156.574 173.336 155.637 173.336C154.73 173.336 153.961 173.66 153.328 174.309C152.695 174.957 152.305 175.805 152.156 176.852H158.637ZM173.484 184H171.562V177.156C171.562 174.609 170.633 173.336 168.773 173.336C167.812 173.336 167.016 173.699 166.383 174.426C165.758 175.145 165.445 176.055 165.445 177.156V184H163.523V172H165.445V173.992H165.492C166.398 172.477 167.711 171.719 169.43 171.719C170.742 171.719 171.746 172.145 172.441 172.996C173.137 173.84 173.484 175.062 173.484 176.664V184ZM185.297 183.449C184.375 184.004 183.281 184.281 182.016 184.281C180.305 184.281 178.922 183.727 177.867 182.617C176.82 181.5 176.297 180.055 176.297 178.281C176.297 176.305 176.863 174.719 177.996 173.523C179.129 172.32 180.641 171.719 182.531 171.719C183.586 171.719 184.516 171.914 185.32 172.305V174.273C184.43 173.648 183.477 173.336 182.461 173.336C181.234 173.336 180.227 173.777 179.438 174.66C178.656 175.535 178.266 176.688 178.266 178.117C178.266 179.523 178.633 180.633 179.367 181.445C180.109 182.258 181.102 182.664 182.344 182.664C183.391 182.664 184.375 182.316 185.297 181.621V183.449ZM197.848 178.48H189.375C189.406 179.816 189.766 180.848 190.453 181.574C191.141 182.301 192.086 182.664 193.289 182.664C194.641 182.664 195.883 182.219 197.016 181.328V183.133C195.961 183.898 194.566 184.281 192.832 184.281C191.137 184.281 189.805 183.738 188.836 182.652C187.867 181.559 187.383 180.023 187.383 178.047C187.383 176.18 187.91 174.66 188.965 173.488C190.027 172.309 191.344 171.719 192.914 171.719C194.484 171.719 195.699 172.227 196.559 173.242C197.418 174.258 197.848 175.668 197.848 177.473V178.48ZM195.879 176.852C195.871 175.742 195.602 174.879 195.07 174.262C194.547 173.645 193.816 173.336 192.879 173.336C191.973 173.336 191.203 173.66 190.57 174.309C189.938 174.957 189.547 175.805 189.398 176.852H195.879ZM201.434 184.258C201.074 184.258 200.766 184.129 200.508 183.871C200.258 183.613 200.133 183.305 200.133 182.945C200.133 182.586 200.258 182.277 200.508 182.02C200.766 181.754 201.074 181.621 201.434 181.621C201.801 181.621 202.113 181.754 202.371 182.02C202.629 182.277 202.758 182.586 202.758 182.945C202.758 183.305 202.629 183.613 202.371 183.871C202.113 184.129 201.801 184.258 201.434 184.258ZM8.97656 208.281C6.59375 208.281 4.68359 207.496 3.24609 205.926C1.81641 204.355 1.10156 202.312 1.10156 199.797C1.10156 197.094 1.83203 194.938 3.29297 193.328C4.75391 191.719 6.74219 190.914 9.25781 190.914C11.5781 190.914 13.4453 191.695 14.8594 193.258C16.2812 194.82 16.9922 196.863 16.9922 199.387C16.9922 202.129 16.2656 204.297 14.8125 205.891C13.3594 207.484 11.4141 208.281 8.97656 208.281ZM9.11719 192.695C7.35156 192.695 5.91797 193.332 4.81641 194.605C3.71484 195.879 3.16406 197.551 3.16406 199.621C3.16406 201.691 3.69922 203.359 4.76953 204.625C5.84766 205.883 7.25 206.512 8.97656 206.512C10.8203 206.512 12.2734 205.91 13.3359 204.707C14.3984 203.504 14.9297 201.82 14.9297 199.656C14.9297 197.438 14.4141 195.723 13.3828 194.512C12.3516 193.301 10.9297 192.695 9.11719 192.695ZM29.7422 208H27.8203V206.102H27.7734C26.9766 207.555 25.7422 208.281 24.0703 208.281C21.2109 208.281 19.7812 206.578 19.7812 203.172V196H21.6914V202.867C21.6914 205.398 22.6602 206.664 24.5977 206.664C25.5352 206.664 26.3047 206.32 26.9062 205.633C27.5156 204.938 27.8203 204.031 27.8203 202.914V196H29.7422V208ZM39.8906 197.945C39.5547 197.688 39.0703 197.559 38.4375 197.559C37.6172 197.559 36.9297 197.945 36.375 198.719C35.8281 199.492 35.5547 200.547 35.5547 201.883V208H33.6328V196H35.5547V198.473H35.6016C35.875 197.629 36.293 196.973 36.8555 196.504C37.418 196.027 38.0469 195.789 38.7422 195.789C39.2422 195.789 39.625 195.844 39.8906 195.953V197.945ZM57.1523 208H55.2305V206.125H55.1836C54.3477 207.562 53.1172 208.281 51.4922 208.281C50.2969 208.281 49.3594 207.965 48.6797 207.332C48.0078 206.699 47.6719 205.859 47.6719 204.812C47.6719 202.57 48.9922 201.266 51.6328 200.898L55.2305 200.395C55.2305 198.355 54.4062 197.336 52.7578 197.336C51.3125 197.336 50.0078 197.828 48.8438 198.812V196.844C50.0234 196.094 51.3828 195.719 52.9219 195.719C55.7422 195.719 57.1523 197.211 57.1523 200.195V208ZM55.2305 201.93L52.3359 202.328C51.4453 202.453 50.7734 202.676 50.3203 202.996C49.8672 203.309 49.6406 203.867 49.6406 204.672C49.6406 205.258 49.8477 205.738 50.2617 206.113C50.6836 206.48 51.2422 206.664 51.9375 206.664C52.8906 206.664 53.6758 206.332 54.293 205.668C54.918 204.996 55.2305 204.148 55.2305 203.125V201.93ZM70.4766 208H68.5547V206.102H68.5078C67.7109 207.555 66.4766 208.281 64.8047 208.281C61.9453 208.281 60.5156 206.578 60.5156 203.172V196H62.4258V202.867C62.4258 205.398 63.3945 206.664 65.332 206.664C66.2695 206.664 67.0391 206.32 67.6406 205.633C68.25 204.938 68.5547 204.031 68.5547 202.914V196H70.4766V208ZM84.6094 208H82.6875V205.961H82.6406C81.75 207.508 80.375 208.281 78.5156 208.281C77.0078 208.281 75.8008 207.746 74.8945 206.676C73.9961 205.598 73.5469 204.133 73.5469 202.281C73.5469 200.297 74.0469 198.707 75.0469 197.512C76.0469 196.316 77.3789 195.719 79.043 195.719C80.6914 195.719 81.8906 196.367 82.6406 197.664H82.6875V190.234H84.6094V208ZM82.6875 202.574V200.805C82.6875 199.836 82.3672 199.016 81.7266 198.344C81.0859 197.672 80.2734 197.336 79.2891 197.336C78.1172 197.336 77.1953 197.766 76.5234 198.625C75.8516 199.484 75.5156 200.672 75.5156 202.188C75.5156 203.57 75.8359 204.664 76.4766 205.469C77.125 206.266 77.9922 206.664 79.0781 206.664C80.1484 206.664 81.0156 206.277 81.6797 205.504C82.3516 204.73 82.6875 203.754 82.6875 202.574ZM89.4844 192.953C89.1406 192.953 88.8477 192.836 88.6055 192.602C88.3633 192.367 88.2422 192.07 88.2422 191.711C88.2422 191.352 88.3633 191.055 88.6055 190.82C88.8477 190.578 89.1406 190.457 89.4844 190.457C89.8359 190.457 90.1328 190.578 90.375 190.82C90.625 191.055 90.75 191.352 90.75 191.711C90.75 192.055 90.625 192.348 90.375 192.59C90.1328 192.832 89.8359 192.953 89.4844 192.953ZM90.4219 208H88.5V196H90.4219V208ZM99.8789 207.883C99.4258 208.133 98.8281 208.258 98.0859 208.258C95.9844 208.258 94.9336 207.086 94.9336 204.742V197.641H92.8711V196H94.9336V193.07L96.8555 192.449V196H99.8789V197.641H96.8555V204.402C96.8555 205.207 96.9922 205.781 97.2656 206.125C97.5391 206.469 97.9922 206.641 98.625 206.641C99.1094 206.641 99.5273 206.508 99.8789 206.242V207.883ZM108.305 207.566V205.504C109.352 206.277 110.504 206.664 111.762 206.664C113.449 206.664 114.293 206.102 114.293 204.977C114.293 204.656 114.219 204.387 114.07 204.168C113.93 203.941 113.734 203.742 113.484 203.57C113.242 203.398 112.953 203.246 112.617 203.113C112.289 202.973 111.934 202.828 111.551 202.68C111.02 202.469 110.551 202.258 110.145 202.047C109.746 201.828 109.41 201.586 109.137 201.32C108.871 201.047 108.668 200.738 108.527 200.395C108.395 200.051 108.328 199.648 108.328 199.188C108.328 198.625 108.457 198.129 108.715 197.699C108.973 197.262 109.316 196.898 109.746 196.609C110.176 196.312 110.664 196.09 111.211 195.941C111.766 195.793 112.336 195.719 112.922 195.719C113.961 195.719 114.891 195.898 115.711 196.258V198.203C114.828 197.625 113.812 197.336 112.664 197.336C112.305 197.336 111.98 197.379 111.691 197.465C111.402 197.543 111.152 197.656 110.941 197.805C110.738 197.953 110.578 198.133 110.461 198.344C110.352 198.547 110.297 198.773 110.297 199.023C110.297 199.336 110.352 199.598 110.461 199.809C110.578 200.02 110.746 200.207 110.965 200.371C111.184 200.535 111.449 200.684 111.762 200.816C112.074 200.949 112.43 201.094 112.828 201.25C113.359 201.453 113.836 201.664 114.258 201.883C114.68 202.094 115.039 202.336 115.336 202.609C115.633 202.875 115.859 203.184 116.016 203.535C116.18 203.887 116.262 204.305 116.262 204.789C116.262 205.383 116.129 205.898 115.863 206.336C115.605 206.773 115.258 207.137 114.82 207.426C114.383 207.715 113.879 207.93 113.309 208.07C112.738 208.211 112.141 208.281 111.516 208.281C110.281 208.281 109.211 208.043 108.305 207.566ZM128.871 202.48H120.398C120.43 203.816 120.789 204.848 121.477 205.574C122.164 206.301 123.109 206.664 124.312 206.664C125.664 206.664 126.906 206.219 128.039 205.328V207.133C126.984 207.898 125.59 208.281 123.855 208.281C122.16 208.281 120.828 207.738 119.859 206.652C118.891 205.559 118.406 204.023 118.406 202.047C118.406 200.18 118.934 198.66 119.988 197.488C121.051 196.309 122.367 195.719 123.938 195.719C125.508 195.719 126.723 196.227 127.582 197.242C128.441 198.258 128.871 199.668 128.871 201.473V202.48ZM126.902 200.852C126.895 199.742 126.625 198.879 126.094 198.262C125.57 197.645 124.84 197.336 123.902 197.336C122.996 197.336 122.227 197.66 121.594 198.309C120.961 198.957 120.57 199.805 120.422 200.852H126.902ZM138.047 197.945C137.711 197.688 137.227 197.559 136.594 197.559C135.773 197.559 135.086 197.945 134.531 198.719C133.984 199.492 133.711 200.547 133.711 201.883V208H131.789V196H133.711V198.473H133.758C134.031 197.629 134.449 196.973 135.012 196.504C135.574 196.027 136.203 195.789 136.898 195.789C137.398 195.789 137.781 195.844 138.047 195.953V197.945ZM150.527 196L145.746 208H143.859L139.312 196H141.422L144.469 204.719C144.695 205.359 144.836 205.918 144.891 206.395H144.938C145.016 205.793 145.141 205.25 145.312 204.766L148.5 196H150.527ZM153.586 192.953C153.242 192.953 152.949 192.836 152.707 192.602C152.465 192.367 152.344 192.07 152.344 191.711C152.344 191.352 152.465 191.055 152.707 190.82C152.949 190.578 153.242 190.457 153.586 190.457C153.938 190.457 154.234 190.578 154.477 190.82C154.727 191.055 154.852 191.352 154.852 191.711C154.852 192.055 154.727 192.348 154.477 192.59C154.234 192.832 153.938 192.953 153.586 192.953ZM154.523 208H152.602V196H154.523V208ZM166.594 207.449C165.672 208.004 164.578 208.281 163.312 208.281C161.602 208.281 160.219 207.727 159.164 206.617C158.117 205.5 157.594 204.055 157.594 202.281C157.594 200.305 158.16 198.719 159.293 197.523C160.426 196.32 161.938 195.719 163.828 195.719C164.883 195.719 165.812 195.914 166.617 196.305V198.273C165.727 197.648 164.773 197.336 163.758 197.336C162.531 197.336 161.523 197.777 160.734 198.66C159.953 199.535 159.562 200.688 159.562 202.117C159.562 203.523 159.93 204.633 160.664 205.445C161.406 206.258 162.398 206.664 163.641 206.664C164.688 206.664 165.672 206.316 166.594 205.621V207.449ZM179.145 202.48H170.672C170.703 203.816 171.062 204.848 171.75 205.574C172.438 206.301 173.383 206.664 174.586 206.664C175.938 206.664 177.18 206.219 178.312 205.328V207.133C177.258 207.898 175.863 208.281 174.129 208.281C172.434 208.281 171.102 207.738 170.133 206.652C169.164 205.559 168.68 204.023 168.68 202.047C168.68 200.18 169.207 198.66 170.262 197.488C171.324 196.309 172.641 195.719 174.211 195.719C175.781 195.719 176.996 196.227 177.855 197.242C178.715 198.258 179.145 199.668 179.145 201.473V202.48ZM177.176 200.852C177.168 199.742 176.898 198.879 176.367 198.262C175.844 197.645 175.113 197.336 174.176 197.336C173.27 197.336 172.5 197.66 171.867 198.309C171.234 198.957 170.844 199.805 170.695 200.852H177.176ZM189.633 192.953C189.289 192.953 188.996 192.836 188.754 192.602C188.512 192.367 188.391 192.07 188.391 191.711C188.391 191.352 188.512 191.055 188.754 190.82C188.996 190.578 189.289 190.457 189.633 190.457C189.984 190.457 190.281 190.578 190.523 190.82C190.773 191.055 190.898 191.352 190.898 191.711C190.898 192.055 190.773 192.348 190.523 192.59C190.281 192.832 189.984 192.953 189.633 192.953ZM190.57 208H188.648V196H190.57V208ZM193.734 207.566V205.504C194.781 206.277 195.934 206.664 197.191 206.664C198.879 206.664 199.723 206.102 199.723 204.977C199.723 204.656 199.648 204.387 199.5 204.168C199.359 203.941 199.164 203.742 198.914 203.57C198.672 203.398 198.383 203.246 198.047 203.113C197.719 202.973 197.363 202.828 196.98 202.68C196.449 202.469 195.98 202.258 195.574 202.047C195.176 201.828 194.84 201.586 194.566 201.32C194.301 201.047 194.098 200.738 193.957 200.395C193.824 200.051 193.758 199.648 193.758 199.188C193.758 198.625 193.887 198.129 194.145 197.699C194.402 197.262 194.746 196.898 195.176 196.609C195.605 196.312 196.094 196.09 196.641 195.941C197.195 195.793 197.766 195.719 198.352 195.719C199.391 195.719 200.32 195.898 201.141 196.258V198.203C200.258 197.625 199.242 197.336 198.094 197.336C197.734 197.336 197.41 197.379 197.121 197.465C196.832 197.543 196.582 197.656 196.371 197.805C196.168 197.953 196.008 198.133 195.891 198.344C195.781 198.547 195.727 198.773 195.727 199.023C195.727 199.336 195.781 199.598 195.891 199.809C196.008 200.02 196.176 200.207 196.395 200.371C196.613 200.535 196.879 200.684 197.191 200.816C197.504 200.949 197.859 201.094 198.258 201.25C198.789 201.453 199.266 201.664 199.688 201.883C200.109 202.094 200.469 202.336 200.766 202.609C201.062 202.875 201.289 203.184 201.445 203.535C201.609 203.887 201.691 204.305 201.691 204.789C201.691 205.383 201.559 205.898 201.293 206.336C201.035 206.773 200.688 207.137 200.25 207.426C199.812 207.715 199.309 207.93 198.738 208.07C198.168 208.211 197.57 208.281 196.945 208.281C195.711 208.281 194.641 208.043 193.734 207.566ZM217.172 191.922C216.797 191.711 216.371 191.605 215.895 191.605C214.551 191.605 213.879 192.453 213.879 194.148V196H216.691V197.641H213.879V208H211.969V197.641H209.918V196H211.969V194.055C211.969 192.797 212.332 191.805 213.059 191.078C213.785 190.344 214.691 189.977 215.777 189.977C216.363 189.977 216.828 190.047 217.172 190.188V191.922ZM225.023 197.945C224.688 197.688 224.203 197.559 223.57 197.559C222.75 197.559 222.062 197.945 221.508 198.719C220.961 199.492 220.688 200.547 220.688 201.883V208H218.766V196H220.688V198.473H220.734C221.008 197.629 221.426 196.973 221.988 196.504C222.551 196.027 223.18 195.789 223.875 195.789C224.375 195.789 224.758 195.844 225.023 195.953V197.945ZM236.426 202.48H227.953C227.984 203.816 228.344 204.848 229.031 205.574C229.719 206.301 230.664 206.664 231.867 206.664C233.219 206.664 234.461 206.219 235.594 205.328V207.133C234.539 207.898 233.145 208.281 231.41 208.281C229.715 208.281 228.383 207.738 227.414 206.652C226.445 205.559 225.961 204.023 225.961 202.047C225.961 200.18 226.488 198.66 227.543 197.488C228.605 196.309 229.922 195.719 231.492 195.719C233.062 195.719 234.277 196.227 235.137 197.242C235.996 198.258 236.426 199.668 236.426 201.473V202.48ZM234.457 200.852C234.449 199.742 234.18 198.879 233.648 198.262C233.125 197.645 232.395 197.336 231.457 197.336C230.551 197.336 229.781 197.66 229.148 198.309C228.516 198.957 228.125 199.805 227.977 200.852H234.457ZM248.988 202.48H240.516C240.547 203.816 240.906 204.848 241.594 205.574C242.281 206.301 243.227 206.664 244.43 206.664C245.781 206.664 247.023 206.219 248.156 205.328V207.133C247.102 207.898 245.707 208.281 243.973 208.281C242.277 208.281 240.945 207.738 239.977 206.652C239.008 205.559 238.523 204.023 238.523 202.047C238.523 200.18 239.051 198.66 240.105 197.488C241.168 196.309 242.484 195.719 244.055 195.719C245.625 195.719 246.84 196.227 247.699 197.242C248.559 198.258 248.988 199.668 248.988 201.473V202.48ZM247.02 200.852C247.012 199.742 246.742 198.879 246.211 198.262C245.688 197.645 244.957 197.336 244.02 197.336C243.113 197.336 242.344 197.66 241.711 198.309C241.078 198.957 240.688 199.805 240.539 200.852H247.02ZM252.574 208.258C252.215 208.258 251.906 208.129 251.648 207.871C251.398 207.613 251.273 207.305 251.273 206.945C251.273 206.586 251.398 206.277 251.648 206.02C251.906 205.754 252.215 205.621 252.574 205.621C252.941 205.621 253.254 205.754 253.512 206.02C253.77 206.277 253.898 206.586 253.898 206.945C253.898 207.305 253.77 207.613 253.512 207.871C253.254 208.129 252.941 208.258 252.574 208.258Z" fill="#005141"/>
</svg>
