<svg width="194" height="58" viewBox="0 0 194 58" fill="none" xmlns="http://www.w3.org/2000/svg">
<g filter="url(#filter0_d)">
<rect x="4" width="186" height="50" rx="25" fill="#00A259"/>
<path d="M33.2819 22.425C32.5319 22.25 31.8319 22.225 31.1319 22.175C30.1069 22.125 29.2319 22.075 28.5819 21.625C27.8819 21.15 27.3319 20.225 27.5819 19.35C27.8569 18.3 28.9069 17.475 30.0819 17.3C31.6069 17.075 33.2319 17.5 34.3569 18.4C35.0069 18.9 35.9569 18.775 36.4569 18.15C36.9569 17.5 36.8319 16.55 36.2069 16.05C34.4319 14.675 31.9819 14.025 29.6819 14.35C27.3069 14.7 25.3069 16.375 24.7069 18.55C24.1569 20.55 25.0569 22.825 26.8819 24.075C28.2319 25 29.6819 25.075 30.9819 25.15C31.5569 25.175 32.1319 25.2 32.6319 25.325C33.8569 25.6 34.7319 26.65 34.6569 27.775C34.5819 29.05 33.2319 29.8 32.0069 29.975C30.1569 30.25 28.1819 29.55 27.0819 28.275C26.5569 27.65 25.6319 27.575 25.0069 28.1C24.3819 28.65 24.3069 29.575 24.8319 30.2C26.3319 31.975 28.7569 33 31.2069 33C31.6069 33 32.0319 32.975 32.4319 32.925C34.8069 32.575 37.4569 30.875 37.6319 27.95C37.7819 25.4 35.9069 23 33.2819 22.425ZM46.0372 32.925C44.3872 32.925 42.8622 32.3 41.6872 31.175C40.4872 30 39.8122 28.45 39.7622 26.775C39.7372 25.125 40.3372 23.525 41.5372 22.325C42.6872 21.125 44.2372 20.45 45.9122 20.4C47.5872 20.375 49.1622 21 50.3622 22.175C50.9622 22.725 50.9872 23.7 50.4122 24.275C49.8372 24.875 48.8872 24.9 48.2872 24.325C47.6622 23.725 46.8372 23.4 45.9622 23.4C45.0872 23.4 44.2872 23.775 43.6622 24.4C43.0872 25.025 42.7372 25.85 42.7622 26.725C42.7622 27.575 43.1372 28.425 43.7622 29C44.3872 29.625 45.2122 29.95 46.0622 29.925C46.8872 29.925 47.6622 29.6 48.2622 29.05C48.8372 28.475 49.8122 28.525 50.3622 29.125C50.9372 29.725 50.8872 30.675 50.2872 31.25C49.1622 32.3 47.6872 32.9 46.1372 32.925H46.0372ZM63.4261 20.5C62.6011 20.5 62.1011 21.15 62.1011 21.925V22.05C61.0261 21.175 59.7761 20.6 58.2761 20.6C54.9261 20.6 52.2261 23.325 52.2261 26.65C52.2261 29.975 54.9261 32.675 58.2761 32.675C59.7761 32.675 61.0261 32.125 62.1011 31.2V31.5C62.1011 32.275 62.6011 32.925 63.4261 32.925C64.2511 32.925 64.8761 32.275 64.8761 31.5V21.925C64.8761 21.15 64.2511 20.5 63.4261 20.5ZM58.2761 29.75C56.5511 29.75 55.1261 28.375 55.1261 26.65C55.1261 24.925 56.5511 23.525 58.2761 23.525C59.9761 23.525 61.4011 24.925 61.4011 26.65C61.4011 28.375 59.9761 29.75 58.2761 29.75ZM83.978 25.275C83.978 22.675 81.753 20.55 79.078 20.55C77.703 20.55 76.503 21.05 75.628 21.9C74.703 21.05 73.503 20.55 72.178 20.55C71.353 20.55 70.578 20.75 69.878 21.1C69.653 20.75 69.203 20.5 68.728 20.5C67.928 20.5 67.228 21.2 67.228 22.025V31.575C67.228 32.375 67.928 33.05 68.728 33.05C69.578 33.05 70.228 32.375 70.228 31.575V25.275C70.228 24.3 71.103 23.55 72.178 23.55C73.253 23.55 74.128 24.3 74.128 25.275C74.128 25.3 74.128 25.325 74.128 25.35V25.45V31.5C74.128 32.35 74.778 33 75.628 33C76.428 33 77.103 32.35 77.103 31.5V25.45C77.103 25.425 77.103 25.4 77.103 25.35V25.275C77.103 24.3 77.978 23.55 79.078 23.55C80.103 23.55 80.978 24.3 80.978 25.275C80.978 25.3 80.978 25.325 80.978 25.35V25.45V31.5C80.978 32.35 81.678 33 82.503 33C83.328 33 83.978 32.35 83.978 31.5V25.45C83.978 25.425 83.978 25.4 83.978 25.35V25.275ZM95.0251 22.425C94.2751 22.25 93.5751 22.225 92.8751 22.175C91.8501 22.125 90.9751 22.075 90.3251 21.625C89.6251 21.15 89.0751 20.225 89.3251 19.35C89.6001 18.3 90.6501 17.475 91.8251 17.3C93.3501 17.075 94.9751 17.5 96.1001 18.4C96.7501 18.9 97.7001 18.775 98.2001 18.15C98.7001 17.5 98.5751 16.55 97.9501 16.05C96.1751 14.675 93.7251 14.025 91.4251 14.35C89.0501 14.7 87.0501 16.375 86.4501 18.55C85.9001 20.55 86.8001 22.825 88.6251 24.075C89.9751 25 91.4251 25.075 92.7251 25.15C93.3001 25.175 93.8751 25.2 94.3751 25.325C95.6001 25.6 96.4751 26.65 96.4001 27.775C96.3251 29.05 94.9751 29.8 93.7501 29.975C91.9001 30.25 89.9251 29.55 88.8251 28.275C88.3001 27.65 87.3751 27.575 86.7501 28.1C86.1251 28.65 86.0501 29.575 86.5751 30.2C88.0751 31.975 90.5001 33 92.9501 33C93.3501 33 93.7751 32.975 94.1751 32.925C96.5501 32.575 99.2001 30.875 99.3751 27.95C99.5251 25.4 97.6501 23 95.0251 22.425ZM107.78 32.925C106.13 32.925 104.605 32.3 103.43 31.175C102.23 30 101.555 28.45 101.505 26.775C101.48 25.125 102.08 23.525 103.28 22.325C104.43 21.125 105.98 20.45 107.655 20.4C109.33 20.375 110.905 21 112.105 22.175C112.705 22.725 112.73 23.7 112.155 24.275C111.58 24.875 110.63 24.9 110.03 24.325C109.405 23.725 108.58 23.4 107.705 23.4C106.83 23.4 106.03 23.775 105.405 24.4C104.83 25.025 104.48 25.85 104.505 26.725C104.505 27.575 104.88 28.425 105.505 29C106.13 29.625 106.955 29.95 107.805 29.925C108.63 29.925 109.405 29.6 110.005 29.05C110.58 28.475 111.555 28.525 112.105 29.125C112.68 29.725 112.63 30.675 112.03 31.25C110.905 32.3 109.43 32.9 107.88 32.925H107.78ZM125.169 20.5C124.344 20.5 123.844 21.15 123.844 21.925V22.05C122.769 21.175 121.519 20.6 120.019 20.6C116.669 20.6 113.969 23.325 113.969 26.65C113.969 29.975 116.669 32.675 120.019 32.675C121.519 32.675 122.769 32.125 123.844 31.2V31.5C123.844 32.275 124.344 32.925 125.169 32.925C125.994 32.925 126.619 32.275 126.619 31.5V21.925C126.619 21.15 125.994 20.5 125.169 20.5ZM120.019 29.75C118.294 29.75 116.869 28.375 116.869 26.65C116.869 24.925 118.294 23.525 120.019 23.525C121.719 23.525 123.144 24.925 123.144 26.65C123.144 28.375 121.719 29.75 120.019 29.75ZM134.921 20.525C133.796 20.525 132.771 20.85 131.871 21.425C131.671 20.825 131.121 20.4 130.471 20.4C129.646 20.4 128.971 21.075 128.971 21.9V31.45C128.971 32.275 129.646 32.95 130.471 32.95C131.296 32.95 131.971 32.275 131.971 31.45V27.2C131.971 25.475 132.971 23.525 134.921 23.525C136.496 23.525 137.796 24.95 137.796 26.725V31.45C137.796 32.275 138.446 32.95 139.296 32.95C140.121 32.95 140.771 32.275 140.771 31.45V26.725C140.771 23.3 138.146 20.525 134.921 20.525Z" fill="white"/>
</g>
<defs>
<filter id="filter0_d" x="0" y="0" width="194" height="58" filterUnits="userSpaceOnUse" color-interpolation-filters="sRGB">
<feFlood flood-opacity="0" result="BackgroundImageFix"/>
<feColorMatrix in="SourceAlpha" type="matrix" values="0 0 0 0 0 0 0 0 0 0 0 0 0 0 0 0 0 0 127 0"/>
<feOffset dy="4"/>
<feGaussianBlur stdDeviation="2"/>
<feColorMatrix type="matrix" values="0 0 0 0 0 0 0 0 0 0 0 0 0 0 0 0 0 0 0.25 0"/>
<feBlend mode="normal" in2="BackgroundImageFix" result="effect1_dropShadow"/>
<feBlend mode="normal" in="SourceGraphic" in2="effect1_dropShadow" result="shape"/>
</filter>
</defs>
</svg>
