<svg width="565" height="108" viewBox="0 0 565 108" fill="none" xmlns="http://www.w3.org/2000/svg">
<path d="M26.45 37.15H3.25C1.6 37.15 0.25 38.5 0.25 40.15C0.25 41.85 1.6 43.2 3.25 43.2H11.8V72.05C11.8 73.75 13.15 75.1 14.85 75.1C16.5 75.1 17.85 73.75 17.85 72.05V43.2H26.45C28.1 43.2 29.45 41.85 29.45 40.15C29.45 38.5 28.1 37.15 26.45 37.15ZM55.4395 62.35C55.6395 61.85 55.8395 61.35 55.8395 60.9C55.9395 59.25 55.0395 57.4 54.2395 56C52.4395 53 49.5395 50.9 46.1395 50.25C45.3895 50.1 44.6895 50.05 43.9395 50.05C36.9895 50.05 31.4395 55.75 31.4395 62.6C31.4395 69.55 36.9895 75.15 43.9395 75.15C46.7895 75.15 50.6395 74.25 53.3895 71.6C54.5895 70.45 54.6395 68.5 53.4395 67.35C52.2895 66.15 50.3895 66.15 49.1895 67.3C47.8895 68.55 45.5395 69.2 43.9395 69.2C40.8395 69.2 38.2895 67 37.5895 64.15H52.9895C54.1895 64.15 55.0395 63.3 55.4395 62.35ZM43.9395 56.1C46.1895 56.1 48.0395 57.2 49.0395 59.1H38.4395C39.6395 57.25 41.6395 56.1 43.9395 56.1ZM79.9684 50C78.3184 50 77.3184 51.3 77.3184 52.85V53.1C75.1684 51.35 72.6684 50.2 69.6684 50.2C62.9684 50.2 57.5684 55.65 57.5684 62.3C57.5684 68.95 62.9684 74.35 69.6684 74.35C72.6684 74.35 75.1684 73.25 77.3184 71.4V72C77.3184 73.55 78.3184 74.85 79.9684 74.85C81.6184 74.85 82.8684 73.55 82.8684 72V52.85C82.8684 51.3 81.6184 50 79.9684 50ZM69.6684 68.5C66.2184 68.5 63.3684 65.75 63.3684 62.3C63.3684 58.85 66.2184 56.05 69.6684 56.05C73.0684 56.05 75.9184 58.85 75.9184 62.3C75.9184 65.75 73.0684 68.5 69.6684 68.5ZM121.072 59.55C121.072 54.35 116.622 50.1 111.272 50.1C108.522 50.1 106.122 51.1 104.372 52.8C102.522 51.1 100.122 50.1 97.4723 50.1C95.8223 50.1 94.2723 50.5 92.8723 51.2C92.4223 50.5 91.5223 50 90.5723 50C88.9723 50 87.5723 51.4 87.5723 53.05V72.15C87.5723 73.75 88.9723 75.1 90.5723 75.1C92.2723 75.1 93.5723 73.75 93.5723 72.15V59.55C93.5723 57.6 95.3223 56.1 97.4723 56.1C99.6223 56.1 101.372 57.6 101.372 59.55C101.372 59.6 101.372 59.65 101.372 59.7V59.9V72C101.372 73.7 102.672 75 104.372 75C105.972 75 107.322 73.7 107.322 72V59.9C107.322 59.85 107.322 59.8 107.322 59.7V59.55C107.322 57.6 109.072 56.1 111.272 56.1C113.322 56.1 115.072 57.6 115.072 59.55C115.072 59.6 115.072 59.65 115.072 59.7V59.9V72C115.072 73.7 116.472 75 118.122 75C119.772 75 121.072 73.7 121.072 72V59.9C121.072 59.85 121.072 59.8 121.072 59.7V59.55ZM150.186 37.35H142.336C140.636 37.35 139.336 38.65 139.336 40.3V71.95C139.336 73.6 140.586 74.95 142.236 75L150.086 75.3H150.186C160.636 75.3 169.186 66.75 169.186 56.3C169.186 45.85 160.636 37.35 150.186 37.35ZM150.236 69.25L145.336 69.1V43.35H150.186C157.286 43.35 163.186 49.15 163.186 56.3C163.186 63.45 157.386 69.25 150.236 69.25ZM185.218 74.9C178.318 74.9 172.668 69.3 172.668 62.35C172.668 55.45 178.318 49.8 185.218 49.8C192.118 49.8 197.768 55.45 197.818 62.4C197.768 69.3 192.118 74.9 185.218 74.9ZM185.218 55.95C181.668 55.95 178.818 58.8 178.818 62.35C178.818 65.9 181.668 68.75 185.218 68.75C188.768 68.75 191.618 65.9 191.618 62.35C191.618 58.8 188.768 55.95 185.218 55.95ZM213.242 50.05C210.992 50.05 208.942 50.7 207.142 51.85C206.742 50.65 205.642 49.8 204.342 49.8C202.692 49.8 201.342 51.15 201.342 52.8V71.9C201.342 73.55 202.692 74.9 204.342 74.9C205.992 74.9 207.342 73.55 207.342 71.9V63.4C207.342 59.95 209.342 56.05 213.242 56.05C216.392 56.05 218.992 58.9 218.992 62.45V71.9C218.992 73.55 220.292 74.9 221.992 74.9C223.642 74.9 224.942 73.55 224.942 71.9V62.45C224.942 55.6 219.692 50.05 213.242 50.05ZM250.086 50C248.436 50 247.436 51.3 247.436 52.85V53.1C245.286 51.35 242.786 50.2 239.786 50.2C233.086 50.2 227.686 55.65 227.686 62.3C227.686 68.95 233.086 74.35 239.786 74.35C242.786 74.35 245.286 73.25 247.436 71.4V72C247.436 73.55 248.436 74.85 250.086 74.85C251.736 74.85 252.986 73.55 252.986 72V52.85C252.986 51.3 251.736 50 250.086 50ZM239.786 68.5C236.336 68.5 233.486 65.75 233.486 62.3C233.486 58.85 236.336 56.05 239.786 56.05C243.186 56.05 246.036 58.85 246.036 62.3C246.036 65.75 243.186 68.5 239.786 68.5ZM268.039 68.85C267.689 68.85 267.239 68.9 266.989 68.65C266.639 68.35 266.739 67.75 266.639 67.35V55.45H268.289C269.939 55.45 271.289 54.1 271.289 52.45C271.289 50.8 269.939 49.45 268.289 49.45H266.639V39.9C266.639 38.25 265.289 36.9 263.639 36.9C261.989 36.9 260.639 38.25 260.639 39.9V49.45H258.489C256.839 49.45 255.489 50.8 255.489 52.45C255.489 54.1 256.839 55.45 258.489 55.45H260.639V68.05C260.639 69.6 261.339 71.4 262.339 72.55C263.489 73.85 265.089 74.55 266.739 74.8C267.189 74.85 267.589 74.85 268.039 74.85C269.689 74.85 271.039 73.55 271.039 71.85C271.039 70.2 269.689 68.85 268.039 68.85ZM278.185 45.65C276.435 45.65 275.035 44.25 275.035 42.6V42.35C275.035 40.6 276.435 39.25 278.185 39.25C279.835 39.25 281.235 40.6 281.235 42.35V42.6C281.235 44.25 279.835 45.65 278.185 45.65ZM278.185 75C276.435 75 275.035 73.6 275.035 71.9V52.6C275.035 50.9 276.435 49.55 278.185 49.55C279.835 49.55 281.235 50.9 281.235 52.6V71.9C281.235 73.6 279.835 75 278.185 75ZM297.767 74.9C290.867 74.9 285.217 69.3 285.217 62.35C285.217 55.45 290.867 49.8 297.767 49.8C304.667 49.8 310.317 55.45 310.367 62.4C310.317 69.3 304.667 74.9 297.767 74.9ZM297.767 55.95C294.217 55.95 291.367 58.8 291.367 62.35C291.367 65.9 294.217 68.75 297.767 68.75C301.317 68.75 304.167 65.9 304.167 62.35C304.167 58.8 301.317 55.95 297.767 55.95ZM325.791 50.05C323.541 50.05 321.491 50.7 319.691 51.85C319.291 50.65 318.191 49.8 316.891 49.8C315.241 49.8 313.891 51.15 313.891 52.8V71.9C313.891 73.55 315.241 74.9 316.891 74.9C318.541 74.9 319.891 73.55 319.891 71.9V63.4C319.891 59.95 321.891 56.05 325.791 56.05C328.941 56.05 331.541 58.9 331.541 62.45V71.9C331.541 73.55 332.841 74.9 334.541 74.9C336.191 74.9 337.491 73.55 337.491 71.9V62.45C337.491 55.6 332.241 50.05 325.791 50.05Z" fill="#005141"/>
<g filter="url(#filter0_d)">
<path d="M436.357 100C412.195 100 392.607 77.6143 392.607 50C392.607 22.3857 412.195 0 436.357 0C460.52 0 480.107 22.3857 480.107 50C480.107 77.6143 460.52 100 436.357 100Z" fill="#FCCF00"/>
<path d="M392.607 50C392.607 24.4607 409.366 3.40714 431 0.385714C429.243 0.141071 427.457 0 425.643 0C401.48 0 381.893 22.3857 381.893 50C381.893 77.6143 401.48 100 425.643 100C427.457 100 429.243 99.8589 431 99.6143C409.366 96.5929 392.607 75.5393 392.607 50Z" fill="#F4BF1A"/>
<path d="M436.509 90.2212H436.355C435.105 90.2212 433.846 90.1462 432.614 89.9997C431.634 89.8819 430.936 88.9944 431.052 88.014C431.17 87.0337 432.064 86.3497 433.037 86.4533C434.13 86.5837 435.246 86.6497 436.355 86.6497C437.343 86.6497 438.218 87.4497 438.218 88.4354C438.218 89.4212 437.498 90.2212 436.509 90.2212ZM446.893 88.298C446.171 88.298 445.491 87.8569 445.221 87.1408C444.873 86.2176 445.339 85.1872 446.262 84.8408C447.291 84.4533 448.318 83.9979 449.309 83.489C450.187 83.0354 451.262 83.3837 451.714 84.2622C452.164 85.139 451.818 86.2158 450.939 86.6658C449.827 87.2372 448.678 87.7444 447.521 88.1819C447.316 88.2604 447.103 88.298 446.893 88.298ZM422.723 86.9337C422.452 86.9337 422.175 86.8712 421.916 86.739C420.818 86.1801 419.73 85.5533 418.686 84.8676C417.861 84.3283 417.63 83.2229 418.17 82.3962C418.712 81.573 419.816 81.3408 420.643 81.8801C421.577 82.4926 422.55 83.0569 423.532 83.5551C424.411 84.0015 424.762 85.0765 424.316 85.9551C424.002 86.5765 423.373 86.9337 422.723 86.9337ZM458.634 80.5801C458.18 80.5801 457.725 80.4069 457.377 80.0622C456.677 79.3676 456.671 78.2372 457.366 77.5372C458.143 76.7551 458.898 75.9122 459.611 75.0337C460.234 74.2694 461.359 74.1533 462.123 74.7747C462.887 75.3962 463.005 76.5212 462.382 77.2872C461.595 78.2551 460.761 79.1854 459.902 80.0515C459.552 80.4033 459.091 80.5801 458.634 80.5801ZM411.816 78.0658C411.3 78.0658 410.787 77.8426 410.434 77.414C409.659 76.4676 408.914 75.4676 408.223 74.4408C407.671 73.6229 407.887 72.5122 408.705 71.9604C409.521 71.4087 410.632 71.623 411.184 72.4426C411.814 73.3783 412.491 74.289 413.196 75.148C413.821 75.9105 413.711 77.0354 412.948 77.6622C412.618 77.9337 412.214 78.0658 411.816 78.0658ZM466.484 68.8926C466.245 68.8926 466.003 68.8444 465.771 68.7444C464.866 68.3497 464.453 67.298 464.846 66.3926C465.295 65.3676 465.703 64.3033 466.062 63.2337C466.377 62.3015 467.389 61.7962 468.325 62.1105C469.259 62.4265 469.762 63.4372 469.448 64.373C469.055 65.539 468.609 66.6997 468.121 67.8194C467.827 68.4908 467.17 68.8926 466.484 68.8926ZM405.009 65.7372C404.266 65.7372 403.571 65.2676 403.318 64.5265C402.923 63.3694 402.573 62.1783 402.277 60.9855C402.037 60.0283 402.62 59.0605 403.577 58.823C404.53 58.5801 405.503 59.1658 405.741 60.123C406.014 61.2176 406.336 62.3122 406.698 63.3729C407.016 64.3069 406.518 65.3212 405.586 65.639C405.396 65.7051 405.2 65.7372 405.009 65.7372ZM469.857 55.2069C469.811 55.2069 469.764 55.2051 469.718 55.2015C468.734 55.1247 468 54.2658 468.075 53.2819C468.159 52.1997 468.202 51.0944 468.202 49.9997C468.202 49.014 469.002 48.1569 469.987 48.1569C470.973 48.1569 471.773 48.898 471.773 49.8837V49.9997C471.773 51.1872 471.727 52.3837 471.636 53.5587C471.564 54.4944 470.78 55.2069 469.857 55.2069ZM402.725 51.8051C401.739 51.8051 400.939 51.0247 400.939 50.039V49.9997C400.939 48.7819 400.987 47.5569 401.082 46.3622C401.161 45.3801 402.016 44.6515 403.003 44.723C403.987 44.8015 404.721 45.6622 404.643 46.6444C404.555 47.748 404.511 48.8765 404.511 49.9997C404.511 50.9855 403.711 51.8051 402.725 51.8051ZM468.682 41.1569C467.884 41.1569 467.157 40.6176 466.953 39.8087C466.677 38.7105 466.353 37.6176 465.989 36.5569C465.67 35.6247 466.168 34.6087 467.1 34.289C468.034 33.9658 469.05 34.4658 469.368 35.3997C469.764 36.5533 470.116 37.7426 470.416 38.9337C470.657 39.8908 470.077 40.8605 469.121 41.1015C468.977 41.1408 468.83 41.1569 468.682 41.1569ZM404.986 37.9122C404.795 37.9122 404.602 37.8801 404.411 37.8158C403.477 37.4997 402.977 36.4855 403.293 35.5515C403.687 34.3908 404.136 33.2319 404.627 32.1087C405.023 31.2033 406.073 30.7944 406.978 31.1872C407.882 31.5819 408.295 32.6355 407.9 33.539C407.448 34.5694 407.037 35.6337 406.677 36.698C406.421 37.4426 405.73 37.9122 404.986 37.9122ZM462.968 28.2819C462.395 28.2819 461.834 28.0069 461.487 27.4962C460.855 26.564 460.177 25.6551 459.47 24.7962C458.843 24.0355 458.952 22.9087 459.712 22.2819C460.473 21.6551 461.6 21.764 462.227 22.5247C463.003 23.4694 463.75 24.4676 464.445 25.4944C464.998 26.3105 464.784 27.4212 463.968 27.9747C463.661 28.1819 463.314 28.2819 462.968 28.2819ZM411.764 25.5658C411.368 25.5658 410.968 25.4337 410.636 25.1622C409.871 24.539 409.759 23.414 410.384 22.6497C411.171 21.6855 412.007 20.7569 412.868 19.8908C413.564 19.1944 414.695 19.189 415.393 19.8837C416.093 20.5801 416.096 21.7087 415.402 22.4087C414.623 23.1926 413.864 24.0337 413.148 24.9105C412.798 25.3426 412.284 25.5658 411.764 25.5658ZM452.982 18.3694C452.648 18.3694 452.311 18.2765 452.011 18.0801C451.077 17.4712 450.102 16.9105 449.114 16.4122C448.236 15.9676 447.882 14.8944 448.327 14.014C448.771 13.1372 449.843 12.7783 450.725 13.2247C451.828 13.7801 452.916 14.4069 453.959 15.0872C454.786 15.6265 455.02 16.7337 454.48 17.5587C454.137 18.0855 453.568 18.3694 452.982 18.3694ZM422.659 16.673C422.009 16.673 421.382 16.3176 421.066 15.698C420.618 14.8194 420.968 13.7444 421.846 13.2962C422.959 12.7301 424.109 12.2212 425.268 11.789C426.189 11.4426 427.22 11.9105 427.566 12.8355C427.911 13.7587 427.443 14.7872 426.518 15.1337C425.486 15.5194 424.459 15.9712 423.466 16.4783C423.209 16.6105 422.93 16.673 422.659 16.673ZM439.812 13.5497C439.743 13.5497 439.673 13.5462 439.603 13.5372C438.528 13.4122 437.436 13.3497 436.355 13.3497C435.37 13.3497 434.532 12.5497 434.532 11.564C434.532 10.5783 435.295 9.77832 436.28 9.77832H436.355C437.573 9.77832 438.805 9.84975 440.016 9.99082C440.995 10.1033 441.698 10.989 441.584 11.9694C441.48 12.8801 440.705 13.5497 439.812 13.5497Z" fill="#F4BF1A"/>
<path d="M392.604 51.7861H381.893C381.929 52.9879 381.996 54.179 382.105 55.3576H392.825C392.714 54.179 392.641 52.9879 392.604 51.7861Z" fill="#DCA815"/>
<path d="M393.013 42.8574H382.305C382.157 44.0342 382.05 45.2271 381.977 46.4288H392.689C392.764 45.2271 392.864 44.0342 393.013 42.8574Z" fill="#DCA815"/>
<path d="M393.586 60.7139H382.87C383.102 61.921 383.37 63.1121 383.675 64.2853H394.387C394.084 63.1121 393.818 61.921 393.586 60.7139Z" fill="#DCA815"/>
<path d="M396.084 69.6426H385.362C385.818 70.8604 386.321 72.0479 386.857 73.214H397.573C397.037 72.0497 396.539 70.8586 396.084 69.6426Z" fill="#DCA815"/>
<path d="M394.878 33.9287H384.177C383.828 35.1019 383.503 36.2894 383.232 37.5001H393.959C394.23 36.293 394.532 35.0984 394.878 33.9287Z" fill="#DCA815"/>
<path d="M398.436 25H387.721C387.132 26.1625 386.577 27.3518 386.07 28.5714H396.791C397.298 27.3536 397.846 26.1625 398.436 25Z" fill="#DCA815"/>
<path d="M405.723 14.2861H394.996C393.98 15.4218 393.014 16.6129 392.1 17.8576H402.823C403.739 16.6129 404.707 15.4218 405.723 14.2861Z" fill="#DCA815"/>
<path d="M416.643 5.35742H405.905C404.08 6.41099 402.33 7.60385 400.662 8.92885H411.393C413.062 7.60385 414.816 6.41099 416.643 5.35742Z" fill="#DCA815"/>
<path d="M401.57 80.3574H390.85C391.679 81.5949 392.554 82.786 393.479 83.9289H404.205C403.28 82.786 402.4 81.5949 401.57 80.3574Z" fill="#DCA815"/>
<path d="M398.557 89.2861C399.991 90.5772 401.493 91.7754 403.064 92.8576H413.804C412.225 91.7736 410.707 90.5826 409.268 89.2861H398.557Z" fill="#DCA815"/>
<path d="M475.357 100C451.195 100 431.607 77.6143 431.607 50C431.607 22.3857 451.195 0 475.357 0C499.52 0 519.107 22.3857 519.107 50C519.107 77.6143 499.52 100 475.357 100Z" fill="#FCCF00"/>
<path d="M431.607 50C431.607 24.4607 448.366 3.40714 470 0.385714C468.243 0.141071 466.457 0 464.643 0C440.48 0 420.893 22.3857 420.893 50C420.893 77.6143 440.48 100 464.643 100C466.457 100 468.243 99.8589 470 99.6143C448.366 96.5929 431.607 75.5393 431.607 50Z" fill="#F4BF1A"/>
<path d="M475.509 90.2212H475.355C474.105 90.2212 472.846 90.1462 471.614 89.9997C470.634 89.8819 469.936 88.9944 470.052 88.014C470.17 87.0337 471.064 86.3497 472.037 86.4533C473.13 86.5837 474.246 86.6497 475.355 86.6497C476.343 86.6497 477.218 87.4497 477.218 88.4354C477.218 89.4212 476.498 90.2212 475.509 90.2212ZM485.893 88.298C485.171 88.298 484.491 87.8569 484.221 87.1408C483.873 86.2176 484.339 85.1872 485.262 84.8408C486.291 84.4533 487.318 83.9979 488.309 83.489C489.187 83.0354 490.262 83.3837 490.714 84.2622C491.164 85.139 490.818 86.2158 489.939 86.6658C488.827 87.2372 487.678 87.7444 486.521 88.1819C486.316 88.2604 486.103 88.298 485.893 88.298ZM461.723 86.9337C461.452 86.9337 461.175 86.8712 460.916 86.739C459.818 86.1801 458.73 85.5533 457.686 84.8676C456.861 84.3283 456.63 83.2229 457.17 82.3962C457.712 81.573 458.816 81.3408 459.643 81.8801C460.577 82.4926 461.55 83.0569 462.532 83.5551C463.411 84.0015 463.762 85.0765 463.316 85.9551C463.002 86.5765 462.373 86.9337 461.723 86.9337ZM497.634 80.5801C497.18 80.5801 496.725 80.4069 496.377 80.0622C495.677 79.3676 495.671 78.2372 496.366 77.5372C497.143 76.7551 497.898 75.9122 498.611 75.0337C499.234 74.2694 500.359 74.1533 501.123 74.7747C501.887 75.3962 502.005 76.5212 501.382 77.2872C500.595 78.2551 499.761 79.1854 498.902 80.0515C498.552 80.4033 498.091 80.5801 497.634 80.5801ZM450.816 78.0658C450.3 78.0658 449.787 77.8426 449.434 77.414C448.659 76.4676 447.914 75.4676 447.223 74.4408C446.671 73.6229 446.887 72.5122 447.705 71.9604C448.521 71.4087 449.632 71.623 450.184 72.4426C450.814 73.3783 451.491 74.289 452.196 75.148C452.821 75.9105 452.711 77.0354 451.948 77.6622C451.618 77.9337 451.214 78.0658 450.816 78.0658ZM505.484 68.8926C505.245 68.8926 505.003 68.8444 504.771 68.7444C503.866 68.3497 503.453 67.298 503.846 66.3926C504.295 65.3676 504.703 64.3033 505.062 63.2337C505.377 62.3015 506.389 61.7962 507.325 62.1105C508.259 62.4265 508.762 63.4372 508.448 64.373C508.055 65.539 507.609 66.6997 507.121 67.8194C506.827 68.4908 506.17 68.8926 505.484 68.8926ZM444.009 65.7372C443.266 65.7372 442.571 65.2676 442.318 64.5265C441.923 63.3694 441.573 62.1783 441.277 60.9855C441.037 60.0283 441.62 59.0605 442.577 58.823C443.53 58.5801 444.503 59.1658 444.741 60.123C445.014 61.2176 445.336 62.3122 445.698 63.3729C446.016 64.3069 445.518 65.3212 444.586 65.639C444.396 65.7051 444.2 65.7372 444.009 65.7372ZM508.857 55.2069C508.811 55.2069 508.764 55.2051 508.718 55.2015C507.734 55.1247 507 54.2658 507.075 53.2819C507.159 52.1997 507.202 51.0944 507.202 49.9997C507.202 49.014 508.002 48.1569 508.987 48.1569C509.973 48.1569 510.773 48.898 510.773 49.8837V49.9997C510.773 51.1872 510.727 52.3837 510.636 53.5587C510.564 54.4944 509.78 55.2069 508.857 55.2069ZM441.725 51.8051C440.739 51.8051 439.939 51.0247 439.939 50.039V49.9997C439.939 48.7819 439.987 47.5569 440.082 46.3622C440.161 45.3801 441.016 44.6515 442.003 44.723C442.987 44.8015 443.721 45.6622 443.643 46.6444C443.555 47.748 443.511 48.8765 443.511 49.9997C443.511 50.9855 442.711 51.8051 441.725 51.8051ZM507.682 41.1569C506.884 41.1569 506.157 40.6176 505.953 39.8087C505.677 38.7105 505.353 37.6176 504.989 36.5569C504.67 35.6247 505.168 34.6087 506.1 34.289C507.034 33.9658 508.05 34.4658 508.368 35.3997C508.764 36.5533 509.116 37.7426 509.416 38.9337C509.657 39.8908 509.077 40.8605 508.121 41.1015C507.977 41.1408 507.83 41.1569 507.682 41.1569ZM443.986 37.9122C443.795 37.9122 443.602 37.8801 443.411 37.8158C442.477 37.4997 441.977 36.4855 442.293 35.5515C442.687 34.3908 443.136 33.2319 443.627 32.1087C444.023 31.2033 445.073 30.7944 445.978 31.1872C446.882 31.5819 447.295 32.6355 446.9 33.539C446.448 34.5694 446.037 35.6337 445.677 36.698C445.421 37.4426 444.73 37.9122 443.986 37.9122ZM501.968 28.2819C501.395 28.2819 500.834 28.0069 500.487 27.4962C499.855 26.564 499.177 25.6551 498.47 24.7962C497.843 24.0355 497.952 22.9087 498.712 22.2819C499.473 21.6551 500.6 21.764 501.227 22.5247C502.003 23.4694 502.75 24.4676 503.445 25.4944C503.998 26.3105 503.784 27.4212 502.968 27.9747C502.661 28.1819 502.314 28.2819 501.968 28.2819ZM450.764 25.5658C450.368 25.5658 449.968 25.4337 449.636 25.1622C448.871 24.539 448.759 23.414 449.384 22.6497C450.171 21.6855 451.007 20.7569 451.868 19.8908C452.564 19.1944 453.695 19.189 454.393 19.8837C455.093 20.5801 455.096 21.7087 454.402 22.4087C453.623 23.1926 452.864 24.0337 452.148 24.9105C451.798 25.3426 451.284 25.5658 450.764 25.5658ZM491.982 18.3694C491.648 18.3694 491.311 18.2765 491.011 18.0801C490.077 17.4712 489.102 16.9105 488.114 16.4122C487.236 15.9676 486.882 14.8944 487.327 14.014C487.771 13.1372 488.843 12.7783 489.725 13.2247C490.828 13.7801 491.916 14.4069 492.959 15.0872C493.786 15.6265 494.02 16.7337 493.48 17.5587C493.137 18.0855 492.568 18.3694 491.982 18.3694ZM461.659 16.673C461.009 16.673 460.382 16.3176 460.066 15.698C459.618 14.8194 459.968 13.7444 460.846 13.2962C461.959 12.7301 463.109 12.2212 464.268 11.789C465.189 11.4426 466.22 11.9105 466.566 12.8355C466.911 13.7587 466.443 14.7872 465.518 15.1337C464.486 15.5194 463.459 15.9712 462.466 16.4783C462.209 16.6105 461.93 16.673 461.659 16.673ZM478.812 13.5497C478.743 13.5497 478.673 13.5462 478.603 13.5372C477.528 13.4122 476.436 13.3497 475.355 13.3497C474.37 13.3497 473.532 12.5497 473.532 11.564C473.532 10.5783 474.295 9.77832 475.28 9.77832H475.355C476.573 9.77832 477.805 9.84975 479.016 9.99082C479.995 10.1033 480.698 10.989 480.584 11.9694C480.48 12.8801 479.705 13.5497 478.812 13.5497Z" fill="#F4BF1A"/>
<path d="M431.604 51.7861H420.893C420.929 52.9879 420.996 54.179 421.105 55.3576H431.825C431.714 54.179 431.641 52.9879 431.604 51.7861Z" fill="#DCA815"/>
<path d="M432.013 42.8574H421.305C421.157 44.0342 421.05 45.2271 420.977 46.4288H431.689C431.764 45.2271 431.864 44.0342 432.013 42.8574Z" fill="#DCA815"/>
<path d="M432.586 60.7139H421.87C422.102 61.921 422.37 63.1121 422.675 64.2853H433.387C433.084 63.1121 432.818 61.921 432.586 60.7139Z" fill="#DCA815"/>
<path d="M435.084 69.6426H424.362C424.818 70.8604 425.321 72.0479 425.857 73.214H436.573C436.037 72.0497 435.539 70.8586 435.084 69.6426Z" fill="#DCA815"/>
<path d="M433.878 33.9287H423.177C422.828 35.1019 422.503 36.2894 422.232 37.5001H432.959C433.23 36.293 433.532 35.0984 433.878 33.9287Z" fill="#DCA815"/>
<path d="M437.436 25H426.721C426.132 26.1625 425.577 27.3518 425.07 28.5714H435.791C436.298 27.3536 436.846 26.1625 437.436 25Z" fill="#DCA815"/>
<path d="M444.723 14.2861H433.996C432.98 15.4218 432.014 16.6129 431.1 17.8576H441.823C442.739 16.6129 443.707 15.4218 444.723 14.2861Z" fill="#DCA815"/>
<path d="M455.643 5.35742H444.905C443.08 6.41099 441.33 7.60385 439.662 8.92885H450.393C452.062 7.60385 453.816 6.41099 455.643 5.35742Z" fill="#DCA815"/>
<path d="M440.57 80.3574H429.85C430.679 81.5949 431.554 82.786 432.479 83.9289H443.205C442.28 82.786 441.4 81.5949 440.57 80.3574Z" fill="#DCA815"/>
<path d="M437.557 89.2861C438.991 90.5772 440.493 91.7754 442.064 92.8576H452.804C451.225 91.7736 449.707 90.5826 448.268 89.2861H437.557Z" fill="#DCA815"/>
<path d="M516.357 100C492.195 100 472.607 77.6143 472.607 50C472.607 22.3857 492.195 0 516.357 0C540.52 0 560.107 22.3857 560.107 50C560.107 77.6143 540.52 100 516.357 100Z" fill="#FCCF00"/>
<path d="M472.607 50C472.607 24.4607 489.366 3.40714 511 0.385714C509.243 0.141071 507.457 0 505.643 0C481.48 0 461.893 22.3857 461.893 50C461.893 77.6143 481.48 100 505.643 100C507.457 100 509.243 99.8589 511 99.6143C489.366 96.5929 472.607 75.5393 472.607 50Z" fill="#F4BF1A"/>
<path d="M516.509 90.2212H516.355C515.105 90.2212 513.846 90.1462 512.614 89.9997C511.634 89.8819 510.936 88.9944 511.052 88.014C511.17 87.0337 512.064 86.3497 513.037 86.4533C514.13 86.5837 515.246 86.6497 516.355 86.6497C517.343 86.6497 518.218 87.4497 518.218 88.4354C518.218 89.4212 517.498 90.2212 516.509 90.2212ZM526.893 88.298C526.171 88.298 525.491 87.8569 525.221 87.1408C524.873 86.2176 525.339 85.1872 526.262 84.8408C527.291 84.4533 528.318 83.9979 529.309 83.489C530.187 83.0354 531.262 83.3837 531.714 84.2622C532.164 85.139 531.818 86.2158 530.939 86.6658C529.827 87.2372 528.678 87.7444 527.521 88.1819C527.316 88.2604 527.103 88.298 526.893 88.298ZM502.723 86.9337C502.452 86.9337 502.175 86.8712 501.916 86.739C500.818 86.1801 499.73 85.5533 498.686 84.8676C497.861 84.3283 497.63 83.2229 498.17 82.3962C498.712 81.573 499.816 81.3408 500.643 81.8801C501.577 82.4926 502.55 83.0569 503.532 83.5551C504.411 84.0015 504.762 85.0765 504.316 85.9551C504.002 86.5765 503.373 86.9337 502.723 86.9337ZM538.634 80.5801C538.18 80.5801 537.725 80.4069 537.377 80.0622C536.677 79.3676 536.671 78.2372 537.366 77.5372C538.143 76.7551 538.898 75.9122 539.611 75.0337C540.234 74.2694 541.359 74.1533 542.123 74.7747C542.887 75.3962 543.005 76.5212 542.382 77.2872C541.595 78.2551 540.761 79.1854 539.902 80.0515C539.552 80.4033 539.091 80.5801 538.634 80.5801ZM491.816 78.0658C491.3 78.0658 490.787 77.8426 490.434 77.414C489.659 76.4676 488.914 75.4676 488.223 74.4408C487.671 73.6229 487.887 72.5122 488.705 71.9604C489.521 71.4087 490.632 71.623 491.184 72.4426C491.814 73.3783 492.491 74.289 493.196 75.148C493.821 75.9105 493.711 77.0354 492.948 77.6622C492.618 77.9337 492.214 78.0658 491.816 78.0658ZM546.484 68.8926C546.245 68.8926 546.003 68.8444 545.771 68.7444C544.866 68.3497 544.453 67.298 544.846 66.3926C545.295 65.3676 545.703 64.3033 546.062 63.2337C546.377 62.3015 547.389 61.7962 548.325 62.1105C549.259 62.4265 549.762 63.4372 549.448 64.373C549.055 65.539 548.609 66.6997 548.121 67.8194C547.827 68.4908 547.17 68.8926 546.484 68.8926ZM485.009 65.7372C484.266 65.7372 483.571 65.2676 483.318 64.5265C482.923 63.3694 482.573 62.1783 482.277 60.9855C482.037 60.0283 482.62 59.0605 483.577 58.823C484.53 58.5801 485.503 59.1658 485.741 60.123C486.014 61.2176 486.336 62.3122 486.698 63.3729C487.016 64.3069 486.518 65.3212 485.586 65.639C485.396 65.7051 485.2 65.7372 485.009 65.7372ZM549.857 55.2069C549.811 55.2069 549.764 55.2051 549.718 55.2015C548.734 55.1247 548 54.2658 548.075 53.2819C548.159 52.1997 548.202 51.0944 548.202 49.9997C548.202 49.014 549.002 48.1569 549.987 48.1569C550.973 48.1569 551.773 48.898 551.773 49.8837V49.9997C551.773 51.1872 551.727 52.3837 551.636 53.5587C551.564 54.4944 550.78 55.2069 549.857 55.2069ZM482.725 51.8051C481.739 51.8051 480.939 51.0247 480.939 50.039V49.9997C480.939 48.7819 480.987 47.5569 481.082 46.3622C481.161 45.3801 482.016 44.6515 483.003 44.723C483.987 44.8015 484.721 45.6622 484.643 46.6444C484.555 47.748 484.511 48.8765 484.511 49.9997C484.511 50.9855 483.711 51.8051 482.725 51.8051ZM548.682 41.1569C547.884 41.1569 547.157 40.6176 546.953 39.8087C546.677 38.7105 546.353 37.6176 545.989 36.5569C545.67 35.6247 546.168 34.6087 547.1 34.289C548.034 33.9658 549.05 34.4658 549.368 35.3997C549.764 36.5533 550.116 37.7426 550.416 38.9337C550.657 39.8908 550.077 40.8605 549.121 41.1015C548.977 41.1408 548.83 41.1569 548.682 41.1569ZM484.986 37.9122C484.795 37.9122 484.602 37.8801 484.411 37.8158C483.477 37.4997 482.977 36.4855 483.293 35.5515C483.687 34.3908 484.136 33.2319 484.627 32.1087C485.023 31.2033 486.073 30.7944 486.978 31.1872C487.882 31.5819 488.295 32.6355 487.9 33.539C487.448 34.5694 487.037 35.6337 486.677 36.698C486.421 37.4426 485.73 37.9122 484.986 37.9122ZM542.968 28.2819C542.395 28.2819 541.834 28.0069 541.487 27.4962C540.855 26.564 540.177 25.6551 539.47 24.7962C538.843 24.0355 538.952 22.9087 539.712 22.2819C540.473 21.6551 541.6 21.764 542.227 22.5247C543.003 23.4694 543.75 24.4676 544.445 25.4944C544.998 26.3105 544.784 27.4212 543.968 27.9747C543.661 28.1819 543.314 28.2819 542.968 28.2819ZM491.764 25.5658C491.368 25.5658 490.968 25.4337 490.636 25.1622C489.871 24.539 489.759 23.414 490.384 22.6497C491.171 21.6855 492.007 20.7569 492.868 19.8908C493.564 19.1944 494.695 19.189 495.393 19.8837C496.093 20.5801 496.096 21.7087 495.402 22.4087C494.623 23.1926 493.864 24.0337 493.148 24.9105C492.798 25.3426 492.284 25.5658 491.764 25.5658ZM532.982 18.3694C532.648 18.3694 532.311 18.2765 532.011 18.0801C531.077 17.4712 530.102 16.9105 529.114 16.4122C528.236 15.9676 527.882 14.8944 528.327 14.014C528.771 13.1372 529.843 12.7783 530.725 13.2247C531.828 13.7801 532.916 14.4069 533.959 15.0872C534.786 15.6265 535.02 16.7337 534.48 17.5587C534.137 18.0855 533.568 18.3694 532.982 18.3694ZM502.659 16.673C502.009 16.673 501.382 16.3176 501.066 15.698C500.618 14.8194 500.968 13.7444 501.846 13.2962C502.959 12.7301 504.109 12.2212 505.268 11.789C506.189 11.4426 507.22 11.9105 507.566 12.8355C507.911 13.7587 507.443 14.7872 506.518 15.1337C505.486 15.5194 504.459 15.9712 503.466 16.4783C503.209 16.6105 502.93 16.673 502.659 16.673ZM519.812 13.5497C519.743 13.5497 519.673 13.5462 519.603 13.5372C518.528 13.4122 517.436 13.3497 516.355 13.3497C515.37 13.3497 514.532 12.5497 514.532 11.564C514.532 10.5783 515.295 9.77832 516.28 9.77832H516.355C517.573 9.77832 518.805 9.84975 520.016 9.99082C520.995 10.1033 521.698 10.989 521.584 11.9694C521.48 12.8801 520.705 13.5497 519.812 13.5497Z" fill="#F4BF1A"/>
<path d="M472.604 51.7861H461.893C461.929 52.9879 461.996 54.179 462.105 55.3576H472.825C472.714 54.179 472.641 52.9879 472.604 51.7861Z" fill="#DCA815"/>
<path d="M473.013 42.8574H462.305C462.157 44.0342 462.05 45.2271 461.977 46.4288H472.689C472.764 45.2271 472.864 44.0342 473.013 42.8574Z" fill="#DCA815"/>
<path d="M473.586 60.7139H462.87C463.102 61.921 463.37 63.1121 463.675 64.2853H474.387C474.084 63.1121 473.818 61.921 473.586 60.7139Z" fill="#DCA815"/>
<path d="M476.084 69.6426H465.362C465.818 70.8604 466.321 72.0479 466.857 73.214H477.573C477.037 72.0497 476.539 70.8586 476.084 69.6426Z" fill="#DCA815"/>
<path d="M474.878 33.9287H464.177C463.828 35.1019 463.503 36.2894 463.232 37.5001H473.959C474.23 36.293 474.532 35.0984 474.878 33.9287Z" fill="#DCA815"/>
<path d="M478.436 25H467.721C467.132 26.1625 466.577 27.3518 466.07 28.5714H476.791C477.298 27.3536 477.846 26.1625 478.436 25Z" fill="#DCA815"/>
<path d="M485.723 14.2861H474.996C473.98 15.4218 473.014 16.6129 472.1 17.8576H482.823C483.739 16.6129 484.707 15.4218 485.723 14.2861Z" fill="#DCA815"/>
<path d="M496.643 5.35742H485.905C484.08 6.41099 482.33 7.60385 480.662 8.92885H491.393C493.062 7.60385 494.816 6.41099 496.643 5.35742Z" fill="#DCA815"/>
<path d="M481.57 80.3574H470.85C471.679 81.5949 472.554 82.786 473.479 83.9289H484.205C483.28 82.786 482.4 81.5949 481.57 80.3574Z" fill="#DCA815"/>
<path d="M478.557 89.2861C479.991 90.5772 481.493 91.7754 483.064 92.8576H493.804C492.225 91.7736 490.707 90.5826 489.268 89.2861H478.557Z" fill="#DCA815"/>
</g>
<defs>
<filter id="filter0_d" x="377" y="0" width="188" height="108" filterUnits="userSpaceOnUse" color-interpolation-filters="sRGB">
<feFlood flood-opacity="0" result="BackgroundImageFix"/>
<feColorMatrix in="SourceAlpha" type="matrix" values="0 0 0 0 0 0 0 0 0 0 0 0 0 0 0 0 0 0 127 0"/>
<feOffset dy="4"/>
<feGaussianBlur stdDeviation="2"/>
<feColorMatrix type="matrix" values="0 0 0 0 0 0 0 0 0 0 0 0 0 0 0 0 0 0 0.25 0"/>
<feBlend mode="normal" in2="BackgroundImageFix" result="effect1_dropShadow"/>
<feBlend mode="normal" in="SourceGraphic" in2="effect1_dropShadow" result="shape"/>
</filter>
</defs>
</svg>
