<svg width="37" height="37" viewBox="0 0 37 37" fill="none" xmlns="http://www.w3.org/2000/svg">
<g clip-path="url(#clip0)">
<path fill-rule="evenodd" clip-rule="evenodd" d="M36.8752 18.2042C36.8752 28.2581 28.7249 36.4084 18.671 36.4084C8.6171 36.4084 0.466797 28.2581 0.466797 18.2042C0.466797 8.1503 8.6171 0 18.671 0C28.7249 0 36.8752 8.1503 36.8752 18.2042ZM19.3234 13.4391C17.5527 14.1756 14.014 15.6999 8.70708 18.012C7.84532 18.3547 7.39389 18.6899 7.3528 19.0177C7.28334 19.5717 7.97712 19.7899 8.92185 20.087C9.05036 20.1274 9.18351 20.1692 9.32002 20.2136C10.2495 20.5157 11.4998 20.8692 12.1498 20.8833C12.7394 20.896 13.3974 20.6529 14.124 20.154C19.0824 16.807 21.6419 15.1152 21.8026 15.0787C21.916 15.053 22.0731 15.0207 22.1795 15.1153C22.286 15.2099 22.2755 15.3891 22.2642 15.4371C22.1955 15.7301 19.4722 18.2619 18.0629 19.5721C17.6235 19.9806 17.3119 20.2704 17.2482 20.3365C17.1055 20.4848 16.96 20.625 16.8202 20.7597C15.9567 21.5922 15.3092 22.2164 16.8561 23.2358C17.5994 23.7257 18.1943 24.1307 18.7877 24.5349C19.4358 24.9762 20.0823 25.4165 20.9186 25.9647C21.1317 26.1044 21.3352 26.2495 21.5335 26.3908C22.2877 26.9285 22.9653 27.4116 23.8025 27.3345C24.2889 27.2898 24.7914 26.8324 25.0465 25.4682C25.6496 22.2442 26.835 15.2588 27.109 12.3803C27.133 12.1281 27.1028 11.8053 27.0786 11.6636C27.0543 11.522 27.0036 11.3201 26.8195 11.1707C26.6014 10.9937 26.2646 10.9564 26.1141 10.959C25.4294 10.9711 24.3789 11.3363 19.3234 13.4391Z" fill="white"/>
</g>
<defs>
<clipPath id="clip0">
<rect width="36.4084" height="36.4084" fill="white" transform="translate(0.466797)"/>
</clipPath>
</defs>
</svg>
