<svg width="485" height="221" viewBox="0 0 485 221" fill="none" xmlns="http://www.w3.org/2000/svg">
<path d="M10.91 136.31C10.01 136.1 9.17 136.07 8.33 136.01C7.1 135.95 6.05 135.89 5.27 135.35C4.43 134.78 3.77 133.67 4.07 132.62C4.4 131.36 5.66 130.37 7.07 130.16C8.9 129.89 10.85 130.4 12.2 131.48C12.98 132.08 14.12 131.93 14.72 131.18C15.32 130.4 15.17 129.26 14.42 128.66C12.29 127.01 9.35 126.23 6.59 126.62C3.74 127.04 1.34 129.05 0.62 131.66C-0.04 134.06 1.04 136.79 3.23 138.29C4.85 139.4 6.59 139.49 8.15 139.58C8.84 139.61 9.53 139.64 10.13 139.79C11.6 140.12 12.65 141.38 12.56 142.73C12.47 144.26 10.85 145.16 9.38 145.37C7.16 145.7 4.79 144.86 3.47 143.33C2.84 142.58 1.73 142.49 0.98 143.12C0.23 143.78 0.14 144.89 0.77 145.64C2.57 147.77 5.48 149 8.42 149C8.9 149 9.41 148.97 9.89 148.91C12.74 148.49 15.92 146.45 16.13 142.94C16.31 139.88 14.06 137 10.91 136.31ZM24.8963 145.31C24.6863 145.31 24.4163 145.34 24.2663 145.19C24.0563 145.01 24.1163 144.65 24.0563 144.41V137.27H25.0463C26.0363 137.27 26.8463 136.46 26.8463 135.47C26.8463 134.48 26.0363 133.67 25.0463 133.67H24.0563V127.94C24.0563 126.95 23.2463 126.14 22.2563 126.14C21.2663 126.14 20.4563 126.95 20.4563 127.94V133.67H19.1663C18.1763 133.67 17.3663 134.48 17.3663 135.47C17.3663 136.46 18.1763 137.27 19.1663 137.27H20.4563V144.83C20.4563 145.76 20.8763 146.84 21.4763 147.53C22.1663 148.31 23.1263 148.73 24.1163 148.88C24.3863 148.91 24.6263 148.91 24.8963 148.91C25.8863 148.91 26.6963 148.13 26.6963 147.11C26.6963 146.12 25.8863 145.31 24.8963 145.31ZM41.6338 134C40.6438 134 40.0438 134.78 40.0438 135.71V135.86C38.7538 134.81 37.2538 134.12 35.4538 134.12C31.4338 134.12 28.1938 137.39 28.1938 141.38C28.1938 145.37 31.4338 148.61 35.4538 148.61C37.2538 148.61 38.7538 147.95 40.0438 146.84V147.2C40.0438 148.13 40.6438 148.91 41.6338 148.91C42.6238 148.91 43.3738 148.13 43.3738 147.2V135.71C43.3738 134.78 42.6238 134 41.6338 134ZM35.4538 145.1C33.3838 145.1 31.6738 143.45 31.6738 141.38C31.6738 139.31 33.3838 137.63 35.4538 137.63C37.4938 137.63 39.2038 139.31 39.2038 141.38C39.2038 143.45 37.4938 145.1 35.4538 145.1ZM58.4661 136.04C57.1161 134.78 55.3761 134.06 53.5161 134.06C52.1361 134.06 50.8161 134.48 49.7061 135.17C49.4661 134.45 48.8061 133.94 47.9961 133.94C47.0061 133.94 46.1961 134.72 46.1961 135.71V147.2C46.1961 148.19 47.0061 149 47.9961 149C48.9861 149 49.7961 148.19 49.7961 147.2V141.53C49.7961 139.4 51.4761 137.66 53.5161 137.66C54.4461 137.66 55.3461 138.02 56.0061 138.65C56.7561 139.34 57.8661 139.28 58.5561 138.56C59.2461 137.84 59.1861 136.7 58.4661 136.04ZM66.4393 145.31C66.2293 145.31 65.9593 145.34 65.8093 145.19C65.5993 145.01 65.6593 144.65 65.5993 144.41V137.27H66.5893C67.5793 137.27 68.3893 136.46 68.3893 135.47C68.3893 134.48 67.5793 133.67 66.5893 133.67H65.5993V127.94C65.5993 126.95 64.7893 126.14 63.7993 126.14C62.8093 126.14 61.9993 126.95 61.9993 127.94V133.67H60.7093C59.7193 133.67 58.9093 134.48 58.9093 135.47C58.9093 136.46 59.7193 137.27 60.7093 137.27H61.9993V144.83C61.9993 145.76 62.4193 146.84 63.0193 147.53C63.7093 148.31 64.6693 148.73 65.6593 148.88C65.9293 148.91 66.1693 148.91 66.4393 148.91C67.4293 148.91 68.2393 148.13 68.2393 147.11C68.2393 146.12 67.4293 145.31 66.4393 145.31ZM98.6984 139.73C98.6984 136.61 96.0284 134.06 92.8184 134.06C91.1684 134.06 89.7284 134.66 88.6784 135.68C87.5684 134.66 86.1284 134.06 84.5384 134.06C83.5484 134.06 82.6184 134.3 81.7784 134.72C81.5084 134.3 80.9684 134 80.3984 134C79.4384 134 78.5984 134.84 78.5984 135.83V147.29C78.5984 148.25 79.4384 149.06 80.3984 149.06C81.4184 149.06 82.1984 148.25 82.1984 147.29V139.73C82.1984 138.56 83.2484 137.66 84.5384 137.66C85.8284 137.66 86.8784 138.56 86.8784 139.73C86.8784 139.76 86.8784 139.79 86.8784 139.82V139.94V147.2C86.8784 148.22 87.6584 149 88.6784 149C89.6384 149 90.4484 148.22 90.4484 147.2V139.94C90.4484 139.91 90.4484 139.88 90.4484 139.82V139.73C90.4484 138.56 91.4984 137.66 92.8184 137.66C94.0484 137.66 95.0984 138.56 95.0984 139.73C95.0984 139.76 95.0984 139.79 95.0984 139.82V139.94V147.2C95.0984 148.22 95.9384 149 96.9284 149C97.9184 149 98.6984 148.22 98.6984 147.2V139.94C98.6984 139.91 98.6984 139.88 98.6984 139.82V139.73ZM114.085 134C113.095 134 112.495 134.78 112.495 135.71V135.86C111.205 134.81 109.705 134.12 107.905 134.12C103.885 134.12 100.645 137.39 100.645 141.38C100.645 145.37 103.885 148.61 107.905 148.61C109.705 148.61 111.205 147.95 112.495 146.84V147.2C112.495 148.13 113.095 148.91 114.085 148.91C115.075 148.91 115.825 148.13 115.825 147.2V135.71C115.825 134.78 115.075 134 114.085 134ZM107.905 145.1C105.835 145.1 104.125 143.45 104.125 141.38C104.125 139.31 105.835 137.63 107.905 137.63C109.945 137.63 111.655 139.31 111.655 141.38C111.655 143.45 109.945 145.1 107.905 145.1ZM130.917 145.76L125.337 140.63L130.347 137.24C131.157 136.64 131.367 135.5 130.767 134.69C130.197 133.85 129.057 133.67 128.217 134.24L122.307 138.32V128.18C122.307 127.16 121.497 126.35 120.477 126.35C119.457 126.35 118.647 127.16 118.647 128.18V147.29C118.647 148.31 119.457 149.12 120.477 149.12C121.497 149.12 122.307 148.31 122.307 147.29V142.82L128.427 148.46C128.787 148.79 129.207 148.94 129.657 148.94C130.137 148.94 130.647 148.73 131.007 148.37C131.697 147.59 131.637 146.45 130.917 145.76ZM134.87 131.39C133.82 131.39 132.98 130.55 132.98 129.56V129.41C132.98 128.36 133.82 127.55 134.87 127.55C135.86 127.55 136.7 128.36 136.7 129.41V129.56C136.7 130.55 135.86 131.39 134.87 131.39ZM134.87 149C133.82 149 132.98 148.16 132.98 147.14V135.56C132.98 134.54 133.82 133.73 134.87 133.73C135.86 133.73 136.7 134.54 136.7 135.56V147.14C136.7 148.16 135.86 149 134.87 149ZM146.529 134.03C145.179 134.03 143.949 134.42 142.869 135.11C142.629 134.39 141.969 133.88 141.189 133.88C140.199 133.88 139.389 134.69 139.389 135.68V147.14C139.389 148.13 140.199 148.94 141.189 148.94C142.179 148.94 142.989 148.13 142.989 147.14V142.04C142.989 139.97 144.189 137.63 146.529 137.63C148.419 137.63 149.979 139.34 149.979 141.47V147.14C149.979 148.13 150.759 148.94 151.779 148.94C152.769 148.94 153.549 148.13 153.549 147.14V141.47C153.549 137.36 150.399 134.03 146.529 134.03ZM168.816 133.79C168.006 133.79 167.346 134.33 167.076 135.05C165.936 134.33 164.586 133.94 163.176 133.94C159.036 133.94 155.646 137.3 155.646 141.44C155.646 145.58 159.036 148.94 163.176 148.94C164.556 148.94 165.876 148.55 166.986 147.89V149.21C166.986 151.46 165.186 153.26 162.936 153.26C161.766 153.26 160.626 152.78 159.876 151.88C159.216 151.1 158.046 151.01 157.296 151.7C156.516 152.33 156.456 153.5 157.086 154.28C158.556 155.99 160.686 156.95 162.936 156.95C167.196 156.95 170.646 153.47 170.646 149.21V135.62C170.646 134.63 169.836 133.79 168.816 133.79ZM163.176 145.28C161.046 145.28 159.336 143.54 159.336 141.44C159.336 139.31 161.046 137.6 163.176 137.6C165.276 137.6 166.986 139.31 166.986 141.44C166.986 143.54 165.276 145.28 163.176 145.28ZM201.911 139.73C201.911 136.61 199.241 134.06 196.031 134.06C194.381 134.06 192.941 134.66 191.891 135.68C190.781 134.66 189.341 134.06 187.751 134.06C186.761 134.06 185.831 134.3 184.991 134.72C184.721 134.3 184.181 134 183.611 134C182.651 134 181.811 134.84 181.811 135.83V147.29C181.811 148.25 182.651 149.06 183.611 149.06C184.631 149.06 185.411 148.25 185.411 147.29V139.73C185.411 138.56 186.461 137.66 187.751 137.66C189.041 137.66 190.091 138.56 190.091 139.73C190.091 139.76 190.091 139.79 190.091 139.82V139.94V147.2C190.091 148.22 190.871 149 191.891 149C192.851 149 193.661 148.22 193.661 147.2V139.94C193.661 139.91 193.661 139.88 193.661 139.82V139.73C193.661 138.56 194.711 137.66 196.031 137.66C197.261 137.66 198.311 138.56 198.311 139.73C198.311 139.76 198.311 139.79 198.311 139.82V139.94V147.2C198.311 148.22 199.151 149 200.141 149C201.131 149 201.911 148.22 201.911 147.2V139.94C201.911 139.91 201.911 139.88 201.911 139.82V139.73ZM211.688 148.94C207.548 148.94 204.158 145.58 204.158 141.41C204.158 137.27 207.548 133.88 211.688 133.88C215.828 133.88 219.218 137.27 219.248 141.44C219.218 145.58 215.828 148.94 211.688 148.94ZM211.688 137.57C209.558 137.57 207.848 139.28 207.848 141.41C207.848 143.54 209.558 145.25 211.688 145.25C213.818 145.25 215.528 143.54 215.528 141.41C215.528 139.28 213.818 137.57 211.688 137.57ZM228.502 134.03C227.152 134.03 225.922 134.42 224.842 135.11C224.602 134.39 223.942 133.88 223.162 133.88C222.172 133.88 221.362 134.69 221.362 135.68V147.14C221.362 148.13 222.172 148.94 223.162 148.94C224.152 148.94 224.962 148.13 224.962 147.14V142.04C224.962 139.97 226.162 137.63 228.502 137.63C230.392 137.63 231.952 139.34 231.952 141.47V147.14C231.952 148.13 232.732 148.94 233.752 148.94C234.742 148.94 235.522 148.13 235.522 147.14V141.47C235.522 137.36 232.372 134.03 228.502 134.03ZM251.418 141.41C251.538 141.11 251.658 140.81 251.658 140.54C251.718 139.55 251.178 138.44 250.698 137.6C249.618 135.8 247.878 134.54 245.838 134.15C245.388 134.06 244.968 134.03 244.518 134.03C240.348 134.03 237.018 137.45 237.018 141.56C237.018 145.73 240.348 149.09 244.518 149.09C246.228 149.09 248.538 148.55 250.188 146.96C250.908 146.27 250.938 145.1 250.218 144.41C249.528 143.69 248.388 143.69 247.668 144.38C246.888 145.13 245.478 145.52 244.518 145.52C242.658 145.52 241.128 144.2 240.708 142.49H249.948C250.668 142.49 251.178 141.98 251.418 141.41ZM244.518 137.66C245.868 137.66 246.978 138.32 247.578 139.46H241.218C241.938 138.35 243.138 137.66 244.518 137.66ZM265.026 134.06C264.096 134.06 263.286 134.87 263.286 135.86V141.29C263.286 143.36 261.756 145.07 259.866 145.07C258.006 145.07 256.476 143.36 256.476 141.29V135.92C256.476 134.96 255.696 134.12 254.736 134.12C253.776 134.12 252.996 134.96 252.996 135.92V141.29C252.996 145.37 256.086 148.67 259.866 148.67C261.126 148.67 262.296 148.31 263.286 147.74V148.97C263.286 151.16 261.546 152.96 259.416 152.96C258.306 152.96 257.226 152.45 256.476 151.58C255.846 150.8 254.736 150.71 254.016 151.37C253.296 152.03 253.206 153.17 253.836 153.92C255.246 155.6 257.256 156.56 259.416 156.56C263.466 156.56 266.796 153.14 266.796 148.97V135.86C266.796 134.87 266.016 134.06 265.026 134.06ZM290.452 134C289.462 134 288.862 134.78 288.862 135.71V135.86C287.572 134.81 286.072 134.12 284.272 134.12C280.252 134.12 277.012 137.39 277.012 141.38C277.012 145.37 280.252 148.61 284.272 148.61C286.072 148.61 287.572 147.95 288.862 146.84V147.2C288.862 148.13 289.462 148.91 290.452 148.91C291.442 148.91 292.192 148.13 292.192 147.2V135.71C292.192 134.78 291.442 134 290.452 134ZM284.272 145.1C282.202 145.1 280.492 143.45 280.492 141.38C280.492 139.31 282.202 137.63 284.272 137.63C286.312 137.63 288.022 139.31 288.022 141.38C288.022 143.45 286.312 145.1 284.272 145.1ZM302.154 134.03C300.804 134.03 299.574 134.42 298.494 135.11C298.254 134.39 297.594 133.88 296.814 133.88C295.824 133.88 295.014 134.69 295.014 135.68V147.14C295.014 148.13 295.824 148.94 296.814 148.94C297.804 148.94 298.614 148.13 298.614 147.14V142.04C298.614 139.97 299.814 137.63 302.154 137.63C304.044 137.63 305.604 139.34 305.604 141.47V147.14C305.604 148.13 306.384 148.94 307.404 148.94C308.394 148.94 309.174 148.13 309.174 147.14V141.47C309.174 137.36 306.024 134.03 302.154 134.03ZM324.141 126.23C323.151 126.23 322.341 127.07 322.341 128.06V135.08C321.111 134.3 319.671 133.82 318.111 133.82C313.941 133.82 310.521 137.24 310.521 141.41C310.521 145.61 313.941 149 318.111 149C319.701 149 321.201 148.52 322.401 147.68C322.641 148.43 323.331 148.94 324.141 148.94C325.161 148.94 325.971 148.13 325.971 147.14V128.06C325.971 127.07 325.161 126.23 324.141 126.23ZM318.111 145.37C315.921 145.37 314.151 143.6 314.151 141.41C314.151 139.22 315.921 137.45 318.111 137.45C320.301 137.45 322.071 139.22 322.071 141.41C322.071 143.6 320.301 145.37 318.111 145.37ZM7.91 165.79C6.35 165.79 4.91 166.27 3.68 167.05V160.03C3.68 159.04 2.87 158.2 1.88 158.2C0.86 158.2 0.05 159.04 0.05 160.03V179.11C0.05 180.1 0.86 180.91 1.88 180.91C2.69 180.91 3.38 180.37 3.62 179.65C4.82 180.49 6.32 180.97 7.91 180.97C12.08 180.97 15.5 177.58 15.5 173.38C15.5 169.18 12.08 165.79 7.91 165.79ZM7.91 177.34C5.72 177.34 3.95 175.57 3.95 173.38C3.95 171.19 5.72 169.42 7.91 169.42C10.07 169.42 11.87 171.19 11.87 173.38C11.87 175.57 10.07 177.34 7.91 177.34ZM31.1059 173.41C31.2259 173.11 31.3459 172.81 31.3459 172.54C31.4059 171.55 30.8659 170.44 30.3859 169.6C29.3059 167.8 27.5659 166.54 25.5259 166.15C25.0759 166.06 24.6559 166.03 24.2059 166.03C20.0359 166.03 16.7059 169.45 16.7059 173.56C16.7059 177.73 20.0359 181.09 24.2059 181.09C25.9159 181.09 28.2259 180.55 29.8759 178.96C30.5959 178.27 30.6259 177.1 29.9059 176.41C29.2159 175.69 28.0759 175.69 27.3559 176.38C26.5759 177.13 25.1659 177.52 24.2059 177.52C22.3459 177.52 20.8159 176.2 20.3959 174.49H29.6359C30.3559 174.49 30.8659 173.98 31.1059 173.41ZM24.2059 169.66C25.5559 169.66 26.6659 170.32 27.2659 171.46H20.9059C21.6259 170.35 22.8259 169.66 24.2059 169.66ZM40.1232 166.03C38.7732 166.03 37.5432 166.42 36.4632 167.11C36.2232 166.39 35.5632 165.88 34.7832 165.88C33.7932 165.88 32.9832 166.69 32.9832 167.68V179.14C32.9832 180.13 33.7932 180.94 34.7832 180.94C35.7732 180.94 36.5832 180.13 36.5832 179.14V174.04C36.5832 171.97 37.7832 169.63 40.1232 169.63C42.0132 169.63 43.5732 171.34 43.5732 173.47V179.14C43.5732 180.13 44.3532 180.94 45.3732 180.94C46.3632 180.94 47.1432 180.13 47.1432 179.14V173.47C47.1432 169.36 43.9932 166.03 40.1232 166.03ZM63.0395 173.41C63.1595 173.11 63.2795 172.81 63.2795 172.54C63.3395 171.55 62.7995 170.44 62.3195 169.6C61.2395 167.8 59.4995 166.54 57.4595 166.15C57.0095 166.06 56.5895 166.03 56.1395 166.03C51.9695 166.03 48.6395 169.45 48.6395 173.56C48.6395 177.73 51.9695 181.09 56.1395 181.09C57.8495 181.09 60.1595 180.55 61.8095 178.96C62.5295 178.27 62.5595 177.1 61.8395 176.41C61.1495 175.69 60.0095 175.69 59.2895 176.38C58.5095 177.13 57.0995 177.52 56.1395 177.52C54.2795 177.52 52.7495 176.2 52.3295 174.49H61.5695C62.2895 174.49 62.7995 173.98 63.0395 173.41ZM56.1395 169.66C57.4895 169.66 58.5995 170.32 59.1995 171.46H52.8395C53.5595 170.35 54.7595 169.66 56.1395 169.66ZM74.5768 159.1C73.5568 158.32 72.3268 157.9 71.0068 157.9C67.7368 157.9 65.0668 160.57 65.0668 163.84V164.71V178.84C65.0668 179.86 65.8768 180.67 66.8968 180.67C67.8868 180.67 68.6968 179.86 68.6968 178.84V171.25H71.5468C72.5668 171.25 73.3768 170.41 73.3768 169.42C73.3768 168.4 72.5668 167.59 71.5468 167.59H68.6968V164.71C68.6968 164.56 68.6968 164.41 68.6668 164.26C68.6968 164.14 68.6968 163.99 68.6968 163.84C68.6968 162.58 69.7468 161.56 71.0068 161.56C71.5168 161.56 71.9968 161.71 72.3868 162.01C73.1968 162.61 74.3968 162.34 74.9368 161.65C75.4468 160.99 75.3868 159.7 74.5768 159.1ZM77.4568 162.19C76.4368 162.19 75.6268 163 75.6268 164.02V164.11C75.6268 165.13 76.4368 165.94 77.4568 165.94C78.4468 165.94 79.2568 165.13 79.2568 164.11V164.02C79.2568 163 78.4468 162.19 77.4568 162.19ZM77.4568 167.62C76.4368 167.62 75.6268 168.43 75.6268 169.42V178.84C75.6268 179.86 76.4368 180.67 77.4568 180.67C78.4468 180.67 79.2568 179.86 79.2568 178.84V169.42C79.2568 168.43 78.4468 167.62 77.4568 167.62ZM88.0311 177.31C87.8211 177.31 87.5511 177.34 87.4011 177.19C87.1911 177.01 87.2511 176.65 87.1911 176.41V169.27H88.1811C89.1711 169.27 89.9811 168.46 89.9811 167.47C89.9811 166.48 89.1711 165.67 88.1811 165.67H87.1911V159.94C87.1911 158.95 86.3811 158.14 85.3911 158.14C84.4011 158.14 83.5911 158.95 83.5911 159.94V165.67H82.3011C81.3111 165.67 80.5011 166.48 80.5011 167.47C80.5011 168.46 81.3111 169.27 82.3011 169.27H83.5911V176.83C83.5911 177.76 84.0111 178.84 84.6111 179.53C85.3011 180.31 86.2611 180.73 87.2511 180.88C87.5211 180.91 87.7611 180.91 88.0311 180.91C89.0211 180.91 89.8311 180.13 89.8311 179.11C89.8311 178.12 89.0211 177.31 88.0311 177.31ZM97.2985 181.06C95.3785 181.06 93.4585 180.28 92.4685 179.35C91.7485 178.69 91.6885 177.55 92.3785 176.83C93.0385 176.08 94.1785 176.05 94.8985 176.71C95.4385 177.22 97.4485 177.91 98.5885 177.16C98.8885 176.98 99.0685 176.65 99.0685 176.32C99.0685 175.9 98.7085 175.6 98.4085 175.48C98.1385 175.33 97.6585 175.33 97.1185 175.33C96.3985 175.33 95.5885 175.3 94.7485 175C93.1885 174.49 91.9285 172.87 91.8085 171.31C91.6585 169.42 92.4685 168.25 93.1585 167.59C94.6585 166.21 96.8485 166 98.4385 166.27C99.6385 166.48 100.539 166.9 101.289 167.59C102.009 168.25 102.069 169.39 101.409 170.11C101.019 170.53 100.449 170.74 99.8785 170.68C99.6085 170.65 99.3385 170.56 99.0985 170.41C98.6785 170.11 98.3785 169.9 97.8385 169.81C96.9385 169.66 95.2585 169.72 95.3785 171.01C95.4085 171.16 95.6785 171.55 95.9185 171.64C96.2185 171.73 96.6685 171.73 97.1485 171.73C97.9285 171.76 98.9185 171.76 99.9085 172.21C101.559 172.96 102.639 174.58 102.639 176.32C102.639 177.85 101.859 179.29 100.569 180.16C99.5485 180.82 98.4385 181.06 97.2985 181.06ZM123.013 159.67C121.903 158.65 120.463 158.08 118.963 158.08C115.693 158.08 112.993 160.75 112.993 164.05V171.79C112.993 174.16 112.993 176.56 112.993 178.96V179.02C112.993 180.01 113.833 180.85 114.823 180.85C115.843 180.85 116.683 180.01 116.683 179.02V171.4H119.533C120.523 171.4 121.363 170.59 121.363 169.57C121.363 168.58 120.523 167.77 119.533 167.77H116.683V164.05C116.683 162.76 117.703 161.71 118.963 161.71C119.563 161.71 120.103 161.95 120.523 162.34C121.273 163 122.413 162.97 123.103 162.25C123.763 161.53 123.733 160.36 123.013 159.67ZM135.546 168.04C134.196 166.78 132.456 166.06 130.596 166.06C129.216 166.06 127.896 166.48 126.786 167.17C126.546 166.45 125.886 165.94 125.076 165.94C124.086 165.94 123.276 166.72 123.276 167.71V179.2C123.276 180.19 124.086 181 125.076 181C126.066 181 126.876 180.19 126.876 179.2V173.53C126.876 171.4 128.556 169.66 130.596 169.66C131.526 169.66 132.426 170.02 133.086 170.65C133.836 171.34 134.946 171.28 135.636 170.56C136.326 169.84 136.266 168.7 135.546 168.04ZM144.539 180.94C140.399 180.94 137.009 177.58 137.009 173.41C137.009 169.27 140.399 165.88 144.539 165.88C148.679 165.88 152.069 169.27 152.099 173.44C152.069 177.58 148.679 180.94 144.539 180.94ZM144.539 169.57C142.409 169.57 140.699 171.28 140.699 173.41C140.699 175.54 142.409 177.25 144.539 177.25C146.669 177.25 148.379 175.54 148.379 173.41C148.379 171.28 146.669 169.57 144.539 169.57ZM174.314 171.73C174.314 168.61 171.644 166.06 168.434 166.06C166.784 166.06 165.344 166.66 164.294 167.68C163.184 166.66 161.744 166.06 160.154 166.06C159.164 166.06 158.234 166.3 157.394 166.72C157.124 166.3 156.584 166 156.014 166C155.054 166 154.214 166.84 154.214 167.83V179.29C154.214 180.25 155.054 181.06 156.014 181.06C157.034 181.06 157.814 180.25 157.814 179.29V171.73C157.814 170.56 158.864 169.66 160.154 169.66C161.444 169.66 162.494 170.56 162.494 171.73C162.494 171.76 162.494 171.79 162.494 171.82V171.94V179.2C162.494 180.22 163.274 181 164.294 181C165.254 181 166.064 180.22 166.064 179.2V171.94C166.064 171.91 166.064 171.88 166.064 171.82V171.73C166.064 170.56 167.114 169.66 168.434 169.66C169.664 169.66 170.714 170.56 170.714 171.73C170.714 171.76 170.714 171.79 170.714 171.82V171.94V179.2C170.714 180.22 171.554 181 172.544 181C173.534 181 174.314 180.22 174.314 179.2V171.94C174.314 171.91 174.314 171.88 174.314 171.82V171.73ZM192.352 180.94C188.212 180.94 184.822 177.58 184.822 173.41C184.822 169.27 188.212 165.88 192.352 165.88C196.492 165.88 199.882 169.27 199.912 173.44C199.882 177.58 196.492 180.94 192.352 180.94ZM192.352 169.57C190.222 169.57 188.512 171.28 188.512 173.41C188.512 175.54 190.222 177.25 192.352 177.25C194.482 177.25 196.192 175.54 196.192 173.41C196.192 171.28 194.482 169.57 192.352 169.57ZM209.136 181.09C205.236 181.09 202.026 177.7 202.026 173.56V167.83C202.026 166.84 202.776 166.03 203.706 166.03C204.666 166.03 205.596 166.84 205.596 167.83V173.56C205.596 175.72 207.396 177.46 209.136 177.46C211.176 177.46 212.706 175.72 212.706 173.56V168.07C212.706 167.05 213.756 166.27 214.566 166.27C215.496 166.27 216.276 167.05 216.276 168.07V173.56C216.276 177.7 213.066 181.09 209.136 181.09ZM230.937 168.04C229.587 166.78 227.847 166.06 225.987 166.06C224.607 166.06 223.287 166.48 222.177 167.17C221.937 166.45 221.277 165.94 220.467 165.94C219.477 165.94 218.667 166.72 218.667 167.71V179.2C218.667 180.19 219.477 181 220.467 181C221.457 181 222.267 180.19 222.267 179.2V173.53C222.267 171.4 223.947 169.66 225.987 169.66C226.917 169.66 227.817 170.02 228.477 170.65C229.227 171.34 230.337 171.28 231.027 170.56C231.717 169.84 231.657 168.7 230.937 168.04ZM253.232 168.04C251.882 166.78 250.142 166.06 248.282 166.06C246.902 166.06 245.582 166.48 244.472 167.17C244.232 166.45 243.572 165.94 242.762 165.94C241.772 165.94 240.962 166.72 240.962 167.71V179.2C240.962 180.19 241.772 181 242.762 181C243.752 181 244.562 180.19 244.562 179.2V173.53C244.562 171.4 246.242 169.66 248.282 169.66C249.212 169.66 250.112 170.02 250.772 170.65C251.522 171.34 252.632 171.28 253.322 170.56C254.012 169.84 253.952 168.7 253.232 168.04ZM268.645 173.41C268.765 173.11 268.885 172.81 268.885 172.54C268.945 171.55 268.405 170.44 267.925 169.6C266.845 167.8 265.105 166.54 263.065 166.15C262.615 166.06 262.195 166.03 261.745 166.03C257.575 166.03 254.245 169.45 254.245 173.56C254.245 177.73 257.575 181.09 261.745 181.09C263.455 181.09 265.765 180.55 267.415 178.96C268.135 178.27 268.165 177.1 267.445 176.41C266.755 175.69 265.615 175.69 264.895 176.38C264.115 177.13 262.705 177.52 261.745 177.52C259.885 177.52 258.355 176.2 257.935 174.49H267.175C267.895 174.49 268.405 173.98 268.645 173.41ZM261.745 169.66C263.095 169.66 264.205 170.32 264.805 171.46H258.445C259.165 170.35 260.365 169.66 261.745 169.66ZM290.682 167.89C290.682 166.9 289.872 166.09 288.882 166.09C287.892 166.09 287.082 166.9 287.082 167.89V175.48C287.082 176.62 286.032 177.55 284.742 177.55C283.452 177.55 282.402 176.62 282.402 175.48C282.402 175.42 282.402 175.39 282.402 175.36V175.24V167.95C282.402 166.96 281.592 166.15 280.602 166.15C279.612 166.15 278.802 166.96 278.802 167.95V175.24C278.802 175.27 278.802 175.3 278.802 175.36V175.48C278.802 176.62 277.752 177.55 276.462 177.55C275.172 177.55 274.122 176.62 274.122 175.48C274.122 175.42 274.122 175.39 274.122 175.36V175.24V167.95C274.122 166.96 273.312 166.15 272.322 166.15C271.332 166.15 270.522 166.96 270.522 167.95V175.24C270.522 175.27 270.522 175.3 270.522 175.36V175.48C270.522 178.6 273.192 181.15 276.462 181.15C278.082 181.15 279.522 180.52 280.602 179.53C281.682 180.52 283.152 181.15 284.742 181.15C287.952 181.15 290.562 178.69 290.682 175.66V175.48V167.89ZM306.067 166C305.077 166 304.477 166.78 304.477 167.71V167.86C303.187 166.81 301.687 166.12 299.887 166.12C295.867 166.12 292.627 169.39 292.627 173.38C292.627 177.37 295.867 180.61 299.887 180.61C301.687 180.61 303.187 179.95 304.477 178.84V179.2C304.477 180.13 305.077 180.91 306.067 180.91C307.057 180.91 307.807 180.13 307.807 179.2V167.71C307.807 166.78 307.057 166 306.067 166ZM299.887 177.1C297.817 177.1 296.107 175.45 296.107 173.38C296.107 171.31 297.817 169.63 299.887 169.63C301.927 169.63 303.637 171.31 303.637 173.38C303.637 175.45 301.927 177.1 299.887 177.1ZM322.9 168.04C321.55 166.78 319.81 166.06 317.95 166.06C316.57 166.06 315.25 166.48 314.14 167.17C313.9 166.45 313.24 165.94 312.43 165.94C311.44 165.94 310.63 166.72 310.63 167.71V179.2C310.63 180.19 311.44 181 312.43 181C313.42 181 314.23 180.19 314.23 179.2V173.53C314.23 171.4 315.91 169.66 317.95 169.66C318.88 169.66 319.78 170.02 320.44 170.65C321.19 171.34 322.3 171.28 322.99 170.56C323.68 169.84 323.62 168.7 322.9 168.04ZM337.383 158.23C336.393 158.23 335.583 159.07 335.583 160.06V167.08C334.353 166.3 332.913 165.82 331.353 165.82C327.183 165.82 323.763 169.24 323.763 173.41C323.763 177.61 327.183 181 331.353 181C332.943 181 334.443 180.52 335.643 179.68C335.883 180.43 336.573 180.94 337.383 180.94C338.403 180.94 339.213 180.13 339.213 179.14V160.06C339.213 159.07 338.403 158.23 337.383 158.23ZM331.353 177.37C329.163 177.37 327.393 175.6 327.393 173.41C327.393 171.22 329.163 169.45 331.353 169.45C333.543 169.45 335.313 171.22 335.313 173.41C335.313 175.6 333.543 177.37 331.353 177.37ZM5.57 213.06C3.65 213.06 1.73 212.28 0.74 211.35C0.0200001 210.69 -0.04 209.55 0.65 208.83C1.31 208.08 2.45 208.05 3.17 208.71C3.71 209.22 5.72 209.91 6.86 209.16C7.16 208.98 7.34 208.65 7.34 208.32C7.34 207.9 6.98 207.6 6.68 207.48C6.41 207.33 5.93 207.33 5.39 207.33C4.67 207.33 3.86 207.3 3.02 207C1.46 206.49 0.2 204.87 0.0800001 203.31C-0.07 201.42 0.74 200.25 1.43 199.59C2.93 198.21 5.12 198 6.71 198.27C7.91 198.48 8.81 198.9 9.56 199.59C10.28 200.25 10.34 201.39 9.68 202.11C9.29 202.53 8.72 202.74 8.15 202.68C7.88 202.65 7.61 202.56 7.37 202.41C6.95 202.11 6.65 201.9 6.11 201.81C5.21 201.66 3.53 201.72 3.65 203.01C3.68 203.16 3.95 203.55 4.19 203.64C4.49 203.73 4.94 203.73 5.42 203.73C6.2 203.76 7.19 203.76 8.18 204.21C9.83 204.96 10.91 206.58 10.91 208.32C10.91 209.85 10.13 211.29 8.84 212.16C7.82 212.82 6.71 213.06 5.57 213.06ZM24.7327 198.06C23.8027 198.06 22.9927 198.87 22.9927 199.86V205.29C22.9927 207.36 21.4627 209.07 19.5727 209.07C17.7127 209.07 16.1827 207.36 16.1827 205.29V199.92C16.1827 198.96 15.4027 198.12 14.4427 198.12C13.4827 198.12 12.7027 198.96 12.7027 199.92V205.29C12.7027 209.37 15.7927 212.67 19.5727 212.67C20.8327 212.67 22.0027 212.31 22.9927 211.74V212.97C22.9927 215.16 21.2527 216.96 19.1227 216.96C18.0127 216.96 16.9327 216.45 16.1827 215.58C15.5527 214.8 14.4427 214.71 13.7227 215.37C13.0027 216.03 12.9127 217.17 13.5427 217.92C14.9527 219.6 16.9627 220.56 19.1227 220.56C23.1727 220.56 26.5027 217.14 26.5027 212.97V199.86C26.5027 198.87 25.7227 198.06 24.7327 198.06ZM34.4274 213.06C32.5074 213.06 30.5874 212.28 29.5974 211.35C28.8774 210.69 28.8174 209.55 29.5074 208.83C30.1674 208.08 31.3074 208.05 32.0274 208.71C32.5674 209.22 34.5774 209.91 35.7174 209.16C36.0174 208.98 36.1974 208.65 36.1974 208.32C36.1974 207.9 35.8374 207.6 35.5374 207.48C35.2674 207.33 34.7874 207.33 34.2474 207.33C33.5274 207.33 32.7174 207.3 31.8774 207C30.3174 206.49 29.0574 204.87 28.9374 203.31C28.7874 201.42 29.5974 200.25 30.2874 199.59C31.7874 198.21 33.9774 198 35.5674 198.27C36.7674 198.48 37.6674 198.9 38.4174 199.59C39.1374 200.25 39.1974 201.39 38.5374 202.11C38.1474 202.53 37.5774 202.74 37.0074 202.68C36.7374 202.65 36.4674 202.56 36.2274 202.41C35.8074 202.11 35.5074 201.9 34.9674 201.81C34.0674 201.66 32.3874 201.72 32.5074 203.01C32.5374 203.16 32.8074 203.55 33.0474 203.64C33.3474 203.73 33.7974 203.73 34.2774 203.73C35.0574 203.76 36.0474 203.76 37.0374 204.21C38.6874 204.96 39.7674 206.58 39.7674 208.32C39.7674 209.85 38.9874 211.29 37.6974 212.16C36.6774 212.82 35.5674 213.06 34.4274 213.06ZM48.0702 209.31C47.8602 209.31 47.5902 209.34 47.4402 209.19C47.2302 209.01 47.2902 208.65 47.2302 208.41V201.27H48.2202C49.2102 201.27 50.0202 200.46 50.0202 199.47C50.0202 198.48 49.2102 197.67 48.2202 197.67H47.2302V191.94C47.2302 190.95 46.4202 190.14 45.4302 190.14C44.4402 190.14 43.6302 190.95 43.6302 191.94V197.67H42.3402C41.3502 197.67 40.5402 198.48 40.5402 199.47C40.5402 200.46 41.3502 201.27 42.3402 201.27H43.6302V208.83C43.6302 209.76 44.0502 210.84 44.6502 211.53C45.3402 212.31 46.3002 212.73 47.2902 212.88C47.5602 212.91 47.8002 212.91 48.0702 212.91C49.0602 212.91 49.8702 212.13 49.8702 211.11C49.8702 210.12 49.0602 209.31 48.0702 209.31ZM65.6176 205.41C65.7376 205.11 65.8576 204.81 65.8576 204.54C65.9176 203.55 65.3776 202.44 64.8976 201.6C63.8176 199.8 62.0776 198.54 60.0376 198.15C59.5876 198.06 59.1676 198.03 58.7176 198.03C54.5476 198.03 51.2176 201.45 51.2176 205.56C51.2176 209.73 54.5476 213.09 58.7176 213.09C60.4276 213.09 62.7376 212.55 64.3876 210.96C65.1076 210.27 65.1376 209.1 64.4176 208.41C63.7276 207.69 62.5876 207.69 61.8676 208.38C61.0876 209.13 59.6776 209.52 58.7176 209.52C56.8576 209.52 55.3276 208.2 54.9076 206.49H64.1476C64.8676 206.49 65.3776 205.98 65.6176 205.41ZM58.7176 201.66C60.0676 201.66 61.1776 202.32 61.7776 203.46H55.4176C56.1376 202.35 57.3376 201.66 58.7176 201.66ZM87.5949 203.73C87.5949 200.61 84.9249 198.06 81.7149 198.06C80.0649 198.06 78.6249 198.66 77.5749 199.68C76.4649 198.66 75.0249 198.06 73.4349 198.06C72.4449 198.06 71.5149 198.3 70.6749 198.72C70.4049 198.3 69.8649 198 69.2949 198C68.3349 198 67.4949 198.84 67.4949 199.83V211.29C67.4949 212.25 68.3349 213.06 69.2949 213.06C70.3149 213.06 71.0949 212.25 71.0949 211.29V203.73C71.0949 202.56 72.1449 201.66 73.4349 201.66C74.7249 201.66 75.7749 202.56 75.7749 203.73C75.7749 203.76 75.7749 203.79 75.7749 203.82V203.94V211.2C75.7749 212.22 76.5549 213 77.5749 213C78.5349 213 79.3449 212.22 79.3449 211.2V203.94C79.3449 203.91 79.3449 203.88 79.3449 203.82V203.73C79.3449 202.56 80.3949 201.66 81.7149 201.66C82.9449 201.66 83.9949 202.56 83.9949 203.73C83.9949 203.76 83.9949 203.79 83.9949 203.82V203.94V211.2C83.9949 212.22 84.8349 213 85.8249 213C86.8149 213 87.5949 212.22 87.5949 211.2V203.94C87.5949 203.91 87.5949 203.88 87.5949 203.82V203.73Z" fill="#005141"/>
<path d="M20.9 18.4C22.3 16.55 23.15 14.25 23.15 11.8C23.15 5.8 18.35 1.15 12.2 1.15H4.2V1.35C2.6 1.35 1.25 2.65 1.25 4.3V35.85C1.25 37.4 2.5 38.7 4.05 38.8V39.1H15.4C21.35 39.1 26.35 33.85 26.35 27.65C26.35 23.8 24.15 20.35 20.9 18.4ZM17.25 11.8C17.25 14.35 15.3 16.45 12.85 16.8H7.15V7.05H12.2C15.1 7.05 17.25 9.1 17.25 11.8ZM15.4 33.2H7.15V22.7H12.2H13.15H15C17.9 22.7 20.45 25 20.45 27.65C20.45 30.55 18.05 33.2 15.4 33.2ZM53.0957 26.35C53.2957 25.85 53.4957 25.35 53.4957 24.9C53.5957 23.25 52.6957 21.4 51.8957 20C50.0957 17 47.1957 14.9 43.7957 14.25C43.0457 14.1 42.3457 14.05 41.5957 14.05C34.6457 14.05 29.0957 19.75 29.0957 26.6C29.0957 33.55 34.6457 39.15 41.5957 39.15C44.4457 39.15 48.2957 38.25 51.0457 35.6C52.2457 34.45 52.2957 32.5 51.0957 31.35C49.9457 30.15 48.0457 30.15 46.8457 31.3C45.5457 32.55 43.1957 33.2 41.5957 33.2C38.4957 33.2 35.9457 31 35.2457 28.15H50.6457C51.8457 28.15 52.6957 27.3 53.0957 26.35ZM41.5957 20.1C43.8457 20.1 45.6957 21.2 46.6957 23.1H36.0957C37.2957 21.25 39.2957 20.1 41.5957 20.1ZM91.3941 14C89.7441 14 88.7441 15.3 88.7441 16.85V17.1C86.5941 15.35 84.0941 14.2 81.0941 14.2C74.3941 14.2 68.9941 19.65 68.9941 26.3C68.9941 32.95 74.3941 38.35 81.0941 38.35C84.0941 38.35 86.5941 37.25 88.7441 35.4V36C88.7441 37.55 89.7441 38.85 91.3941 38.85C93.0441 38.85 94.2941 37.55 94.2941 36V16.85C94.2941 15.3 93.0441 14 91.3941 14ZM81.0941 32.5C77.6441 32.5 74.7941 29.75 74.7941 26.3C74.7941 22.85 77.6441 20.05 81.0941 20.05C84.4941 20.05 87.3441 22.85 87.3441 26.3C87.3441 29.75 84.4941 32.5 81.0941 32.5ZM126.118 13.9C123.468 13.9 120.968 14.7 118.968 16.1C118.568 14.9 117.418 14 116.068 14C114.368 14 113.018 15.35 113.018 17V48.8C113.018 50.5 114.368 51.85 116.068 51.85C117.718 51.85 119.068 50.5 119.068 48.8V37.1C121.118 38.4 123.518 39.2 126.118 39.2C133.068 39.2 138.768 33.55 138.768 26.55C138.768 19.55 133.068 13.9 126.118 13.9ZM126.118 33.15C122.468 33.15 119.518 30.2 119.518 26.55C119.518 22.9 122.468 19.95 126.118 19.95C129.718 19.95 132.718 22.9 132.718 26.55C132.718 30.2 129.718 33.15 126.118 33.15ZM163.416 14C161.766 14 160.766 15.3 160.766 16.85V17.1C158.616 15.35 156.116 14.2 153.116 14.2C146.416 14.2 141.016 19.65 141.016 26.3C141.016 32.95 146.416 38.35 153.116 38.35C156.116 38.35 158.616 37.25 160.766 35.4V36C160.766 37.55 161.766 38.85 163.416 38.85C165.066 38.85 166.316 37.55 166.316 36V16.85C166.316 15.3 165.066 14 163.416 14ZM153.116 32.5C149.666 32.5 146.816 29.75 146.816 26.3C146.816 22.85 149.666 20.05 153.116 20.05C156.516 20.05 159.366 22.85 159.366 26.3C159.366 29.75 156.516 32.5 153.116 32.5ZM191.47 17.4C189.22 15.3 186.32 14.1 183.22 14.1C180.92 14.1 178.72 14.8 176.87 15.95C176.47 14.75 175.37 13.9 174.02 13.9C172.37 13.9 171.02 15.2 171.02 16.85V36C171.02 37.65 172.37 39 174.02 39C175.67 39 177.02 37.65 177.02 36V26.55C177.02 23 179.82 20.1 183.22 20.1C184.77 20.1 186.27 20.7 187.37 21.75C188.62 22.9 190.47 22.8 191.62 21.6C192.77 20.4 192.67 18.5 191.47 17.4ZM204.758 32.85C204.408 32.85 203.958 32.9 203.708 32.65C203.358 32.35 203.458 31.75 203.358 31.35V19.45H205.008C206.658 19.45 208.008 18.1 208.008 16.45C208.008 14.8 206.658 13.45 205.008 13.45H203.358V3.9C203.358 2.25 202.008 0.899999 200.358 0.899999C198.708 0.899999 197.358 2.25 197.358 3.9V13.45H195.208C193.558 13.45 192.208 14.8 192.208 16.45C192.208 18.1 193.558 19.45 195.208 19.45H197.358V32.05C197.358 33.6 198.058 35.4 199.058 36.55C200.208 37.85 201.808 38.55 203.458 38.8C203.908 38.85 204.308 38.85 204.758 38.85C206.408 38.85 207.758 37.55 207.758 35.85C207.758 34.2 206.408 32.85 204.758 32.85ZM237.073 38.9C230.173 38.9 224.523 33.3 224.523 26.35C224.523 19.45 230.173 13.8 237.073 13.8C243.973 13.8 249.623 19.45 249.673 26.4C249.623 33.3 243.973 38.9 237.073 38.9ZM237.073 19.95C233.523 19.95 230.673 22.8 230.673 26.35C230.673 29.9 233.523 32.75 237.073 32.75C240.623 32.75 243.473 29.9 243.473 26.35C243.473 22.8 240.623 19.95 237.073 19.95ZM269.897 3.45C268.047 1.75 265.647 0.799997 263.147 0.799997C257.697 0.799997 253.197 5.25 253.197 10.75V23.65C253.197 27.6 253.197 31.6 253.197 35.6V35.7C253.197 37.35 254.597 38.75 256.247 38.75C257.947 38.75 259.347 37.35 259.347 35.7V23H264.097C265.747 23 267.147 21.65 267.147 19.95C267.147 18.3 265.747 16.95 264.097 16.95H259.347V10.75C259.347 8.6 261.047 6.85 263.147 6.85C264.147 6.85 265.047 7.25 265.747 7.9C266.997 9 268.897 8.95 270.047 7.75C271.147 6.55 271.097 4.6 269.897 3.45ZM296.155 38.9C289.255 38.9 283.605 33.3 283.605 26.35C283.605 19.45 289.255 13.8 296.155 13.8C303.055 13.8 308.705 19.45 308.755 26.4C308.705 33.3 303.055 38.9 296.155 38.9ZM296.155 19.95C292.605 19.95 289.755 22.8 289.755 26.35C289.755 29.9 292.605 32.75 296.155 32.75C299.705 32.75 302.555 29.9 302.555 26.35C302.555 22.8 299.705 19.95 296.155 19.95ZM324.129 39.15C317.629 39.15 312.279 33.5 312.279 26.6V17.05C312.279 15.4 313.529 14.05 315.079 14.05C316.679 14.05 318.229 15.4 318.229 17.05V26.6C318.229 30.2 321.229 33.1 324.129 33.1C327.529 33.1 330.079 30.2 330.079 26.6V17.45C330.079 15.75 331.829 14.45 333.179 14.45C334.729 14.45 336.029 15.75 336.029 17.45V26.6C336.029 33.5 330.679 39.15 324.129 39.15ZM360.464 17.4C358.214 15.3 355.314 14.1 352.214 14.1C349.914 14.1 347.714 14.8 345.864 15.95C345.464 14.75 344.364 13.9 343.014 13.9C341.364 13.9 340.014 15.2 340.014 16.85V36C340.014 37.65 341.364 39 343.014 39C344.664 39 346.014 37.65 346.014 36V26.55C346.014 23 348.814 20.1 352.214 20.1C353.764 20.1 355.264 20.7 356.364 21.75C357.614 22.9 359.464 22.8 360.614 21.6C361.764 20.4 361.664 18.5 360.464 17.4ZM33.85 64.05V63.9C33.85 63.85 33.85 63.8 33.85 63.75V63.6C33.8 63.55 33.8 63.5 33.8 63.45C33.8 63.4 33.75 63.35 33.75 63.3C33.75 63.25 33.75 63.2 33.7 63.15C33.7 63.1 33.7 63.1 33.65 63.05C33.65 63 33.65 62.95 33.6 62.9C33.6 62.85 33.55 62.8 33.55 62.75C33.5 62.7 33.5 62.7 33.5 62.65C33.45 62.6 33.4 62.55 33.4 62.5L33.3 62.4C33.3 62.35 33.25 62.3 33.2 62.25C33.2 62.2 33.15 62.2 33.15 62.15C33.1 62.1 33.05 62.1 33.05 62.05L32.95 61.95C32.9 61.9 32.85 61.85 32.8 61.85C32.8 61.8 32.75 61.75 32.7 61.75L32.65 61.7C32.6 61.65 32.6 61.65 32.6 61.65L32.45 61.55C32.4 61.55 32.35 61.5 32.35 61.5L32.2 61.4C32.15 61.4 32.1 61.4 32.05 61.35C32 61.35 31.95 61.3 31.95 61.3C31.9 61.3 31.85 61.25 31.75 61.25C31.75 61.25 31.7 61.25 31.65 61.2C31.6 61.2 31.55 61.2 31.5 61.15H31.35C31.3 61.15 31.25 61.15 31.2 61.1H31.1C31 61.1 30.95 61.1 30.9 61.1H30.85C30.8 61.1 30.8 61.1 30.75 61.1H30.6C30.55 61.1 30.5 61.1 30.45 61.15H30.3C30.25 61.15 30.2 61.15 30.15 61.2H30C29.95 61.25 29.9 61.25 29.85 61.25C29.8 61.3 29.8 61.3 29.75 61.3C29.7 61.35 29.65 61.35 29.6 61.35L29.45 61.45C29.4 61.45 29.4 61.45 29.35 61.5C29.3 61.5 29.25 61.55 29.2 61.6C29.15 61.6 29.15 61.65 29.1 61.65C29.05 61.7 29 61.7 28.95 61.75L28.85 61.85C28.8 61.85 28.8 61.9 28.75 61.95C28.7 62 28.65 62 28.65 62.05C28.6 62.1 28.55 62.1 28.55 62.15C28.5 62.2 28.45 62.25 28.45 62.3C28.4 62.3 28.4 62.3 28.4 62.35L17.55 77.2L6.75 62.35C6.7 62.3 6.7 62.3 6.65 62.3C6.65 62.25 6.6 62.2 6.55 62.15C6.55 62.1 6.5 62.1 6.45 62.05C6.45 62 6.4 62 6.4 61.95C6.35 61.9 6.3 61.85 6.25 61.85C6.2 61.8 6.2 61.8 6.15 61.75L6 61.65C6 61.65 5.95 61.6 5.9 61.6C5.85 61.55 5.8 61.5 5.75 61.5C5.75 61.45 5.7 61.45 5.65 61.45L5.5 61.35C5.45 61.35 5.45 61.35 5.4 61.3C5.35 61.3 5.3 61.3 5.25 61.25C5.2 61.25 5.15 61.25 5.1 61.2H4.95C4.9 61.15 4.85 61.15 4.8 61.15H4.65C4.6 61.1 4.55 61.1 4.55 61.1H4.35C4.3 61.1 4.3 61.1 4.25 61.1C4.15 61.1 4.1 61.1 4.05 61.1H3.95C3.85 61.15 3.8 61.15 3.75 61.15H3.65C3.55 61.2 3.5 61.2 3.45 61.2C3.4 61.25 3.4 61.25 3.35 61.25C3.3 61.25 3.25 61.3 3.2 61.3C3.15 61.3 3.1 61.35 3.05 61.35C3 61.4 2.95 61.4 2.9 61.4C2.9 61.45 2.85 61.45 2.8 61.5C2.75 61.5 2.7 61.55 2.65 61.55C2.6 61.6 2.55 61.6 2.55 61.65C2.5 61.65 2.5 61.65 2.5 61.7C2.45 61.7 2.45 61.7 2.4 61.75L2.3 61.85C2.25 61.85 2.2 61.9 2.2 61.95C2.15 61.95 2.1 62 2.1 62.05L1.95 62.15C1.95 62.2 1.9 62.2 1.9 62.25C1.85 62.3 1.8 62.35 1.8 62.4L1.7 62.5C1.7 62.55 1.65 62.6 1.65 62.65L1.55 62.75C1.55 62.8 1.55 62.85 1.5 62.9C1.5 62.95 1.45 63 1.45 63.05C1.45 63.1 1.4 63.1 1.4 63.15C1.4 63.2 1.35 63.25 1.35 63.3C1.35 63.35 1.35 63.4 1.3 63.45V63.6C1.3 63.65 1.25 63.7 1.25 63.75V63.9C1.25 63.95 1.25 64 1.25 64.05V64.15V96C1.25 97.7 2.6 99.05 4.25 99.05C5.95 99.05 7.3 97.7 7.3 96V73.45L15.1 84.15C15.7 84.9 16.6 85.4 17.55 85.4C18.55 85.4 19.45 84.9 20 84.15L27.8 73.45V96C27.8 97.7 29.15 99.05 30.85 99.05C32.5 99.05 33.9 97.7 33.9 96V64.15C33.9 64.1 33.85 64.1 33.85 64.05ZM59.3141 74C57.6641 74 56.6641 75.3 56.6641 76.85V77.1C54.5141 75.35 52.0141 74.2 49.0141 74.2C42.3141 74.2 36.9141 79.65 36.9141 86.3C36.9141 92.95 42.3141 98.35 49.0141 98.35C52.0141 98.35 54.5141 97.25 56.6641 95.4V96C56.6641 97.55 57.6641 98.85 59.3141 98.85C60.9641 98.85 62.2141 97.55 62.2141 96V76.85C62.2141 75.3 60.9641 74 59.3141 74ZM49.0141 92.5C45.5641 92.5 42.7141 89.75 42.7141 86.3C42.7141 82.85 45.5641 80.05 49.0141 80.05C52.4141 80.05 55.2641 82.85 55.2641 86.3C55.2641 89.75 52.4141 92.5 49.0141 92.5ZM87.368 77.4C85.118 75.3 82.218 74.1 79.118 74.1C76.818 74.1 74.618 74.8 72.768 75.95C72.368 74.75 71.268 73.9 69.918 73.9C68.268 73.9 66.918 75.2 66.918 76.85V96C66.918 97.65 68.268 99 69.918 99C71.568 99 72.918 97.65 72.918 96V86.55C72.918 83 75.718 80.1 79.118 80.1C80.668 80.1 82.168 80.7 83.268 81.75C84.518 82.9 86.368 82.8 87.518 81.6C88.668 80.4 88.568 78.5 87.368 77.4ZM110.757 93.6L101.457 85.05L109.807 79.4C111.157 78.4 111.507 76.5 110.507 75.15C109.557 73.75 107.657 73.45 106.257 74.4L96.4066 81.2V64.3C96.4066 62.6 95.0566 61.25 93.3566 61.25C91.6566 61.25 90.3066 62.6 90.3066 64.3V96.15C90.3066 97.85 91.6566 99.2 93.3566 99.2C95.0566 99.2 96.4066 97.85 96.4066 96.15V88.7L106.607 98.1C107.207 98.65 107.907 98.9 108.657 98.9C109.457 98.9 110.307 98.55 110.907 97.95C112.057 96.65 111.957 94.75 110.757 93.6ZM136.445 86.35C136.645 85.85 136.845 85.35 136.845 84.9C136.945 83.25 136.045 81.4 135.245 80C133.445 77 130.545 74.9 127.145 74.25C126.395 74.1 125.695 74.05 124.945 74.05C117.995 74.05 112.445 79.75 112.445 86.6C112.445 93.55 117.995 99.15 124.945 99.15C127.795 99.15 131.645 98.25 134.395 95.6C135.595 94.45 135.645 92.5 134.445 91.35C133.295 90.15 131.395 90.15 130.195 91.3C128.895 92.55 126.545 93.2 124.945 93.2C121.845 93.2 119.295 91 118.595 88.15H133.995C135.195 88.15 136.045 87.3 136.445 86.35ZM124.945 80.1C127.195 80.1 129.045 81.2 130.045 83.1H119.445C120.645 81.25 122.645 80.1 124.945 80.1ZM149.924 92.85C149.574 92.85 149.124 92.9 148.874 92.65C148.524 92.35 148.624 91.75 148.524 91.35V79.45H150.174C151.824 79.45 153.174 78.1 153.174 76.45C153.174 74.8 151.824 73.45 150.174 73.45H148.524V63.9C148.524 62.25 147.174 60.9 145.524 60.9C143.874 60.9 142.524 62.25 142.524 63.9V73.45H140.374C138.724 73.45 137.374 74.8 137.374 76.45C137.374 78.1 138.724 79.45 140.374 79.45H142.524V92.05C142.524 93.6 143.224 95.4 144.224 96.55C145.374 97.85 146.974 98.55 148.624 98.8C149.074 98.85 149.474 98.85 149.924 98.85C151.574 98.85 152.924 97.55 152.924 95.85C152.924 94.2 151.574 92.85 149.924 92.85ZM160.07 69.65C158.32 69.65 156.92 68.25 156.92 66.6V66.35C156.92 64.6 158.32 63.25 160.07 63.25C161.72 63.25 163.12 64.6 163.12 66.35V66.6C163.12 68.25 161.72 69.65 160.07 69.65ZM160.07 99C158.32 99 156.92 97.6 156.92 95.9V76.6C156.92 74.9 158.32 73.55 160.07 73.55C161.72 73.55 163.12 74.9 163.12 76.6V95.9C163.12 97.6 161.72 99 160.07 99ZM179.502 74.05C177.252 74.05 175.202 74.7 173.402 75.85C173.002 74.65 171.902 73.8 170.602 73.8C168.952 73.8 167.602 75.15 167.602 76.8V95.9C167.602 97.55 168.952 98.9 170.602 98.9C172.252 98.9 173.602 97.55 173.602 95.9V87.4C173.602 83.95 175.602 80.05 179.502 80.05C182.652 80.05 185.252 82.9 185.252 86.45V95.9C185.252 97.55 186.552 98.9 188.252 98.9C189.902 98.9 191.202 97.55 191.202 95.9V86.45C191.202 79.6 185.952 74.05 179.502 74.05ZM216.645 73.65C215.295 73.65 214.195 74.55 213.745 75.75C211.845 74.55 209.595 73.9 207.245 73.9C200.345 73.9 194.695 79.5 194.695 86.4C194.695 93.3 200.345 98.9 207.245 98.9C209.545 98.9 211.745 98.25 213.595 97.15V99.35C213.595 103.1 210.595 106.1 206.845 106.1C204.895 106.1 202.995 105.3 201.745 103.8C200.645 102.5 198.695 102.35 197.445 103.5C196.145 104.55 196.045 106.5 197.095 107.8C199.545 110.65 203.095 112.25 206.845 112.25C213.945 112.25 219.695 106.45 219.695 99.35V76.7C219.695 75.05 218.345 73.65 216.645 73.65ZM207.245 92.8C203.695 92.8 200.845 89.9 200.845 86.4C200.845 82.85 203.695 80 207.245 80C210.745 80 213.595 82.85 213.595 86.4C213.595 89.9 210.745 92.8 207.245 92.8ZM257.505 99C247.055 99 238.555 90.45 238.555 80C238.555 69.55 247.055 61.05 257.505 61.05C262.205 61.05 266.705 62.75 270.205 65.9C271.455 67 271.555 68.9 270.405 70.15C269.305 71.35 267.405 71.45 266.205 70.35C263.805 68.2 260.705 67.05 257.505 67.05C250.355 67.05 244.555 72.85 244.555 80C244.555 87.15 250.355 92.95 257.505 92.95C260.805 92.95 263.955 91.75 266.355 89.5C267.555 88.35 269.455 88.45 270.605 89.65C271.705 90.85 271.655 92.75 270.455 93.9C266.905 97.15 262.305 99 257.505 99ZM287.464 98.9C280.564 98.9 274.914 93.3 274.914 86.35C274.914 79.45 280.564 73.8 287.464 73.8C294.364 73.8 300.014 79.45 300.064 86.4C300.014 93.3 294.364 98.9 287.464 98.9ZM287.464 79.95C283.914 79.95 281.064 82.8 281.064 86.35C281.064 89.9 283.914 92.75 287.464 92.75C291.014 92.75 293.864 89.9 293.864 86.35C293.864 82.8 291.014 79.95 287.464 79.95ZM337.088 83.55C337.088 78.35 332.638 74.1 327.288 74.1C324.538 74.1 322.138 75.1 320.388 76.8C318.538 75.1 316.138 74.1 313.488 74.1C311.838 74.1 310.288 74.5 308.888 75.2C308.438 74.5 307.538 74 306.588 74C304.988 74 303.588 75.4 303.588 77.05V96.15C303.588 97.75 304.988 99.1 306.588 99.1C308.288 99.1 309.588 97.75 309.588 96.15V83.55C309.588 81.6 311.338 80.1 313.488 80.1C315.638 80.1 317.388 81.6 317.388 83.55C317.388 83.6 317.388 83.65 317.388 83.7V83.9V96C317.388 97.7 318.688 99 320.388 99C321.988 99 323.338 97.7 323.338 96V83.9C323.338 83.85 323.338 83.8 323.338 83.7V83.55C323.338 81.6 325.088 80.1 327.288 80.1C329.338 80.1 331.088 81.6 331.088 83.55C331.088 83.6 331.088 83.65 331.088 83.7V83.9V96C331.088 97.7 332.488 99 334.138 99C335.788 99 337.088 97.7 337.088 96V83.9C337.088 83.85 337.088 83.8 337.088 83.7V83.55ZM374.832 83.55C374.832 78.35 370.382 74.1 365.032 74.1C362.282 74.1 359.882 75.1 358.132 76.8C356.282 75.1 353.882 74.1 351.232 74.1C349.582 74.1 348.032 74.5 346.632 75.2C346.182 74.5 345.282 74 344.332 74C342.732 74 341.332 75.4 341.332 77.05V96.15C341.332 97.75 342.732 99.1 344.332 99.1C346.032 99.1 347.332 97.75 347.332 96.15V83.55C347.332 81.6 349.082 80.1 351.232 80.1C353.382 80.1 355.132 81.6 355.132 83.55C355.132 83.6 355.132 83.65 355.132 83.7V83.9V96C355.132 97.7 356.432 99 358.132 99C359.732 99 361.082 97.7 361.082 96V83.9C361.082 83.85 361.082 83.8 361.082 83.7V83.55C361.082 81.6 362.832 80.1 365.032 80.1C367.082 80.1 368.832 81.6 368.832 83.55C368.832 83.6 368.832 83.65 368.832 83.7V83.9V96C368.832 97.7 370.232 99 371.882 99C373.532 99 374.832 97.7 374.832 96V83.9C374.832 83.85 374.832 83.8 374.832 83.7V83.55ZM390.926 99.15C384.426 99.15 379.076 93.5 379.076 86.6V77.05C379.076 75.4 380.326 74.05 381.876 74.05C383.476 74.05 385.026 75.4 385.026 77.05V86.6C385.026 90.2 388.026 93.1 390.926 93.1C394.326 93.1 396.876 90.2 396.876 86.6V77.45C396.876 75.75 398.626 74.45 399.976 74.45C401.526 74.45 402.826 75.75 402.826 77.45V86.6C402.826 93.5 397.476 99.15 390.926 99.15ZM418.711 74.05C416.461 74.05 414.411 74.7 412.611 75.85C412.211 74.65 411.111 73.8 409.811 73.8C408.161 73.8 406.811 75.15 406.811 76.8V95.9C406.811 97.55 408.161 98.9 409.811 98.9C411.461 98.9 412.811 97.55 412.811 95.9V87.4C412.811 83.95 414.811 80.05 418.711 80.05C421.861 80.05 424.461 82.9 424.461 86.45V95.9C424.461 97.55 425.761 98.9 427.461 98.9C429.111 98.9 430.411 97.55 430.411 95.9V86.45C430.411 79.6 425.161 74.05 418.711 74.05ZM437.804 69.65C436.054 69.65 434.654 68.25 434.654 66.6V66.35C434.654 64.6 436.054 63.25 437.804 63.25C439.454 63.25 440.854 64.6 440.854 66.35V66.6C440.854 68.25 439.454 69.65 437.804 69.65ZM437.804 99C436.054 99 434.654 97.6 434.654 95.9V76.6C434.654 74.9 436.054 73.55 437.804 73.55C439.454 73.55 440.854 74.9 440.854 76.6V95.9C440.854 97.6 439.454 99 437.804 99ZM455.686 92.85C455.336 92.85 454.886 92.9 454.636 92.65C454.286 92.35 454.386 91.75 454.286 91.35V79.45H455.936C457.586 79.45 458.936 78.1 458.936 76.45C458.936 74.8 457.586 73.45 455.936 73.45H454.286V63.9C454.286 62.25 452.936 60.9 451.286 60.9C449.636 60.9 448.286 62.25 448.286 63.9V73.45H446.136C444.486 73.45 443.136 74.8 443.136 76.45C443.136 78.1 444.486 79.45 446.136 79.45H448.286V92.05C448.286 93.6 448.986 95.4 449.986 96.55C451.136 97.85 452.736 98.55 454.386 98.8C454.836 98.85 455.236 98.85 455.686 98.85C457.336 98.85 458.686 97.55 458.686 95.85C458.686 94.2 457.336 92.85 455.686 92.85ZM481.732 74.1C480.182 74.1 478.832 75.45 478.832 77.1V86.15C478.832 89.6 476.282 92.45 473.132 92.45C470.032 92.45 467.482 89.6 467.482 86.15V77.2C467.482 75.6 466.182 74.2 464.582 74.2C462.982 74.2 461.682 75.6 461.682 77.2V86.15C461.682 92.95 466.832 98.45 473.132 98.45C475.232 98.45 477.182 97.85 478.832 96.9V98.95C478.832 102.6 475.932 105.6 472.382 105.6C470.532 105.6 468.732 104.75 467.482 103.3C466.432 102 464.582 101.85 463.382 102.95C462.182 104.05 462.032 105.95 463.082 107.2C465.432 110 468.782 111.6 472.382 111.6C479.132 111.6 484.682 105.9 484.682 98.95V77.1C484.682 75.45 483.382 74.1 481.732 74.1Z" fill="#005141"/>
</svg>
