<svg width="37" height="37" viewBox="0 0 37 37" fill="none" xmlns="http://www.w3.org/2000/svg">
<g clip-path="url(#clip0)">
<path d="M26.4911 0.275391H20.3552V25.0753C20.3552 28.0302 17.9953 30.4575 15.0585 30.4575C12.1216 30.4575 9.76171 28.0302 9.76171 25.0753C9.76171 22.1732 12.0692 19.7987 14.9012 19.6932V13.4669C8.66039 13.5724 3.62584 18.6907 3.62584 25.0753C3.62584 31.5128 8.76528 36.6838 15.111 36.6838C21.4565 36.6838 26.596 31.46 26.596 25.0753V12.3587C28.9035 14.0473 31.7354 15.0498 34.7247 15.1026V8.87622C30.1097 8.71793 26.4911 4.91878 26.4911 0.275391Z" fill="white"/>
</g>
<defs>
<clipPath id="clip0">
<rect width="36.4084" height="36.4084" fill="white" transform="translate(0.591797 0.275391)"/>
</clipPath>
</defs>
</svg>
