<svg width="37" height="37" viewBox="0 0 37 37" fill="none" xmlns="http://www.w3.org/2000/svg">
<g clip-path="url(#clip0)">
<path d="M11.4537 33.0292C25.1894 33.0292 32.7043 21.6466 32.7043 11.7787C32.7043 11.4587 32.6972 11.1315 32.683 10.8116C34.1448 9.75434 35.4064 8.44484 36.4084 6.94458C35.0469 7.55033 33.6014 7.94594 32.1212 8.1179C33.6797 7.18368 34.8467 5.71606 35.4058 3.9871C33.9396 4.85604 32.3361 5.469 30.6641 5.7997C29.5376 4.6027 28.0481 3.81014 26.426 3.54457C24.8038 3.27899 23.1394 3.55518 21.6899 4.33045C20.2405 5.10572 19.0868 6.33687 18.4073 7.83357C17.7277 9.33027 17.5601 11.0092 17.9304 12.6106C14.9616 12.4617 12.0572 11.6904 9.40548 10.3469C6.7538 9.00347 4.41406 7.11773 2.53792 4.81198C1.58437 6.45602 1.29259 8.40144 1.72186 10.2529C2.15114 12.1043 3.26927 13.7228 4.84901 14.7795C3.66303 14.7418 2.50304 14.4225 1.46487 13.848V13.9404C1.46381 15.6657 2.06026 17.3381 3.15283 18.6734C4.24541 20.0086 5.76668 20.9243 7.45804 21.2648C6.35942 21.5653 5.20638 21.6091 4.08813 21.3927C4.5654 22.8765 5.49399 24.1742 6.74431 25.1049C7.99464 26.0355 9.5043 26.5525 11.0626 26.5838C8.41706 28.6619 5.14902 29.7891 1.78487 29.7838C1.18826 29.7828 0.592242 29.7463 0 29.6742C3.41762 31.8668 7.39323 33.0313 11.4537 33.0292Z" fill="white"/>
</g>
<defs>
<clipPath id="clip0">
<rect width="36.4084" height="36.4084" fill="white" transform="translate(0 0.0341797)"/>
</clipPath>
</defs>
</svg>
