<svg width="37" height="31" viewBox="0 0 37 31" fill="none" xmlns="http://www.w3.org/2000/svg">
<path d="M11.4537 30.0293C25.1894 30.0293 32.7043 18.6467 32.7043 8.77877C32.7043 8.45878 32.6972 8.13167 32.683 7.81167C34.1448 6.75447 35.4064 5.44496 36.4084 3.9447C35.0469 4.55045 33.6014 4.94606 32.1212 5.11802C33.6797 4.1838 34.8467 2.71618 35.4058 0.987227C33.9396 1.85616 32.3361 2.46912 30.6641 2.79983C29.5376 1.60282 28.0481 0.810266 26.426 0.544689C24.8038 0.279112 23.1394 0.555307 21.6899 1.33057C20.2405 2.10584 19.0868 3.33699 18.4073 4.83369C17.7277 6.33039 17.5601 8.00927 17.9304 9.61076C14.9616 9.46178 12.0572 8.69055 9.40548 7.34707C6.7538 6.00359 4.41406 4.11785 2.53792 1.81211C1.58437 3.45614 1.29258 5.40156 1.72186 7.253C2.15114 9.10444 3.26927 10.723 4.84901 11.7796C3.66303 11.742 2.50304 11.4227 1.46487 10.8481V10.9405C1.46381 12.6658 2.06026 14.3382 3.15283 15.6735C4.24541 17.0087 5.76668 17.9244 7.45804 18.2649C6.35942 18.5655 5.20638 18.6093 4.08813 18.3929C4.5654 19.8766 5.49399 21.1744 6.74431 22.105C7.99464 23.0356 9.5043 23.5526 11.0626 23.5839C8.41706 25.662 5.14902 26.7892 1.78487 26.7839C1.18826 26.783 0.592242 26.7464 0 26.6744C3.41762 28.867 7.39323 30.0315 11.4537 30.0293Z" fill="white"/>
</svg>
