<svg width="38" height="37" viewBox="0 0 38 37" fill="none" xmlns="http://www.w3.org/2000/svg">
<g clip-path="url(#clip0)">
<path d="M36.7831 10.9569C36.7831 10.9569 36.4275 8.44671 35.3324 7.34451C33.9458 5.89386 32.3956 5.88675 31.6845 5.80141C26.593 5.43164 18.9486 5.43164 18.9486 5.43164H18.9344C18.9344 5.43164 11.2901 5.43164 6.19857 5.80141C5.48747 5.88675 3.93726 5.89386 2.55062 7.34451C1.45552 8.44671 1.10708 10.9569 1.10708 10.9569C1.10708 10.9569 0.737305 13.908 0.737305 16.8519V19.611C0.737305 22.555 1.09997 25.5061 1.09997 25.5061C1.09997 25.5061 1.45552 28.0162 2.5435 29.1185C3.93015 30.5691 5.75058 30.5193 6.56123 30.6758C9.47675 30.9531 18.9415 31.0384 18.9415 31.0384C18.9415 31.0384 26.593 31.0242 31.6845 30.6615C32.3956 30.5762 33.9458 30.5691 35.3324 29.1185C36.4275 28.0162 36.7831 25.5061 36.7831 25.5061C36.7831 25.5061 37.1457 22.5621 37.1457 19.611V16.8519C37.1457 13.908 36.7831 10.9569 36.7831 10.9569ZM15.1798 22.9603V12.7275L25.0143 17.8617L15.1798 22.9603Z" fill="white"/>
</g>
<defs>
<clipPath id="clip0">
<rect width="36.4084" height="36.4084" fill="white" transform="translate(0.737305 0.0341797)"/>
</clipPath>
</defs>
</svg>
